<svg width="75" height="86" viewBox="0 0 75 86" fill="none" xmlns="http://www.w3.org/2000/svg">
<path d="M73.4 60.73C73.03 59.75 71.93 59.26 70.95 59.63C69.97 60 69.48 61.1 69.85 62.08C70.48 63.74 70.8 65.48 70.8 67.27C70.8 75.36 64.22 81.94 56.13 81.94C48.04 81.94 41.46 75.36 41.46 67.27C41.46 59.18 48.04 52.6 56.13 52.6C58.14 52.6 60.14 53.02 61.98 53.81L60.2 54.03C59.16 54.16 58.42 55.1 58.55 56.14C58.67 57.1 59.49 57.81 60.43 57.81C60.51 57.81 60.58 57.81 60.66 57.8L67.33 56.98C67.85 56.91 68.32 56.64 68.63 56.21C68.94 55.78 69.06 55.25 68.96 54.73L67.67 48.14C67.47 47.11 66.47 46.44 65.44 46.64C64.41 46.84 63.74 47.84 63.94 48.87L64.3 50.71C62.34 49.74 60.21 49.13 58.03 48.91V17.83C58.03 13.33 54.36 9.66 49.86 9.66H36.46V1.9C36.46 0.85 35.61 0 34.56 0H24.47C23.42 0 22.57 0.85 22.57 1.9V17.96H20.74C19.69 17.96 18.84 18.81 18.84 19.86C18.84 20.91 19.69 21.76 20.74 21.76H38.25C39.3 21.76 40.15 20.91 40.15 19.86C40.15 18.81 39.3 17.96 38.25 17.96H36.45V13.45H49.85C52.26 13.45 54.23 15.41 54.23 17.83V48.91C50.39 49.3 46.89 50.88 44.11 53.27C42.54 50.33 39.94 48.12 36.86 47.01C38.88 45.13 40.15 42.46 40.15 39.49C40.15 33.84 35.55 29.23 29.9 29.23C24.25 29.23 19.64 33.83 19.64 39.49C19.64 42.46 20.91 45.14 22.94 47.01C17.81 48.86 14.12 53.77 14.12 59.53V65.43C14.12 66.48 14.97 67.33 16.02 67.33H29.9C30.95 67.33 31.8 66.48 31.8 65.43C31.8 64.38 30.95 63.53 29.9 63.53H17.92V59.53C17.92 54.29 22.19 50.02 27.43 50.02H32.37C36.38 50.02 39.94 52.52 41.3 56.27C39.02 59.34 37.66 63.15 37.66 67.26C37.66 70.58 38.54 73.7 40.08 76.4H8.17C5.76 76.4 3.79 74.44 3.79 72.02V17.83C3.79 15.42 5.75 13.45 8.17 13.45H10.73C11.78 13.45 12.63 12.6 12.63 11.55C12.63 10.5 11.78 9.65 10.73 9.65H8.17C3.67 9.66 0 13.32 0 17.83V72.03C0 76.53 3.67 80.2 8.17 80.2H42.97C46.32 83.61 50.98 85.73 56.13 85.73C66.31 85.73 74.59 77.45 74.59 67.27C74.59 65.02 74.19 62.82 73.4 60.73ZM26.37 3.79H32.66V17.85H26.37V3.79ZM29.9 33.02C33.46 33.02 36.36 35.92 36.36 39.48C36.36 43.04 33.46 45.94 29.9 45.94C26.34 45.94 23.44 43.04 23.44 39.48C23.44 35.92 26.34 33.02 29.9 33.02Z" fill="#F09F54"/>
</svg>
