<svg width="79" height="80" viewBox="0 0 79 80" fill="none" xmlns="http://www.w3.org/2000/svg">
<path fill-rule="evenodd" clip-rule="evenodd" d="M77.925 26.2639L77.925 26.2639L77.925 26.2638C77.9972 26.0311 78.0693 25.7986 78.1497 25.5702V25.5502V23.5702C78.0797 23.3302 78.0097 23.0902 77.9497 22.8502C77.1397 19.5902 74.3298 17.4002 70.8698 17.3602C69.6991 17.347 68.5285 17.3513 67.3203 17.3557H67.3199H67.3196H67.3194C66.701 17.3579 66.0728 17.3602 65.4297 17.3602V7.51023C65.4297 3.66023 64.4597 2.26023 60.9097 0.990234H26.3897C26.1821 1.07533 25.9698 1.15 25.7581 1.2245L25.758 1.2245C25.3477 1.36886 24.9391 1.51257 24.5697 1.73023C22.6397 2.87023 21.8797 4.64023 21.8797 6.85023C21.8897 29.0002 21.8897 51.1502 21.8897 73.3002C21.8897 73.6002 21.8897 73.9102 21.9197 74.2102C22.1497 76.9602 24.3697 79.1202 27.1197 79.1202C34.4601 79.1336 41.8049 79.1291 49.1483 79.1247H49.1494H49.1505C52.8209 79.1225 56.4909 79.1202 60.1597 79.1202C61.4797 79.1202 62.6497 78.6402 63.6297 77.7502C64.9697 76.5402 65.4197 74.9902 65.4197 73.2302V32.8002V31.6902C66.0657 31.6902 66.7003 31.6964 67.327 31.7024C68.6602 31.7153 69.9573 31.7279 71.2497 31.6802C74.0597 31.5702 76.1097 30.1802 77.3897 27.7002C77.6204 27.2458 77.7728 26.7545 77.925 26.2639ZM60.8397 16.4802V17.3702L60.8497 17.3802C60.2585 17.3802 59.677 17.3725 59.1022 17.3648H59.102H59.1018C57.8293 17.3479 56.5895 17.3314 55.3497 17.4002C53.8497 17.4802 52.7697 17.1002 51.6397 15.9702C48.1097 12.4502 42.5697 11.8002 38.1497 14.1402C33.7997 16.4502 31.2397 21.4202 31.9897 26.1202C32.8197 31.3302 36.5497 35.2802 41.5397 36.1202C45.9597 36.8602 49.6597 35.4802 52.6597 32.1702C52.8497 31.9702 53.1397 31.7302 53.3797 31.7302C55.0869 31.7088 56.794 31.7129 58.5012 31.717C59.184 31.7186 59.8669 31.7202 60.5497 31.7202C60.591 31.7202 60.6288 31.7341 60.6876 31.7558L60.6877 31.7558C60.7287 31.7709 60.7799 31.7897 60.8497 31.8102V32.6102V73.2002C60.8497 74.4102 60.6897 74.5602 59.4897 74.5602H27.8197C26.6297 74.5602 26.4797 74.4102 26.4797 73.2602V6.88023C26.4797 5.72023 26.6297 5.58023 27.8097 5.58023H59.4797C60.6897 5.58023 60.8397 5.73023 60.8397 6.94023V16.4802ZM63.8104 27.1415C63.0097 27.1409 62.2094 27.1402 61.4097 27.1402H61.3897C60.4904 27.1402 59.591 27.1429 58.6916 27.1456L58.6897 27.1456C56.5897 27.1519 54.4897 27.1582 52.3897 27.1302C51.1597 27.1102 50.2897 27.5302 49.5897 28.5802C47.7897 31.3002 44.4797 32.4102 41.4197 31.4002C38.2997 30.3602 36.3497 27.5202 36.4697 24.1502C36.5797 21.0802 38.8297 18.3702 41.9197 17.5802C44.8397 16.8302 47.8997 17.9602 49.5897 20.5202C50.2797 21.5702 51.1397 21.9802 52.3797 21.9802C57.4214 21.9552 62.4631 21.965 67.5047 21.9747C68.5131 21.9766 69.5214 21.9786 70.5297 21.9802C71.0097 21.9802 71.5097 22.0302 71.9497 22.1902C73.0897 22.6002 73.7597 23.8502 73.5397 25.0102C73.3097 26.2402 72.3097 27.1302 71.0197 27.1302C68.6197 27.1452 66.2139 27.1434 63.8111 27.1415H63.8104ZM15.04 21.6402C6.31 23.4402 0.03 31.0902 0 41.0102C0.13 46.0702 2.47 51.0802 7.25 54.9002C9.55 56.7402 12.18 57.9002 15.06 58.5002C16.74 58.8502 18.07 57.9702 18.16 56.4602C18.23 55.2002 17.4 54.3302 15.87 53.9702C10.41 52.6802 6.73 49.3802 5.17 44.0002C3.62 38.6402 4.97 33.8902 8.86 29.9102C10.79 27.9302 13.17 26.7102 15.88 26.1602C16.74 25.9902 17.49 25.6802 17.9 24.8402C18.32 23.9802 18.24 23.1602 17.66 22.4102C16.98 21.5402 16.06 21.4302 15.04 21.6402ZM9.16995 39.5203C9.33995 36.1203 11.0599 33.1603 14.6299 31.3903C15.9899 30.7103 17.3699 31.1303 17.9399 32.3503C18.5099 33.5403 17.9899 34.8103 16.6499 35.4903C13.3199 37.2003 12.7099 41.4903 15.4699 43.8803C15.8671 44.2179 16.3432 44.4766 16.8003 44.725L16.8099 44.7303C18.0099 45.3903 18.4799 46.6803 17.9099 47.8203C17.3499 48.9603 16.0299 49.3903 14.7899 48.8403C11.3399 47.3103 9.14995 43.8903 9.15995 39.5203H9.16995ZM45.9544 61.1095C45.9522 60.3806 45.95 59.6509 45.95 58.9202C46.21 58.8202 46.42 58.7402 46.63 58.6602C50.32 57.1902 52.43 53.2002 51.54 49.3802C50.65 45.5602 47.29 42.9902 43.35 43.1002C39.65 43.2102 36.37 46.0102 35.73 49.6102C35.04 53.5402 37.08 57.2402 40.78 58.6702C41.23 58.8402 41.38 59.0402 41.38 59.5302C41.36 61.4871 41.3699 63.4341 41.3799 65.391L41.38 65.4002C41.39 66.4702 41.97 67.3202 42.89 67.6502C44.39 68.2002 45.93 67.1202 45.95 65.4702C45.9633 64.0176 45.9589 62.565 45.9544 61.1095ZM40.16 51.1802C40.14 49.2602 41.7 47.6802 43.63 47.6702V47.6602C45.56 47.6502 47.14 49.1902 47.16 51.1102C47.17 53.0302 45.61 54.6202 43.69 54.6402C41.78 54.6702 40.18 53.0902 40.16 51.1802Z" fill="#F09F54"/>
</svg>
