<svg width="134" height="118" viewBox="0 0 134 118" fill="none" xmlns="http://www.w3.org/2000/svg">
<path fill-rule="evenodd" clip-rule="evenodd" d="M90.6947 5.04114L69.3447 39.2211C69.0953 39.6178 68.7495 39.9447 68.3394 40.1713C67.9292 40.3979 67.4683 40.5167 66.9998 40.5167C66.5312 40.5167 66.0703 40.3979 65.6602 40.1713C65.25 39.9447 64.9042 39.6178 64.6548 39.2211C62.2848 35.4811 58.7347 29.8211 56.7147 26.5411C56.6446 26.3572 56.536 26.1903 56.396 26.0518C56.256 25.9133 56.088 25.8064 55.9033 25.7382C55.7186 25.67 55.5215 25.6421 55.3251 25.6564C55.1287 25.6707 54.9377 25.7269 54.7648 25.8211C39.6648 30.8945 29.9981 40.8945 25.7648 55.8211L25.6648 56.2011C25.4193 57.1199 24.8415 57.915 24.0435 58.4323C23.2454 58.9495 22.2837 59.1522 21.3447 59.0011H21.2347C20.7008 58.9141 20.1912 58.7154 19.7391 58.4182C19.2871 58.121 18.9028 57.7318 18.6112 57.2761C18.3197 56.8204 18.1275 56.3083 18.0471 55.7733C17.9667 55.2383 18 54.6924 18.1448 54.1711C22.9948 36.7611 34.1447 25.0111 51.5947 18.5911L43.2047 5.13114C42.9421 4.71173 42.7966 4.22962 42.7835 3.73496C42.7703 3.24029 42.8899 2.75114 43.1298 2.31833C43.3696 1.88552 43.7211 1.52485 44.1476 1.27387C44.5741 1.02288 45.06 0.890716 45.5548 0.891114H88.2948C88.7804 0.891425 89.2573 1.0194 89.6779 1.26218C90.0984 1.50496 90.4478 1.85402 90.6909 2.27439C90.934 2.69475 91.0623 3.17163 91.063 3.65723C91.0637 4.14283 90.9366 4.6201 90.6947 5.04114ZM55.8547 10.5811L65.8547 26.5811C65.9706 26.7671 66.1319 26.9206 66.3235 27.0269C66.5151 27.1333 66.7306 27.1891 66.9497 27.1891C67.1689 27.1891 67.3845 27.1333 67.5761 27.0269C67.7676 26.9206 67.929 26.7671 68.0448 26.5811L78.0448 10.5811C78.1741 10.385 78.2474 10.1573 78.2568 9.92261C78.2663 9.68789 78.2114 9.45507 78.0982 9.24924C77.9849 9.04341 77.8178 8.87241 77.6145 8.75467C77.4112 8.63693 77.1796 8.57691 76.9447 8.58112H56.9447C56.7107 8.57876 56.4805 8.64012 56.2787 8.75861C56.0769 8.87709 55.9111 9.04823 55.7991 9.25373C55.6871 9.45922 55.633 9.69131 55.6428 9.92514C55.6526 10.159 55.7259 10.3857 55.8547 10.5811ZM132.846 93.4882L132.846 93.4888C132.694 94.1168 132.54 94.7531 132.365 95.3711C131.431 98.6144 129.667 101.557 127.246 103.908C124.824 106.259 121.83 107.936 118.561 108.773C115.292 109.61 111.86 109.578 108.607 108.68C105.354 107.782 102.392 106.049 100.015 103.653C97.6385 101.258 95.9292 98.2821 95.057 95.0219C94.1847 91.7618 94.1799 88.3302 95.0429 85.0676C95.9059 81.805 97.6069 78.8247 99.977 76.4221C102.347 74.0196 105.304 72.2784 108.555 71.3711C108.906 71.3261 109.226 71.1489 109.451 70.8758C109.676 70.6027 109.788 70.2541 109.765 69.9011C110.562 59.2691 107.327 48.7265 100.705 40.3711C98.4518 37.4429 95.807 34.8386 92.8446 32.6311L92.0946 32.0911C91.299 31.5338 90.7442 30.6957 90.5419 29.7456C90.3397 28.7956 90.505 27.8042 91.0046 26.9711V26.9011C91.278 26.4451 91.6431 26.0508 92.0769 25.7432C92.5106 25.4356 93.0034 25.2214 93.5242 25.1143C94.045 25.0071 94.5823 25.0092 95.1022 25.1206C95.6222 25.2319 96.1134 25.4501 96.5446 25.7611C100.226 28.366 103.521 31.4765 106.335 35.0011C114.353 44.8097 118.339 57.3012 117.485 69.9411C117.485 69.9679 117.484 69.9943 117.484 70.0203C117.484 70.0448 117.484 70.0689 117.483 70.0927C117.477 70.6092 117.473 70.9602 118.195 71.1611C126.515 73.4911 131.455 78.9011 132.915 87.4411C132.963 87.6066 133.027 87.7673 133.105 87.9211L133.145 92.2811C133.042 92.6751 132.944 93.0799 132.846 93.4882ZM113.785 78.3411C111.487 78.3353 109.239 79.0101 107.325 80.2805C105.41 81.5508 103.915 83.3598 103.027 85.4791C102.14 87.5985 101.9 89.9332 102.338 92.1887C102.776 94.4441 103.873 96.5193 105.489 98.1523C107.105 99.7853 109.169 100.903 111.42 101.364C113.671 101.826 116.008 101.61 118.136 100.744C120.265 99.8787 122.089 98.4021 123.379 96.5008C124.669 94.5995 125.367 92.3587 125.385 90.0611C125.392 88.5299 125.099 87.0121 124.52 85.5944C123.941 84.1768 123.089 82.8869 122.012 81.7986C120.935 80.7103 119.654 79.8448 118.242 79.2516C116.83 78.6584 115.316 78.349 113.785 78.3411ZM0.8547 74.4911V105.491C0.849419 105.999 0.94485 106.503 1.13534 106.974C1.32583 107.446 1.60759 107.874 1.96456 108.236C2.32154 108.597 2.7466 108.885 3.21517 109.081C3.68375 109.278 4.18654 109.38 4.69467 109.381H38.8048C39.3923 109.375 39.9725 109.512 40.4947 109.781C51.7296 116.637 65.2124 118.792 78.0247 115.781C80.7628 115.174 83.4403 114.32 86.0247 113.231C86.515 113.025 86.9573 112.721 87.3239 112.335C87.6905 111.95 87.9734 111.494 88.1547 110.994C88.3361 110.494 88.4118 109.962 88.3774 109.432C88.343 108.901 88.1991 108.383 87.9547 107.911V107.841C87.5198 106.994 86.7853 106.34 85.8942 106.005C85.0032 105.671 84.0194 105.68 83.1347 106.031C81.6248 106.648 80.0825 107.182 78.5147 107.631C75.8174 108.368 73.0599 108.863 70.2747 109.111C59.5614 110.111 48.8747 106.945 40.4348 100.271C40.1381 100.072 39.8999 99.7979 39.7452 99.4761C39.5905 99.1543 39.5247 98.7969 39.5548 98.4411V74.4911C39.5548 73.47 39.1491 72.4908 38.4271 71.7688C37.7051 71.0468 36.7258 70.6411 35.7047 70.6411H4.70468C3.68359 70.6411 2.7044 71.0468 1.98239 71.7688C1.26037 72.4908 0.8547 73.47 0.8547 74.4911ZM8.64474 99.9711V79.9011H8.62472C8.62602 79.7007 8.66698 79.5024 8.7452 79.3179C8.82343 79.1333 8.93739 78.966 9.08053 78.8257C9.22367 78.6853 9.39311 78.5747 9.57919 78.5001C9.76526 78.4255 9.96431 78.3885 10.1648 78.3911H30.2347C30.6361 78.3911 31.0212 78.5499 31.306 78.8328C31.5908 79.1157 31.7521 79.4997 31.7547 79.9011V99.9711C31.7521 100.373 31.5908 100.757 31.306 101.039C31.0212 101.322 30.6361 101.481 30.2347 101.481H10.1648C9.76336 101.481 9.37824 101.322 9.09347 101.039C8.8087 100.757 8.64738 100.373 8.64474 99.9711Z" fill="#F39E5F"/>
</svg>
