<svg width="85" height="86" viewBox="0 0 85 86" fill="none" xmlns="http://www.w3.org/2000/svg">
<path d="M84.6315 44.5138H81.958V41.7861H84.6315V44.5138Z" fill="#FF974F"/>
<path d="M43.8625 0.335938V3.0404H41.1348V0.335938H43.8625Z" fill="#FF974F"/>
<path d="M54.1309 45.5209L55.4793 44.5755C53.932 43.6003 52.8215 42.0649 52.3796 40.2902C51.8154 38.0387 51.8743 35.6761 52.5501 33.4555C53.1061 31.8929 54.183 30.5693 55.5997 29.7071C57.0165 28.8449 58.6869 28.4966 60.3302 28.7207C62.0574 28.9458 63.6473 29.781 64.8126 31.0757C65.9778 32.3703 66.6418 34.0389 66.6845 35.7802C66.7402 36.9477 66.7221 38.1176 66.6303 39.2828C66.5072 40.3488 66.1494 41.3742 65.5826 42.2854C65.0159 43.1965 64.2542 43.9707 63.3524 44.5522C63.6334 44.9013 63.9867 45.1853 64.3881 45.3846C64.7894 45.584 65.2292 45.6939 65.6771 45.7069C69.3812 45.8696 71.5432 48.1246 71.5432 51.8442C71.5432 53.7505 71.5432 55.6568 71.5432 57.5553C71.5432 58.6944 71.1248 59.1051 69.9934 59.1051H48.7685C47.6294 59.1051 47.2187 58.6867 47.2187 57.5553V54.2929H37.4547C37.4547 55.3701 37.4547 56.4472 37.4547 57.5321C37.4547 58.617 37.044 59.0819 35.9049 59.0819H14.6722C13.4943 59.0819 13.1224 58.6635 13.1224 57.4623C13.1224 55.4863 13.1224 53.5025 13.1224 51.5265C13.0895 50.7629 13.2132 50.0006 13.4859 49.2866C13.7585 48.5726 14.1744 47.9219 14.7079 47.3746C15.2415 46.8273 15.8813 46.3949 16.5881 46.1041C17.295 45.8133 18.0538 45.6702 18.818 45.6836C19.2969 45.6906 19.7712 45.5897 20.2058 45.3885C20.6404 45.1873 21.0242 44.8909 21.3287 44.5212C19.8081 43.5613 18.717 42.051 18.2833 40.3057C17.7126 38.0553 17.7689 35.6916 18.446 33.471C19.0144 31.8638 20.1284 30.5068 21.5941 29.6364C23.0598 28.766 24.7844 28.4372 26.4676 28.7072C28.1507 28.9773 29.6859 29.8292 30.8057 31.1145C31.9255 32.3998 32.559 34.0372 32.596 35.7415C32.6516 36.9064 32.6335 38.0737 32.5418 39.2363C32.3015 41.3828 31.5344 42.553 29.2406 44.591L30.5115 45.5054C30.6665 45.2652 30.775 45.1102 30.8757 44.9397C31.356 44.053 32.0683 43.3135 32.9364 42.8003C33.8045 42.2871 34.7957 42.0195 35.8042 42.026C36.2944 42.0528 36.7839 41.9603 37.2306 41.7565C37.6773 41.5528 38.068 41.2437 38.3691 40.8559C36.8563 39.8928 35.7694 38.3872 35.3315 36.6481C34.7672 34.3966 34.8262 32.034 35.5019 29.8134C36.051 28.2415 37.1258 26.9074 38.5447 26.0363C39.9636 25.1652 41.6397 24.8105 43.2898 25.0321C45.0172 25.2585 46.607 26.0939 47.7733 27.3881C48.9396 28.6822 49.6058 30.3501 49.6519 32.0916C49.7075 33.2565 49.6894 34.4238 49.5976 35.5865C49.3574 37.733 48.5903 38.8876 46.3507 40.8869C46.5864 41.2208 46.897 41.495 47.2576 41.6874C47.6183 41.8798 48.0189 41.9852 48.4275 41.995C49.623 41.9383 50.8076 42.2448 51.8256 42.8741C52.8436 43.5034 53.6473 44.4261 54.1309 45.5209ZM32.596 51.7202H52.0696C52.0696 50.2479 52.1084 48.822 52.0696 47.4117C52.045 46.9396 51.9111 46.4797 51.6784 46.0683C51.4458 45.6568 51.1208 45.3049 50.729 45.0404C49.9363 44.5188 48.9775 44.3116 48.0401 44.4593C47.6604 44.498 47.2651 44.9087 46.9629 45.1954C45.6907 46.3114 44.0561 46.9268 42.3638 46.9268C40.6715 46.9268 39.0369 46.3114 37.7647 45.1954C37.4691 44.914 37.1125 44.7046 36.7227 44.5836C36.3329 44.4627 35.9204 44.4334 35.5174 44.498C34.7638 44.5625 34.058 44.8936 33.5267 45.432C32.9955 45.9703 32.6737 46.6805 32.6192 47.4349C32.5495 48.822 32.596 50.2401 32.596 51.7202ZM34.9827 54.2077H31.7203C30.5812 54.2077 30.1705 53.7892 30.1705 52.6579V48.6748C29.8838 48.8918 29.7133 49.0235 29.5351 49.1475C28.2429 50.1311 26.6479 50.633 25.0253 50.5665C23.4027 50.5 21.8542 49.8693 20.6468 48.7833C20.3897 48.5344 20.0802 48.3461 19.741 48.2322C19.4019 48.1182 19.0415 48.0814 18.6863 48.1246C17.9528 48.1165 17.2411 48.3742 16.6828 48.8499C16.1244 49.3256 15.7571 49.9874 15.6486 50.7128C15.4936 52.6656 15.6486 54.6416 15.6486 56.6022H35.0215L34.9827 54.2077ZM69.079 56.6332C69.079 54.6726 69.1488 52.7586 69.079 50.8833C69.0144 50.1921 68.7144 49.5439 68.2292 49.0474C67.7439 48.5509 67.1029 48.236 66.4133 48.1556C65.9909 48.0548 65.5502 48.0593 65.13 48.1687C64.7098 48.2782 64.3229 48.4892 64.0033 48.7833C62.7963 49.8734 61.2438 50.5036 59.6184 50.5631C57.993 50.6226 56.3986 50.1077 55.115 49.1087C54.9446 48.9848 54.7663 48.8763 54.5106 48.698C54.5106 50.0774 54.5106 51.3405 54.5106 52.5726C54.5106 53.8047 54.1077 54.1689 52.9143 54.1767H49.7061V56.6177L69.079 56.6332ZM47.2187 33.5175C47.2187 33.0603 47.2187 32.603 47.2187 32.1458C47.1829 30.9577 46.7156 29.8232 45.904 28.9547C45.0925 28.0861 43.9924 27.5429 42.8094 27.4266C41.6244 27.2985 40.4347 27.6212 39.4769 28.3305C38.5192 29.0399 37.8636 30.0839 37.6407 31.2547C37.4434 32.5548 37.4043 33.874 37.5245 35.1835C37.6326 36.409 38.2045 37.547 39.1233 38.365C40.0422 39.183 41.2387 39.6194 42.4684 39.585C43.7004 39.5513 44.8743 39.0536 45.7551 38.1916C46.6358 37.3295 47.1586 36.1666 47.2187 34.9355C47.2187 34.4783 47.2187 33.9979 47.2187 33.5175ZM30.1705 37.1983C30.1705 36.7179 30.1705 36.2374 30.1705 35.757C30.1174 34.5851 29.6455 33.4713 28.8406 32.6181C28.0357 31.7648 26.9512 31.2288 25.7845 31.1075C24.6004 30.9797 23.4113 31.2991 22.4507 32.0031C21.4901 32.7071 20.8274 33.7447 20.5926 34.9123C20.4309 36.0906 20.3816 37.2816 20.4453 38.4692C20.4545 39.6739 20.9115 40.8321 21.7276 41.7183C22.5436 42.6046 23.6603 43.1555 24.8601 43.2637C26.06 43.372 27.2572 43.03 28.2188 42.3041C29.1803 41.5783 29.8374 40.5207 30.062 39.3371C30.1384 38.6267 30.1746 37.9127 30.1705 37.1983ZM54.4409 37.1983H54.4951C54.4951 37.6245 54.4951 38.0585 54.4951 38.4847C54.5207 39.687 54.9885 40.8377 55.8091 41.7169C56.6296 42.5961 57.7454 43.142 58.9431 43.2504C60.1304 43.3672 61.3182 43.0338 62.2712 42.3162C63.2242 41.5985 63.8728 40.5491 64.0886 39.3758C64.2807 38.0751 64.3146 36.7559 64.1893 35.447C64.0776 34.2939 63.5564 33.2191 62.7201 32.4175C61.8838 31.6159 60.7879 31.1405 59.6312 31.0777C58.4745 31.0149 57.3335 31.3688 56.4154 32.0752C55.4972 32.7815 54.8627 33.7936 54.6268 34.9278C54.5268 35.6703 54.4725 36.4182 54.4641 37.1673L54.4409 37.1983ZM45.2194 43.3589C44.9026 42.9752 44.5636 42.6104 44.2042 42.2662C43.9672 42.086 43.6804 41.9832 43.3828 41.9718C42.6622 41.9253 41.9337 41.9718 41.2053 41.9718C40.9709 41.9515 40.7358 42.0028 40.5311 42.119C40.1322 42.5232 39.7571 42.9501 39.4075 43.3976C40.2333 44.0735 41.2707 44.4369 42.3377 44.4241C43.4048 44.4114 44.4332 44.0233 45.2426 43.3279L45.2194 43.3589ZM62.2675 47.0165C61.9407 46.7143 61.64 46.3851 61.3686 46.0323C61.2591 45.8531 61.093 45.7154 60.8966 45.641C60.7001 45.5667 60.4845 45.5598 60.2837 45.6216C59.6074 45.6565 58.9298 45.6565 58.2535 45.6216C58.0194 45.5901 57.7816 45.6393 57.5793 45.7611C57.18 46.1672 56.8024 46.594 56.4479 47.0397C57.2743 47.7224 58.3152 48.0912 59.387 48.0813C60.4588 48.0714 61.4927 47.6833 62.3063 46.9855L62.2675 47.0165ZM28.0937 47.0165C27.4583 45.8929 26.5439 45.2884 25.2188 45.6681C24.8856 45.7611 24.4439 45.5829 24.1029 45.5829C23.8671 45.5658 23.6324 45.6286 23.4365 45.7611C23.0413 46.1408 22.6616 46.5825 22.3361 46.9932C23.1423 47.6853 24.169 48.067 25.2314 48.0699C26.2939 48.0727 27.3226 47.6965 28.1325 47.0087L28.0937 47.0165Z" fill="#FF974F"/>
<path d="M52.1542 1.4668L54.8277 2.20296L54.0528 4.79894L51.5498 4.11701L52.1542 1.4668Z" fill="#FF974F"/>
<path d="M23.6915 7.6971L21.452 8.99896L20.0029 6.67421L22.4129 5.28711L23.6915 7.6971Z" fill="#FF974F"/>
<path d="M63.4915 9.16986L61.252 7.84475L62.5461 5.45801L64.9405 6.8606L63.4915 9.16986Z" fill="#FF974F"/>
<path d="M7.3564 24.0713L4.96191 22.785L6.35676 20.375L8.68151 21.8086L7.3564 24.0713Z" fill="#FF974F"/>
<path d="M83.639 33.5181L80.9888 34.1071L80.3379 31.6118L82.9494 30.8369L83.639 33.5181Z" fill="#FF974F"/>
<path d="M35.5947 0.877951L38.3379 0.521484L38.6091 3.21044L36.0364 3.5669L35.5947 0.877951Z" fill="#FF974F"/>
<path d="M84.4141 47.3812L84.0112 50.1244L81.3145 49.6439L81.6554 47.0635L84.4141 47.3812Z" fill="#FF974F"/>
<path d="M11.688 17.5779L10.1381 19.6314L7.92188 18.0816L9.61894 15.873L11.688 17.5779Z" fill="#FF974F"/>
<path d="M75.3012 16.1055L76.9518 18.3372L74.751 19.8871L73.2012 17.818L75.3012 16.1055Z" fill="#FF974F"/>
<path d="M1.78524 30.5186L4.37347 31.2935L3.73803 33.7964L1.08008 33.1998L1.78524 30.5186Z" fill="#FF974F"/>
<path d="M81.0588 25.6211L82.105 28.1938L79.5632 29.1237L78.5791 26.737L81.0588 25.6211Z" fill="#FF974F"/>
<path d="M2.90074 38.9657L0.196289 38.6944L0.552743 35.959L3.23396 36.3852L2.90074 38.9657Z" fill="#FF974F"/>
<path d="M69.4426 10.1227L67.699 12.2072L65.6455 10.6109L67.2418 8.41016L69.4426 10.1227Z" fill="#FF974F"/>
<path d="M3.31201 49.3646L0.630813 49.8218L0.266602 47.0864L2.94006 46.7842L3.31201 49.3646Z" fill="#FF974F"/>
<path d="M82.6555 55.5334L80.0518 54.7042L80.7569 52.209L83.3762 52.8522L82.6555 55.5334Z" fill="#FF974F"/>
<path d="M58.9043 6.67509L56.5176 5.65995L57.494 3.12598L60.0434 4.20311L58.9043 6.67509Z" fill="#FF974F"/>
<path d="M33.4168 4.04755L30.9448 4.69847L30.1699 2.11026L32.8434 1.38184L33.4168 4.04755Z" fill="#FF974F"/>
<path d="M2.66797 27.8842L3.72961 25.3037L6.20159 26.4196L5.22519 28.8141L2.66797 27.8842Z" fill="#FF974F"/>
<path d="M81.4697 36.6871L84.1509 36.2764L84.4996 39.0118L81.7874 39.2675L81.4697 36.6871Z" fill="#FF974F"/>
<path d="M73.4333 13.9981L71.5657 15.7107L69.6904 13.9284L71.4262 12.0996L73.4333 13.9981Z" fill="#FF974F"/>
<path d="M15.4854 9.94511L17.6861 8.24805L19.2747 10.4488L17.2212 12.0374L15.4854 9.94511Z" fill="#FF974F"/>
<path d="M27.4809 3.00977L28.4263 5.55923L26.0473 6.55112L24.9082 4.07914L27.4809 3.00977Z" fill="#FF974F"/>
<path d="M46.66 0.552734L49.3877 0.916945L48.9692 3.59816L46.3965 3.25719L46.66 0.552734Z" fill="#FF974F"/>
<path d="M15.1754 13.6879L13.3853 15.5864L11.4248 13.7498L13.4086 11.8203L15.1754 13.6879Z" fill="#FF974F"/>
<path d="M2.73811 41.5771V44.1499L0.0878906 44.2894V41.5771H2.73811Z" fill="#FF974F"/>
<path d="M78.4626 20.6934C79.005 21.5148 79.3382 22.1812 79.8497 23.0801L77.4397 24.3432L76.1533 22.096L78.4626 20.6934Z" fill="#FF974F"/>
<path d="M43.8625 85.5228V82.8184H41.1348V85.5228H43.8625Z" fill="#FF974F"/>
<path d="M52.1542 84.3907L54.8277 83.6546L54.0528 81.0586L51.5498 81.7483L52.1542 84.3907Z" fill="#FF974F"/>
<path d="M23.6915 78.1603L21.452 76.8662L20.0029 79.191L22.4129 80.5858L23.6915 78.1603Z" fill="#FF974F"/>
<path d="M63.4915 76.6885L61.252 78.0136L62.5461 80.4003L64.9405 79.0055L63.4915 76.6885Z" fill="#FF974F"/>
<path d="M7.3564 61.7949L4.96191 63.0813L6.35676 65.4835L8.68151 64.0499L7.3564 61.7949Z" fill="#FF974F"/>
<path d="M83.639 52.3487L80.9888 51.7598L80.3379 54.255L82.9494 55.0299L83.639 52.3487Z" fill="#FF974F"/>
<path d="M35.5947 84.98L38.3379 85.3442L38.6091 82.6475L36.0364 82.2988L35.5947 84.98Z" fill="#FF974F"/>
<path d="M11.688 68.2878L10.1381 66.2266L7.92188 67.7764L9.61894 69.9849L11.688 68.2878Z" fill="#FF974F"/>
<path d="M75.3012 69.7914L76.9518 67.5596L74.751 66.0098L73.2012 68.0788L75.3012 69.7914Z" fill="#FF974F"/>
<path d="M1.78524 55.3394L4.37347 54.5645L3.73803 52.0615L1.08008 52.6582L1.78524 55.3394Z" fill="#FF974F"/>
<path d="M81.0588 60.2682L82.105 57.6955L79.5632 56.7578L78.5791 59.1446L81.0588 60.2682Z" fill="#FF974F"/>
<path d="M69.4426 75.7124L67.699 73.6201L65.6455 75.2164L67.2418 77.4094L69.4426 75.7124Z" fill="#FF974F"/>
<path d="M58.9043 79.1914L56.5098 80.1988L57.4862 82.7405L60.0356 81.6634L58.9043 79.1914Z" fill="#FF974F"/>
<path d="M33.4168 81.8186L30.9216 81.1367L30.1699 83.7404L32.8434 84.4688L33.4168 81.8186Z" fill="#FF974F"/>
<path d="M2.66797 57.9816L3.72961 60.5543L6.20159 59.4462L5.22519 57.0439L2.66797 57.9816Z" fill="#FF974F"/>
<path d="M73.4333 71.8297L71.5657 70.1172L69.6904 71.9305L71.4262 73.767L73.4333 71.8297Z" fill="#FF974F"/>
<path d="M15.4854 75.9136L17.6861 77.6184L19.2747 75.4177L17.2212 73.8291L15.4854 75.9136Z" fill="#FF974F"/>
<path d="M27.4809 82.849L28.4263 80.3073L26.0473 79.3154L24.9082 81.7874L27.4809 82.849Z" fill="#FF974F"/>
<path d="M46.66 85.2896L49.3877 84.9254L48.9692 82.252L46.3965 82.5852L46.66 85.2896Z" fill="#FF974F"/>
<path d="M15.1754 72.1701L13.3853 70.2793L11.4248 72.1158L13.4086 74.0376L15.1754 72.1701Z" fill="#FF974F"/>
<path d="M78.4626 65.1423C79.005 64.3131 79.3382 63.6545 79.8497 62.7556L77.4397 61.5234L76.1533 63.7707L78.4626 65.1423Z" fill="#FF974F"/>
</svg>
