<svg width="112" height="118" viewBox="0 0 112 118" fill="none" xmlns="http://www.w3.org/2000/svg">
<path d="M106.745 59.0101C106.745 57.4401 107.845 55.1701 108.915 53.0101C110.695 49.3701 112.695 45.2501 111.335 41.0701C110.798 39.4648 109.866 38.0204 108.625 36.8701C108.253 36.5159 107.862 36.1821 107.455 35.8701C106.634 35.4014 105.674 35.2385 104.745 35.4101C104.025 35.5533 103.361 35.8982 102.83 36.4046C102.298 36.911 101.922 37.558 101.745 38.2701C101.597 38.8623 101.59 39.4808 101.724 40.0763C101.857 40.6717 102.128 41.2278 102.515 41.7001V41.7001C102.874 41.9483 103.208 42.2295 103.515 42.5401C103.761 42.7906 103.952 43.0905 104.075 43.4201C104.485 44.6701 103.135 47.4201 102.075 49.6501C100.625 52.6501 99.0747 55.6501 99.0747 59.0301C99.0747 62.4101 100.575 65.4401 102.075 68.4201C103.155 70.6401 104.505 73.4201 104.075 74.6501C103.645 75.8801 100.945 77.4501 98.5747 78.6501C95.7247 80.1601 92.7647 81.7101 90.8847 84.3001C89.0047 86.8901 88.3947 90.2301 87.8847 93.4301C87.4247 96.0501 86.8847 99.0201 85.7647 99.8501C84.6447 100.68 81.5747 100.22 79.0947 99.8501C75.8547 99.3901 72.5048 98.9301 69.3948 99.9301C66.2848 100.93 64.0347 103.21 61.7447 105.43C59.8047 107.32 57.6047 109.43 56.0747 109.43C54.5447 109.43 52.3548 107.29 50.4148 105.43C48.1248 103.21 45.7647 100.91 42.7647 99.9401C41.4062 99.5141 39.9882 99.3082 38.5647 99.3301C36.7214 99.3739 34.8835 99.5477 33.0647 99.8501C30.5847 100.19 27.5048 100.63 26.3948 99.8501C25.2848 99.0701 24.7248 96.0501 24.2748 93.4301C23.7048 90.2301 23.1248 86.9201 21.2748 84.3001C19.4248 81.6801 16.4447 80.1601 13.5847 78.6501C11.2147 77.4001 8.58469 75.9801 8.08469 74.6501C7.58469 73.3201 9.02469 70.6501 10.0847 68.4201C11.5347 65.4201 13.0847 62.3701 13.0847 59.0301C13.0847 55.6901 11.5847 52.6301 10.0847 49.6501C9.00469 47.4301 7.65469 44.6501 8.08469 43.4201C8.51469 42.1901 11.2147 40.6201 13.5847 39.3701C16.4447 37.8601 19.3948 36.3101 21.2748 33.7201C23.1548 31.1301 23.7548 27.7901 24.2748 24.5801C24.7248 21.9701 25.2748 19.0001 26.3948 18.1701C27.5148 17.3401 30.5847 17.7901 33.0647 18.1701C36.3047 18.6301 39.6547 19.0901 42.7647 18.0801C45.8747 17.0701 48.1248 14.8101 50.4148 12.5901C52.3548 10.7001 54.5547 8.59009 56.0747 8.59009C57.5947 8.59009 59.8047 10.7301 61.7447 12.5901C64.0347 14.8101 66.3948 17.1101 69.3948 18.0801C72.3948 19.0501 75.8547 18.6301 79.0947 18.1701C81.5747 17.8201 84.6547 17.3901 85.7647 18.1701C86.8747 18.9501 87.3647 21.9801 87.8847 24.5801L88.3647 26.9401C88.5076 27.6643 88.4701 28.4125 88.2556 29.1187C88.0411 29.825 87.6562 30.4677 87.1347 30.9901L50.5747 67.4101L41.0747 57.9101C40.4537 57.2716 39.633 56.8648 38.7489 56.7575C37.8647 56.6502 36.9704 56.8487 36.2147 57.3201C35.7381 57.6312 35.3369 58.0446 35.0401 58.5303C34.7434 59.0159 34.5586 59.5616 34.4992 60.1277C34.4399 60.6937 34.5074 61.2658 34.6969 61.8025C34.8864 62.3392 35.1931 62.8269 35.5947 63.2301L47.8747 75.5101C48.2287 75.8657 48.6495 76.1478 49.1129 76.3403C49.5762 76.5329 50.0729 76.632 50.5747 76.632C51.0764 76.632 51.5733 76.5329 52.0366 76.3403C52.4999 76.1478 52.9208 75.8657 53.2748 75.5101L92.9148 35.8701C94.1517 34.645 95.0714 33.1369 95.5941 31.4763C96.1168 29.8158 96.2269 28.0528 95.9148 26.3401C95.7348 25.3901 95.5447 24.3401 95.3347 23.2301C94.5947 19.2301 93.8247 14.6101 90.1947 11.9601C86.5647 9.31008 82.0047 9.9601 77.9647 10.5401C75.5847 10.8701 73.1147 11.2201 71.6847 10.7501C70.2547 10.2801 68.6847 8.6601 67.0047 7.0401C64.0047 4.1401 60.6347 0.850098 56.0047 0.850098C51.3747 0.850098 48.0047 4.1401 45.0047 7.0401C43.3447 8.6601 41.6347 10.3301 40.3247 10.7501C39.0147 11.1701 36.4248 10.8701 34.0448 10.5401C30.0448 9.9701 25.4247 9.33008 21.8147 11.9601C18.2047 14.5901 17.3748 19.1801 16.6648 23.2301C16.2548 25.5701 15.8347 28.0001 14.9647 29.2301C14.0947 30.4601 11.9648 31.5201 9.89475 32.6201C6.23475 34.5501 2.09467 36.7301 0.684669 41.0601C-0.725331 45.3901 1.33472 49.3601 3.11472 53.0001C4.18472 55.1901 5.28477 57.4601 5.28477 59.0001C5.28477 60.5401 4.18472 62.8501 3.11472 65.0001C1.33472 68.6401 -0.665331 72.7601 0.684669 76.9401C2.09467 81.2701 6.23475 83.4501 9.89475 85.3801C11.9748 86.4801 14.1247 87.6201 14.9647 88.7701C15.8047 89.9201 16.2548 92.3901 16.6648 94.7701C17.3748 98.8201 18.1747 103.39 21.8147 106.04C25.4547 108.69 30.0048 108.04 34.0448 107.46C36.4248 107.13 38.8847 106.78 40.3247 107.25C41.7647 107.72 43.3247 109.34 45.0047 110.96C48.0047 113.86 51.3747 117.15 56.0047 117.15C60.6347 117.15 64.0047 113.86 67.0047 110.96C68.6647 109.34 70.3747 107.67 71.6847 107.25C72.9947 106.83 75.5847 107.13 77.9647 107.46C81.9647 108.03 86.5847 108.67 90.1947 106.04C93.8047 103.41 94.6347 98.8201 95.3347 94.7701C95.7547 92.4301 96.1748 90.0001 97.0348 88.7701C97.8948 87.5401 100.035 86.4801 102.115 85.3801C105.775 83.4501 109.915 81.2701 111.315 76.9401C112.675 72.7601 110.675 68.6401 108.895 65.0001C107.795 62.8601 106.745 60.5901 106.745 59.0101Z" fill="#F39E5F"/>
</svg>
