<svg width="100" height="100" viewBox="0 0 100 100" fill="none" xmlns="http://www.w3.org/2000/svg">
<circle cx="50" cy="50" r="50" fill="white"/>
<path d="M65.0216 47.9465C67.7868 45.9371 69.5854 42.693 69.5854 39.0373C69.5854 32.9533 64.6037 28 58.4764 28C52.3491 28 47.3673 32.9496 47.3673 39.0373C47.3673 42.693 49.166 45.9371 51.9311 47.9465C50.5206 48.4508 49.1212 49.1774 47.8375 50.2044C47.2181 49.3702 46.4979 48.651 45.6806 48.0429C45.6695 48.0355 45.6583 48.0244 45.6471 48.017C45.6247 48.0022 45.606 47.9873 45.5836 47.9725C45.509 47.9169 45.4344 47.865 45.356 47.8131C45.3075 47.7797 45.2627 47.7463 45.2142 47.7167C45.1284 47.6611 45.0388 47.6054 44.9492 47.5498C44.8597 47.4942 44.7701 47.4423 44.6768 47.3867C44.6134 47.3496 44.5462 47.3088 44.4828 47.2755C44.4082 47.2347 44.3298 47.1939 44.2514 47.1531C44.1992 47.1272 44.1507 47.1012 44.0984 47.0753C44.0163 47.0345 43.9305 46.9937 43.8447 46.9529C43.7999 46.9344 43.7589 46.9121 43.7141 46.8936C43.6357 46.8602 43.5611 46.8232 43.4827 46.7898C45.3336 45.1993 46.5091 42.8487 46.5091 40.2312C46.5091 35.4484 42.5909 31.5555 37.7771 31.5555C32.9633 31.5555 29.0563 35.4447 29.0563 40.2275C29.0563 42.845 30.2317 45.1918 32.0789 46.7824C30.6721 47.383 29.4556 48.2357 28.4368 49.3443C26.1568 51.8283 25 55.4803 25 60.1962C25 60.7635 25.306 61.29 25.8023 61.5754C28.1793 62.9361 30.7504 63.8482 33.4409 64.2894C33.5305 64.3042 33.6163 64.3116 33.7021 64.3116C34.4709 64.3116 35.15 63.7592 35.2806 62.9806C35.4262 62.113 34.8328 61.2937 33.9596 61.1528C31.9557 60.8228 30.0302 60.1888 28.2167 59.2656C28.3473 55.8325 29.2167 53.2224 30.7989 51.4984C32.3774 49.7781 34.7283 48.9068 37.7845 48.9068C38.0084 48.9068 38.2249 48.9142 38.4413 48.9216C38.4823 48.9216 38.5271 48.9253 38.5682 48.929C38.7809 48.9402 38.9861 48.955 39.1914 48.9735C39.2175 48.9735 39.2399 48.9809 39.266 48.9809C42.1169 49.2775 44.2253 50.4751 45.565 52.5402C43.4193 55.3579 41.964 59.5215 41.9602 65.6352C41.9602 65.6389 41.9602 65.6426 41.9602 65.6463V65.6649C41.9602 65.6649 41.9602 65.6945 41.9602 65.7093C41.9602 65.7427 41.9602 65.7761 41.964 65.8094C41.964 65.8354 41.9714 65.8614 41.9751 65.8873C41.9751 65.9133 41.9826 65.9392 41.9863 65.9615C41.9938 65.9911 42.0013 66.0208 42.005 66.0504C42.0087 66.069 42.0162 66.0912 42.0199 66.1098C42.0274 66.1394 42.0386 66.1691 42.0498 66.1987C42.0572 66.2173 42.0647 66.2358 42.0722 66.2581C42.0834 66.284 42.0946 66.3137 42.1095 66.3396C42.1207 66.3619 42.1281 66.3804 42.1393 66.4027C42.1505 66.4249 42.1655 66.4471 42.1767 66.4694C42.1916 66.4916 42.2028 66.5139 42.2177 66.5361C42.2289 66.5547 42.2438 66.5732 42.255 66.5917C42.2737 66.6177 42.2886 66.6399 42.3073 66.6622C42.3185 66.677 42.3334 66.6918 42.3483 66.7067C42.367 66.7289 42.3894 66.7549 42.4117 66.7771C42.4267 66.7919 42.4416 66.8068 42.4565 66.8216C42.4789 66.8438 42.5013 66.8624 42.5237 66.8809C42.5424 66.8958 42.5647 66.9106 42.5834 66.9291C42.6021 66.944 42.6244 66.9588 42.6431 66.9736C42.6692 66.9922 42.6991 67.0107 42.7289 67.0292C42.7401 67.0366 42.7551 67.0441 42.7663 67.0515C42.7663 67.0515 42.7774 67.0589 42.7849 67.0626H42.7924C43.173 67.2776 47.0091 69.3353 52.6364 70.3957C54.8007 70.8035 56.9427 71.0037 59.0436 71.0037C64.4507 71.0037 69.5966 69.669 74.1865 67.0478C74.6828 66.7623 74.9888 66.2395 74.9888 65.6686C74.9888 54.4236 70.0817 49.7632 65.0142 47.954M50.5653 39.0447C50.5653 34.7143 54.1104 31.1922 58.4726 31.1922C62.8349 31.1922 66.3762 34.7143 66.3762 39.0447C66.3762 43.3752 62.8312 46.8973 58.4726 46.8973C54.1141 46.8973 50.5653 43.3752 50.5653 39.0447ZM32.2505 40.2386C32.2505 37.2095 34.7321 34.7477 37.7771 34.7477C40.8221 34.7477 43.3036 37.2132 43.3036 40.2386C43.3036 43.2639 40.8258 45.7294 37.7771 45.7294C34.7283 45.7294 32.2505 43.2639 32.2505 40.2386ZM53.3379 67.2962C49.5018 66.588 46.5389 65.346 45.1694 64.7009C45.4456 54.9983 49.916 50.0821 58.4726 50.0821C67.0293 50.0821 71.5109 55.0131 71.7759 64.7417C66.2307 67.6706 60.0325 68.5308 53.3417 67.2925" fill="#F39E5F"/>
</svg>
