<svg width="84" height="118" viewBox="0 0 84 118" fill="none" xmlns="http://www.w3.org/2000/svg">
<path fill-rule="evenodd" clip-rule="evenodd" d="M9.25775 66.931C-9.45225 42.321 4.73775 6.77096 35.2577 1.47096C58.8177 -2.58904 81.3277 14.951 82.9777 38.811C83.5311 44.7215 82.762 50.6811 80.7262 56.2575C78.6905 61.8339 75.439 66.8872 71.2077 71.051C68.0145 74.1838 65.5971 78.0189 64.1478 82.251C63.8732 82.912 63.416 83.4812 62.8299 83.8921C62.2437 84.3029 61.5528 84.5384 60.8377 84.571C60.3298 84.5765 59.8265 84.4742 59.361 84.2707C58.8956 84.0673 58.4787 83.7675 58.1378 83.391C57.6419 82.9755 57.2737 82.4284 57.0755 81.8126C56.8773 81.1968 56.8573 80.5376 57.0178 79.911C57.0858 79.6522 57.1795 79.401 57.2977 79.161C59.1701 74.0125 62.1858 69.3557 66.1177 65.541C69.2245 62.4582 71.6708 58.7749 73.3075 54.7157C74.9443 50.6566 75.7371 46.3065 75.6377 41.931C75.5778 20.321 55.2077 4.27095 34.2977 9.27095C28.7479 10.5792 23.6203 13.2731 19.3941 17.1008C15.1679 20.9285 11.9811 25.7651 10.1313 31.1586C8.2815 36.5522 7.82914 42.3266 8.81658 47.9424C9.80403 53.5581 12.1991 58.8319 15.7778 63.271C18.1589 66.0946 19.9872 69.3411 21.1677 72.841C22.0277 75.641 22.8077 78.461 23.5577 81.281C24.2165 84.0336 25.7899 86.4812 28.0207 88.2233C30.2514 89.9654 33.0074 90.8989 35.8377 90.871H51.2977C53.2841 90.871 55.1893 91.6601 56.5939 93.0647C57.9986 94.4694 58.7878 96.3745 58.7878 98.361V101.631C58.7562 105.719 57.1143 109.629 54.2182 112.514C51.3221 115.399 47.4054 117.025 43.3177 117.041H40.1677C35.5577 117.351 31.2777 116.761 27.5577 113.821C25.0449 111.908 23.1751 109.274 22.1977 106.271C22.1146 106.067 22.0478 105.856 21.9977 105.641C21.8685 105.12 21.8665 104.575 21.9918 104.053C22.1171 103.531 22.3661 103.047 22.7177 102.641C23.104 102.066 23.6461 101.613 24.2805 101.334C24.9148 101.056 25.6153 100.963 26.3001 101.068C26.9849 101.173 27.6258 101.471 28.1478 101.926C28.6697 102.382 29.0512 102.977 29.2477 103.641C29.2611 103.691 29.2788 103.741 29.2966 103.791C29.3322 103.891 29.3677 103.991 29.3677 104.091C29.9086 105.653 30.9118 107.014 32.2442 107.993C33.5766 108.972 35.1752 109.522 36.8277 109.571C39.0177 109.641 41.2178 109.641 43.4078 109.571C45.1545 109.537 46.842 108.932 48.2126 107.848C49.5831 106.765 50.5613 105.263 50.9977 103.571C51.2394 102.335 51.3699 101.08 51.3878 99.821C51.3959 99.6365 51.3664 99.4524 51.3011 99.2797C51.2358 99.107 51.1359 98.9495 51.0077 98.8166C50.8796 98.6838 50.7257 98.5784 50.5555 98.5069C50.3853 98.4355 50.2024 98.3994 50.0178 98.401H43.4177C38.5701 98.5893 33.7155 98.3584 28.9078 97.711C28.9078 97.711 24.5877 96.911 20.6777 92.081C20.5385 91.912 20.3994 91.7232 20.2603 91.5344L20.2577 91.531C19.0315 89.8843 18.0231 88.0861 17.2577 86.181C16.8112 85.03 16.4535 83.8466 16.1877 82.641C15.069 76.9559 12.7021 71.5901 9.25775 66.931ZM63.5266 28.2915C63.3703 28.767 63.1189 29.2057 62.7877 29.581C62.4637 29.9829 62.0576 30.311 61.5966 30.5436C61.1357 30.7761 60.6305 30.9077 60.1147 30.9294C59.5989 30.9512 59.0843 30.8627 58.6054 30.6698C58.1265 30.477 57.6943 30.1841 57.3376 29.8109C53.7241 26.439 49.1123 24.3332 44.1976 23.8109C42.9172 23.7527 41.6345 23.7795 40.3576 23.891C37.9776 23.971 36.2977 22.5009 36.1377 20.4009C35.9777 18.3009 37.4076 16.7009 39.7176 16.4009C40.4438 16.3085 41.1744 16.251 41.9007 16.1937C42.2745 16.1643 42.6473 16.1349 43.0177 16.101C50.2132 16.4459 57.0527 19.334 62.3176 24.2509C62.7094 24.5625 63.0337 24.9504 63.2708 25.3912C63.5079 25.832 63.6528 26.3165 63.6967 26.8151C63.7407 27.3137 63.6829 27.816 63.5266 28.2915Z" fill="#F39E5F"/>
</svg>
