<svg width="61" height="79" viewBox="0 0 61 79" fill="none" xmlns="http://www.w3.org/2000/svg">
<path fill-rule="evenodd" clip-rule="evenodd" d="M55.9003 6.31992L48.5731 35.0136L45.4033 34.2025L52.7303 5.50992C52.8403 5.08992 53.1003 4.72992 53.4803 4.50992C53.8603 4.28992 54.2903 4.21992 54.7203 4.32992C55.1403 4.43992 55.5003 4.70992 55.7203 5.07992C55.9403 5.45992 56.0103 5.89992 55.9003 6.31992ZM42.4297 37.8654L49.4363 39.6583C49.4834 39.6737 49.5315 39.6876 49.5803 39.6999C49.6393 39.7163 49.6972 39.7295 49.7548 39.7398L50.8102 40.0098C52.5397 40.451 53.7937 41.8237 54.1738 43.455L36.4355 38.9221C37.5509 37.6722 39.3103 37.0686 41.0402 37.5098L42.1191 37.7859C42.1686 37.8023 42.219 37.817 42.2703 37.8299C42.3234 37.8439 42.3766 37.8557 42.4297 37.8654ZM31.6506 38.636C33.1944 34.8426 37.1778 32.5633 41.2525 33.1856L48.5903 4.45992C48.9803 2.92992 49.9403 1.63992 51.3003 0.839919C52.6603 0.0299194 54.2503 -0.200081 55.7803 0.199919C57.3103 0.589919 58.6003 1.54992 59.4003 2.90992C60.2103 4.26992 60.4303 5.85992 60.0403 7.38992L52.7031 36.1132C56.6175 37.5274 59.0309 41.4942 58.5178 45.6012C58.5661 45.7545 58.5975 45.9149 58.6102 46.0799L60.9502 75.8299C61.0002 76.5199 60.7202 77.1899 60.1902 77.6299C59.8002 77.9599 59.3102 78.1299 58.8102 78.1299L58.8402 78.1399C58.6602 78.1399 58.4802 78.1199 58.3102 78.0699L47.2602 75.2499C46.1102 74.9599 45.4202 73.7899 45.7202 72.6499L47.8202 64.4199C48.1102 63.2699 49.2702 62.5799 50.4202 62.8799C51.5702 63.1699 52.2602 64.3399 51.9602 65.4799L50.3902 71.6399L56.4702 73.1899L54.4802 47.9499L34.0002 42.7199L20.1402 63.9199L32.2502 67.0099L35.4102 54.6399C35.7002 53.4899 36.8702 52.7999 38.0102 53.0999C39.1602 53.3899 39.8502 54.5599 39.5502 55.6999L35.8602 70.1399C35.7202 70.6899 35.3702 71.1599 34.8802 71.4499C34.3902 71.7399 33.8102 71.8199 33.2602 71.6799L16.1802 67.3199C15.5102 67.1499 14.9602 66.6699 14.7102 66.0199C14.4602 65.3799 14.5402 64.6499 14.9102 64.0699L25.7359 47.52C25.614 47.3094 25.5259 47.0741 25.4802 46.8199C25.1202 44.7598 23.9702 42.9599 22.2602 41.7499C20.5502 40.5499 18.4602 40.0798 16.4002 40.4499C14.3402 40.8099 12.5402 41.9598 11.3302 43.6698C10.1302 45.3898 9.66024 47.4698 10.0202 49.5299C10.2202 50.6898 9.45024 51.7999 8.28024 52.0098C7.84024 52.0898 7.40024 52.0198 7.03024 51.8498C6.41024 51.5698 5.93024 50.9898 5.81024 50.2699C5.25024 47.0798 5.97024 43.8598 7.83024 41.2099C8.50894 40.2429 9.31013 39.3931 10.209 38.6765C10.2159 38.6609 10.2229 38.6454 10.2302 38.6299C11.0202 36.9299 10.2802 34.9099 8.58015 34.1299C7.76015 33.7499 6.84015 33.7099 5.99015 34.0199C5.14015 34.3299 4.46015 34.9499 4.08015 35.7799C3.58015 36.8499 2.31015 37.3199 1.24015 36.8199C0.170152 36.3199 -0.299848 35.0499 0.200152 33.9799C1.06015 32.1199 2.60015 30.7099 4.52015 30.0099C6.44015 29.2999 8.52015 29.3899 10.3902 30.2599C12.9171 31.4343 14.5082 33.8233 14.787 36.4158C15.0743 36.3436 15.3655 36.2816 15.6602 36.2299C18.8502 35.6698 22.0702 36.3798 24.7202 38.2499C26.4631 39.4732 27.8254 41.0944 28.7131 42.9686L31.2502 39.0899C31.3635 38.9178 31.4987 38.7656 31.6506 38.636Z" fill="#F09F54"/>
</svg>
