<svg width="85" height="92" viewBox="0 0 85 92" fill="none" xmlns="http://www.w3.org/2000/svg">
<path d="M18.4199 48.0162C18.2662 47.4965 18.1437 46.9644 18.0531 46.4222C17.9361 45.642 18.0168 44.8146 18.2889 44.003C18.5611 43.1915 19.0176 42.4171 19.6236 41.7389C20.2297 41.0607 20.9694 40.4964 21.7865 40.0891C22.6035 39.6819 23.4763 39.4422 24.3385 39.3885C26.2546 39.2215 28.0399 39.7392 29.3418 40.8393C30.6437 41.9393 31.3676 43.5418 31.3704 45.3301C31.3527 46.0558 31.1759 46.797 30.851 47.5078C30.5261 48.2186 30.06 48.884 29.4813 49.4628C28.9027 50.0417 28.2238 50.5218 27.4867 50.8735C26.7495 51.2252 25.9697 51.4411 25.1954 51.5077C24.0292 51.635 22.8949 51.5099 21.8789 51.1421C20.8629 50.7743 19.9923 50.1734 19.3335 49.3854C19.2826 49.3388 19.2238 49.3004 19.1587 49.2713L18.4199 48.0162ZM27.9189 43.7959C27.5305 43.1961 26.9674 42.7279 26.2822 42.4351C25.5969 42.1422 24.812 42.0342 24.0008 42.1212C23.5885 42.1536 23.1727 42.2711 22.7828 42.4657C22.3929 42.6603 22.0383 42.927 21.7442 43.2471C21.4502 43.5672 21.2237 43.9328 21.0808 44.3181C20.938 44.7035 20.8823 45.0991 20.9176 45.477C21.0251 46.5035 21.5196 47.3983 22.3163 48.0085C23.113 48.6186 24.1623 48.906 25.2848 48.8216C25.9226 48.7807 26.5653 48.5359 27.1079 48.1271C27.6505 47.7184 28.061 47.1699 28.2722 46.5712C28.4269 46.076 28.4754 45.5737 28.4146 45.096C28.3538 44.6184 28.185 44.1757 27.9189 43.7959Z" fill="#FF974F"/>
<path d="M32.899 61.8626C32.265 60.7369 32.0143 59.4081 32.1749 58.0258C32.5152 55.0038 32.8057 51.993 33.1915 48.9701C33.3655 46.9925 34.1137 45.0016 35.3543 43.2146C36.595 41.4277 38.2804 39.9135 40.2266 38.8373C41.8351 37.8645 43.6029 37.2332 45.3817 36.9963C47.1604 36.7593 48.8983 36.9236 50.4497 37.4755C53.5874 38.5352 56.6611 39.7323 59.6868 41.0029C60.7342 41.4533 61.5968 42.1672 62.196 43.0797C62.7951 43.9922 63.112 45.0743 63.1176 46.2275C63.1232 47.3808 62.8174 48.5686 62.2281 49.6829C61.6388 50.7972 60.7846 51.8026 59.7433 52.6078C58.7422 53.4065 57.5814 53.9805 56.3739 54.274C53.9928 54.7738 51.6683 55.7622 49.5744 57.1653C47.9526 58.301 46.5038 59.6603 45.2916 61.1837C44.586 62.0635 43.7098 62.8199 42.7237 63.4006C41.7376 63.9812 40.6653 64.3722 39.5814 64.5461C38.4974 64.7201 37.4278 64.673 36.4467 64.4081C35.4657 64.1431 34.5968 63.6667 33.9004 63.012C33.5301 62.6749 33.2299 62.2526 32.899 61.8626ZM49.0165 54.5585C49.3021 54.4038 49.7488 54.162 50.1808 53.928C52.1049 52.9282 54.1263 52.1773 56.1805 51.6992C57.1197 51.4573 58.0063 50.9538 58.7158 50.2592C59.4252 49.5646 59.922 48.7137 60.1365 47.8261C60.3852 46.9413 60.3382 46.054 60.0023 45.2925C59.6664 44.5309 59.059 43.9344 58.2679 43.5892C55.2086 42.3448 52.1536 41.09 48.9866 40.0461C47.7432 39.6675 46.3694 39.5887 44.9752 39.8162C43.5811 40.0436 42.2055 40.571 40.9587 41.356C39.712 42.1409 38.6288 43.1616 37.7962 44.3362C36.9635 45.5108 36.4045 46.8065 36.164 48.1194C35.9583 49.2821 35.854 50.4452 35.7291 51.6037C35.4804 53.8646 35.1686 56.1281 35.033 58.3753C35.0186 58.9327 35.1223 59.4678 35.3382 59.9499C35.5541 60.432 35.8779 60.8517 36.2911 61.1851C36.7043 61.5185 37.1989 61.759 37.7466 61.8929C38.2943 62.0268 38.8843 62.0514 39.483 61.9654C40.2145 61.86 40.94 61.5985 41.6027 61.2012C42.2654 60.804 42.8473 60.2818 43.303 59.6756C44.8831 57.6792 46.8269 55.9383 49.0165 54.5585Z" fill="#FF974F"/>
<path d="M37.824 28.1893C38.3757 29.1118 38.6853 30.1734 38.7316 31.3016C38.7779 32.4298 38.5598 33.5979 38.0923 34.7258C37.492 36.2686 36.321 37.6379 34.8195 38.5528C33.3181 39.4678 31.5999 39.859 30.0175 39.6462C27.8118 39.341 25.9679 38.2128 24.8671 36.4946C23.7662 34.7765 23.4927 32.5999 24.103 30.4149C24.3756 29.4388 24.8773 28.4964 25.5685 27.6623C26.2596 26.8283 27.1211 26.1254 28.0849 25.6095C29.0487 25.0935 30.0882 24.7786 31.1212 24.6896C32.1542 24.6007 33.1523 24.7401 34.0365 25.0969C35.6729 25.6825 36.993 26.7603 37.824 28.1893ZM27.3469 34.6168C27.9105 35.625 28.8445 36.3709 30.0075 36.7417C30.5572 36.9584 31.1814 37.0291 31.8227 36.947C32.4639 36.8649 33.1014 36.6328 33.6764 36.2721C34.2514 35.9114 34.7455 35.4337 35.1129 34.8831C35.4804 34.3324 35.7095 33.7266 35.779 33.1215C35.9768 31.8822 35.7648 30.6837 35.1724 29.6934C34.58 28.7032 33.6368 27.9706 32.4748 27.5981C31.9796 27.4164 31.4263 27.3525 30.8569 27.4113C30.2874 27.4701 29.7167 27.65 29.1877 27.9375C28.6588 28.2249 28.1855 28.6124 27.8037 29.0706C27.4218 29.5288 27.1414 30.0457 26.9836 30.5823C26.5237 32.0154 26.6542 33.464 27.3469 34.6168Z" fill="#FF974F"/>
<path d="M50.7991 22.702C52.1377 25.2934 52.2229 27.7202 50.776 30.3431C50.3304 31.2169 49.6868 32.0136 48.8983 32.6674C48.1098 33.3213 47.199 33.8135 46.2411 34.1035C45.2832 34.3936 44.3056 34.473 43.389 34.3354C42.4723 34.1978 41.643 33.8471 40.9693 33.3122C39.5533 32.2617 38.6773 30.6933 38.4991 28.8894C38.3209 27.0855 38.8521 25.1647 39.9972 23.4729C40.5113 22.7273 41.172 22.068 41.9345 21.5397C42.697 21.0115 43.5434 20.6266 44.4163 20.4113C45.2892 20.196 46.1681 20.1552 46.9934 20.2919C47.8186 20.4285 48.5708 20.7393 49.199 21.2032C49.7726 21.6635 50.3071 22.1641 50.7991 22.702ZM48.2969 24.5289C47.9866 24.1777 47.6488 23.8501 47.2854 23.5481C46.96 23.2832 46.5629 23.101 46.1225 23.0145C45.682 22.9281 45.2091 22.9395 44.7375 23.0481C44.2659 23.1566 43.8072 23.3595 43.3943 23.6423C42.9814 23.9251 42.6245 24.2808 42.349 24.684C41.6179 25.7907 41.2852 27.0402 41.4098 28.211C41.5343 29.3818 42.1081 30.3985 43.0295 31.0809C43.3727 31.3553 43.7936 31.5386 44.2594 31.6163C44.7252 31.694 45.2232 31.6641 45.7145 31.5289C46.2059 31.3937 46.6773 31.1568 47.0919 30.8368C47.5066 30.5168 47.8532 30.1223 48.1048 29.6842C49.2323 27.9114 49.1452 26.2752 48.2969 24.5289Z" fill="#FF974F"/>
<path d="M60.6876 38.3971C59.3449 39.2395 57.7959 39.6059 56.3683 39.419C54.9407 39.2321 53.7465 38.5065 53.0385 37.3956C52.2097 36.1397 51.9048 34.5793 52.1718 32.9617C52.4389 31.3441 53.2627 29.7619 54.5128 28.4657C55.2105 27.7135 56.0705 27.1096 57.0122 26.7105C57.9539 26.3115 58.9463 26.1304 59.8965 26.1842C60.8467 26.2379 61.7236 26.5248 62.4449 27.018C63.1662 27.5112 63.7083 28.1944 64.0204 29.0037C64.5774 30.2394 64.6958 31.6723 64.3607 33.1192C64.0256 34.5662 63.2521 35.9614 62.139 37.1267C61.6762 37.5716 61.1917 37.9957 60.6876 38.3971ZM55.4056 35.4188C55.5806 35.8108 55.8672 36.1364 56.2387 36.3652C56.6102 36.594 57.0546 36.7187 57.5306 36.7277C58.0066 36.7367 58.4989 36.6297 58.9617 36.4167C59.4245 36.2037 59.8429 35.8915 60.1779 35.5091C60.912 34.7135 61.3997 33.761 61.5719 32.7866C61.744 31.8123 61.5919 30.8654 61.1371 30.0801C60.9536 29.7313 60.6767 29.4436 60.3288 29.2401C59.9809 29.0367 59.5717 28.9232 59.1344 28.9089C58.6971 28.8947 58.244 28.98 57.8116 29.158C57.3793 29.336 56.9798 29.6017 56.6457 29.9336C55.8584 30.6987 55.3116 31.6428 55.0861 32.6261C54.8606 33.6093 54.9684 34.5796 55.3936 35.3932L55.4056 35.4188Z" fill="#FF974F"/>
<path d="M42.5748 3.52315C50.3272 3.52162 57.906 5.81908 64.3526 10.125C70.7993 14.4309 75.8242 20.5518 78.792 27.7137C81.7598 34.8755 82.5371 42.7566 81.0256 50.3602C79.5141 57.9639 75.7818 64.9485 70.3005 70.4308C64.8193 75.9132 57.8354 79.6469 50.232 81.1599C42.6287 82.6729 34.7475 81.8971 27.585 78.9308C20.4226 75.9644 14.3007 70.9407 9.99349 64.4949C5.68632 58.0491 3.38736 50.4708 3.38736 42.7184C3.38736 32.3245 7.51578 22.3562 14.8646 15.0059C22.2135 7.65561 32.181 3.52521 42.5748 3.52315ZM42.5748 0.741211C34.2725 0.741211 26.1567 3.20314 19.2536 7.81565C12.3505 12.4282 6.97015 18.9841 3.79299 26.6544C0.615842 34.3247 -0.215443 42.765 1.40426 50.9077C3.02395 59.0505 7.02189 66.5301 12.8925 72.4007C18.7631 78.2713 26.2427 82.2693 34.3855 83.889C42.5283 85.5087 50.9685 84.6774 58.6388 81.5002C66.3091 78.3231 72.8651 72.9427 77.4776 66.0396C82.0901 59.1365 84.552 51.0207 84.552 42.7184C84.5315 31.5945 80.1013 20.9326 72.2327 13.0697C64.364 5.20679 53.6987 0.784503 42.5748 0.772214V0.741211Z" fill="#FF974F"/>
<path d="M81.2823 74.378C80.5073 81.1198 76.5165 85.6221 70.17 88.0011C69.8578 88.1029 69.5213 88.1029 69.2091 88.0011C66.1901 87.0234 63.5251 85.1801 61.5453 82.7001C59.5655 80.2202 58.3582 77.2131 58.0735 74.0526C57.8023 69.7441 57.9031 65.42 57.8721 61.1037C57.9004 60.9607 57.9622 60.8265 58.0524 60.712C58.1427 60.5975 58.2588 60.506 58.3913 60.4451C62.0489 59.3447 65.7065 58.283 69.3796 57.2292C69.5827 57.1749 69.7964 57.1749 69.9995 57.2292C73.8276 58.3063 77.6402 59.399 81.3752 60.4606C81.3752 65.1488 81.7782 69.8138 81.2823 74.378Z" fill="white"/>
<path fill-rule="evenodd" clip-rule="evenodd" d="M84.2149 58.5352C84.4689 58.8882 84.5811 59.3237 84.5293 59.7555C84.5111 61.4154 84.5191 63.0766 84.5272 64.7351C84.5396 67.2964 84.552 69.8515 84.4674 72.3866C84.462 75.7072 83.5907 78.969 81.9396 81.85C80.2885 84.731 77.9145 87.1316 75.0521 88.8148C73.4407 89.7021 71.7708 90.4788 70.0539 91.1395H69.279C68.7796 90.9148 68.2737 90.7029 67.7676 90.491C66.7033 90.0452 65.6379 89.599 64.6295 89.0318C61.3549 87.2111 58.7137 84.4347 57.0586 81.0734L55.1833 76.2922C55.1445 75.8506 55.0973 75.4181 55.0508 74.9918C54.9488 74.0568 54.8501 73.152 54.8501 72.2471V59.6702C54.8107 59.284 54.9121 58.8965 55.1357 58.579C55.3592 58.2615 55.6898 58.0354 56.0667 57.9422L57.8258 57.3842L60.7859 56.5008L61.7391 56.2606C62.3358 56.0881 62.9299 55.9129 63.5236 55.7378C65.1964 55.2445 66.8658 54.7523 68.5816 54.3233C69.2891 54.1722 70.0206 54.1722 70.7281 54.3233C71.5123 54.4823 72.2809 54.7229 73.0643 54.968C73.3879 55.0693 73.714 55.1713 74.0447 55.2687L77.0979 56.1211L77.8031 56.3381L83.1578 57.8492C83.5836 57.9374 83.9609 58.1822 84.2149 58.5352ZM70.1702 88.0011C76.5167 85.6222 80.5075 81.1199 81.2825 74.3781C81.6244 71.2311 81.539 68.0361 81.453 64.8187C81.4143 63.3698 81.3754 61.9164 81.3754 60.4607C80.2188 60.1319 79.0548 59.8002 77.8852 59.4669C75.2777 58.7238 72.6424 57.9728 69.9997 57.2292C69.7966 57.175 69.5828 57.175 69.3798 57.2292C65.7067 58.2831 62.0491 59.3448 58.3915 60.4452C58.259 60.5061 58.1429 60.5976 58.0526 60.7121C57.9624 60.8266 57.9006 60.9608 57.8723 61.1038C57.8804 62.2327 57.8795 63.3621 57.8786 64.4916C57.876 67.6809 57.8735 70.871 58.0737 74.0527C58.3584 77.2132 59.5657 80.2203 61.5455 82.7002C63.5253 85.1802 66.1903 87.0235 69.2093 88.0011C69.5215 88.1029 69.858 88.1029 70.1702 88.0011ZM74.099 68.3416L68.1786 74.2542C67.303 73.3243 66.5281 72.5493 65.6989 71.7202C65.5702 71.5481 65.4059 71.4058 65.2172 71.3029C65.0285 71.2 64.8199 71.139 64.6055 71.124C64.3911 71.109 64.176 71.1404 63.9748 71.2161C63.7737 71.2917 63.5912 71.4098 63.4398 71.5623C63.2884 71.7148 63.1716 71.8982 63.0975 72.0999C63.0233 72.3017 62.9935 72.517 63.0101 72.7313C63.0267 72.9455 63.0892 73.1537 63.1935 73.3416C63.2978 73.5295 63.4413 73.6928 63.6144 73.8202C64.6528 74.8819 65.6834 75.9047 66.714 76.9199C67.9617 78.1443 68.4421 78.1675 69.713 76.9199C71.4776 75.197 73.2193 73.4511 74.9593 71.7071C75.481 71.1841 76.0025 70.6613 76.5245 70.1394C76.68 69.9887 76.8131 69.8164 76.9197 69.6279C77.0771 69.345 77.1364 69.0179 77.0882 68.6977C77.04 68.3775 76.8871 68.0823 76.6533 67.8582C76.4195 67.6342 76.1181 67.494 75.7961 67.4594C75.4742 67.4249 75.1499 67.498 74.8739 67.6674C74.5921 67.8636 74.3323 68.0897 74.099 68.3416Z" fill="#FF974F"/>
</svg>
