<svg width="248" height="53" viewBox="0 0 248 53" fill="none" xmlns="http://www.w3.org/2000/svg">
<path d="M15.3468 52.5671C15.2693 52.3734 15.0911 52.3734 14.9206 52.3346C8.00063 50.7848 3.73859 46.3988 1.88655 39.7732C-0.104987 32.6285 1.11163 25.9875 6.10209 20.2841C8.16905 17.9422 10.8717 16.251 13.8816 15.416C16.8915 14.581 20.0792 14.6381 23.0572 15.5804C25.3277 16.3322 27.3378 17.7135 28.8536 19.5634L29.551 20.3384C29.644 18.928 29.7603 17.6804 29.8067 16.4638C29.8067 15.9678 30.0005 15.8129 30.4809 15.8206C32.9994 15.8206 35.5256 15.8206 38.0441 15.8206C38.819 15.8206 38.7338 16.2623 38.7338 16.7505V33.4654C38.7338 39.1688 38.7338 44.8799 38.7338 50.591C38.7338 51.366 38.5323 51.5829 37.7574 51.5597C35.4068 51.5132 33.0614 51.5132 30.7212 51.5597C29.9462 51.5597 29.7835 51.3505 29.7758 50.6453C29.7758 49.3202 29.6285 48.0028 29.5355 46.484L28.6599 47.5766C26.5879 50.0658 23.7086 51.7495 20.5233 52.3346C20.3063 52.3811 20.0273 52.2881 19.8878 52.5671H15.3468ZM10.9221 33.7521C10.8789 34.9904 11.0573 36.2265 11.449 37.402C12.5804 40.7186 14.6959 43.0821 18.214 43.8493C19.7531 44.2222 21.3665 44.1499 22.8661 43.6409C24.3657 43.1319 25.6897 42.2071 26.6838 40.9744C30.0392 37.1618 30.0857 30.4588 26.8233 26.5687C25.9713 25.5122 24.8835 24.67 23.6473 24.1098C22.4111 23.5495 21.0608 23.2867 19.7047 23.3425C18.3486 23.3982 17.0244 23.771 15.8383 24.4308C14.6522 25.0907 13.6373 26.0192 12.8748 27.1421C11.5154 29.0711 10.8291 31.3941 10.9221 33.7521Z" fill="#FE395D"/>
<path d="M131.166 52.5666C131.003 52.1946 130.631 52.3186 130.352 52.2566C120.743 50.2573 114.916 42.8491 115.133 33.0309C115.358 22.957 123.657 13.8983 135.901 14.8979C145.161 15.6728 151.701 21.6862 153.026 30.6055C154.754 42.1749 146.92 51.226 136.869 52.3728C136.73 52.3728 136.598 52.3728 136.551 52.5666H131.166ZM143.394 33.4029C143.405 32.4015 143.256 31.4049 142.952 30.4505C141.86 26.8239 139.636 24.2512 135.777 23.5537C132.08 22.8873 129.058 24.2279 126.888 27.2966C125.635 29.2222 124.971 31.4716 124.978 33.769C124.985 36.0664 125.662 38.3119 126.927 40.2299C127.722 41.4165 128.796 42.3901 130.054 43.0656C131.313 43.7411 132.718 44.0979 134.146 44.1047C135.575 44.1116 136.983 43.7684 138.248 43.105C139.513 42.4417 140.596 41.4785 141.402 40.2996C142.802 38.2801 143.502 35.8577 143.394 33.4029Z" fill="#242424"/>
<path d="M203.062 52.5667C202.884 52.1638 202.473 52.2723 202.171 52.2103C198.461 51.545 195.062 49.7092 192.471 46.9719C189.88 44.2345 188.234 40.7395 187.773 36.9987C186.828 30.1872 188.393 24.0653 193.647 19.3694C199.134 14.4719 205.596 13.573 212.392 16.045C218.948 18.424 222.102 23.6159 223.164 30.2569C223.342 31.896 223.419 33.5445 223.396 35.1931C223.396 35.968 223.148 36.0765 222.458 36.0765C214.423 36.0765 206.379 36.0765 198.335 36.03C197.39 36.03 197.274 36.278 197.483 37.0994C198.366 40.633 200.18 43.3452 203.915 44.3216C205.695 44.7966 207.578 44.7106 209.308 44.0754C211.037 43.4402 212.528 42.2867 213.578 40.7725C213.63 40.6609 213.704 40.561 213.796 40.4789C213.888 40.3968 213.995 40.3343 214.112 40.2951C214.229 40.256 214.352 40.241 214.475 40.2511C214.597 40.2613 214.717 40.2963 214.826 40.3541C217.112 41.129 219.405 41.8652 221.73 42.5083C222.652 42.7718 222.505 43.1205 222.203 43.7792C220.017 47.9947 216.422 50.4047 211.997 51.7376C210.897 52.0708 209.773 52.2955 208.657 52.5667H203.062ZM205.457 29.6912H212.695C213.012 29.6912 213.469 29.9005 213.415 29.1953C213.223 27.6675 212.604 26.2249 211.629 25.0326C210.655 23.8403 209.364 22.9465 207.906 22.4535C202.721 21.0819 198.715 24.2048 197.568 29.172C197.405 29.947 197.909 29.6835 198.219 29.6912H205.457Z" fill="#242424"/>
<path d="M94.2876 52.5673C94.1016 52.1721 93.6909 52.2728 93.3887 52.2108C89.6539 51.4835 86.2541 49.5689 83.6959 46.7524C81.1377 43.9358 79.558 40.3681 79.1922 36.5808C78.4173 29.3431 80.5483 23.136 86.3834 18.5408C93.6444 12.8219 104.555 13.7595 110.282 20.4548C111.627 22.0414 112.632 23.8878 113.234 25.8792C113.397 26.4139 113.312 26.5921 112.762 26.6541C110.15 27.1423 107.539 27.6383 104.943 28.204C104.261 28.3512 104.129 27.9405 103.889 27.522C102.184 24.4766 99.402 23.0043 96.0776 23.4615C94.8547 23.6258 93.6925 24.0943 92.6975 24.824C91.7024 25.5537 90.9063 26.5213 90.382 27.6383C89.4006 29.407 88.8557 31.3843 88.7923 33.406C88.729 35.4277 89.1491 37.4354 90.0178 39.262C90.6146 40.6443 91.5923 41.8283 92.8368 42.6757C94.0813 43.5231 95.5412 43.9989 97.046 44.0477C98.5508 44.0964 100.038 43.7161 101.335 42.951C102.632 42.1859 103.684 41.0677 104.369 39.727C104.602 39.2853 104.78 39.1458 105.299 39.2543C107.864 39.7812 110.437 40.2927 113.048 40.7421C113.753 40.8583 113.823 41.0908 113.598 41.672C111.963 46.6547 108.484 49.8009 103.633 51.5289C102.362 51.9861 101.014 52.2341 99.7042 52.5751L94.2876 52.5673Z" fill="#242424"/>
<path d="M170.493 41.416C171.531 38.1691 172.484 35.2167 173.437 32.2332C175.103 27.0336 176.777 21.8339 178.412 16.6264C178.622 15.9678 178.87 15.6965 179.613 15.712C182.372 15.7663 185.139 15.712 187.897 15.712C188.602 15.712 188.889 15.7585 188.572 16.58C184.206 27.9454 179.869 39.3418 175.561 50.7692C175.503 50.9975 175.363 51.1959 175.166 51.3251C174.969 51.4543 174.731 51.5048 174.499 51.4666C171.771 51.4666 169.075 51.4666 166.324 51.4666C166.076 51.5115 165.82 51.4604 165.609 51.3237C165.397 51.187 165.245 50.9749 165.185 50.7305C160.886 39.365 156.567 27.9996 152.228 16.6342C151.957 15.9135 152.003 15.6966 152.84 15.7043C155.697 15.7508 158.562 15.7508 161.434 15.7043C162.209 15.7043 162.48 15.9368 162.705 16.6497C165.247 24.8251 167.827 32.9772 170.493 41.416Z" fill="#242424"/>
<path d="M66.5223 21.082C68.1573 18.0443 70.3039 16.138 73.4268 15.4871C74.8183 15.2043 76.25 15.1807 77.6501 15.4173C78.146 15.4948 78.3475 15.6885 78.3475 16.1922C78.3475 18.9432 78.3475 21.7019 78.3475 24.4528C78.3475 25.065 78.1693 25.1115 77.6268 24.9798C76.4857 24.691 75.3019 24.6096 74.1319 24.7396C69.5909 25.2975 67.0337 28.2267 66.964 33.1784C66.8865 38.8198 66.964 44.4689 66.964 50.1103C66.964 51.5671 67.1732 51.4276 65.6466 51.4354C63.1591 51.4354 60.6717 51.4354 58.1842 51.4354C57.5177 51.4354 57.3008 51.2494 57.3008 50.5675C57.3008 39.2486 57.3008 27.927 57.3008 16.6029C57.3008 15.9675 57.4248 15.6886 58.1532 15.704C60.5709 15.7505 62.9887 15.7428 65.3987 15.704C66.0418 15.704 66.2588 15.9288 66.282 16.5177C66.313 17.959 66.4525 19.3616 66.5223 21.082Z" fill="#FE395D"/>
<path d="M236.112 20.7872C236.507 20.6322 236.538 20.33 236.67 20.113C237.716 18.3253 239.296 16.9102 241.188 16.0665C243.079 15.2228 245.188 14.993 247.217 15.4093C247.736 15.5023 247.992 15.6728 247.992 16.2617C247.992 19.0127 247.992 21.7636 247.992 24.5223C247.992 25.0338 247.875 25.181 247.341 25.026C246.203 24.7175 245.017 24.628 243.846 24.7625C239.646 25.181 237.081 27.7847 236.67 32.0777C236.585 32.9379 236.569 33.798 236.569 34.6582C236.569 39.9586 236.569 45.259 236.569 50.5517C236.569 51.1717 236.5 51.4816 235.748 51.4661C233.051 51.4196 230.323 51.4661 227.666 51.4661C227.092 51.4661 226.891 51.3111 226.891 50.6912C226.891 39.2689 226.891 27.8441 226.891 16.4167C226.891 15.8743 227.053 15.7193 227.596 15.727C230.076 15.727 232.56 15.727 235.051 15.727C235.616 15.727 235.825 15.8665 235.825 16.4554C235.887 17.9045 236.019 19.3226 236.112 20.7872Z" fill="#242424"/>
<path d="M43.1201 33.5736C43.1201 27.9709 43.1201 22.3683 43.1201 16.7657C43.1201 15.7815 43.4223 15.58 44.3367 15.6033C46.8474 15.6653 49.3737 15.6498 51.8844 15.6033C52.6206 15.6033 52.8918 15.735 52.8918 16.5487C52.8608 27.9141 52.8608 39.2589 52.8918 50.583C52.8918 51.2262 52.7678 51.4896 52.0549 51.4819C49.3659 51.4431 46.6692 51.4354 43.9803 51.4819C43.2673 51.4819 43.1356 51.2262 43.1434 50.583C43.1279 44.9183 43.1201 39.246 43.1201 33.5736Z" fill="#FE395D"/>
<path d="M53.5185 5.91716C53.5416 7.01599 53.2373 8.09685 52.6444 9.02228C52.0514 9.94771 51.1967 10.6759 50.1888 11.1142C49.1809 11.5525 48.0654 11.6812 46.9842 11.4838C45.903 11.2865 44.9049 10.772 44.1169 10.0059C43.3288 9.23972 42.7865 8.25652 42.5587 7.18129C42.331 6.10606 42.4282 4.9874 42.8379 3.96757C43.2477 2.94773 43.9515 2.0728 44.8599 1.45404C45.7683 0.835293 46.8401 0.500677 47.9391 0.492749C48.6658 0.466571 49.3902 0.587812 50.0688 0.849162C50.7473 1.11051 51.3659 1.50656 51.8873 2.01343C52.4086 2.5203 52.822 3.12749 53.1023 3.7984C53.3827 4.46931 53.5242 5.19005 53.5185 5.91716Z" fill="#FE395D"/>
</svg>
