<svg width="86" height="64" viewBox="0 0 86 64" fill="none" xmlns="http://www.w3.org/2000/svg">
<g clip-path="url(#clip0_394_5314)">
<path d="M29.6249 47.3799C29.6249 55.1003 23.3665 61.3505 15.6543 61.3505C7.94206 61.3505 1.68359 55.0921 1.68359 47.3799C1.68359 39.6676 7.94206 33.4092 15.6543 33.4092C23.3665 33.4092 29.6249 39.6594 29.6249 47.3799V47.3799Z" stroke="#F09F54" stroke-width="4.1" stroke-linecap="round" stroke-linejoin="round"/>
<path d="M15.6211 39.6094V48.3318" stroke="#F09F54" stroke-width="4.1" stroke-linecap="round" stroke-linejoin="round"/>
<path d="M8.97701 35.1011L6.5459 24.2021" stroke="#F09F54" stroke-width="4.1" stroke-linecap="round" stroke-linejoin="round"/>
<path d="M81.3436 15.7092L84.3167 2.35449H1.68359L4.84568 16.5469H73.7463" stroke="#F09F54" stroke-width="4.1" stroke-linecap="round" stroke-linejoin="round"/>
<path d="M46.8152 32.6693C46.8152 34.7719 45.1069 36.4803 43.0043 36.4803C40.9017 36.4803 39.1934 34.7719 39.1934 32.6693C39.1934 30.5667 40.9017 28.8584 43.0043 28.8584C45.1069 28.8584 46.8152 30.5667 46.8152 32.6693Z" stroke="#F09F54" stroke-width="4.1" stroke-linecap="round" stroke-linejoin="round"/>
<path d="M13.7979 24.2021H79.4543L76.5715 37.1462C75.9472 39.9551 73.4504 41.9591 70.5758 41.9591H28.5324" stroke="#F09F54" stroke-width="4.1" stroke-linecap="round" stroke-linejoin="round"/>
</g>
<defs>
<clipPath id="clip0_394_5314">
<rect width="86.0006" height="62.3547" fill="white" transform="translate(0 0.670898)"/>
</clipPath>
</defs>
</svg>
