<svg width="100" height="100" viewBox="0 0 100 100" fill="none" xmlns="http://www.w3.org/2000/svg">
<circle cx="50" cy="50" r="50" fill="white"/>
<path d="M72.6771 37.25C72.1101 37.2901 71.5822 37.5536 71.2094 37.9827C70.8366 38.4118 70.6493 38.9714 70.6888 39.5384C70.8208 44.2795 70.1365 49.0081 68.6657 53.5172C65.5114 63.2845 59.2769 70.3066 50.1361 74.4006C40.1295 70.1282 33.6339 61.988 30.7711 50.1933C29.5207 44.8804 29.0532 39.4133 29.3832 33.9652L50.1056 25.477L63.0533 31.4418C63.4175 31.6091 63.7358 31.862 63.981 32.179C64.2262 32.4959 64.3912 32.8675 64.4617 33.262C64.5322 33.6565 64.5062 34.0622 64.386 34.4445C64.2658 34.8268 64.0548 35.1744 63.7712 35.4575L47.4996 51.7291L42.518 46.4473C42.1286 46.0337 41.5907 45.7916 41.0229 45.7745C40.455 45.7574 39.9036 45.9665 39.4899 46.356C39.0762 46.7454 38.8342 47.2832 38.8171 47.8511C38.7999 48.419 39.0091 48.9704 39.3985 49.3841L45.8941 56.2843C46.0908 56.4933 46.3275 56.6606 46.5901 56.7764C46.8527 56.8921 47.1359 56.9538 47.4229 56.9578C47.7099 56.9619 47.9947 56.9082 48.2605 56.8C48.5263 56.6917 48.7676 56.5312 48.9701 56.3278L66.808 38.4899C67.5788 37.7178 68.1517 36.7709 68.478 35.7299C68.8042 34.6888 68.8743 33.5843 68.682 32.5104C68.4898 31.4365 68.041 30.4248 67.3738 29.5616C66.7067 28.6984 65.8409 28.009 64.8502 27.5522L51.0541 21.1959C50.7875 21.073 50.4984 21.0064 50.205 21.0004C49.9115 20.9945 49.62 21.0491 49.3486 21.1611L26.5509 30.4977C26.1977 30.6446 25.8903 30.8836 25.6608 31.1896C25.4312 31.4957 25.2879 31.8577 25.2457 32.2379C24.6641 38.5529 25.1167 44.9204 26.5857 51.0895C29.8096 64.5114 37.6887 74.0699 49.3747 78.7382C49.8959 78.9529 50.4807 78.9529 51.0019 78.7382C61.635 74.257 69.1573 66.0037 72.7554 54.8703C74.4019 49.8396 75.1529 44.559 74.9742 39.2687C74.9588 38.9843 74.8868 38.7058 74.7624 38.4496C74.638 38.1934 74.4638 37.9646 74.2498 37.7766C74.0359 37.5886 73.7866 37.4452 73.5165 37.3548C73.2465 37.2643 72.9611 37.2287 72.6771 37.25Z" fill="#F39E5F"/>
</svg>
