<svg width="22" height="21" viewBox="0 0 22 21" fill="none" xmlns="http://www.w3.org/2000/svg">
<path fill-rule="evenodd" clip-rule="evenodd" d="M19.6478 7.45825C19.6478 7.89039 20.0061 8.24875 20.4383 8.24875C20.8704 8.24875 21.2288 7.89039 21.2288 7.45825V1.13425C21.2288 1.01557 21.2018 0.902464 21.1536 0.800811C21.116 0.718938 21.0637 0.642458 20.9968 0.575568C20.9287 0.507439 20.8506 0.454495 20.767 0.416737C20.6666 0.369955 20.5551 0.34375 20.4383 0.34375H14.1143C13.6821 0.34375 13.3238 0.70211 13.3238 1.13425C13.3238 1.56639 13.6821 1.92475 14.1143 1.92475H18.5304L11.9746 8.48057C11.6689 8.78623 11.6689 9.29215 11.9746 9.59781C12.1327 9.75591 12.333 9.82969 12.5332 9.82969C12.7335 9.82969 12.9337 9.75591 13.0918 9.59781L19.6478 3.04187V7.45825ZM1.46628 20.8967H7.79028C8.22242 20.8967 8.58078 20.5384 8.58078 20.1063C8.58078 19.6741 8.22242 19.3158 7.79028 19.3158H3.3739L9.92984 12.7598C10.2355 12.4541 10.2355 11.9482 9.92984 11.6426C9.62418 11.3369 9.11826 11.3369 8.8126 11.6426L2.25678 18.1984V13.7822C2.25678 13.3501 1.89842 12.9917 1.46628 12.9917C1.03414 12.9917 0.675781 13.3501 0.675781 13.7822V20.1063C0.675781 20.2231 0.701986 20.3346 0.748768 20.435C0.786527 20.5186 0.83947 20.5967 0.907599 20.6648C1.05291 20.8101 1.23384 20.8842 1.41765 20.8952C1.43374 20.8962 1.44996 20.8967 1.46628 20.8967Z" fill="white"/>
</svg>
