<svg width="81" height="79" viewBox="0 0 81 79" fill="none" xmlns="http://www.w3.org/2000/svg">
<path d="M62.5049 78.3105C60.8388 77.5356 59.0953 76.9544 57.5145 76.0633C53.6955 73.9148 50.6974 70.5597 48.9904 66.5241C48.9026 66.2365 48.7138 65.9904 48.459 65.8309C48.2041 65.6715 47.9003 65.6094 47.6033 65.6562C37.1058 65.6562 26.6057 65.6562 16.103 65.6562C12.6701 65.6562 10.7793 63.7731 10.7793 60.3557C10.7793 49.1969 10.7793 38.0356 10.7793 26.8716V25.6473L8.26084 27.0189C5.64938 28.4215 2.83644 27.7008 1.51908 25.2986C0.201725 22.8963 1.11613 20.1144 3.71209 18.704C14.2664 12.9851 24.8208 7.27403 35.3751 1.57065C36.9571 0.629992 38.7574 0.118723 40.5976 0.0874625C42.4379 0.0562023 44.2544 0.506026 45.8675 1.39241C56.0189 6.81682 66.1238 12.311 76.2442 17.7896C76.7014 18.0376 77.1431 18.3243 77.6003 18.5645C79.0648 19.3937 80.3435 20.3933 80.6999 22.1679V23.9502C79.3283 28.1348 75.5158 28.5997 72.7726 26.7399C72.1507 26.3672 71.5091 26.0283 70.8508 25.7248V40.9441C71.1142 41.0293 71.3544 41.1146 71.6257 41.1843C73.5165 41.719 75.4227 42.2382 77.3058 42.7962C77.7605 42.8883 78.1639 43.1484 78.4353 43.5247C78.7068 43.901 78.8264 44.3658 78.7704 44.8264C78.7239 49.3364 78.8634 53.8464 78.7239 58.3487C78.4837 65.9351 75.105 71.84 68.65 75.8695C66.9291 76.8062 65.1451 77.6218 63.3108 78.3105H62.5049ZM53.3919 41.3316C53.7794 41.2308 54.0971 41.1611 54.4071 41.0681C56.8403 40.3784 59.258 39.6345 61.7067 39.0146C62.4723 38.8446 63.2659 38.8446 64.0315 39.0146C65.2094 39.2548 66.3562 39.6655 67.5574 40.0219C67.5952 39.8718 67.6212 39.719 67.6349 39.5648C67.6349 34.5588 67.6349 29.5528 67.6349 24.5546C67.595 24.3475 67.5097 24.1518 67.3851 23.9816C67.2605 23.8114 67.0996 23.671 66.9142 23.5705C58.7853 19.1147 50.641 14.7132 42.5121 10.2187C42.0393 9.91123 41.4875 9.74756 40.9235 9.74756C40.3596 9.74756 39.8077 9.91123 39.3349 10.2187C31.0821 14.721 22.806 19.1767 14.5377 23.6867C14.3676 23.8079 14.2266 23.9652 14.1247 24.1475C14.0229 24.3297 13.9628 24.5323 13.9487 24.7406C13.9487 36.6588 13.9487 48.577 13.9487 60.4952C13.9487 61.9676 14.4989 62.5022 15.9867 62.51H28.1684V61.2236C28.1684 52.8287 28.1684 44.4338 28.1684 36.0389C28.1684 32.8772 30.1212 30.909 33.2596 30.9012H48.3705C51.4701 30.9012 53.4307 32.8772 53.4462 35.9536C53.4307 37.7282 53.3919 39.5105 53.3919 41.3316ZM75.3298 45.4851C71.3467 44.3537 67.2706 43.1604 63.1946 42.0445C62.9768 41.9825 62.746 41.9825 62.5282 42.0445C58.6148 43.1681 54.7015 44.2995 50.8037 45.4696C50.6619 45.5361 50.538 45.6354 50.4423 45.7594C50.3466 45.8834 50.2819 46.0285 50.2535 46.1825C50.2535 50.7855 50.176 55.404 50.4627 59.9915C50.8812 66.7565 55.8871 72.8706 62.3499 74.9241C62.6829 75.0288 63.0399 75.0288 63.3728 74.9241C70.1456 72.3902 74.4386 67.5857 75.229 60.3945C75.7947 55.559 75.3608 50.5841 75.3608 45.5084L75.3298 45.4851ZM47.4328 62.448C47.3088 60.9447 47.0919 59.5421 47.0841 58.1395C47.0299 53.6605 47.0841 49.1814 47.0841 44.7102C47.0423 44.2975 47.151 43.8835 47.3902 43.5446C47.6294 43.2057 47.9831 42.9647 48.386 42.8659L50.2535 42.277C50.2535 40.1769 50.2535 38.1389 50.2535 36.0776C50.2535 34.5278 49.7188 34.0164 48.169 34.0164H33.4456C31.764 34.0164 31.2758 34.5123 31.2758 36.1939V61.4794C31.2758 61.7971 31.2758 62.1148 31.3223 62.4402L47.4328 62.448ZM40.6833 2.99649C39.304 3.37402 37.9545 3.8532 36.646 4.43009C28.8426 8.57589 21.0702 12.7914 13.3055 17.0147C10.4435 18.5645 7.60217 20.1557 4.78148 21.7882C4.59505 21.8615 4.42806 21.9769 4.29351 22.1253C4.15897 22.2738 4.0605 22.4512 4.00576 22.644C3.95102 22.8367 3.94148 23.0394 3.97791 23.2364C4.01434 23.4334 4.09575 23.6193 4.21578 23.7797C4.4068 24.1313 4.72641 24.3954 5.10772 24.5168C5.48903 24.6381 5.90248 24.6072 6.26156 24.4307C6.61948 24.271 6.96869 24.0926 7.3077 23.896C17.4203 18.4173 27.5485 12.9619 37.6379 7.42901C38.5684 6.85092 39.6421 6.54458 40.7375 6.54458C41.833 6.54458 42.9067 6.85092 43.8372 7.42901C54.2133 13.1246 64.6282 18.7195 75.0353 24.3454C75.2607 24.4771 75.5117 24.559 75.7715 24.5856C76.1368 24.6388 76.5086 24.5505 76.811 24.3388C77.1134 24.1271 77.3237 23.808 77.3988 23.4465C77.67 22.4469 77.1043 21.8579 76.2674 21.4085C65.6898 15.6896 55.12 9.94749 44.4959 4.26737C43.2769 3.74883 42.0173 3.33153 40.7298 3.01974L40.6833 2.99649Z" fill="#FF974F"/>
<path d="M61.2805 60.2942L67.5961 53.9864C67.8289 53.7224 68.0886 53.4835 68.371 53.2735C68.6587 53.0729 69.0091 52.9828 69.3579 53.0199C69.7067 53.0569 70.0303 53.2185 70.2696 53.4749C70.5333 53.7053 70.7068 54.0216 70.7593 54.3678C70.8118 54.714 70.7398 55.0676 70.5563 55.3657C70.4411 55.5662 70.2976 55.7489 70.1301 55.9082C67.7123 58.3259 65.3101 60.7514 62.8614 63.1459C61.5053 64.4787 60.9938 64.4477 59.661 63.1459C58.5606 62.061 57.4602 60.9684 56.3831 59.8602C56.2034 59.7221 56.0552 59.5473 55.9484 59.3474C55.8415 59.1476 55.7784 58.9273 55.7633 58.7011C55.7482 58.475 55.7814 58.2482 55.8608 58.0359C55.9401 57.8237 56.0637 57.6307 56.2234 57.4699C56.3831 57.3091 56.5752 57.1841 56.787 57.1033C56.9987 57.0225 57.2252 56.9877 57.4515 57.0013C57.6777 57.0148 57.8984 57.0764 58.099 57.1818C58.2996 57.2873 58.4755 57.4343 58.6148 57.613C59.5137 58.4499 60.3661 59.341 61.2805 60.2942Z" fill="#FF974F"/>
</svg>
