<svg width="26" height="25" viewBox="0 0 26 25" fill="none" xmlns="http://www.w3.org/2000/svg">
<path fill-rule="evenodd" clip-rule="evenodd" d="M23.9563 15.3435C24.5364 15.1415 24.8441 14.7117 25.0001 14.1452L25.0005 14.1448V13.676C24.9968 13.6695 24.9927 13.6632 24.9884 13.6569L24.9884 13.6569C24.9798 13.6439 24.9711 13.6309 24.9667 13.6163C24.7168 12.7873 24.2161 12.4138 23.3504 12.412H22.9972V12.0949L22.9972 9.73141C22.9973 7.371 22.9974 5.01046 22.9967 2.65018C22.9967 2.50974 22.9967 2.36835 22.9826 2.22884C22.9187 1.59566 22.6139 1.10433 22.0685 0.783505C21.2568 0.306267 20.3681 0.439199 19.6715 1.12452C19.4092 1.38274 19.1498 1.64417 18.9086 1.88732C18.7922 2.00465 18.68 2.11773 18.5738 2.22414C18.4895 2.19689 18.4097 2.16299 18.3335 2.13067C18.1787 2.06497 18.0393 2.00579 17.9096 2.02216C17.1124 2.12313 16.3196 2.26497 15.5279 2.40664L15.4609 2.41861C14.994 2.50222 14.8484 2.94987 15.1791 3.29464C16.018 4.16891 16.8639 5.03648 17.7098 5.90407L17.7104 5.90465L17.7104 5.90472L18.1008 6.30509C18.2501 6.45822 18.4286 6.54606 18.6504 6.47372C18.8678 6.4028 18.9651 6.23886 19.0073 6.02326L19.0487 5.81063C19.1705 5.18478 19.2923 4.55859 19.4282 3.93581C19.5043 3.58681 19.5691 3.25472 19.2352 3.03113C19.3583 2.90364 19.4794 2.77727 19.5994 2.65205L19.5995 2.65196L19.5997 2.65176C19.9051 2.33324 20.2033 2.02211 20.509 1.71872C20.6889 1.54023 20.9294 1.48292 21.1817 1.51251C21.689 1.5717 21.9995 1.94842 21.9995 2.5088C22.0001 4.65996 21.9999 6.81133 21.9997 8.96263V8.97728L21.9995 12.2114C21.9995 12.2514 21.9972 12.2915 21.9945 12.3376C21.9932 12.3608 21.9918 12.3854 21.9905 12.4124H21.6763H21.6571C15.3434 12.4124 9.03014 12.4124 2.71643 12.4134C2.57645 12.4134 2.43459 12.4152 2.29603 12.435C1.61305 12.5313 1.10669 13.047 1.01274 13.7342C0.924435 14.3806 1.30209 15.0419 1.92823 15.2918C2.07479 15.3505 2.1288 15.4346 2.16685 15.5685L2.38824 16.3479C2.71698 17.5059 3.04574 18.664 3.38296 19.8195C3.69862 20.9013 4.36656 21.6918 5.41498 22.1207C5.68123 22.2294 5.96347 22.2989 6.24928 22.3693L6.24939 22.3694L6.25002 22.3695C6.38248 22.4022 6.51571 22.435 6.64847 22.472C6.64485 22.4803 6.64037 22.4912 6.63512 22.5039L6.63508 22.504L6.63507 22.504C6.6199 22.5408 6.59842 22.5928 6.57332 22.643C6.50541 22.7798 6.43686 22.9162 6.3683 23.0527L6.36824 23.0528C6.27225 23.2439 6.17624 23.435 6.08199 23.6271C5.97771 23.8389 5.96456 24.0507 6.12849 24.24C6.3704 24.52 6.77248 24.4575 6.95802 24.1024C7.21778 23.6045 7.4672 23.1014 7.71052 22.5951C7.77769 22.4556 7.85942 22.4072 8.01537 22.4072C11.3358 22.4119 14.6558 22.4123 17.9758 22.4067C18.1454 22.4067 18.2253 22.4692 18.2938 22.612C18.5306 23.1038 18.7753 23.5923 19.0238 24.0785C19.1755 24.3758 19.4447 24.4866 19.6964 24.3692C19.9773 24.2382 20.068 23.9526 19.9163 23.6336C19.8092 23.4082 19.6969 23.1851 19.5847 22.9621L19.5845 22.9617L19.5843 22.9613C19.5248 22.8431 19.4653 22.7249 19.4066 22.6063C19.3847 22.5622 19.3673 22.5161 19.3556 22.4852C19.3518 22.4751 19.3486 22.4665 19.346 22.4603C19.4689 22.4295 19.5911 22.403 19.7119 22.3767L19.712 22.3767L19.712 22.3766C19.9736 22.3197 20.2286 22.2642 20.4696 22.1714C21.6124 21.7313 22.3198 20.8876 22.651 19.7157C23.0432 18.3272 23.4396 16.9401 23.8375 15.5535C23.8596 15.4764 23.8986 15.3637 23.9563 15.3435ZM3.18943 15.493C3.18421 15.4695 3.1787 15.4447 3.17253 15.4182V15.4177H22.8205C22.8148 15.4444 22.8097 15.4701 22.8048 15.4952L22.8048 15.4953C22.7948 15.546 22.7854 15.5938 22.7722 15.6404C22.4086 16.9152 22.045 18.19 21.6791 19.4639C21.3179 20.7195 20.3982 21.4128 19.0914 21.4128C15.0297 21.4137 10.9676 21.4137 6.90588 21.4128C5.59958 21.4123 4.6794 20.7181 4.31912 19.4625C3.97474 18.2636 3.63203 17.0638 3.28941 15.8644L3.28937 15.8643L3.2892 15.8637L3.22514 15.6394C3.21176 15.5934 3.20133 15.5465 3.18943 15.493ZM2.7385 13.4111C6.16748 13.4096 9.59598 13.4096 13.025 13.4096V13.4092H22.1399C22.2623 13.4092 22.3846 13.4088 22.5069 13.4085H22.5071C22.806 13.4076 23.105 13.4067 23.4039 13.4111C23.7365 13.4158 23.9263 13.5571 23.9765 13.8174C24.0301 14.0945 23.8751 14.335 23.5961 14.3881C23.4744 14.4111 23.348 14.4163 23.2236 14.4163C16.4046 14.4177 9.58612 14.4177 2.76763 14.4163C2.63563 14.4158 2.50129 14.4087 2.37259 14.3824C2.15934 14.3388 2.01043 14.1448 2.00339 13.9277C1.99587 13.706 2.14853 13.4918 2.36695 13.4439C2.48767 13.4176 2.6145 13.4111 2.7385 13.4111ZM16.8422 3.5768L16.5277 3.25237H16.5272L16.7862 3.209L16.7863 3.20898L16.7863 3.20898C17.1219 3.15274 17.4321 3.10075 17.7424 3.05086C17.7771 3.04522 17.8283 3.04898 17.8509 3.07058C18.0416 3.25378 18.23 3.43979 18.4108 3.63284C18.4399 3.66384 18.4404 3.73665 18.431 3.7855C18.374 4.08206 18.3136 4.37776 18.2492 4.69337L18.2491 4.69384L18.2489 4.69466L18.1928 4.96967L16.8422 3.5768ZM12.9733 7.03633C12.9957 6.9869 13.02 6.93303 13.0503 6.87513V6.87466C13.0142 6.83159 12.9806 6.78562 12.9473 6.73992L12.9473 6.73991L12.9472 6.73991C12.8733 6.63857 12.8002 6.53855 12.7031 6.47446C12.5049 6.34387 12.2926 6.42091 12.1291 6.57873C11.8045 6.89251 11.4833 7.21004 11.1718 7.5365C10.9501 7.76901 10.9511 8.07057 11.1526 8.26598C11.348 8.45575 11.6401 8.45856 11.8651 8.24578C12.1986 7.93013 12.5228 7.60461 12.8379 7.27064C12.8943 7.21116 12.9301 7.13207 12.9733 7.03633ZM14.4454 7.45327C14.4057 7.42045 14.3631 7.38956 14.3206 7.35866C14.2237 7.28827 14.1267 7.21782 14.063 7.12446C13.9498 6.95959 13.9808 6.75761 14.1184 6.60448C14.2839 6.42112 14.4583 6.24611 14.6327 6.07116L14.6332 6.07064C14.6735 6.0302 14.7138 5.98976 14.754 5.94922C14.7819 5.921 14.8097 5.89253 14.8375 5.86404C14.9462 5.75262 15.0551 5.64091 15.1748 5.54291C15.3947 5.36347 15.6713 5.38273 15.8522 5.57062C16.0302 5.75569 16.0565 6.02766 15.8696 6.2287C15.53 6.59462 15.1716 6.94362 14.8094 7.28793C14.758 7.33656 14.6853 7.36272 14.5961 7.39483C14.5501 7.41142 14.4996 7.42959 14.4454 7.45327ZM13.055 10.1253C13.1461 10.3076 13.2988 10.4044 13.575 10.402L13.5745 10.4025C13.5869 10.3966 13.6047 10.3904 13.6254 10.3831C13.684 10.3626 13.767 10.3336 13.8249 10.2785C14.1805 9.93886 14.5332 9.59456 14.8667 9.23381C15.0551 9.03042 15.0255 8.73497 14.8409 8.55788C14.6544 8.37845 14.3768 8.37093 14.1607 8.55365C14.0628 8.63615 13.973 8.72836 13.8833 8.82047C13.8529 8.8516 13.8226 8.88273 13.792 8.91346C13.7367 8.96876 13.6811 9.02381 13.6255 9.07888C13.4647 9.23804 13.3038 9.39732 13.1499 9.56309C13 9.7242 12.9521 9.91914 13.055 10.1253Z" fill="black"/>
<path d="M25.0001 14.1452L24.8591 14.0034L24.8214 14.0409L24.8072 14.0921L25.0001 14.1452ZM23.9563 15.3435L23.8906 15.1546L23.8903 15.1547L23.9563 15.3435ZM25.0005 14.1448L25.1415 14.2866L25.2005 14.228V14.1448H25.0005ZM25.0005 13.676H25.2005V13.6229L25.1742 13.5768L25.0005 13.676ZM24.9884 13.6569L25.155 13.5461L25.1501 13.5388L25.1446 13.532L24.9884 13.6569ZM24.9884 13.6569L24.8219 13.7676L24.8268 13.7749L24.8323 13.7818L24.9884 13.6569ZM24.9667 13.6163L24.7752 13.674L24.7754 13.6746L24.9667 13.6163ZM23.3504 12.412L23.3508 12.212H23.3504V12.412ZM22.9972 12.412H22.7972V12.612H22.9972V12.412ZM22.9972 12.0949L22.7972 12.0949V12.0949H22.9972ZM22.9972 9.73141L22.7972 9.7314V9.73141L22.9972 9.73141ZM22.9967 2.65018H22.7967V2.65024L22.9967 2.65018ZM22.9826 2.22884L22.7836 2.24892L22.7836 2.24894L22.9826 2.22884ZM22.0685 0.783505L22.1699 0.611122L22.1699 0.611098L22.0685 0.783505ZM19.6715 1.12452L19.5313 0.981954L19.5312 0.981988L19.6715 1.12452ZM18.9086 1.88732L19.0506 2.02818V2.02817L18.9086 1.88732ZM18.5738 2.22414L18.5122 2.41443L18.6288 2.45214L18.7153 2.36546L18.5738 2.22414ZM18.3335 2.13067L18.4117 1.94657L18.4117 1.94657L18.3335 2.13067ZM17.9096 2.02216L17.8846 1.82374L17.8845 1.82375L17.9096 2.02216ZM15.5279 2.40664L15.5631 2.60351L15.5631 2.60351L15.5279 2.40664ZM15.4609 2.41861L15.4257 2.22174L15.4257 2.22174L15.4609 2.41861ZM15.1791 3.29464L15.0348 3.43308L15.0348 3.43311L15.1791 3.29464ZM17.7098 5.90407L17.8534 5.76482L17.853 5.76445L17.7098 5.90407ZM17.7104 5.90465L17.5668 6.04391L17.5689 6.04607L17.7104 5.90465ZM17.7104 5.90472L17.8537 5.76509L17.8519 5.76329L17.7104 5.90472ZM18.1008 6.30509L17.9576 6.44471L17.9576 6.44475L18.1008 6.30509ZM18.6504 6.47372L18.5883 6.28358L18.5883 6.28359L18.6504 6.47372ZM19.0073 6.02326L19.2036 6.06174L19.2037 6.06148L19.0073 6.02326ZM19.0487 5.81063L19.245 5.84885L19.2451 5.84883L19.0487 5.81063ZM19.4282 3.93581L19.6236 3.97844L19.6236 3.97842L19.4282 3.93581ZM19.2352 3.03113L19.0913 2.8922L18.9251 3.06425L19.1239 3.19732L19.2352 3.03113ZM19.5994 2.65205L19.7438 2.79046L19.7457 2.78851L19.5994 2.65205ZM19.5995 2.65196L19.4545 2.51423L19.4533 2.5155L19.5995 2.65196ZM19.5997 2.65176L19.4553 2.51336L19.4547 2.51404L19.5997 2.65176ZM20.509 1.71872L20.3682 1.57675L20.3682 1.57675L20.509 1.71872ZM21.1817 1.51251L21.1584 1.71115L21.1585 1.71117L21.1817 1.51251ZM21.9995 2.5088H21.7995V2.50885L21.9995 2.5088ZM21.9997 8.96263L21.7997 8.96261V8.96263H21.9997ZM21.9997 8.97728L22.1997 8.97729V8.97728H21.9997ZM21.9995 12.2114L21.7995 12.2114V12.2114H21.9995ZM21.9945 12.3376L22.1942 12.349V12.349L21.9945 12.3376ZM21.9905 12.4124V12.6124H22.1815L22.1903 12.4217L21.9905 12.4124ZM2.71643 12.4134V12.6134H2.71646L2.71643 12.4134ZM2.29603 12.435L2.32395 12.633L2.32421 12.633L2.29603 12.435ZM1.01274 13.7342L0.814586 13.7071L0.814584 13.7072L1.01274 13.7342ZM1.92823 15.2918L2.00261 15.1062L2.00237 15.1061L1.92823 15.2918ZM2.16685 15.5685L2.35924 15.5138L2.35923 15.5138L2.16685 15.5685ZM2.38824 16.3479L2.58064 16.2933L2.58063 16.2933L2.38824 16.3479ZM3.38296 19.8195L3.57496 19.7635L3.57495 19.7635L3.38296 19.8195ZM5.41498 22.1207L5.33926 22.3058L5.33936 22.3058L5.41498 22.1207ZM6.24928 22.3693L6.20143 22.5636L6.20647 22.5647L6.24928 22.3693ZM6.24939 22.3694L6.29687 22.175L6.29221 22.174L6.24939 22.3694ZM6.25002 22.3695L6.29787 22.1753L6.29749 22.1752L6.25002 22.3695ZM6.64847 22.472L6.83189 22.5517L6.92349 22.3411L6.70219 22.2794L6.64847 22.472ZM6.63512 22.5039L6.81974 22.5808L6.81998 22.5802L6.63512 22.5039ZM6.63508 22.504L6.81439 22.5937L6.81969 22.5809L6.63508 22.504ZM6.63507 22.504L6.45618 22.4146L6.45296 22.421L6.45021 22.4277L6.63507 22.504ZM6.57332 22.643L6.39443 22.5535L6.39418 22.5541L6.57332 22.643ZM6.3683 23.0527L6.18958 22.9629L6.18941 22.9633L6.3683 23.0527ZM6.36824 23.0528L6.54696 23.1426L6.54713 23.1423L6.36824 23.0528ZM6.08199 23.6271L6.26143 23.7154L6.26154 23.7152L6.08199 23.6271ZM6.12849 24.24L6.27982 24.1093L6.27968 24.1091L6.12849 24.24ZM6.95802 24.1024L7.13528 24.195L7.13534 24.1949L6.95802 24.1024ZM7.71052 22.5951L7.53032 22.5083L7.53025 22.5084L7.71052 22.5951ZM8.01537 22.4072L8.01565 22.2072H8.01537V22.4072ZM17.9758 22.4067V22.2067L17.9755 22.2067L17.9758 22.4067ZM18.2938 22.612L18.1135 22.6986L18.1136 22.6987L18.2938 22.612ZM19.0238 24.0785L19.2019 23.9876L19.2019 23.9874L19.0238 24.0785ZM19.6964 24.3692L19.781 24.5505L19.781 24.5505L19.6964 24.3692ZM19.9163 23.6336L19.7356 23.7194L19.7356 23.7195L19.9163 23.6336ZM19.5847 22.9621L19.4058 23.0515L19.406 23.052L19.5847 22.9621ZM19.5843 22.9613L19.7632 22.8719L19.763 22.8714L19.5843 22.9613ZM19.4066 22.6063L19.5858 22.5176L19.5858 22.5175L19.4066 22.6063ZM19.3556 22.4852L19.5427 22.4146L19.5427 22.4146L19.3556 22.4852ZM19.346 22.4603L19.2975 22.2662L19.0738 22.3222L19.1608 22.5357L19.346 22.4603ZM19.7119 22.3767L19.6726 22.1805L19.6693 22.1812L19.7119 22.3767ZM19.712 22.3767L19.7512 22.5728L19.712 22.3767ZM19.712 22.3766L19.7512 22.5728L19.7545 22.5721L19.712 22.3766ZM20.4696 22.1714L20.3977 21.9847L20.3977 21.9848L20.4696 22.1714ZM22.651 19.7157L22.8434 19.7701L22.8434 19.77L22.651 19.7157ZM23.8375 15.5535L24.0297 15.6086L24.0298 15.6086L23.8375 15.5535ZM3.17253 15.4182H2.97253V15.4411L2.97772 15.4635L3.17253 15.4182ZM3.18943 15.493L2.9942 15.5364L2.9942 15.5364L3.18943 15.493ZM3.17253 15.4177V15.2177H2.97253V15.4177H3.17253ZM22.8205 15.4177L23.0161 15.4598L23.0681 15.2177H22.8205V15.4177ZM22.8048 15.4952L23.0001 15.5386L23.001 15.5338L22.8048 15.4952ZM22.8048 15.4953L22.6095 15.4519L22.6086 15.4566L22.8048 15.4953ZM22.7722 15.6404L22.9645 15.6952L22.9646 15.695L22.7722 15.6404ZM21.6791 19.4639L21.8713 19.5192L21.8713 19.5191L21.6791 19.4639ZM19.0914 21.4128V21.2128H19.0914L19.0914 21.4128ZM6.90588 21.4128L6.90581 21.6128H6.90584L6.90588 21.4128ZM4.31912 19.4625L4.51136 19.4073L4.51135 19.4073L4.31912 19.4625ZM3.28941 15.8644L3.48172 15.8095L3.48165 15.8093L3.28941 15.8644ZM3.28937 15.8643L3.09705 15.9192L3.09713 15.9195L3.28937 15.8643ZM3.2892 15.8637L3.48152 15.8088L3.4815 15.8087L3.2892 15.8637ZM3.22514 15.6394L3.41745 15.5845L3.41718 15.5836L3.22514 15.6394ZM13.025 13.4096V13.6096H13.225V13.4096H13.025ZM2.7385 13.4111V13.6111H2.73859L2.7385 13.4111ZM13.025 13.4092V13.2092H12.825V13.4092H13.025ZM22.5069 13.4085V13.2085L22.5063 13.2085L22.5069 13.4085ZM22.5071 13.4085V13.6085L22.5077 13.6085L22.5071 13.4085ZM23.4039 13.4111L23.401 13.611L23.4011 13.611L23.4039 13.4111ZM23.9765 13.8174L23.7802 13.8553L23.7802 13.8553L23.9765 13.8174ZM23.5961 14.3881L23.6332 14.5846L23.6334 14.5846L23.5961 14.3881ZM23.2236 14.4163V14.2163H23.2235L23.2236 14.4163ZM2.76763 14.4163L2.76691 14.6163H2.76759L2.76763 14.4163ZM2.37259 14.3824L2.33245 14.5784L2.33254 14.5784L2.37259 14.3824ZM2.00339 13.9277L2.20328 13.9213L2.20327 13.921L2.00339 13.9277ZM2.36695 13.4439L2.32437 13.2485L2.3241 13.2486L2.36695 13.4439ZM16.5277 3.25237L16.6713 3.11315L16.6123 3.05237H16.5277V3.25237ZM16.8422 3.5768L16.6986 3.71602L16.6986 3.71603L16.8422 3.5768ZM16.5272 3.25237L16.4942 3.05511L16.5272 3.45237V3.25237ZM16.7862 3.209L16.7533 3.01172L16.7532 3.01175L16.7862 3.209ZM16.7863 3.20898L16.8192 3.4063L16.8232 3.40555L16.7863 3.20898ZM16.7863 3.20898L16.7533 3.01169L16.7495 3.0124L16.7863 3.20898ZM17.7424 3.05086L17.7741 3.24832L17.7744 3.24828L17.7424 3.05086ZM17.8509 3.07058L17.9894 2.92635L17.9893 2.92619L17.8509 3.07058ZM18.4108 3.63284L18.2648 3.76957L18.265 3.76978L18.4108 3.63284ZM18.431 3.7855L18.2346 3.74774L18.2346 3.74777L18.431 3.7855ZM18.2492 4.69337L18.445 4.73409L18.4451 4.73339L18.2492 4.69337ZM18.2491 4.69384L18.0533 4.65312L18.0531 4.65409L18.2491 4.69384ZM18.2489 4.69466L18.4449 4.73462L18.4449 4.73441L18.2489 4.69466ZM18.1928 4.96967L18.0493 5.1089L18.3131 5.38098L18.3888 5.00963L18.1928 4.96967ZM13.0503 6.87513L13.2275 6.96769L13.2502 6.9242V6.87513H13.0503ZM12.9733 7.03633L13.1556 7.11871L13.1556 7.11871L12.9733 7.03633ZM13.0503 6.87466H13.2502V6.80199L13.2036 6.74627L13.0503 6.87466ZM12.9473 6.73992L13.1089 6.62187L13.1034 6.61498L12.9473 6.73992ZM12.9472 6.73991L12.7856 6.85795L12.7911 6.86484L12.9472 6.73991ZM12.7031 6.47446L12.8133 6.30753L12.8131 6.30744L12.7031 6.47446ZM12.1291 6.57873L11.9902 6.43485L11.9901 6.43494L12.1291 6.57873ZM11.1718 7.5365L11.0271 7.39845L11.0271 7.39848L11.1718 7.5365ZM11.1526 8.26598L11.2919 8.1225L11.2918 8.1224L11.1526 8.26598ZM11.8651 8.24578L12.0026 8.39109L12.0026 8.39103L11.8651 8.24578ZM12.8379 7.27064L12.6928 7.13304L12.6925 7.13336L12.8379 7.27064ZM14.3206 7.35866L14.2031 7.52048L14.2031 7.52049L14.3206 7.35866ZM14.4454 7.45327L14.3179 7.60741L14.4127 7.68576L14.5254 7.63656L14.4454 7.45327ZM14.063 7.12446L14.2283 7.0118L14.2279 7.01126L14.063 7.12446ZM14.1184 6.60448L13.97 6.4705L13.9697 6.47079L14.1184 6.60448ZM14.6327 6.07116L14.7743 6.21235L14.7745 6.2122L14.6327 6.07116ZM14.6332 6.07064L14.4915 5.92945L14.4914 5.9296L14.6332 6.07064ZM14.754 5.94922L14.896 6.09002L14.8961 6.08991L14.754 5.94922ZM14.8375 5.86404L14.6943 5.72437L14.8375 5.86404ZM15.1748 5.54291L15.0484 5.38797L15.0481 5.38816L15.1748 5.54291ZM15.8522 5.57062L15.9963 5.43197L15.9963 5.43193L15.8522 5.57062ZM15.8696 6.2287L15.7231 6.09251L15.723 6.09265L15.8696 6.2287ZM14.8094 7.28793L14.9468 7.43323L14.9472 7.43288L14.8094 7.28793ZM14.5961 7.39483L14.5284 7.20666L14.5961 7.39483ZM13.575 10.402L13.7164 10.5434L14.062 10.1979L13.5733 10.202L13.575 10.402ZM13.055 10.1253L12.876 10.2146L12.8761 10.2148L13.055 10.1253ZM13.5745 10.4025L13.4331 10.2611L13.6604 10.5831L13.5745 10.4025ZM13.6254 10.3831L13.6915 10.5719L13.6915 10.5719L13.6254 10.3831ZM13.8249 10.2785L13.9628 10.4233L13.963 10.4231L13.8249 10.2785ZM14.8667 9.23381L14.72 9.09791L14.7199 9.09804L14.8667 9.23381ZM14.8409 8.55788L14.7022 8.702L14.7024 8.70221L14.8409 8.55788ZM14.1607 8.55365L14.2896 8.70662L14.2899 8.70637L14.1607 8.55365ZM13.8833 8.82047L13.74 8.68092V8.68092L13.8833 8.82047ZM13.792 8.91346L13.9334 9.05488L13.9337 9.05461L13.792 8.91346ZM13.6255 9.07888L13.4847 8.93675L13.6255 9.07888ZM13.1499 9.56309L13.2963 9.69929L13.2965 9.69916L13.1499 9.56309ZM24.8072 14.0921C24.6637 14.6134 24.3927 14.9798 23.8906 15.1546L24.0221 15.5324C24.6802 15.3032 25.0245 14.81 25.1929 14.1983L24.8072 14.0921ZM24.8595 14.0029L24.8591 14.0034L25.1411 14.2871L25.1415 14.2866L24.8595 14.0029ZM24.8005 13.676V14.1448H25.2005V13.676H24.8005ZM24.8219 13.7677C24.8242 13.771 24.8253 13.7728 24.8263 13.7743C24.8272 13.7757 24.8273 13.7759 24.8269 13.7752L25.1742 13.5768C25.1666 13.5634 25.1585 13.5515 25.155 13.5461L24.8219 13.7677ZM24.8323 13.7818L24.8323 13.7818L25.1446 13.532L25.1446 13.5319L24.8323 13.7818ZM24.7754 13.6746C24.7898 13.722 24.8165 13.7595 24.8219 13.7676L25.155 13.5462C25.1527 13.5427 25.1515 13.5409 25.1505 13.5393C25.1496 13.5379 25.1496 13.5378 25.15 13.5385C25.1507 13.5397 25.1546 13.5468 25.158 13.5581L24.7754 13.6746ZM23.35 12.612C23.7546 12.6128 24.0499 12.7003 24.27 12.8643C24.49 13.0283 24.6584 13.2864 24.7752 13.674L25.1582 13.5586C25.0251 13.1172 24.8182 12.774 24.509 12.5436C24.1998 12.3131 23.8119 12.213 23.3508 12.212L23.35 12.612ZM22.9972 12.612H23.3504V12.212H22.9972V12.612ZM22.7972 12.0949V12.412H23.1972V12.0949H22.7972ZM22.7972 9.73141L22.7972 12.0949L23.1972 12.0949L23.1972 9.73142L22.7972 9.73141ZM22.7967 2.65024C22.7974 5.01048 22.7973 7.37099 22.7972 9.7314L23.1972 9.73142C23.1973 7.37102 23.1974 5.01044 23.1967 2.65012L22.7967 2.65024ZM22.7836 2.24894C22.7965 2.37674 22.7967 2.508 22.7967 2.65018H23.1967C23.1967 2.51147 23.1969 2.35996 23.1816 2.20874L22.7836 2.24894ZM21.9671 0.955888C22.4555 1.24318 22.7259 1.67674 22.7836 2.24892L23.1816 2.20877C23.1116 1.51457 22.7723 0.965471 22.1699 0.611122L21.9671 0.955888ZM19.8118 1.26709C20.4488 0.640369 21.2393 0.527974 21.9672 0.955913L22.1699 0.611098C21.2744 0.0845603 20.2874 0.238029 19.5313 0.981954L19.8118 1.26709ZM19.0506 2.02817C19.292 1.7849 19.5505 1.52431 19.8118 1.26706L19.5312 0.981988C19.2679 1.24118 19.0077 1.50344 18.7666 1.74646L19.0506 2.02817ZM18.7153 2.36546C18.8218 2.25878 18.9343 2.14546 19.0506 2.02818L18.7666 1.74646C18.6502 1.86385 18.5382 1.97669 18.4323 2.08282L18.7153 2.36546ZM18.2554 2.31477C18.3304 2.34661 18.4182 2.38402 18.5122 2.41443L18.6354 2.03386C18.5609 2.00975 18.489 1.97937 18.4117 1.94657L18.2554 2.31477ZM17.9346 2.22059C17.9613 2.21723 17.9986 2.2205 18.0551 2.23733C18.1127 2.25448 18.1755 2.28086 18.2554 2.31477L18.4117 1.94657C18.3368 1.91478 18.2524 1.87872 18.1692 1.85395C18.0849 1.82886 17.9876 1.81073 17.8846 1.82374L17.9346 2.22059ZM15.5631 2.60351C16.3557 2.46169 17.1434 2.32079 17.9347 2.22058L17.8845 1.82375C17.0813 1.92546 16.2836 2.06825 15.4926 2.20976L15.5631 2.60351ZM15.4962 2.61548L15.5631 2.60351L15.4926 2.20976L15.4257 2.22174L15.4962 2.61548ZM15.3234 3.1562C15.1989 3.02632 15.1846 2.90265 15.2112 2.82015C15.2379 2.73775 15.3213 2.6468 15.4962 2.61548L15.4257 2.22174C15.1337 2.27403 14.9109 2.44871 14.8306 2.69723C14.7504 2.94565 14.8286 3.21819 15.0348 3.43308L15.3234 3.1562ZM17.853 5.76445C17.007 4.89676 16.1616 4.02977 15.3234 3.15617L15.0348 3.43311C15.8743 4.30806 16.7208 5.1762 17.5666 6.0437L17.853 5.76445ZM17.8539 5.76539L17.8534 5.76482L17.5663 6.04333L17.5668 6.0439L17.8539 5.76539ZM17.8519 5.76329L17.8518 5.76323L17.5689 6.04607L17.569 6.04614L17.8519 5.76329ZM18.244 6.16548L17.8536 5.7651L17.5672 6.04433L17.9576 6.44471L18.244 6.16548ZM18.5883 6.28359C18.4658 6.32356 18.3631 6.28762 18.2439 6.16544L17.9576 6.44475C18.1372 6.62882 18.3915 6.76857 18.7124 6.66386L18.5883 6.28359ZM18.8111 5.98478C18.7934 6.07497 18.767 6.1388 18.7337 6.18385C18.7027 6.22578 18.6593 6.26045 18.5883 6.28358L18.7124 6.66387C18.8589 6.61607 18.9728 6.53331 19.0554 6.42164C19.1356 6.31309 19.179 6.18715 19.2036 6.06174L18.8111 5.98478ZM18.8524 5.77242L18.811 5.98504L19.2037 6.06148L19.245 5.84885L18.8524 5.77242ZM19.2328 3.89318C19.0964 4.51854 18.9741 5.14695 18.8524 5.77243L19.2451 5.84883C19.3669 5.22261 19.4883 4.59864 19.6236 3.97844L19.2328 3.89318ZM19.1239 3.19732C19.2381 3.2738 19.2762 3.3575 19.2865 3.45707C19.2987 3.57422 19.2722 3.7125 19.2328 3.89321L19.6236 3.97842C19.6603 3.81012 19.7043 3.60786 19.6844 3.41581C19.6627 3.20619 19.5662 3.01204 19.3464 2.86493L19.1239 3.19732ZM19.4551 2.51365C19.335 2.63891 19.2141 2.76502 19.0913 2.8922L19.379 3.17006C19.5024 3.04226 19.6238 2.91563 19.7438 2.79045L19.4551 2.51365ZM19.4533 2.5155L19.4532 2.51558L19.7457 2.78851L19.7457 2.78843L19.4533 2.5155ZM19.4547 2.51404L19.4545 2.51424L19.7445 2.78968L19.7447 2.78949L19.4547 2.51404ZM20.3682 1.57675C20.0603 1.8822 19.7604 2.19515 19.4553 2.51336L19.7441 2.79016C20.0497 2.47133 20.3462 2.16202 20.6499 1.86069L20.3682 1.57675ZM21.205 1.31388C20.9082 1.27905 20.6015 1.34521 20.3682 1.57675L20.6499 1.8607C20.7764 1.73524 20.9507 1.68679 21.1584 1.71115L21.205 1.31388ZM22.1995 2.5088C22.1995 2.19191 22.1114 1.90993 21.9353 1.69573C21.7581 1.48005 21.5044 1.34881 21.2049 1.31386L21.1585 1.71117C21.3662 1.7354 21.5215 1.82211 21.6263 1.94969C21.7323 2.07874 21.7995 2.2653 21.7995 2.5088H22.1995ZM22.1997 8.96265C22.1999 6.81135 22.2001 4.65994 22.1995 2.50874L21.7995 2.50885C21.8001 4.65997 21.7999 6.8113 21.7997 8.96261L22.1997 8.96265ZM22.1997 8.97728V8.96263H21.7997V8.97728H22.1997ZM22.1995 12.2114L22.1997 8.97729L21.7997 8.97726L21.7995 12.2114L22.1995 12.2114ZM22.1942 12.349C22.1968 12.3041 22.1995 12.2582 22.1995 12.2114H21.7995C21.7995 12.2447 21.7976 12.2789 21.7949 12.3262L22.1942 12.349ZM22.1903 12.4217C22.1915 12.3959 22.1929 12.3723 22.1942 12.349L21.7949 12.3262C21.7936 12.3492 21.7921 12.3749 21.7908 12.4031L22.1903 12.4217ZM21.6763 12.6124H21.9905V12.2124H21.6763V12.6124ZM21.6571 12.6124H21.6763V12.2124H21.6571V12.6124ZM2.71646 12.6134C9.03015 12.6124 15.3434 12.6124 21.6571 12.6124V12.2124C15.3434 12.2124 9.03013 12.2124 2.7164 12.2134L2.71646 12.6134ZM2.32421 12.633C2.44735 12.6154 2.57656 12.6134 2.71643 12.6134V12.2134C2.57634 12.2134 2.42184 12.215 2.26784 12.237L2.32421 12.633ZM1.2109 13.7613C1.29295 13.1611 1.73119 12.7166 2.32395 12.633L2.2681 12.2369C1.4949 12.3459 0.920425 12.9329 0.814586 13.7071L1.2109 13.7613ZM2.00237 15.1061C1.46153 14.8902 1.13503 14.3166 1.2109 13.7613L0.814584 13.7072C0.713842 14.4445 1.14265 15.1936 1.8541 15.4776L2.00237 15.1061ZM2.35923 15.5138C2.33681 15.4349 2.30447 15.3511 2.24355 15.276C2.18085 15.1987 2.09984 15.1451 2.00261 15.1062L1.85385 15.4775C1.90318 15.4972 1.92246 15.5151 1.93291 15.528C1.94515 15.5431 1.95884 15.5682 1.97447 15.6232L2.35923 15.5138ZM2.58063 16.2933L2.35924 15.5138L1.97446 15.6231L2.19585 16.4026L2.58063 16.2933ZM3.57495 19.7635C3.23797 18.6087 2.90941 17.4514 2.58064 16.2933L2.19584 16.4026C2.52455 17.5604 2.85351 18.7192 3.19097 19.8755L3.57495 19.7635ZM5.4907 21.9355C4.50282 21.5314 3.87483 20.7912 3.57496 19.7635L3.19097 19.8755C3.5224 21.0113 4.2303 21.8521 5.33926 22.3058L5.4907 21.9355ZM6.29713 22.1751C6.00875 22.1041 5.74098 22.0378 5.4906 21.9355L5.33936 22.3058C5.62148 22.421 5.91819 22.4938 6.20144 22.5635L6.29713 22.1751ZM6.29221 22.174L6.2921 22.174L6.20647 22.5647L6.20657 22.5647L6.29221 22.174ZM6.29749 22.1752L6.29686 22.1751L6.20192 22.5636L6.20255 22.5638L6.29749 22.1752ZM6.70219 22.2794C6.56603 22.2414 6.42986 22.2078 6.29787 22.1753L6.20217 22.5637C6.33511 22.5965 6.4654 22.6286 6.59476 22.6647L6.70219 22.2794ZM6.81998 22.5802C6.8255 22.5669 6.82918 22.558 6.83189 22.5517L6.46506 22.3923C6.46053 22.4027 6.45523 22.4155 6.45026 22.4276L6.81998 22.5802ZM6.81969 22.5809L6.81974 22.5808L6.45051 22.427L6.45046 22.4271L6.81969 22.5809ZM6.81396 22.5935L6.81396 22.5934L6.45619 22.4146L6.45618 22.4146L6.81396 22.5935ZM6.7522 22.7324C6.78098 22.6749 6.80501 22.6165 6.81993 22.5803L6.45021 22.4277C6.43479 22.465 6.41586 22.5107 6.39443 22.5535L6.7522 22.7324ZM6.54701 23.1425C6.61554 23.0061 6.68431 22.8692 6.75246 22.7319L6.39418 22.5541C6.32652 22.6903 6.25818 22.8264 6.18958 22.9629L6.54701 23.1425ZM6.54713 23.1423L6.54718 23.1421L6.18941 22.9633L6.18936 22.9634L6.54713 23.1423ZM6.26154 23.7152C6.35531 23.5241 6.45089 23.3338 6.54696 23.1426L6.18953 22.963C6.0936 23.154 5.99717 23.3459 5.90244 23.5389L6.26154 23.7152ZM6.27968 24.1091C6.22585 24.0469 6.20674 23.9895 6.2045 23.9339C6.20208 23.8742 6.21881 23.8019 6.26143 23.7154L5.90255 23.5387C5.84088 23.664 5.7989 23.8036 5.80482 23.9501C5.81092 24.1007 5.8672 24.2438 5.9773 24.371L6.27968 24.1091ZM6.78076 24.0098C6.71359 24.1384 6.6168 24.1982 6.53232 24.212C6.44992 24.2253 6.35738 24.199 6.27982 24.1093L5.97716 24.3708C6.14151 24.561 6.37096 24.6434 6.59647 24.6068C6.81989 24.5705 7.01692 24.4216 7.13528 24.195L6.78076 24.0098ZM7.53025 22.5084C7.28763 23.0134 7.0392 23.5144 6.7807 24.0099L7.13534 24.1949C7.39635 23.6946 7.64677 23.1895 7.89078 22.6817L7.53025 22.5084ZM8.01537 22.2072C7.91849 22.2072 7.81747 22.2219 7.72535 22.2782C7.63233 22.335 7.57333 22.419 7.53032 22.5083L7.89072 22.6818C7.91487 22.6317 7.93033 22.6217 7.93395 22.6195C7.93848 22.6167 7.9563 22.6072 8.01537 22.6072V22.2072ZM17.9755 22.2067C14.6557 22.2123 11.3359 22.2119 8.01565 22.2072L8.01508 22.6072C11.3357 22.6119 14.6559 22.6123 17.9762 22.6067L17.9755 22.2067ZM18.4741 22.5254C18.4326 22.439 18.3761 22.3516 18.2844 22.2899C18.1907 22.2268 18.0848 22.2067 17.9758 22.2067V22.6067C18.0364 22.6067 18.0552 22.6178 18.061 22.6217C18.0687 22.6269 18.0865 22.6422 18.1135 22.6986L18.4741 22.5254ZM19.2019 23.9874C18.9539 23.5022 18.7099 23.0152 18.474 22.5252L18.1136 22.6987C18.3513 23.1924 18.5967 23.6824 18.8457 24.1695L19.2019 23.9874ZM19.6119 24.188C19.5357 24.2235 19.4647 24.2226 19.401 24.1954C19.3347 24.1671 19.2609 24.1032 19.2019 23.9876L18.8456 24.1694C18.9383 24.351 19.0751 24.4912 19.2441 24.5633C19.4159 24.6366 19.6054 24.6324 19.781 24.5505L19.6119 24.188ZM19.7356 23.7195C19.7952 23.8448 19.7984 23.9441 19.7772 24.0137C19.7568 24.0807 19.7071 24.1435 19.6119 24.188L19.781 24.5505C19.9666 24.4639 20.1027 24.3183 20.1599 24.1301C20.2164 23.9444 20.189 23.7414 20.0969 23.5477L19.7356 23.7195ZM19.406 23.052C19.5184 23.2753 19.6297 23.4964 19.7356 23.7194L20.0969 23.5478C19.9887 23.32 19.8754 23.0948 19.7633 22.8722L19.406 23.052ZM19.4056 23.0512L19.4058 23.0515L19.7636 22.8726L19.7634 22.8723L19.4056 23.0512ZM19.4054 23.0508L19.4056 23.0512L19.7634 22.8723L19.7632 22.8719L19.4054 23.0508ZM19.2274 22.6951C19.2864 22.8143 19.3462 22.9331 19.4057 23.0513L19.763 22.8714C19.7034 22.7531 19.6442 22.6355 19.5858 22.5176L19.2274 22.6951ZM19.1685 22.5559C19.1799 22.5861 19.2005 22.6409 19.2274 22.6952L19.5858 22.5175C19.5689 22.4834 19.5547 22.4462 19.5427 22.4146L19.1685 22.5559ZM19.1608 22.5357C19.1622 22.5391 19.1643 22.5447 19.1685 22.5559L19.5427 22.4146C19.5393 22.4054 19.535 22.394 19.5312 22.3848L19.1608 22.5357ZM19.6693 22.1812C19.549 22.2074 19.4238 22.2347 19.2975 22.2662L19.3945 22.6543C19.5139 22.6244 19.6331 22.5985 19.7544 22.5721L19.6693 22.1812ZM19.6727 22.1805L19.6726 22.1806L19.7511 22.5728L19.7512 22.5728L19.6727 22.1805ZM19.6728 22.1805L19.6727 22.1805L19.7512 22.5728L19.7512 22.5728L19.6728 22.1805ZM20.3977 21.9848C20.1735 22.0711 19.9338 22.1237 19.6695 22.1812L19.7545 22.5721C20.0133 22.5158 20.2837 22.4573 20.5415 22.358L20.3977 21.9848ZM22.4585 19.6613C22.1428 20.7785 21.4763 21.5694 20.3977 21.9847L20.5415 22.358C21.7486 21.8931 22.4968 20.9967 22.8434 19.7701L22.4585 19.6613ZM23.6453 15.4983C23.2474 16.885 22.8508 18.2724 22.4585 19.6613L22.8434 19.77C23.2356 18.3819 23.6319 16.9951 24.0297 15.6086L23.6453 15.4983ZM23.8903 15.1547C23.8288 15.1762 23.7874 15.2163 23.7626 15.2463C23.7368 15.2774 23.7177 15.311 23.7039 15.3393C23.6762 15.3958 23.6571 15.4569 23.6452 15.4984L24.0298 15.6086C24.0399 15.573 24.0514 15.5392 24.0632 15.515C24.0691 15.503 24.072 15.4998 24.0704 15.5017C24.0698 15.5024 24.0549 15.5209 24.0223 15.5323L23.8903 15.1547ZM2.97772 15.4635C2.98364 15.4889 2.98895 15.5128 2.9942 15.5364L3.38467 15.4496C3.37946 15.4262 3.37375 15.4005 3.36733 15.3729L2.97772 15.4635ZM2.97253 15.4177V15.4182H3.37253V15.4177H2.97253ZM22.8205 15.2177H3.17253V15.6177H22.8205V15.2177ZM23.001 15.5338C23.006 15.5086 23.0108 15.4845 23.0161 15.4598L22.625 15.3757C22.6189 15.4043 22.6135 15.4317 22.6086 15.4565L23.001 15.5338ZM23 15.5387L23 15.5386L22.6096 15.4518L22.6095 15.4519L23 15.5387ZM22.9646 15.695C22.9804 15.6392 22.9913 15.5832 23.001 15.5339L22.6086 15.4566C22.5983 15.5089 22.5903 15.5485 22.5798 15.5858L22.9646 15.695ZM21.8713 19.5191C22.2373 18.245 22.6009 16.97 22.9645 15.6952L22.5798 15.5855C22.2163 16.8604 21.8527 18.135 21.4869 19.4087L21.8713 19.5191ZM19.0914 21.6128C19.7809 21.6128 20.3817 21.4294 20.8602 21.0689C21.3387 20.7085 21.6807 20.1816 21.8713 19.5192L21.4869 19.4086C21.3163 20.0017 21.0179 20.4493 20.6195 20.7494C20.2212 21.0495 19.7087 21.2128 19.0914 21.2128V21.6128ZM6.90584 21.6128C10.9676 21.6137 15.0297 21.6137 19.0915 21.6128L19.0914 21.2128C15.0297 21.2137 10.9676 21.2137 6.90593 21.2128L6.90584 21.6128ZM4.12688 19.5177C4.31698 20.1802 4.65893 20.7072 5.13733 21.068C5.61574 21.4287 6.21647 21.6125 6.90581 21.6128L6.90595 21.2128C6.28899 21.2126 5.77649 21.049 5.37816 20.7486C4.97982 20.4482 4.68154 20.0004 4.51136 19.4073L4.12688 19.5177ZM3.09711 15.9194C3.43972 17.1187 3.78247 18.3186 4.12689 19.5177L4.51135 19.4073C4.16702 18.2085 3.82434 17.0089 3.48172 15.8095L3.09711 15.9194ZM3.09713 15.9195L3.09718 15.9196L3.48165 15.8093L3.48161 15.8091L3.09713 15.9195ZM3.09688 15.9186L3.09705 15.9192L3.48169 15.8094L3.48152 15.8088L3.09688 15.9186ZM3.03283 15.6944L3.09689 15.9186L3.4815 15.8087L3.41744 15.5845L3.03283 15.6944ZM2.9942 15.5364C3.00581 15.5886 3.0176 15.642 3.03309 15.6953L3.41718 15.5836C3.40592 15.5448 3.39684 15.5044 3.38467 15.4496L2.9942 15.5364ZM13.025 13.2096C9.59599 13.2096 6.16744 13.2096 2.73842 13.2111L2.73859 13.6111C6.16751 13.6096 9.59597 13.6096 13.025 13.6096V13.2096ZM12.825 13.4092V13.4096H13.225V13.4092H12.825ZM22.1399 13.2092H13.025V13.6092H22.1399V13.2092ZM22.5063 13.2085C22.384 13.2088 22.2619 13.2092 22.1399 13.2092V13.6092C22.2626 13.6092 22.3852 13.6088 22.5075 13.6085L22.5063 13.2085ZM22.5071 13.2085H22.5069V13.6085H22.5071V13.2085ZM23.4068 13.2111C23.1059 13.2067 22.8052 13.2076 22.5065 13.2085L22.5077 13.6085C22.8069 13.6076 23.1041 13.6067 23.401 13.611L23.4068 13.2111ZM24.1729 13.7794C24.1396 13.6072 24.0557 13.4587 23.9128 13.356C23.7738 13.2561 23.5989 13.2138 23.4068 13.2111L23.4011 13.611C23.5416 13.613 23.6278 13.6437 23.6794 13.6808C23.7271 13.715 23.7632 13.7673 23.7802 13.8553L24.1729 13.7794ZM23.6334 14.5846C24.0258 14.5099 24.2465 14.1606 24.1729 13.7794L23.7802 13.8553C23.8136 14.0284 23.7243 14.1601 23.5587 14.1916L23.6334 14.5846ZM23.2236 14.6163C23.3523 14.6163 23.4933 14.6111 23.6332 14.5846L23.5589 14.1916C23.4555 14.2111 23.3438 14.2163 23.2236 14.2163V14.6163ZM2.76759 14.6163C9.58611 14.6177 16.4046 14.6177 23.2236 14.6163L23.2235 14.2163C16.4046 14.2177 9.58613 14.2177 2.76767 14.2163L2.76759 14.6163ZM2.33254 14.5784C2.48003 14.6085 2.62943 14.6158 2.76691 14.6163L2.76834 14.2163C2.64184 14.2158 2.52255 14.209 2.41264 14.1865L2.33254 14.5784ZM1.80349 13.9342C1.81324 14.2346 2.01981 14.5143 2.33245 14.5784L2.41273 14.1865C2.29886 14.1632 2.20762 14.055 2.20328 13.9213L1.80349 13.9342ZM2.3241 13.2486C2.00351 13.3189 1.793 13.6247 1.8035 13.9345L2.20327 13.921C2.19874 13.7874 2.29355 13.6648 2.40981 13.6393L2.3241 13.2486ZM2.7385 13.2111C2.60875 13.2111 2.46551 13.2178 2.32437 13.2485L2.40953 13.6394C2.50983 13.6175 2.62024 13.6111 2.7385 13.6111V13.2111ZM16.3841 3.39158L16.6986 3.71602L16.9858 3.43758L16.6713 3.11315L16.3841 3.39158ZM16.5272 3.45237H16.5277V3.05237H16.5272V3.45237ZM16.7532 3.01175L16.4942 3.05511L16.5602 3.44962L16.8192 3.40625L16.7532 3.01175ZM16.7534 3.0117L16.7533 3.01172L16.8191 3.40628L16.8192 3.40626L16.7534 3.0117ZM16.7495 3.0124L16.7495 3.0124L16.8232 3.40555L16.8232 3.40555L16.7495 3.0124ZM17.7106 2.85339C17.3996 2.90341 17.0887 2.95551 16.7533 3.01173L16.8194 3.40623C17.1551 3.34997 17.4647 3.29809 17.7741 3.24832L17.7106 2.85339ZM17.9893 2.92619C17.9331 2.87239 17.8647 2.85769 17.8303 2.85263C17.7893 2.8466 17.7472 2.84746 17.7104 2.85343L17.7744 3.24828C17.7723 3.24861 17.7732 3.24853 17.7721 3.24838C17.7711 3.24822 17.7656 3.24738 17.757 3.24405C17.7491 3.24098 17.7313 3.23302 17.7125 3.21498L17.9893 2.92619ZM18.5568 3.49611C18.3725 3.29941 18.1813 3.11068 17.9894 2.92635L17.7123 3.21482C17.9019 3.39687 18.0874 3.58016 18.2648 3.76957L18.5568 3.49611ZM18.6274 3.82327C18.6352 3.78274 18.639 3.73336 18.6345 3.68422C18.6308 3.64385 18.6182 3.56149 18.5566 3.49591L18.265 3.76978C18.2554 3.75958 18.2492 3.74995 18.2452 3.74275C18.2412 3.73555 18.239 3.72977 18.2379 3.72629C18.2357 3.71986 18.2359 3.71748 18.2362 3.72074C18.2364 3.72349 18.2366 3.72806 18.2362 3.73383C18.2359 3.73955 18.2352 3.7445 18.2346 3.74774L18.6274 3.82327ZM18.4451 4.73339C18.5095 4.41799 18.5702 4.12113 18.6274 3.82323L18.2346 3.74777C18.1779 4.04299 18.1177 4.33754 18.0532 4.65336L18.4451 4.73339ZM18.4449 4.73456L18.445 4.73409L18.0534 4.65265L18.0533 4.65312L18.4449 4.73456ZM18.4449 4.73441L18.4451 4.73359L18.0531 4.65409L18.0529 4.65491L18.4449 4.73441ZM18.3888 5.00963L18.4449 4.73462L18.053 4.6547L17.9969 4.92971L18.3888 5.00963ZM16.6986 3.71603L18.0493 5.1089L18.3364 4.83045L16.9858 3.43757L16.6986 3.71603ZM12.873 6.78257C12.8398 6.84616 12.8133 6.90489 12.7911 6.95396L13.1556 7.11871C13.1781 7.06891 13.2003 7.0199 13.2275 6.96769L12.873 6.78257ZM12.8503 6.87466V6.87513H13.2502V6.87466H12.8503ZM12.7857 6.85785C12.8184 6.90261 12.8559 6.95403 12.8969 7.00305L13.2036 6.74627C13.1725 6.70916 13.1428 6.66863 13.1088 6.62199L12.7857 6.85785ZM12.7911 6.86485L12.7911 6.86486L13.1034 6.61498L13.1034 6.61497L12.7911 6.86485ZM12.7911 6.86484L12.7911 6.86485L13.1034 6.61497L13.1034 6.61497L12.7911 6.86484ZM12.593 6.64138C12.6544 6.68196 12.7068 6.74976 12.7857 6.85784L13.1088 6.62197C13.0397 6.52737 12.946 6.39514 12.8133 6.30753L12.593 6.64138ZM12.268 6.72261C12.3321 6.66074 12.3951 6.62554 12.448 6.61333C12.4951 6.60247 12.5414 6.60742 12.5931 6.64147L12.8131 6.30744C12.6666 6.21091 12.5077 6.18908 12.3582 6.22356C12.2145 6.25667 12.0896 6.3389 11.9902 6.43485L12.268 6.72261ZM11.3165 7.67455C11.6254 7.35083 11.9445 7.03538 12.2681 6.72253L11.9901 6.43494C11.6646 6.74964 11.3412 7.06925 11.0271 7.39845L11.3165 7.67455ZM11.2918 8.1224C11.179 8.01301 11.1608 7.8379 11.3166 7.67452L11.0271 7.39848C10.7395 7.70012 10.7231 8.12814 11.0133 8.40956L11.2918 8.1224ZM11.7277 8.10047C11.5741 8.24578 11.4042 8.23154 11.2919 8.1225L11.0132 8.40945C11.2918 8.67995 11.7062 8.67135 12.0026 8.39109L11.7277 8.10047ZM12.6925 7.13336C12.3797 7.46474 12.0583 7.78759 11.7277 8.10052L12.0026 8.39103C12.339 8.07266 12.6658 7.74447 12.9834 7.40791L12.6925 7.13336ZM12.7911 6.95396C12.744 7.05807 12.7214 7.10286 12.6928 7.13305L12.9831 7.40823C13.0672 7.31946 13.1161 7.20607 13.1556 7.11871L12.7911 6.95396ZM14.2031 7.52049C14.2465 7.55206 14.2839 7.57928 14.3179 7.60741L14.5728 7.29913C14.5274 7.26163 14.4797 7.22706 14.4381 7.19684L14.2031 7.52049ZM13.8978 7.23713C13.9846 7.36444 14.1125 7.45468 14.2031 7.52048L14.4381 7.19684C14.3349 7.12185 14.2688 7.0712 14.2283 7.0118L13.8978 7.23713ZM13.9697 6.47079C13.783 6.67855 13.7227 6.98209 13.8981 7.23767L14.2279 7.01126C14.177 6.9371 14.1787 6.83667 14.2672 6.73817L13.9697 6.47079ZM14.491 5.92998C14.3172 6.10434 14.1393 6.28284 13.97 6.4705L14.2669 6.73846C14.4285 6.5594 14.5994 6.38788 14.7743 6.21235L14.491 5.92998ZM14.4914 5.9296L14.4909 5.93013L14.7745 6.2122L14.775 6.21167L14.4914 5.9296ZM14.6119 5.80842C14.572 5.84873 14.5319 5.88898 14.4915 5.92945L14.7748 6.21182C14.8151 6.17141 14.8556 6.13078 14.896 6.09002L14.6119 5.80842ZM14.6943 5.72437C14.6664 5.75295 14.6392 5.7809 14.6118 5.80852L14.8961 6.08991C14.9246 6.06109 14.9529 6.0321 14.9806 6.0037L14.6943 5.72437ZM15.0481 5.38816C14.9183 5.49444 14.8016 5.61435 14.6943 5.72437L14.9806 6.0037C15.0907 5.89089 15.192 5.78738 15.3015 5.69766L15.0481 5.38816ZM15.9963 5.43193C15.7405 5.16622 15.3458 5.14518 15.0484 5.38797L15.3013 5.69785C15.4435 5.58177 15.6021 5.59925 15.7081 5.70932L15.9963 5.43193ZM16.016 6.3649C16.2847 6.07601 16.2379 5.68315 15.9963 5.43197L15.708 5.70927C15.8225 5.82824 15.8284 5.97932 15.7231 6.09251L16.016 6.3649ZM14.9472 7.43288C15.3102 7.08775 15.6722 6.73532 16.0162 6.36476L15.723 6.09265C15.3877 6.45391 15.0329 6.7995 14.6716 7.14298L14.9472 7.43288ZM14.6639 7.58301C14.7411 7.55521 14.8588 7.51644 14.9468 7.43323L14.672 7.14262C14.6571 7.15667 14.6295 7.17023 14.5284 7.20666L14.6639 7.58301ZM14.5254 7.63656C14.5728 7.61588 14.6174 7.59975 14.6639 7.58301L14.5284 7.20666C14.4828 7.22309 14.4264 7.24331 14.3653 7.26998L14.5254 7.63656ZM13.5733 10.202C13.4579 10.203 13.3877 10.183 13.3427 10.158C13.3002 10.1345 13.2649 10.098 13.2339 10.0359L12.8761 10.2148C12.9362 10.3349 13.0228 10.438 13.1485 10.5078C13.2717 10.5761 13.4159 10.6034 13.5767 10.602L13.5733 10.202ZM13.7159 10.5439L13.7164 10.5434L13.4336 10.2606L13.4331 10.2611L13.7159 10.5439ZM13.5594 10.1943C13.5429 10.2001 13.5131 10.2102 13.4887 10.2218L13.6604 10.5831C13.6588 10.5839 13.66 10.5832 13.6667 10.5807C13.673 10.5784 13.6806 10.5757 13.6915 10.5719L13.5594 10.1943ZM13.687 10.1336C13.679 10.1412 13.6643 10.1514 13.6399 10.163C13.6154 10.1746 13.5896 10.1838 13.5594 10.1943L13.6915 10.5719C13.7427 10.554 13.8685 10.5131 13.9628 10.4233L13.687 10.1336ZM14.7199 9.09804C14.3907 9.45408 14.0416 9.79492 13.6867 10.1338L13.963 10.4231C14.3193 10.0828 14.6757 9.73503 15.0136 9.36958L14.7199 9.09804ZM14.7024 8.70221C14.8158 8.81098 14.8273 8.98198 14.72 9.09792L15.0135 9.36971C15.2828 9.07886 15.2352 8.65895 14.9793 8.41355L14.7024 8.70221ZM14.2899 8.70637C14.4332 8.58519 14.5947 8.59853 14.7022 8.702L14.9796 8.41376C14.7141 8.15836 14.3204 8.15667 14.0316 8.40094L14.2899 8.70637ZM14.0265 8.96002C14.1174 8.86669 14.2004 8.7817 14.2896 8.70662L14.0319 8.40068C13.9251 8.4906 13.8285 8.59002 13.74 8.68092L14.0265 8.96002ZM13.9337 9.05461C13.9652 9.02295 13.9963 8.99101 14.0265 8.96001L13.74 8.68092C13.7095 8.71219 13.68 8.74251 13.6503 8.77231L13.9337 9.05461ZM13.7662 9.22102C13.8217 9.16601 13.8777 9.1106 13.9334 9.05488L13.6506 8.77204C13.5957 8.82692 13.5404 8.88162 13.4847 8.93675L13.7662 9.22102ZM13.2965 9.69916C13.447 9.537 13.6049 9.38067 13.7662 9.22102L13.4847 8.93675C13.3245 9.09541 13.1606 9.25764 13.0033 9.42701L13.2965 9.69916ZM13.234 10.0361C13.2002 9.96844 13.1952 9.91234 13.2042 9.86437C13.2136 9.81443 13.2413 9.75846 13.2963 9.69929L13.0034 9.42688C12.9086 9.52883 12.8374 9.65089 12.8111 9.79024C12.7845 9.93157 12.8069 10.076 12.876 10.2146L13.234 10.0361Z" fill="black"/>
</svg>
