<svg width="40" height="41" viewBox="0 0 40 41" fill="none" xmlns="http://www.w3.org/2000/svg">
<path fill-rule="evenodd" clip-rule="evenodd" d="M32.2751 3.47142L32.2751 3.47055C32.2743 3.3485 32.2736 3.22643 32.2736 3.10435V3.10354C32.2736 2.97427 32.2743 2.84493 32.275 2.71555C32.2766 2.42792 32.2781 2.14015 32.272 1.85277C32.2623 1.41669 31.9937 1.13515 31.6142 1.14324C31.2494 1.15133 30.9905 1.42316 30.9856 1.83982C30.9767 2.66019 30.9775 3.48137 30.9856 4.30173C30.9897 4.73781 31.2631 5.02016 31.6417 5.01207C32.005 5.00398 32.2607 4.73053 32.2712 4.31468C32.2785 4.03403 32.2768 3.75299 32.2751 3.47183V3.47176V3.47169V3.47163V3.47156V3.47149V3.47142ZM31.6365 11.4741C30.2118 11.4806 29.046 10.3172 29.046 8.88921C29.046 7.47905 30.1932 6.31889 31.5993 6.30756C33.0313 6.29624 34.206 7.44912 34.2117 8.8706C34.2174 10.2994 33.0621 11.4668 31.6373 11.4733L31.6365 11.4741ZM31.6624 7.60122C30.9561 7.58585 30.3631 8.14489 30.3396 8.84714C30.3154 9.56638 30.8954 10.1732 31.6147 10.1804C32.3185 10.1877 32.9035 9.61978 32.9189 8.9151C32.9334 8.21771 32.3582 7.61659 31.6632 7.60122H31.6624ZM38.4449 9.54447C38.8397 9.55903 39.1503 9.45952 39.3793 9.13347H39.3801V8.64886C39.152 8.3212 38.8405 8.22411 38.4457 8.23787C37.9813 8.25447 37.5159 8.25144 37.0506 8.24841C36.7904 8.24672 36.5302 8.24503 36.2702 8.24677C35.7953 8.25 35.508 8.49838 35.508 8.89076C35.5072 9.28234 35.7953 9.53233 36.2694 9.53557C36.5294 9.53731 36.7896 9.53562 37.0498 9.53392C37.5151 9.53089 37.9805 9.52786 38.4449 9.54447ZM0.949325 38.6087C0.485744 39.1709 0.508397 39.4258 1.02942 39.8942V39.8926H39.3788V39.0051C38.5002 37.7996 37.3012 37.0035 35.9865 36.3595C34.4105 35.5885 32.7495 35.0553 31.0473 34.6492C27.0336 33.6913 22.9552 33.3693 18.8388 33.451C18.5565 33.4567 18.4165 33.3822 18.3041 33.108C17.4075 30.9158 16.5006 28.7275 15.5937 26.5394L15.5935 26.5391L15.5934 26.5388L15.5933 26.5385L15.5932 26.5382L15.5931 26.5379L15.5929 26.5376L15.5928 26.5373L15.5927 26.537C15.3379 25.9221 15.083 25.3073 14.8284 24.6923C14.3568 23.554 13.8843 22.4157 13.3997 21.2483C13.45 21.2261 13.497 21.2051 13.5418 21.1851C13.6292 21.146 13.7083 21.1107 13.788 21.0775L16.8752 19.7962L16.8817 19.7935L16.8883 19.7908C19.1541 18.8505 21.4197 17.9102 23.685 16.9684C24.3428 16.695 24.4633 16.3082 24.0321 15.75C20.8089 11.5745 16.5808 9.83511 11.3544 10.5746C10.8586 10.6449 10.3708 10.7699 9.8837 10.8947C9.65937 10.9521 9.43519 11.0096 9.21045 11.0616C9.20391 11.0534 9.197 11.046 9.19035 11.0388L9.19034 11.0388C9.17724 11.0247 9.1651 11.0116 9.15867 10.9961C9.10078 10.8593 9.04362 10.7222 8.98645 10.5851L8.98641 10.585L8.98636 10.5848L8.98632 10.5847L8.98627 10.5846L8.98623 10.5845L8.98618 10.5844L8.98613 10.5843L8.98609 10.5842C8.90915 10.3996 8.83217 10.215 8.75334 10.0309C8.55593 9.56893 8.21694 9.38852 7.84478 9.54305C7.47424 9.69595 7.3723 10.0527 7.56486 10.5365C7.65908 10.7735 7.75474 11.01 7.85064 11.2472L7.8507 11.2473C7.89888 11.3664 7.94712 11.4857 7.99527 11.6053C7.95814 11.6263 7.92696 11.6443 7.89937 11.6603L7.89935 11.6603L7.89931 11.6603L7.89929 11.6603C7.85357 11.6867 7.81769 11.7075 7.78087 11.7266C2.67501 14.3973 0.0229725 19.5315 0.785898 25.2668C0.895119 26.0863 1.22925 26.2789 1.99865 25.9601C3.44895 25.3596 4.89901 24.7586 6.34896 24.1576L6.35281 24.156L6.35518 24.155C7.55779 23.6565 8.76032 23.1581 9.96285 22.66C10.495 22.4394 11.0275 22.2204 11.5677 21.9983L12.2031 21.7369C13.3678 24.5483 14.523 27.3378 15.6721 30.1123L15.6743 30.1178L17.0541 33.4494C16.5012 33.516 15.9526 33.5777 15.4076 33.6391L15.4069 33.6392C14.1914 33.7759 12.9933 33.9108 11.8026 34.0934C9.24685 34.4858 6.7453 35.1087 4.38209 36.1921C3.09167 36.7835 1.87163 37.4906 0.949325 38.6087ZM37.1167 38.5205L37.0884 38.5933L37.0892 38.5941H2.8174C2.87506 38.5495 2.92513 38.5096 2.97053 38.4735L2.97109 38.4731L2.97127 38.4729C3.06058 38.4018 3.13184 38.3451 3.20736 38.2948C4.90796 37.1572 6.81649 36.5165 8.77599 36.0254C13.1909 34.9186 17.6827 34.5966 22.2198 34.7811C25.5749 34.9178 28.8863 35.3417 32.1217 36.2657C33.6621 36.7058 35.1613 37.2543 36.5261 38.1168C36.6652 38.2044 36.8 38.2991 36.9349 38.3937L36.9349 38.3938L36.9349 38.3938L36.935 38.3938L36.935 38.3938L36.935 38.3938L36.9351 38.3939L36.9351 38.3939L36.9351 38.3939L36.9354 38.3941L36.9356 38.3942L36.9358 38.3944L36.936 38.3946L36.9363 38.3947L36.9365 38.3949C36.9964 38.4369 37.0564 38.479 37.1167 38.5205ZM17.8716 17.8694C17.8846 17.9001 17.8983 17.9323 17.9141 17.966H17.9149C16.7347 18.4554 15.5681 18.9388 14.3894 19.4273L14.3875 19.4281L12.9021 20.0436C11.8463 17.4967 10.7954 14.962 9.7258 12.3828C10.318 12.1927 10.8787 12.2833 11.4321 12.4143C12.8309 12.746 13.9781 13.53 15.0331 14.4653C16.1051 15.4159 17.0047 16.5162 17.7928 17.7095C17.8241 17.7573 17.8467 17.8107 17.8716 17.8694ZM6.92086 14.9555C7.25418 14.1319 7.7299 13.4127 8.52033 12.8488V12.8496C9.04944 14.1268 9.57476 15.3945 10.1001 16.6621L10.1138 16.6952L10.1152 16.6987C10.6443 17.9755 11.1734 19.2523 11.7063 20.5387C10.5151 21.033 9.33774 21.5211 8.13624 22.0192L8.12564 22.0236L6.63365 22.6422C6.59836 22.4027 6.5606 22.1676 6.52331 21.9354C6.44349 21.4384 6.3658 20.9547 6.31893 20.4683C6.13771 18.5914 6.20081 16.7354 6.92086 14.9555ZM5.55966 14.8847C2.72668 17.472 1.55289 21.5841 2.03263 24.5491C3.17257 24.0759 4.30523 23.605 5.34242 23.1738C5.30015 22.734 5.25396 22.302 5.20831 21.875C5.10456 20.9044 5.00364 19.9604 4.95812 19.0137C4.8918 17.6427 5.0907 16.2872 5.55966 14.8847ZM13.3689 11.7509C15.36 10.9386 20.8817 13.4936 22.5847 16.0283V16.0291C21.4278 16.5081 20.3024 16.9741 19.1641 17.4458C17.6487 15.1036 15.8721 13.0624 13.3689 11.7509ZM26.1994 8.24434H26.1995C26.4891 8.24245 26.7788 8.24056 27.0682 8.24843C27.48 8.25976 27.7511 8.52674 27.7494 8.89324C27.7478 9.25811 27.476 9.52752 27.0634 9.53319C26.2292 9.5437 25.3951 9.5437 24.561 9.53319C24.1492 9.52752 23.879 9.25488 23.8806 8.88838C23.8822 8.52108 24.1516 8.25976 24.5659 8.24843C24.8552 8.24056 25.145 8.24245 25.4346 8.24434H25.4347H25.4348H25.4349H25.435H25.4351C25.5623 8.24517 25.6895 8.246 25.8166 8.246H25.8174C25.9446 8.246 26.0718 8.24517 26.199 8.24434H26.1991H26.1992H26.1993H26.1994ZM30.9818 14.3092C30.9825 14.4345 30.9833 14.5598 30.9833 14.6851V14.6859C30.9833 14.8109 30.9826 14.9359 30.9819 15.061C30.9804 15.3529 30.9789 15.645 30.9857 15.9367C30.9946 16.3542 31.2454 16.6276 31.6094 16.639C31.9865 16.6503 32.2664 16.3663 32.2712 15.9335C32.2801 15.1131 32.2801 14.2919 32.2712 13.4716C32.2664 13.0541 32.0107 12.7814 31.6467 12.7701C31.2672 12.7588 30.9946 13.0411 30.9849 13.4748C30.9787 13.7525 30.9803 14.0307 30.9818 14.3089V14.309V14.309V14.3091V14.3092ZM27.5643 13.6496C27.0417 13.6601 26.6695 13.1027 26.9599 12.7225C27.2973 12.2807 27.714 11.8859 28.1549 11.5453C28.2876 11.4425 28.6492 11.5267 28.8426 11.6375C29.1007 11.7848 29.171 12.1351 28.9947 12.3479C28.7031 12.6989 28.3679 13.0139 28.0333 13.3284C27.94 13.4161 27.8467 13.5038 27.7544 13.5922C27.7174 13.6274 27.6554 13.6358 27.6089 13.6421C27.5913 13.6444 27.576 13.6465 27.5651 13.6496H27.5643ZM34.7468 6.36791L34.747 6.36808H34.7462L34.7468 6.36791ZM34.9216 6.32706C34.8722 6.33717 34.8142 6.34904 34.7468 6.36791C34.7069 6.33686 34.6572 6.306 34.6049 6.27349C34.4748 6.19257 34.3282 6.10144 34.2745 5.97165C34.1968 5.78476 34.2171 5.46114 34.336 5.30743C34.6297 4.92961 34.9897 4.59871 35.3513 4.28156C35.6046 4.05989 35.9055 4.08658 36.1563 4.31231C36.3901 4.52266 36.4937 4.82767 36.2914 5.06876C36.0026 5.41373 35.6732 5.72506 35.3445 6.0358L35.3444 6.03582L35.3444 6.03587C35.2653 6.11062 35.1863 6.18533 35.1078 6.26048C35.0701 6.29669 35.0095 6.30908 34.9216 6.32706ZM36.3204 13.2189L36.3204 13.2189C36.2446 13.3426 36.1586 13.4832 36.0349 13.5349C35.8464 13.6142 35.5228 13.615 35.3739 13.5001C34.9855 13.1992 34.6409 12.8335 34.3165 12.4613C34.1126 12.2267 34.1369 11.9338 34.3343 11.6838C34.5244 11.4427 34.8464 11.3376 35.0495 11.5067C35.4035 11.8006 35.719 12.1406 36.0342 12.4804C36.1346 12.5886 36.235 12.6969 36.3367 12.8036C36.3617 12.8296 36.369 12.873 36.3803 12.9402C36.3869 12.9796 36.3949 13.0272 36.4087 13.0843L36.4095 13.0835C36.3802 13.1211 36.3512 13.1686 36.3204 13.2189ZM26.8927 4.80482C26.8523 5.19478 28.0262 6.31692 28.5594 6.32016L28.5602 6.32097C28.5812 6.30475 28.6127 6.28617 28.6493 6.26461C28.7552 6.20226 28.9036 6.11487 28.9631 5.98683C29.0448 5.81046 29.0561 5.4917 28.9477 5.35659C28.6225 4.95126 28.2463 4.57586 27.8393 4.25225C27.7058 4.14626 27.3741 4.15921 27.2131 4.25387C27.0497 4.34933 26.913 4.6058 26.8927 4.80482Z" fill="black"/>
<path d="M32.2751 3.47055L31.9983 3.47223L31.9983 3.47237L32.2751 3.47055ZM32.2751 3.47142H32.5519L32.5519 3.46961L32.2751 3.47142ZM32.275 2.71555L32.5518 2.71705V2.71705L32.275 2.71555ZM32.272 1.85277L32.5487 1.84686L32.5487 1.8466L32.272 1.85277ZM31.6142 1.14324L31.6083 0.866509L31.6081 0.866514L31.6142 1.14324ZM30.9856 1.83982L30.7088 1.8366L30.7088 1.83682L30.9856 1.83982ZM30.9856 4.30173L31.2624 4.29917L31.2624 4.299L30.9856 4.30173ZM31.6417 5.01207L31.6477 5.2888L31.6479 5.28879L31.6417 5.01207ZM32.2712 4.31468L31.9945 4.30745L31.9945 4.30768L32.2712 4.31468ZM32.2751 3.47183H31.9983L31.9983 3.47351L32.2751 3.47183ZM31.6365 11.4741L31.6378 11.7509L31.7516 11.7504L31.8321 11.6699L31.6365 11.4741ZM31.5993 6.30756L31.5971 6.03078L31.5971 6.03078L31.5993 6.30756ZM34.2117 8.8706L34.4885 8.86951V8.8695L34.2117 8.8706ZM31.6373 11.4733L31.6361 11.1965L31.5223 11.197L31.4417 11.2775L31.6373 11.4733ZM30.3396 8.84714L30.6163 8.85648L30.6163 8.85638L30.3396 8.84714ZM31.6624 7.60122L31.6564 7.87801H31.6624V7.60122ZM31.6147 10.1804L31.6175 9.90367H31.6175L31.6147 10.1804ZM32.9189 8.9151L33.1956 8.92114L33.1956 8.92088L32.9189 8.9151ZM31.6632 7.60122L31.6693 7.32443H31.6632V7.60122ZM39.3793 9.13347V8.85668H39.2355L39.1528 8.97441L39.3793 9.13347ZM38.4449 9.54447L38.4551 9.26787L38.4548 9.26785L38.4449 9.54447ZM39.3801 9.13347V9.41026H39.6569V9.13347H39.3801ZM39.3801 8.64886H39.6569V8.56199L39.6073 8.4907L39.3801 8.64886ZM38.4457 8.23787L38.436 7.96124L38.4358 7.96125L38.4457 8.23787ZM37.0506 8.24841L37.0488 8.5252L37.0506 8.24841ZM36.2702 8.24677L36.2683 7.96998H36.2683L36.2702 8.24677ZM35.508 8.89076L35.7848 8.89133V8.89076H35.508ZM36.2694 9.53557L36.2675 9.81235H36.2675L36.2694 9.53557ZM37.0498 9.53392L37.048 9.25714L37.0498 9.53392ZM1.02942 39.8942L0.844363 40.1001L1.30621 40.5153V39.8942H1.02942ZM0.949325 38.6087L0.735805 38.4325L0.73576 38.4326L0.949325 38.6087ZM1.02942 39.8926V39.6158H0.75263V39.8926H1.02942ZM39.3788 39.8926V40.1694H39.6556V39.8926H39.3788ZM39.3788 39.0051H39.6556V38.9149L39.6025 38.8421L39.3788 39.0051ZM35.9865 36.3595L36.1082 36.111L36.1081 36.1109L35.9865 36.3595ZM31.0473 34.6492L30.983 34.9184L30.983 34.9184L31.0473 34.6492ZM18.8388 33.451L18.8334 33.1743H18.8333L18.8388 33.451ZM18.3041 33.108L18.0479 33.2128L18.048 33.213L18.3041 33.108ZM15.5937 26.5394L15.3377 26.6447L15.338 26.6453L15.5937 26.5394ZM15.5927 26.537L15.8486 26.4316L15.8484 26.431L15.5927 26.537ZM14.8284 24.6923L15.0842 24.5865L15.0841 24.5864L14.8284 24.6923ZM13.3997 21.2483L13.2881 20.9949L13.0401 21.1041L13.144 21.3544L13.3997 21.2483ZM13.5418 21.1851L13.6546 21.4378L13.6546 21.4378L13.5418 21.1851ZM13.788 21.0775L13.6819 20.8219L13.6817 20.822L13.788 21.0775ZM16.8752 19.7962L16.9813 20.0518L16.9813 20.0518L16.8752 19.7962ZM16.8817 19.7935L16.7757 19.5378L16.7756 19.5379L16.8817 19.7935ZM16.8883 19.7908L16.9943 20.0464L16.9944 20.0464L16.8883 19.7908ZM23.685 16.9684L23.5787 16.7128L23.685 16.9684ZM24.0321 15.75L23.813 15.9191L23.813 15.9192L24.0321 15.75ZM11.3544 10.5746L11.3156 10.3005L11.3155 10.3005L11.3544 10.5746ZM9.8837 10.8947L9.95238 11.1628L9.8837 10.8947ZM9.21045 11.0616L8.99432 11.2345L9.10316 11.3706L9.27289 11.3313L9.21045 11.0616ZM9.19035 11.0388L9.39336 10.8504L9.38607 10.8431L9.19035 11.0388ZM9.19034 11.0388L8.98735 11.2273L8.99462 11.2345L9.19034 11.0388ZM9.15867 10.9961L9.41443 10.8902L9.41357 10.8882L9.15867 10.9961ZM8.98645 10.5851L9.24193 10.4786L9.24155 10.4776L8.98645 10.5851ZM8.98609 10.5842L8.73061 10.6907L8.73099 10.6916L8.98609 10.5842ZM8.75334 10.0309L8.49881 10.1397L8.49889 10.1399L8.75334 10.0309ZM7.84478 9.54305L7.95037 9.79891L7.95093 9.79867L7.84478 9.54305ZM7.56486 10.5365L7.82205 10.4343L7.82203 10.4342L7.56486 10.5365ZM7.85064 11.2472L8.10746 11.1439L8.10724 11.1434L7.85064 11.2472ZM7.8507 11.2473L7.59388 11.3505L7.59409 11.3511L7.8507 11.2473ZM7.99527 11.6053L8.13153 11.8462L8.34261 11.7268L8.25202 11.5019L7.99527 11.6053ZM7.89937 11.6603L8.0367 11.9006L8.0379 11.8999L7.89937 11.6603ZM7.89935 11.6603L8.03308 11.9026L8.03668 11.9006L7.89935 11.6603ZM7.89931 11.6603L7.76555 11.4179L7.75897 11.4217L7.89931 11.6603ZM7.89929 11.6603L8.03782 11.8999L8.03963 11.8989L7.89929 11.6603ZM7.78087 11.7266L7.65307 11.4811L7.65258 11.4814L7.78087 11.7266ZM0.785898 25.2668L0.511525 25.3033L0.511534 25.3033L0.785898 25.2668ZM1.99865 25.9601L1.89276 25.7044L1.89271 25.7044L1.99865 25.9601ZM6.34896 24.1576L6.45494 24.4133L6.45506 24.4132L6.34896 24.1576ZM6.35281 24.156L6.24694 23.9002L6.24671 23.9003L6.35281 24.156ZM6.35518 24.155L6.46105 24.4107L6.46117 24.4107L6.35518 24.155ZM9.96285 22.66L10.0688 22.9158L10.0689 22.9157L9.96285 22.66ZM11.5677 21.9983L11.673 22.2543L11.673 22.2543L11.5677 21.9983ZM12.2031 21.7369L12.4588 21.631L12.3531 21.3759L12.0978 21.4809L12.2031 21.7369ZM15.6721 30.1123L15.4163 30.2182L15.4163 30.2182L15.6721 30.1123ZM15.6743 30.1178L15.9301 30.0119V30.0119L15.6743 30.1178ZM17.0541 33.4494L17.0872 33.7242L17.4494 33.6806L17.3098 33.3435L17.0541 33.4494ZM15.4076 33.6391L15.4384 33.9141L15.4386 33.9141L15.4076 33.6391ZM15.4069 33.6392L15.3761 33.3641L15.376 33.3641L15.4069 33.6392ZM11.8026 34.0934L11.7607 33.8198L11.7606 33.8198L11.8026 34.0934ZM4.38209 36.1921L4.49741 36.4437L4.49743 36.4437L4.38209 36.1921ZM37.0884 38.5933L36.8304 38.493L36.7648 38.6617L36.8931 38.7895L37.0884 38.5933ZM37.1167 38.5205L37.3747 38.6208L37.4541 38.4165L37.2735 38.2924L37.1167 38.5205ZM37.0892 38.5941V38.8709H37.7597L37.2845 38.3979L37.0892 38.5941ZM2.8174 38.5941L2.64805 38.3752L2.00718 38.8709H2.8174V38.5941ZM2.97053 38.4735L3.14291 38.6901L3.14349 38.6896L2.97053 38.4735ZM2.97109 38.4731L3.14406 38.6892L3.14646 38.6872L2.97109 38.4731ZM2.97127 38.4729L2.79888 38.2563L2.79591 38.2588L2.97127 38.4729ZM3.20736 38.2948L3.3609 38.5251L3.36125 38.5248L3.20736 38.2948ZM8.77599 36.0254L8.84328 36.2939L8.84329 36.2939L8.77599 36.0254ZM22.2198 34.7811L22.2311 34.5045L22.2311 34.5045L22.2198 34.7811ZM32.1217 36.2657L32.1977 35.9995L32.1977 35.9995L32.1217 36.2657ZM36.5261 38.1168L36.3783 38.3508L36.3785 38.3509L36.5261 38.1168ZM36.9349 38.3937L36.7758 38.6203L36.7813 38.624L36.9349 38.3937ZM36.9351 38.3939L37.0939 38.1671L37.0887 38.1636L36.9351 38.3939ZM36.9365 38.3949L37.0955 38.1683L37.0952 38.1681L36.9365 38.3949ZM17.9141 17.966L17.6637 18.0839L17.7385 18.2428H17.9141V17.966ZM17.8716 17.8694L18.1264 17.7614L18.1264 17.7614L17.8716 17.8694ZM17.9149 17.966L18.0209 18.2217L17.9149 17.6892V17.966ZM14.3894 19.4273L14.2834 19.1716L14.2831 19.1717L14.3894 19.4273ZM14.3875 19.4281L14.4934 19.6838L14.4937 19.6836L14.3875 19.4281ZM12.9021 20.0436L12.6464 20.1496L12.7524 20.4052L13.0081 20.2993L12.9021 20.0436ZM9.7258 12.3828L9.6412 12.1192L9.35498 12.2111L9.47013 12.4888L9.7258 12.3828ZM11.4321 12.4143L11.4959 12.145L11.4959 12.145L11.4321 12.4143ZM15.0331 14.4653L15.2168 14.2582L15.2167 14.2581L15.0331 14.4653ZM17.7928 17.7095L18.0242 17.5578L18.0237 17.557L17.7928 17.7095ZM8.52033 12.8488H8.79712V12.3113L8.35958 12.6235L8.52033 12.8488ZM6.92086 14.9555L6.66428 14.8517L6.66427 14.8517L6.92086 14.9555ZM8.52033 12.8496H8.24354V12.9047L8.26462 12.9555L8.52033 12.8496ZM10.1001 16.6621L10.3558 16.5562L10.3558 16.5562L10.1001 16.6621ZM10.1138 16.6952L10.3695 16.5893L10.3695 16.5893L10.1138 16.6952ZM10.1152 16.6987L9.8595 16.8046L9.85951 16.8047L10.1152 16.6987ZM11.7063 20.5387L11.8124 20.7944L12.0679 20.6884L11.9621 20.4328L11.7063 20.5387ZM8.13624 22.0192L8.03023 21.7636L8.0302 21.7636L8.13624 22.0192ZM8.12564 22.0236L8.23165 22.2793L8.23167 22.2793L8.12564 22.0236ZM6.63365 22.6422L6.35981 22.6826L6.41158 23.0339L6.73966 22.8979L6.63365 22.6422ZM6.52331 21.9354L6.7966 21.8915L6.52331 21.9354ZM6.31893 20.4683L6.59444 20.4418L6.59444 20.4417L6.31893 20.4683ZM2.03263 24.5491L1.75939 24.5934L1.81533 24.9391L2.13877 24.8048L2.03263 24.5491ZM5.55966 14.8847L5.82217 14.9725L6.16029 13.9613L5.373 14.6803L5.55966 14.8847ZM5.34242 23.1738L5.44868 23.4294L5.63751 23.3508L5.61794 23.1473L5.34242 23.1738ZM5.20831 21.875L4.93309 21.9044L5.20831 21.875ZM4.95812 19.0137L5.2346 19.0004L5.23459 19.0003L4.95812 19.0137ZM22.5847 16.0283H22.8615V15.944L22.8145 15.874L22.5847 16.0283ZM13.3689 11.7509L13.2644 11.4946L12.7128 11.7196L13.2405 11.9961L13.3689 11.7509ZM22.5847 16.0291L22.6906 16.2849L22.8615 16.2141V16.0291H22.5847ZM19.1641 17.4458L18.9317 17.5961L19.057 17.7898L19.27 17.7015L19.1641 17.4458ZM26.1995 8.24434V8.52114L26.2013 8.52113L26.1995 8.24434ZM27.0682 8.24843L27.0758 7.97174L27.0757 7.97174L27.0682 8.24843ZM27.7494 8.89324L28.0262 8.89446V8.89446L27.7494 8.89324ZM27.0634 9.53319L27.0669 9.80995L27.0672 9.80995L27.0634 9.53319ZM24.561 9.53319L24.5572 9.80995L24.5575 9.80995L24.561 9.53319ZM23.8806 8.88838L24.1574 8.8896V8.8896L23.8806 8.88838ZM24.5659 8.24843L24.5583 7.97174L24.5583 7.97174L24.5659 8.24843ZM25.4346 8.24434L25.4328 8.52113H25.4346V8.24434ZM25.4351 8.24434L25.4369 7.96755H25.4351V8.24434ZM26.199 8.24434V7.96755L26.1972 7.96756L26.199 8.24434ZM30.9818 14.3092H30.7051L30.7051 14.3107L30.9818 14.3092ZM30.9819 15.061L30.7052 15.0595V15.0595L30.9819 15.061ZM30.9857 15.9367L31.2624 15.9308L31.2624 15.9303L30.9857 15.9367ZM31.6094 16.639L31.6008 16.9156L31.6011 16.9156L31.6094 16.639ZM32.2712 15.9335L32.548 15.9366L32.548 15.9365L32.2712 15.9335ZM32.2712 13.4716L32.548 13.4686L32.548 13.4683L32.2712 13.4716ZM31.6467 12.7701L31.6553 12.4935L31.6549 12.4935L31.6467 12.7701ZM30.9849 13.4748L30.7081 13.4686L30.7081 13.4687L30.9849 13.4748ZM30.9818 14.3089H31.2586L31.2586 14.3073L30.9818 14.3089ZM26.9599 12.7225L27.1799 12.8905L27.1799 12.8905L26.9599 12.7225ZM27.5643 13.6496V13.3728L27.5587 13.3729L27.5643 13.6496ZM28.1549 11.5453L28.3241 11.7643L28.3244 11.7641L28.1549 11.5453ZM28.8426 11.6375L28.7049 11.8777L28.7054 11.8779L28.8426 11.6375ZM28.9947 12.3479L29.2076 12.5247L29.2078 12.5245L28.9947 12.3479ZM28.0333 13.3284L28.2229 13.5301L28.2229 13.5301L28.0333 13.3284ZM27.7544 13.5922L27.9453 13.7926L27.9459 13.792L27.7544 13.5922ZM27.6089 13.6421L27.5718 13.3678L27.5718 13.3678L27.6089 13.6421ZM27.5651 13.6496V13.9264H27.6039L27.6411 13.9158L27.5651 13.6496ZM34.747 6.36808V6.64487H35.5545L34.9168 6.14949L34.747 6.36808ZM34.7462 6.36808L34.6718 6.10146L34.7462 6.64487V6.36808ZM34.9216 6.32706L34.8662 6.05589L34.8661 6.05589L34.9216 6.32706ZM34.6049 6.27349L34.4588 6.50857V6.50857L34.6049 6.27349ZM34.2745 5.97165L34.5303 5.86592L34.5301 5.86543L34.2745 5.97165ZM34.336 5.30743L34.1175 5.13756L34.1171 5.13805L34.336 5.30743ZM35.3513 4.28156L35.169 4.0733L35.1688 4.07346L35.3513 4.28156ZM36.1563 4.31231L35.9712 4.51804L35.9712 4.51808L36.1563 4.31231ZM36.2914 5.06876L36.0794 4.89086L36.0792 4.89105L36.2914 5.06876ZM35.3445 6.0358L35.1542 5.83457L35.1487 5.84008L35.3445 6.0358ZM35.3444 6.03582L35.1487 5.84008L35.1457 5.84313L35.3444 6.03582ZM35.3444 6.03587L35.5347 6.23721L35.5431 6.22855L35.3444 6.03587ZM35.1078 6.26048L34.9163 6.0606L34.9162 6.0607L35.1078 6.26048ZM36.3204 13.2189L36.0899 13.0653L36.0843 13.0744L36.3204 13.2189ZM36.3204 13.2189L36.5509 13.3725L36.5564 13.3634L36.3204 13.2189ZM36.0349 13.5349L35.928 13.2796L35.9276 13.2798L36.0349 13.5349ZM35.3739 13.5001L35.2043 13.7189L35.2048 13.7193L35.3739 13.5001ZM34.3165 12.4613L34.1075 12.6429L34.1078 12.6432L34.3165 12.4613ZM34.3343 11.6838L34.5515 11.8554L34.5516 11.8552L34.3343 11.6838ZM35.0495 11.5067L34.8724 11.7194L34.8727 11.7196L35.0495 11.5067ZM36.0342 12.4804L35.8313 12.6687H35.8313L36.0342 12.4804ZM36.3367 12.8036L36.1362 12.9944L36.1371 12.9953L36.3367 12.8036ZM36.3803 12.9402L36.1073 12.9862L36.1073 12.9862L36.3803 12.9402ZM36.4087 13.0843L36.1396 13.1491L36.2549 13.6279L36.6039 13.2805L36.4087 13.0843ZM36.4095 13.0835L36.6281 13.2532L36.2142 12.8873L36.4095 13.0835ZM28.5594 6.32016L28.7553 6.12467L28.6749 6.04406L28.561 6.04337L28.5594 6.32016ZM26.8927 4.80482L27.168 4.83338L27.1681 4.83281L26.8927 4.80482ZM28.5602 6.32097L28.3642 6.51646L28.5364 6.68905L28.7293 6.54003L28.5602 6.32097ZM28.6493 6.26461L28.7898 6.50311L28.7898 6.5031L28.6493 6.26461ZM28.9631 5.98683L29.2141 6.1035L29.2142 6.10319L28.9631 5.98683ZM28.9477 5.35659L29.1636 5.18337L29.1636 5.18336L28.9477 5.35659ZM27.8393 4.25225L28.0116 4.03561L28.0114 4.03547L27.8393 4.25225ZM27.2131 4.25387L27.3527 4.49287L27.3534 4.49247L27.2131 4.25387ZM31.9983 3.47237L31.9983 3.47324L32.5519 3.46961L32.5519 3.46873L31.9983 3.47237ZM31.9968 3.10435C31.9968 3.2274 31.9976 3.35032 31.9983 3.47223L32.5519 3.46887C32.5511 3.34668 32.5504 3.22545 32.5504 3.10435H31.9968ZM31.9968 3.10354V3.10435H32.5504V3.10354H31.9968ZM31.9982 2.71405C31.9975 2.8433 31.9968 2.9734 31.9968 3.10354H32.5504C32.5504 2.97515 32.5511 2.84655 32.5518 2.71705L31.9982 2.71405ZM31.9953 1.85868C32.0013 2.14174 31.9998 2.4258 31.9982 2.71405L32.5518 2.71705C32.5533 2.43004 32.5549 2.13856 32.5487 1.84686L31.9953 1.85868ZM31.6201 1.41996C31.736 1.41749 31.8207 1.45753 31.8795 1.52045C31.9406 1.58579 31.9916 1.6958 31.9953 1.85893L32.5487 1.8466C32.5426 1.57366 32.4545 1.32486 32.284 1.14243C32.1112 0.957579 31.8719 0.86089 31.6083 0.866509L31.6201 1.41996ZM31.2624 1.84305C31.2641 1.69154 31.3112 1.58841 31.369 1.52533C31.4255 1.46364 31.5082 1.42245 31.6204 1.41996L31.6081 0.866514C31.3554 0.872116 31.1262 0.97089 30.9609 1.15131C30.7968 1.33033 30.7119 1.57144 30.7088 1.8366L31.2624 1.84305ZM31.2624 4.299C31.2543 3.48026 31.2535 2.66102 31.2624 1.84282L30.7088 1.83682C30.6999 2.65936 30.7007 3.48247 30.7088 4.30446L31.2624 4.299ZM31.6358 4.73534C31.5203 4.73781 31.4345 4.69756 31.3752 4.63427C31.3142 4.56909 31.2639 4.46004 31.2624 4.29917L30.7088 4.3043C30.7114 4.5795 30.7998 4.82966 30.9712 5.01266C31.1443 5.19754 31.3845 5.29442 31.6477 5.2888L31.6358 4.73534ZM31.9945 4.30768C31.9906 4.46064 31.9427 4.56559 31.8842 4.62981C31.8273 4.69216 31.7458 4.7329 31.6356 4.73535L31.6479 5.28879C31.901 5.28316 32.1289 5.18312 32.2933 5.00276C32.456 4.82426 32.5412 4.58457 32.5479 4.32168L31.9945 4.30768ZM31.9983 3.47351C32 3.75542 32.0017 4.032 31.9945 4.30745L32.5479 4.3219C32.5553 4.03606 32.5536 3.75056 32.5519 3.47014L31.9983 3.47351ZM31.9983 3.47176V3.47183H32.5519V3.47176H31.9983ZM31.9983 3.47169V3.47176H32.5519V3.47169H31.9983ZM31.9983 3.47163V3.47169H32.5519V3.47163H31.9983ZM31.9983 3.47156V3.47163H32.5519V3.47156H31.9983ZM31.9983 3.47149V3.47156H32.5519V3.47149H31.9983ZM31.9983 3.47142V3.47149H32.5519V3.47142H31.9983ZM28.7692 8.88921C28.7692 10.4699 30.0591 11.7581 31.6378 11.7509L31.6353 11.1973C30.3645 11.2031 29.3228 10.1644 29.3228 8.88921H28.7692ZM31.5971 6.03078C30.0382 6.04334 28.7692 7.32785 28.7692 8.88921H29.3228C29.3228 7.63026 30.3482 6.59444 31.6015 6.58434L31.5971 6.03078ZM34.4885 8.8695C34.4822 7.29288 33.1806 6.01826 31.5971 6.03078L31.6015 6.58434C32.8821 6.57421 33.9299 7.60536 33.9349 8.87171L34.4885 8.8695ZM31.6386 11.7501C33.2167 11.7429 34.4948 10.4505 34.4885 8.86951L33.9349 8.8717C33.94 10.1483 32.9074 11.1907 31.6361 11.1965L31.6386 11.7501ZM31.8321 11.6699L31.8329 11.6691L31.4417 11.2775L31.4409 11.2783L31.8321 11.6699ZM30.6163 8.85638C30.6346 8.3068 31.1005 7.86585 31.6564 7.87794L31.6684 7.32449C30.8117 7.30585 30.0916 7.98299 30.063 8.8379L30.6163 8.85638ZM31.6175 9.90367C31.0539 9.89796 30.5972 9.42062 30.6163 8.85648L30.063 8.83781C30.0335 9.71214 30.737 10.4484 31.6119 10.4572L31.6175 9.90367ZM32.6421 8.90907C32.6301 9.46271 32.1692 9.90937 31.6175 9.90367L31.6118 10.4572C32.4679 10.4661 33.1769 9.77684 33.1956 8.92114L32.6421 8.90907ZM31.6571 7.87794C32.1989 7.88992 32.6535 8.36413 32.6421 8.90932L33.1956 8.92088C33.2133 8.07129 32.5175 7.34326 31.6693 7.3245L31.6571 7.87794ZM31.6624 7.87801H31.6632V7.32443H31.6624V7.87801ZM39.1528 8.97441C39.0666 9.09718 38.9726 9.16822 38.8693 9.2106C38.7619 9.25463 38.6281 9.27425 38.4551 9.26787L38.4347 9.82107C38.6564 9.82925 38.8754 9.80639 39.0793 9.7228C39.2872 9.63756 39.4631 9.49582 39.6058 9.29254L39.1528 8.97441ZM39.3801 8.85668H39.3793V9.41026H39.3801V8.85668ZM39.1033 8.64886V9.13347H39.6569V8.64886H39.1033ZM38.4553 8.51449C38.6292 8.50843 38.7634 8.5278 38.8709 8.57163C38.974 8.61369 39.0675 8.68422 39.153 8.80702L39.6073 8.4907C39.4646 8.28583 39.2882 8.14399 39.0799 8.05903C38.8759 7.97584 38.6569 7.95355 38.436 7.96124L38.4553 8.51449ZM37.0488 8.5252C37.5131 8.52822 37.9844 8.53133 38.4556 8.51448L38.4358 7.96125C37.9782 7.97761 37.5187 7.97466 37.0524 7.97163L37.0488 8.5252ZM36.272 8.52355C36.5299 8.52182 36.7883 8.5235 37.0488 8.5252L37.0524 7.97163C36.7925 7.96994 36.5304 7.96823 36.2683 7.96998L36.272 8.52355ZM35.7848 8.89076C35.7848 8.76716 35.8273 8.68733 35.8903 8.63369C35.9587 8.57551 36.0799 8.52486 36.272 8.52355L36.2683 7.96998C35.9855 7.97191 35.7256 8.04706 35.5317 8.21198C35.3324 8.38144 35.2313 8.62198 35.2313 8.89076H35.7848ZM36.2712 9.25879C36.08 9.25748 35.9588 9.20667 35.8902 9.14818C35.8268 9.09413 35.7846 9.01404 35.7848 8.89133L35.2313 8.89019C35.2307 9.15906 35.3321 9.39976 35.531 9.56941C35.7247 9.73461 35.9846 9.81042 36.2675 9.81235L36.2712 9.25879ZM37.048 9.25714C36.7875 9.25883 36.5291 9.26051 36.2712 9.25878L36.2675 9.81235C36.5296 9.81411 36.7917 9.8124 37.0516 9.81071L37.048 9.25714ZM38.4548 9.26785C37.9836 9.25101 37.5123 9.25412 37.048 9.25714L37.0516 9.81071C37.5179 9.80767 37.9774 9.80472 38.435 9.82108L38.4548 9.26785ZM1.21448 39.6884C0.95415 39.4543 0.901097 39.3398 0.896323 39.2682C0.891391 39.1943 0.930897 39.0661 1.16289 38.7847L0.73576 38.4326C0.504172 38.7135 0.323215 38.9939 0.343969 39.3051C0.364882 39.6186 0.583667 39.8657 0.844363 40.1001L1.21448 39.6884ZM0.75263 39.8926V39.8942H1.30621V39.8926H0.75263ZM39.3788 39.6158H1.02942V40.1694H39.3788V39.6158ZM39.102 39.0051V39.8926H39.6556V39.0051H39.102ZM35.8647 36.6081C37.1598 37.2425 38.3139 38.014 39.1551 39.1681L39.6025 38.8421C38.6864 37.5852 37.4425 36.7645 36.1082 36.111L35.8647 36.6081ZM30.983 34.9184C32.672 35.3214 34.3124 35.8487 35.8648 36.6082L36.1081 36.1109C34.5086 35.3284 32.827 34.7893 31.1115 34.38L30.983 34.9184ZM18.8443 33.7278C22.9428 33.6464 26.997 33.9671 30.983 34.9184L31.1115 34.38C27.0702 33.4155 22.9677 33.0922 18.8334 33.1743L18.8443 33.7278ZM18.048 33.213C18.1149 33.3763 18.2075 33.5242 18.3621 33.6199C18.5138 33.7137 18.6836 33.731 18.8444 33.7278L18.8333 33.1743C18.7117 33.1767 18.6703 33.1596 18.6534 33.1491C18.6393 33.1404 18.6057 33.1139 18.5602 33.003L18.048 33.213ZM15.338 26.6453C16.2449 28.8336 17.1516 31.0213 18.0479 33.2128L18.5603 33.0032C17.6634 30.8103 16.7562 28.6214 15.8494 26.4334L15.338 26.6453ZM15.3376 26.6444L15.3377 26.6447L15.8496 26.434L15.8495 26.4337L15.3376 26.6444ZM15.3375 26.6442L15.3376 26.6444L15.8495 26.4337L15.8494 26.4334L15.3375 26.6442ZM15.3374 26.6439L15.3375 26.6442L15.8494 26.4334L15.8492 26.4331L15.3374 26.6439ZM15.3372 26.6436L15.3374 26.6439L15.8492 26.4331L15.8491 26.4328L15.3372 26.6436ZM15.3371 26.6433L15.3372 26.6436L15.8491 26.4328L15.849 26.4325L15.3371 26.6433ZM15.337 26.643L15.3371 26.6433L15.849 26.4325L15.8489 26.4322L15.337 26.643ZM15.3369 26.6427L15.337 26.643L15.8489 26.4322L15.8488 26.4319L15.3369 26.6427ZM15.3368 26.6424L15.3369 26.6427L15.8488 26.4319L15.8486 26.4316L15.3368 26.6424ZM14.5727 24.7982C14.8273 25.4132 15.0822 26.0281 15.337 26.643L15.8484 26.431C15.5936 25.8162 15.3387 25.2013 15.0842 24.5865L14.5727 24.7982ZM13.144 21.3544C13.6286 22.5218 14.1011 23.6601 14.5727 24.7983L15.0841 24.5864C14.6124 23.448 14.1399 22.3096 13.6553 21.1421L13.144 21.3544ZM13.4289 20.9324C13.384 20.9524 13.3377 20.9731 13.2881 20.9949L13.5112 21.5016C13.5624 21.4791 13.61 21.4578 13.6546 21.4378L13.4289 20.9324ZM13.6817 20.822C13.598 20.8568 13.5157 20.8936 13.4289 20.9324L13.6546 21.4378C13.7427 21.3985 13.8185 21.3647 13.8943 21.3331L13.6817 20.822ZM16.7691 19.5406L13.6819 20.8219L13.8941 21.3332L16.9813 20.0518L16.7691 19.5406ZM16.7756 19.5379L16.769 19.5406L16.9813 20.0518L16.9879 20.0491L16.7756 19.5379ZM16.7822 19.5351L16.7757 19.5378L16.9878 20.0491L16.9943 20.0464L16.7822 19.5351ZM23.5787 16.7128C21.3136 17.6546 19.048 18.5948 16.7822 19.5351L16.9944 20.0464C19.2601 19.1061 21.5259 18.1658 23.7913 17.224L23.5787 16.7128ZM23.813 15.9192C24.0116 16.1762 24.0218 16.3178 24.0012 16.3886C23.979 16.4646 23.8862 16.585 23.5787 16.7128L23.7913 17.224C24.1416 17.0784 24.4379 16.8687 24.5326 16.5434C24.6289 16.2129 24.4838 15.882 24.2511 15.5808L23.813 15.9192ZM11.3932 10.8486C16.5202 10.1232 20.6501 11.8219 23.813 15.9191L24.2512 15.5809C20.9676 11.3272 16.6414 9.54699 11.3156 10.3005L11.3932 10.8486ZM9.95238 11.1628C10.442 11.0374 10.9151 10.9165 11.3933 10.8486L11.3155 10.3005C10.8021 10.3734 10.2996 10.5024 9.81501 10.6265L9.95238 11.1628ZM9.27289 11.3313C9.50129 11.2784 9.72858 11.2201 9.95238 11.1628L9.81501 10.6265C9.59015 10.6841 9.36909 10.7408 9.14801 10.792L9.27289 11.3313ZM8.98748 11.2271C8.99107 11.231 8.99269 11.2328 8.99404 11.2343C8.99519 11.2356 8.99508 11.2355 8.99432 11.2345L9.42657 10.8887C9.4127 10.8714 9.39895 10.8567 9.39322 10.8505L8.98748 11.2271ZM8.99462 11.2345L8.99463 11.2346L9.38607 10.8431L9.38606 10.8431L8.99462 11.2345ZM8.90291 11.1019C8.93195 11.1721 8.98264 11.2219 8.98749 11.2271L9.3932 10.8505C9.38957 10.8466 9.38825 10.8452 9.38731 10.8441C9.38656 10.8433 9.38769 10.8445 9.38974 10.8471C9.39357 10.852 9.40476 10.8669 9.41443 10.8903L8.90291 11.1019ZM8.73098 10.6916C8.7881 10.8286 8.84554 10.9664 8.90376 11.104L9.41357 10.8882C9.35602 10.7522 9.29915 10.6158 9.24193 10.4786L8.73098 10.6916ZM8.73131 10.6924L8.73135 10.6925L9.24155 10.4776L9.24151 10.4775L8.73131 10.6924ZM8.73126 10.6923L8.73131 10.6924L9.24151 10.4775L9.24146 10.4774L8.73126 10.6923ZM8.73122 10.6921L8.73126 10.6923L9.24146 10.4774L9.24142 10.4773L8.73122 10.6921ZM8.73117 10.692L8.73122 10.6921L9.24142 10.4773L9.24137 10.4772L8.73117 10.692ZM8.73112 10.6919L8.73117 10.692L9.24137 10.4772L9.24132 10.4771L8.73112 10.6919ZM8.73108 10.6918L8.73112 10.6919L9.24132 10.4771L9.24128 10.477L8.73108 10.6918ZM8.73103 10.6917L8.73108 10.6918L9.24128 10.477L9.24123 10.4769L8.73103 10.6917ZM8.73099 10.6916L8.73103 10.6917L9.24123 10.4769L9.24119 10.4768L8.73099 10.6916ZM8.49889 10.1399C8.57712 10.3225 8.65358 10.5059 8.73061 10.6907L9.24157 10.4777C9.16471 10.2933 9.08722 10.1075 9.00778 9.92194L8.49889 10.1399ZM7.95093 9.79867C8.06863 9.7498 8.15874 9.75952 8.23389 9.79978C8.31747 9.84455 8.41604 9.94596 8.49881 10.1397L9.00786 9.92213C8.89323 9.65387 8.7236 9.4341 8.49529 9.3118C8.25855 9.18499 7.99309 9.18176 7.73864 9.28741L7.95093 9.79867ZM7.82203 10.4342C7.73872 10.2249 7.73472 10.0804 7.76 9.99103C7.78182 9.9139 7.83337 9.84719 7.95037 9.79891L7.7392 9.28718C7.48566 9.39181 7.30097 9.57995 7.22731 9.84039C7.15713 10.0886 7.19844 10.3644 7.30768 10.6389L7.82203 10.4342ZM8.10724 11.1434C8.01129 10.9061 7.91593 10.6703 7.82205 10.4343L7.30766 10.6388C7.40223 10.8766 7.49819 11.1139 7.59403 11.3509L8.10724 11.1434ZM8.10752 11.1441L8.10746 11.1439L7.59382 11.3504L7.59388 11.3505L8.10752 11.1441ZM8.25202 11.5019C8.20378 11.3821 8.15547 11.2626 8.1073 11.1435L7.59409 11.3511C7.64228 11.4702 7.69045 11.5893 7.73851 11.7087L8.25202 11.5019ZM8.0379 11.8999C8.0655 11.8839 8.09566 11.8665 8.13153 11.8462L7.859 11.3644C7.82062 11.3861 7.78843 11.4047 7.76084 11.4206L8.0379 11.8999ZM8.03668 11.9006L8.0367 11.9006L7.76205 11.4199L7.76203 11.4199L8.03668 11.9006ZM8.03302 11.9026L8.03306 11.9026L7.76564 11.4179L7.7656 11.4179L8.03302 11.9026ZM8.03963 11.8989L8.03965 11.8989L7.75897 11.4217L7.75895 11.4217L8.03963 11.8989ZM7.90867 11.9722C7.95194 11.9496 7.99332 11.9257 8.03782 11.8999L7.76076 11.4207C7.71382 11.4478 7.68344 11.4653 7.65307 11.4811L7.90867 11.9722ZM1.06027 25.2303C0.312593 19.6096 2.90694 14.5883 7.90916 11.9719L7.65258 11.4814C2.44308 14.2062 -0.266648 19.4533 0.511525 25.3033L1.06027 25.2303ZM1.89271 25.7044C1.51568 25.8606 1.35315 25.8407 1.28226 25.8001C1.21202 25.7599 1.11373 25.6314 1.06026 25.2302L0.511534 25.3033C0.567286 25.7217 0.690675 26.0993 1.00715 26.2805C1.32299 26.4614 1.71222 26.3784 2.10459 26.2158L1.89271 25.7044ZM6.24298 23.9019C4.79302 24.5029 3.34301 25.1039 1.89276 25.7044L2.10454 26.2158C3.5549 25.6153 5.005 25.0142 6.45494 24.4133L6.24298 23.9019ZM6.24671 23.9003L6.24286 23.9019L6.45506 24.4132L6.45891 24.4116L6.24671 23.9003ZM6.24932 23.8993L6.24694 23.9002L6.45867 24.4117L6.46105 24.4107L6.24932 23.8993ZM9.85693 22.4043C8.65437 22.9024 7.4518 23.4009 6.2492 23.8993L6.46117 24.4107C7.66378 23.9122 8.86628 23.4138 10.0688 22.9158L9.85693 22.4043ZM11.4624 21.7423C10.9223 21.9644 10.3894 22.1835 9.85683 22.4044L10.0689 22.9157C10.6005 22.6952 11.1327 22.4764 11.673 22.2543L11.4624 21.7423ZM12.0978 21.4809L11.4624 21.7423L11.673 22.2543L12.3084 21.9929L12.0978 21.4809ZM15.9278 30.0064C14.7788 27.2319 13.6235 24.4424 12.4588 21.631L11.9474 21.8429C13.1121 24.6542 14.2673 27.4437 15.4163 30.2182L15.9278 30.0064ZM15.9301 30.0119L15.9278 30.0064L15.4163 30.2182L15.4186 30.2237L15.9301 30.0119ZM17.3098 33.3435L15.9301 30.0119L15.4186 30.2237L16.7984 33.5553L17.3098 33.3435ZM15.4386 33.9141C15.9834 33.8528 16.533 33.791 17.0872 33.7242L17.021 33.1746C16.4693 33.2411 15.9219 33.3027 15.3767 33.364L15.4386 33.9141ZM15.4377 33.9142L15.4384 33.9141L15.3768 33.364L15.3761 33.3641L15.4377 33.9142ZM11.8446 34.367C13.0289 34.1853 14.2214 34.0511 15.4379 33.9142L15.376 33.3641C14.1614 33.5008 12.9578 33.6362 11.7607 33.8198L11.8446 34.367ZM4.49743 36.4437C6.83007 35.3744 9.30488 34.7569 11.8446 34.367L11.7606 33.8198C9.18883 34.2147 6.66052 34.8431 4.26675 35.9404L4.49743 36.4437ZM1.16284 38.7848C2.04525 37.7151 3.21985 37.0292 4.49741 36.4437L4.26677 35.9404C2.96348 36.5377 1.69801 37.2661 0.735805 38.4325L1.16284 38.7848ZM37.3464 38.6936L37.3747 38.6208L36.8587 38.4201L36.8304 38.493L37.3464 38.6936ZM37.2845 38.3979L37.2836 38.3971L36.8931 38.7895L36.8939 38.7903L37.2845 38.3979ZM2.8174 38.8709H37.0892V38.3173H2.8174V38.8709ZM2.79816 38.2569C2.7527 38.2931 2.70401 38.3319 2.64805 38.3752L2.98675 38.813C3.04612 38.7671 3.09757 38.7262 3.1429 38.6901L2.79816 38.2569ZM2.79814 38.257L2.79758 38.2574L3.14349 38.6896L3.14405 38.6892L2.79814 38.257ZM2.79591 38.2588L2.79573 38.2589L3.14646 38.6872L3.14664 38.6871L2.79591 38.2588ZM3.05382 38.0644C2.96678 38.1225 2.8861 38.1869 2.79889 38.2564L3.14365 38.6895C3.23506 38.6167 3.2969 38.5677 3.3609 38.5251L3.05382 38.0644ZM8.7087 35.7569C6.73744 36.2509 4.79303 36.9011 3.05347 38.0647L3.36125 38.5248C5.0229 37.4134 6.89554 36.782 8.84328 36.2939L8.7087 35.7569ZM22.2311 34.5045C17.6736 34.3192 13.1546 34.6424 8.70868 35.7569L8.84329 36.2939C13.2273 35.1949 17.6919 34.874 22.2086 35.0576L22.2311 34.5045ZM32.1977 35.9995C28.9359 35.0681 25.6018 34.6419 22.2311 34.5045L22.2086 35.0576C25.5481 35.1937 28.8368 35.6154 32.0457 36.5318L32.1977 35.9995ZM36.674 37.8828C35.2772 37.0002 33.7495 36.4429 32.1977 35.9995L32.0456 36.5318C33.5747 36.9687 35.0453 37.5085 36.3783 38.3508L36.674 37.8828ZM37.0939 38.1672C36.96 38.0732 36.8196 37.9746 36.6737 37.8826L36.3785 38.3509C36.5108 38.4343 36.64 38.525 36.7758 38.6203L37.0939 38.1672ZM37.0884 38.1635L37.0884 38.1634L36.7813 38.624L36.7814 38.6241L37.0884 38.1635ZM37.0885 38.1635L37.0884 38.1635L36.7814 38.6241L36.7814 38.6241L37.0885 38.1635ZM37.0885 38.1635L37.0885 38.1635L36.7814 38.6241L36.7814 38.6241L37.0885 38.1635ZM37.0885 38.1635L37.0885 38.1635L36.7814 38.6241L36.7815 38.6241L37.0885 38.1635ZM37.0886 38.1635L37.0885 38.1635L36.7815 38.6241L36.7815 38.6241L37.0886 38.1635ZM37.0886 38.1636L37.0886 38.1635L36.7815 38.6241L36.7815 38.6242L37.0886 38.1636ZM37.0886 38.1636L37.0886 38.1636L36.7815 38.6242L36.7816 38.6242L37.0886 38.1636ZM37.0887 38.1636L37.0886 38.1636L36.7816 38.6242L36.7816 38.6242L37.0887 38.1636ZM37.0941 38.1673L37.0939 38.1672L36.7764 38.6207L36.7766 38.6208L37.0941 38.1673ZM37.0943 38.1675L37.0941 38.1673L36.7766 38.6208L36.7769 38.621L37.0943 38.1675ZM37.0945 38.1676L37.0943 38.1675L36.7769 38.621L36.7771 38.6212L37.0945 38.1676ZM37.0948 38.1678L37.0945 38.1676L36.7771 38.6212L36.7773 38.6213L37.0948 38.1678ZM37.095 38.168L37.0948 38.1678L36.7773 38.6213L36.7775 38.6215L37.095 38.168ZM37.0952 38.1681L37.095 38.168L36.7775 38.6215L36.7778 38.6216L37.0952 38.1681ZM37.2735 38.2924C37.2145 38.2518 37.1556 38.2105 37.0955 38.1683L36.7775 38.6214C36.8372 38.6634 36.8983 38.7062 36.9599 38.7486L37.2735 38.2924ZM18.1645 17.848C18.1513 17.82 18.1397 17.7927 18.1264 17.7614L17.6167 17.9774C17.6295 18.0076 17.6452 18.0446 17.6637 18.0839L18.1645 17.848ZM17.9149 17.6892H17.9141V18.2428H17.9149V17.6892ZM14.4953 19.683C15.674 19.1945 16.8407 18.7111 18.0209 18.2217L17.8089 17.7103C16.6287 18.1997 15.4621 18.6831 14.2834 19.1716L14.4953 19.683ZM14.4937 19.6836L14.4956 19.6829L14.2831 19.1717L14.2812 19.1725L14.4937 19.6836ZM13.0081 20.2993L14.4934 19.6838L14.2815 19.1723L12.7961 19.7879L13.0081 20.2993ZM9.47013 12.4888C10.5397 15.068 11.5906 17.6027 12.6464 20.1496L13.1578 19.9376C12.102 17.3907 11.051 14.856 9.98148 12.2768L9.47013 12.4888ZM11.4959 12.145C10.9338 12.0119 10.3096 11.9046 9.6412 12.1192L9.81041 12.6463C10.3264 12.4807 10.8236 12.5547 11.3683 12.6837L11.4959 12.145ZM15.2167 14.2581C14.1464 13.3093 12.9585 12.4918 11.4959 12.145L11.3682 12.6837C12.7033 13.0002 13.8099 13.7507 14.8495 14.6724L15.2167 14.2581ZM18.0237 17.557C17.2255 16.3482 16.3106 15.2282 15.2168 14.2582L14.8495 14.6723C15.8995 15.6035 16.784 16.6841 17.5618 17.862L18.0237 17.557ZM18.1264 17.7614C18.1035 17.7074 18.0716 17.6301 18.0242 17.5578L17.5613 17.8613C17.5765 17.8845 17.5899 17.914 17.6167 17.9774L18.1264 17.7614ZM8.35958 12.6235C7.51617 13.2252 7.01209 13.9923 6.66428 14.8517L7.17743 15.0594C7.49628 14.2715 7.94363 13.6002 8.68108 13.0741L8.35958 12.6235ZM8.79712 12.8496V12.8488H8.24354V12.8496H8.79712ZM10.3558 16.5562C9.83047 15.2885 9.30515 14.0209 8.77605 12.7437L8.26462 12.9555C8.79373 14.2328 9.31906 15.5005 9.84435 16.7681L10.3558 16.5562ZM10.3695 16.5893L10.3558 16.5562L9.84435 16.7681L9.85806 16.8012L10.3695 16.5893ZM10.3709 16.5928L10.3695 16.5893L9.85806 16.8011L9.8595 16.8046L10.3709 16.5928ZM11.9621 20.4328C11.4291 19.1463 10.9 17.8695 10.3709 16.5927L9.85951 16.8047C10.3886 18.0814 10.9177 19.3582 11.4506 20.6447L11.9621 20.4328ZM8.24224 22.2749C9.44374 21.7768 10.6212 21.2886 11.8124 20.7944L11.6003 20.2831C10.4091 20.7773 9.23174 21.2654 8.03023 21.7636L8.24224 22.2749ZM8.23167 22.2793L8.24227 22.2749L8.0302 21.7636L8.01961 21.768L8.23167 22.2793ZM6.73966 22.8979L8.23165 22.2793L8.01963 21.768L6.52764 22.3865L6.73966 22.8979ZM6.25002 21.9793C6.28736 22.2117 6.32482 22.4451 6.35981 22.6826L6.90748 22.6019C6.87189 22.3603 6.83385 22.1234 6.7966 21.8915L6.25002 21.9793ZM6.04342 20.4949C6.09127 20.9914 6.17045 21.4838 6.25002 21.9793L6.7966 21.8915C6.71654 21.393 6.64034 20.918 6.59444 20.4418L6.04342 20.4949ZM6.66427 14.8517C5.92066 16.6899 5.86011 18.5963 6.04342 20.4949L6.59444 20.4417C6.41531 18.5864 6.48096 16.781 7.17745 15.0593L6.66427 14.8517ZM2.30587 24.5049C1.84061 21.6295 2.98422 17.6117 5.74632 15.0891L5.373 14.6803C2.46914 17.3324 1.26517 21.5388 1.75939 24.5934L2.30587 24.5049ZM5.23616 22.9182C4.19897 23.3494 3.06637 23.8202 1.9265 24.2935L2.13877 24.8048C3.27877 24.3315 4.41149 23.8606 5.44868 23.4294L5.23616 22.9182ZM4.93309 21.9044C4.97876 22.3316 5.0248 22.7622 5.0669 23.2003L5.61794 23.1473C5.57551 22.7059 5.52916 22.2723 5.48354 21.8456L4.93309 21.9044ZM4.68165 19.027C4.72762 19.9832 4.82949 20.9353 4.93309 21.9044L5.48354 21.8456C5.37963 20.8736 5.27965 19.9377 5.2346 19.0004L4.68165 19.027ZM5.29716 14.7969C4.81825 16.2291 4.61354 17.619 4.68166 19.0271L5.23459 19.0003C5.17007 17.6665 5.36315 16.3452 5.82217 14.9725L5.29716 14.7969ZM22.8145 15.874C21.9217 14.5452 20.0621 13.2461 18.2012 12.3834C17.2656 11.9496 16.3144 11.6189 15.4637 11.4487C14.6234 11.2806 13.8388 11.2603 13.2644 11.4946L13.4735 12.0072C13.8945 11.8354 14.5468 11.8298 15.3551 11.9915C16.1529 12.1512 17.0619 12.4653 17.9684 12.8856C19.7919 13.731 21.5447 14.9767 22.355 16.1827L22.8145 15.874ZM22.8615 16.0291V16.0283H22.3079V16.0291H22.8615ZM19.27 17.7015C20.4083 17.2298 21.5337 16.7638 22.6906 16.2849L22.4788 15.7734C21.3219 16.2523 20.1965 16.7184 19.0581 17.1901L19.27 17.7015ZM13.2405 11.9961C15.6844 13.2765 17.4293 15.2739 18.9317 17.5961L19.3965 17.2954C17.8682 14.9333 16.0598 12.8483 13.4974 11.5057L13.2405 11.9961ZM26.1995 7.96755H26.1994V8.52113H26.1995V7.96755ZM27.0757 7.97174C26.7809 7.96373 26.4865 7.96567 26.1977 7.96756L26.2013 8.52113C26.4917 8.51923 26.7768 8.5174 27.0607 8.52512L27.0757 7.97174ZM28.0262 8.89446C28.0273 8.63959 27.9322 8.4071 27.7553 8.23772C27.5797 8.06958 27.3401 7.97901 27.0758 7.97174L27.0606 8.52512C27.2081 8.52917 27.31 8.57776 27.3724 8.63756C27.4336 8.69613 27.4731 8.78039 27.4726 8.89201L28.0262 8.89446ZM27.0672 9.80995C27.3336 9.80629 27.5744 9.71642 27.7511 9.54866C27.9286 9.38011 28.0251 9.14804 28.0262 8.89446L27.4726 8.89201C27.4722 9.00331 27.4319 9.08839 27.37 9.14718C27.3072 9.20676 27.2058 9.25442 27.0596 9.25642L27.0672 9.80995ZM24.5575 9.80995C25.394 9.8205 26.2304 9.8205 27.0669 9.80995L27.0599 9.25642C26.2281 9.26691 25.3963 9.26691 24.5645 9.25642L24.5575 9.80995ZM23.6038 8.88716C23.6027 9.14128 23.6971 9.37497 23.8736 9.54526C24.0493 9.71491 24.2902 9.80628 24.5572 9.80995L24.5648 9.25642C24.42 9.25443 24.3199 9.20665 24.258 9.14693C24.1968 9.08786 24.1569 9.00197 24.1574 8.8896L23.6038 8.88716ZM24.5583 7.97174C24.2946 7.97895 24.055 8.06698 23.8785 8.23365C23.7004 8.40177 23.6049 8.63297 23.6038 8.88716L24.1574 8.8896C24.1579 8.77649 24.1979 8.69337 24.2585 8.63618C24.3206 8.57753 24.4229 8.52923 24.5734 8.52512L24.5583 7.97174ZM25.4364 7.96756C25.1476 7.96567 24.8531 7.96373 24.5583 7.97174L24.5734 8.52512C24.8573 8.5174 25.1424 8.51923 25.4328 8.52113L25.4364 7.96756ZM25.4347 7.96755H25.4346V8.52113H25.4347V7.96755ZM25.4348 7.96755H25.4347V8.52113H25.4348V7.96755ZM25.4349 7.96755H25.4348V8.52113H25.4349V7.96755ZM25.435 7.96755H25.4349V8.52113H25.435V7.96755ZM25.4351 7.96755H25.435V8.52113H25.4351V7.96755ZM25.8166 7.96921C25.6906 7.96921 25.5643 7.96839 25.4369 7.96756L25.4333 8.52113C25.5603 8.52196 25.6885 8.52279 25.8166 8.52279V7.96921ZM25.8174 7.96921H25.8166V8.52279H25.8174V7.96921ZM26.1972 7.96756C26.0698 7.96839 25.9435 7.96921 25.8174 7.96921V8.52279C25.9456 8.52279 26.0737 8.52196 26.2008 8.52113L26.1972 7.96756ZM26.1991 7.96755H26.199V8.52113H26.1991V7.96755ZM26.1992 7.96755H26.1991V8.52113H26.1992V7.96755ZM26.1993 7.96755H26.1992V8.52113H26.1993V7.96755ZM26.1994 7.96755H26.1993V8.52113H26.1994V7.96755ZM31.26 14.6851C31.26 14.5589 31.2593 14.4328 31.2586 14.3076L30.7051 14.3107C30.7058 14.4362 30.7065 14.5607 30.7065 14.6851H31.26ZM31.26 14.6859V14.6851H30.7065V14.6859H31.26ZM31.2587 15.0624C31.2594 14.9375 31.26 14.8117 31.26 14.6859H30.7065C30.7065 14.81 30.7058 14.9344 30.7052 15.0595L31.2587 15.0624ZM31.2624 15.9303C31.2557 15.6432 31.2572 15.355 31.2587 15.0624L30.7052 15.0595C30.7036 15.3508 30.7021 15.6469 30.709 15.9432L31.2624 15.9303ZM31.6181 16.3623C31.5068 16.3588 31.4262 16.3175 31.3705 16.2554C31.3129 16.1912 31.2657 16.0858 31.2624 15.9308L30.709 15.9426C30.7145 16.2051 30.7972 16.4452 30.9583 16.6249C31.1212 16.8067 31.348 16.9077 31.6008 16.9156L31.6181 16.3623ZM31.9945 15.9304C31.9927 16.0876 31.9419 16.1963 31.8794 16.2619C31.8184 16.3261 31.7313 16.3657 31.6178 16.3623L31.6011 16.9156C31.8647 16.9235 32.106 16.8268 32.2804 16.6436C32.4533 16.4619 32.5449 16.2121 32.548 15.9366L31.9945 15.9304ZM31.9945 13.4746C32.0034 14.2929 32.0034 15.1121 31.9945 15.9305L32.548 15.9365C32.5569 15.1141 32.5569 14.2909 32.548 13.4686L31.9945 13.4746ZM31.6381 13.0468C31.75 13.0503 31.8321 13.0919 31.8883 13.1541C31.9459 13.2178 31.9927 13.3219 31.9945 13.4748L32.548 13.4683C32.5449 13.2037 32.4615 12.9627 32.299 12.783C32.1352 12.6016 31.9074 12.5013 31.6553 12.4935L31.6381 13.0468ZM31.2616 13.481C31.2652 13.3204 31.3164 13.2111 31.3781 13.1459C31.4377 13.0829 31.5232 13.0433 31.6384 13.0468L31.6549 12.4935C31.3907 12.4856 31.1501 12.5815 30.9761 12.7653C30.8042 12.9469 30.7143 13.1955 30.7081 13.4686L31.2616 13.481ZM31.2586 14.3073C31.2571 14.0285 31.2556 13.7542 31.2616 13.4809L30.7081 13.4687C30.7019 13.7509 30.7035 14.0328 30.7051 14.3104L31.2586 14.3073ZM31.2586 14.309V14.3089H30.7051V14.309H31.2586ZM31.2586 14.309V14.309H30.7051V14.309H31.2586ZM31.2586 14.3091V14.309H30.7051V14.3091H31.2586ZM31.2586 14.3092V14.3091H30.7051V14.3092H31.2586ZM26.74 12.5544C26.5085 12.8574 26.5538 13.2229 26.726 13.4847C26.8967 13.7442 27.207 13.9336 27.5699 13.9263L27.5587 13.3729C27.399 13.3761 27.2619 13.2921 27.1885 13.1805C27.1165 13.0711 27.1209 12.9677 27.1799 12.8905L26.74 12.5544ZM27.9857 11.3263C27.5304 11.6779 27.0952 12.0893 26.74 12.5544L27.1799 12.8905C27.4994 12.4721 27.8975 12.0939 28.3241 11.7643L27.9857 11.3263ZM28.9802 11.3974C28.8519 11.3238 28.6814 11.2652 28.5219 11.2384C28.4411 11.2248 28.3529 11.2176 28.2672 11.225C28.186 11.2321 28.0781 11.2547 27.9854 11.3265L28.3244 11.7641C28.2981 11.7845 28.2851 11.7791 28.3151 11.7765C28.3406 11.7743 28.3797 11.7758 28.4301 11.7843C28.5329 11.8016 28.6399 11.8404 28.7049 11.8777L28.9802 11.3974ZM29.2078 12.5245C29.5036 12.1677 29.3738 11.6219 28.9797 11.3971L28.7054 11.8779C28.8275 11.9476 28.8385 12.1025 28.7816 12.1712L29.2078 12.5245ZM28.2229 13.5301C28.5553 13.2176 28.9032 12.8912 29.2076 12.5247L28.7818 12.171C28.5029 12.5067 28.1805 12.8102 27.8438 13.1267L28.2229 13.5301ZM27.9459 13.792C28.0371 13.7047 28.1294 13.6179 28.2229 13.5301L27.8438 13.1267C27.7506 13.2142 27.6564 13.3028 27.5629 13.3923L27.9459 13.792ZM27.646 13.9163C27.6665 13.9136 27.7125 13.9078 27.76 13.8945C27.8066 13.8814 27.8804 13.8544 27.9453 13.7926L27.5635 13.3917C27.5783 13.3777 27.5917 13.3699 27.5994 13.3661C27.607 13.3623 27.6114 13.3612 27.6104 13.3615C27.6095 13.3617 27.6062 13.3626 27.5992 13.3638C27.5919 13.365 27.584 13.3661 27.5718 13.3678L27.646 13.9163ZM27.6411 13.9158C27.6355 13.9174 27.6315 13.9182 27.63 13.9185C27.6284 13.9189 27.6279 13.9189 27.629 13.9187C27.6301 13.9186 27.6319 13.9183 27.6349 13.9179C27.638 13.9174 27.6414 13.917 27.646 13.9163L27.5718 13.3678C27.5626 13.369 27.5237 13.3736 27.4891 13.3835L27.6411 13.9158ZM27.5643 13.9264H27.5651V13.3728H27.5643V13.9264ZM34.9168 6.14949L34.9166 6.14932L34.577 6.5865L34.5772 6.58667L34.9168 6.14949ZM34.7462 6.64487H34.747V6.09129H34.7462V6.64487ZM34.6724 6.1013L34.6718 6.10146L34.8205 6.6347L34.8211 6.63453L34.6724 6.1013ZM34.8214 6.63447C34.8784 6.61852 34.9277 6.60834 34.9771 6.59823L34.8661 6.05589C34.8167 6.066 34.7501 6.07957 34.6722 6.10136L34.8214 6.63447ZM34.4588 6.50857C34.5147 6.54328 34.5507 6.56606 34.5768 6.58634L34.9168 6.14949C34.863 6.10766 34.7998 6.06872 34.7511 6.03841L34.4588 6.50857ZM34.0187 6.07738C34.0702 6.20189 34.1588 6.29178 34.235 6.35454C34.3114 6.41742 34.3967 6.46999 34.4588 6.50857L34.7511 6.03841C34.6829 5.99608 34.6299 5.96262 34.587 5.92726C34.5439 5.89178 34.5325 5.8712 34.5303 5.86592L34.0187 6.07738ZM34.1171 5.13805C34.0116 5.27444 33.9681 5.45435 33.9557 5.60428C33.943 5.75765 33.9584 5.93231 34.0189 6.07787L34.5301 5.86543C34.5129 5.8241 34.4996 5.74351 34.5074 5.64992C34.5154 5.55289 34.5415 5.49413 34.5549 5.4768L34.1171 5.13805ZM35.1688 4.07346C34.8061 4.39158 34.4286 4.73726 34.1175 5.13756L34.5545 5.47729C34.8307 5.12195 35.1733 4.80583 35.5338 4.48967L35.1688 4.07346ZM36.3415 4.10657C36.1799 3.96113 35.984 3.8639 35.7691 3.85274C35.5505 3.84139 35.3431 3.92089 35.169 4.0733L35.5337 4.48983C35.6128 4.42055 35.6825 4.40257 35.7404 4.40558C35.802 4.40878 35.882 4.43776 35.9712 4.51804L36.3415 4.10657ZM36.5035 5.24665C36.6635 5.0559 36.705 4.82987 36.6575 4.61828C36.6121 4.41639 36.4897 4.2399 36.3415 4.10654L35.9712 4.51808C36.0568 4.59506 36.1031 4.67625 36.1174 4.73972C36.1295 4.7935 36.1216 4.84053 36.0794 4.89086L36.5035 5.24665ZM35.5346 6.23695C35.8613 5.92813 36.2027 5.60589 36.5037 5.24647L36.0792 4.89105C35.8024 5.22157 35.4851 5.52199 35.1543 5.83465L35.5346 6.23695ZM35.5401 6.23154L35.5402 6.23152L35.1487 5.84008L35.1487 5.8401L35.5401 6.23154ZM35.5431 6.22855L35.5431 6.22851L35.1457 5.84313L35.1457 5.84318L35.5431 6.22855ZM35.2993 6.46035C35.377 6.38596 35.4553 6.31187 35.5345 6.23702L35.1543 5.83472C35.0753 5.90936 34.9956 5.98471 34.9163 6.0606L35.2993 6.46035ZM34.9771 6.59823C35.0163 6.59021 35.0698 6.57963 35.1179 6.56422C35.1685 6.54801 35.2378 6.51937 35.2994 6.46026L34.9162 6.0607C34.9401 6.03779 34.9602 6.03345 34.9491 6.03699C34.9442 6.03858 34.9356 6.04095 34.9208 6.04433C34.9059 6.04775 34.8889 6.05124 34.8662 6.05589L34.9771 6.59823ZM36.5507 13.3725L36.5507 13.3724L36.0901 13.0653L36.0901 13.0654L36.5507 13.3725ZM36.1418 13.7902C36.2633 13.7394 36.3502 13.6524 36.4103 13.5786C36.4704 13.5047 36.5204 13.4223 36.5564 13.3635L36.0843 13.0744C36.0446 13.1393 36.0136 13.189 35.9809 13.2292C35.9481 13.2696 35.9302 13.2787 35.928 13.2796L36.1418 13.7902ZM35.2048 13.7193C35.3463 13.8284 35.5332 13.8619 35.68 13.867C35.8336 13.8723 36.0032 13.8485 36.1422 13.7901L35.9276 13.2798C35.8781 13.3006 35.7916 13.3169 35.6991 13.3137C35.6549 13.3122 35.6164 13.3064 35.5865 13.2982C35.5719 13.2942 35.5609 13.2901 35.5532 13.2865C35.5454 13.2829 35.5426 13.2807 35.543 13.281L35.2048 13.7193ZM34.1078 12.6432C34.4357 13.0193 34.7944 13.4012 35.2043 13.7189L35.5434 13.2814C35.1767 12.9971 34.8461 12.6476 34.5251 12.2794L34.1078 12.6432ZM34.117 11.5123C33.9899 11.6733 33.9063 11.8637 33.8983 12.0675C33.8901 12.2754 33.9619 12.4752 34.1075 12.6429L34.5254 12.2798C34.4672 12.2128 34.4491 12.1489 34.4515 12.0892C34.454 12.0254 34.4812 11.9443 34.5515 11.8554L34.117 11.5123ZM35.2266 11.294C35.0401 11.1386 34.8095 11.1212 34.6143 11.1744C34.4217 11.2268 34.2449 11.3502 34.1169 11.5124L34.5516 11.8552C34.6138 11.7764 34.693 11.7267 34.7597 11.7085C34.8238 11.6911 34.8558 11.7056 34.8724 11.7194L35.2266 11.294ZM36.2371 12.2922C35.924 11.9546 35.5965 11.6011 35.2263 11.2937L34.8727 11.7196C35.2105 12.0001 35.5139 12.3265 35.8313 12.6687L36.2371 12.2922ZM36.5371 12.6127C36.4369 12.5075 36.3378 12.4006 36.2371 12.2922L35.8313 12.6687C35.9315 12.7767 36.0331 12.8862 36.1362 12.9944L36.5371 12.6127ZM36.6532 12.8943C36.6484 12.8659 36.6413 12.8213 36.6299 12.7811C36.6179 12.7386 36.5937 12.6716 36.5362 12.6118L36.1371 12.9953C36.1208 12.9784 36.1107 12.9619 36.1047 12.9499C36.1018 12.9441 36.0999 12.9395 36.0989 12.9365C36.0978 12.9335 36.0973 12.9318 36.0972 12.9317C36.0972 12.9317 36.0975 12.9327 36.0981 12.9353C36.0987 12.9378 36.0994 12.9414 36.1003 12.9462C36.1023 12.9565 36.1044 12.9686 36.1073 12.9862L36.6532 12.8943ZM36.6777 13.0195C36.6665 12.9726 36.6598 12.9334 36.6532 12.8943L36.1073 12.9862C36.114 13.0258 36.1233 13.0818 36.1396 13.1491L36.6777 13.0195ZM36.2142 12.8873L36.2134 12.8881L36.6039 13.2805L36.6047 13.2797L36.2142 12.8873ZM36.5564 13.3634C36.5896 13.3093 36.6102 13.2762 36.6281 13.2532L36.1908 12.9137C36.1503 12.966 36.1127 13.0279 36.0843 13.0743L36.5564 13.3634ZM28.561 6.04337C28.5065 6.04304 28.3875 6.00666 28.2118 5.90014C28.0469 5.80024 27.8664 5.65982 27.6993 5.50467C27.5319 5.34928 27.3863 5.18673 27.2874 5.04632C27.2379 4.97589 27.2044 4.91713 27.1851 4.87234C27.1636 4.82237 27.1701 4.81365 27.168 4.83338L26.6174 4.77626C26.6053 4.89348 26.6396 5.00513 26.6766 5.09118C26.7159 5.18241 26.7716 5.27532 26.8348 5.36498C26.9613 5.54475 27.1349 5.73606 27.3226 5.91035C27.5106 6.08488 27.7209 6.24998 27.9249 6.37357C28.1179 6.49056 28.3456 6.59566 28.5577 6.59694L28.561 6.04337ZM28.7561 6.12548L28.7553 6.12467L28.3634 6.51565L28.3642 6.51646L28.7561 6.12548ZM28.5089 6.02611C28.4787 6.04386 28.429 6.07251 28.391 6.1019L28.7293 6.54003C28.7287 6.5405 28.7326 6.5376 28.7449 6.52995C28.7567 6.52262 28.7707 6.51432 28.7898 6.50311L28.5089 6.02611ZM28.7121 5.87017C28.7081 5.8786 28.6935 5.90037 28.652 5.93318C28.6113 5.96531 28.5638 5.99372 28.5088 6.02611L28.7898 6.5031C28.8406 6.47315 28.9203 6.42668 28.9952 6.36752C29.0692 6.30904 29.1585 6.2231 29.2141 6.1035L28.7121 5.87017ZM28.7318 5.52981C28.7258 5.52237 28.7319 5.52665 28.7388 5.55438C28.7452 5.58017 28.7497 5.61544 28.7499 5.65742C28.7503 5.74582 28.7318 5.82748 28.7119 5.87048L29.2142 6.10319C29.276 5.96981 29.3041 5.80391 29.3035 5.65506C29.3029 5.51613 29.2771 5.32479 29.1636 5.18337L28.7318 5.52981ZM27.667 4.46889C28.0577 4.77957 28.4193 5.14037 28.7318 5.52981L29.1636 5.18336C28.8256 4.76215 28.4348 4.37216 28.0116 4.03561L27.667 4.46889ZM27.3534 4.49247C27.3786 4.47767 27.4495 4.45596 27.5407 4.45457C27.5825 4.45394 27.6185 4.45788 27.645 4.46404C27.674 4.4708 27.6769 4.47676 27.6672 4.46902L28.0114 4.03547C27.8685 3.92199 27.6719 3.89893 27.5323 3.90106C27.3841 3.90331 27.2086 3.93541 27.0728 4.01526L27.3534 4.49247ZM27.1681 4.83281C27.1736 4.77851 27.198 4.70127 27.2401 4.62687C27.2837 4.54981 27.3286 4.50698 27.3527 4.49287L27.0735 4.01487C26.9342 4.09622 26.829 4.22936 26.7583 4.35415C26.6862 4.48161 26.6321 4.63211 26.6174 4.77684L27.1681 4.83281Z" fill="black"/>
</svg>
