<svg width="21" height="18" viewBox="0 0 21 18" fill="none" xmlns="http://www.w3.org/2000/svg">
<path d="M16.625 0.157898H4.375C1.96263 0.157898 0 2.14118 0 4.57895V16.9579C0 17.4469 0.392 17.8421 0.875 17.8421C1.358 17.8421 1.75 17.4469 1.75 16.9579V15.1895H19.25V16.9579C19.25 17.4469 19.6411 17.8421 20.125 17.8421C20.6089 17.8421 21 17.4469 21 16.9579V4.57895C21 2.14118 19.0374 0.157898 16.625 0.157898ZM4.375 1.92632H16.625C18.0723 1.92632 19.25 3.11647 19.25 4.57895V9.88421H17.5C17.5 7.93364 15.9303 6.34737 14 6.34737H13.125C12.0802 6.34737 11.1423 6.81247 10.5 7.54724C9.85775 6.81158 8.91975 6.34737 7.875 6.34737H7C5.06975 6.34737 3.5 7.93364 3.5 9.88421H1.75V4.57895C1.75 3.11647 2.92775 1.92632 4.375 1.92632ZM11.375 9.88421C11.375 8.90893 12.1599 8.11579 13.125 8.11579H14C14.9651 8.11579 15.75 8.90893 15.75 9.88421H11.375ZM5.25 9.88421C5.25 8.90893 6.03487 8.11579 7 8.11579H7.875C8.84013 8.11579 9.625 8.90893 9.625 9.88421H5.25ZM1.75 13.4211V11.6526H19.25V13.4211H1.75Z" fill="black"/>
</svg>
