<svg width="53" height="35" viewBox="0 0 53 35" fill="none" xmlns="http://www.w3.org/2000/svg">
<path fill-rule="evenodd" clip-rule="evenodd" d="M10.1748 34.3579C9.84511 34.2934 9.51138 34.2405 9.17762 34.1875C8.452 34.0724 7.72622 33.9573 7.04176 33.7231C3.24324 32.4228 0.705089 28.396 1.01941 24.5381C1.37981 20.1037 4.70019 16.6922 8.77516 16.0769C10.5362 15.8107 12.2327 16.0247 13.8689 16.725C13.9298 16.751 13.9925 16.7733 14.0647 16.7991L14.0648 16.7991L14.0648 16.7991C14.1006 16.8118 14.1387 16.8254 14.1801 16.8407C14.2141 16.7874 14.2477 16.7361 14.2806 16.6858L14.2807 16.6858C14.342 16.5922 14.4009 16.5022 14.4555 16.4096C14.7078 15.981 14.9602 15.5524 15.2126 15.1239L15.214 15.1215C16.419 13.0757 17.6239 11.0299 18.8121 8.97436C18.9472 8.74092 18.9923 8.39895 18.9493 8.12865C18.8518 7.51351 18.7218 6.9037 18.5897 6.28385L18.5897 6.28372L18.5896 6.28339C18.5386 6.04398 18.4872 5.80308 18.4373 5.55979C18.33 5.55268 18.225 5.54725 18.1217 5.5419C17.9126 5.53109 17.7105 5.52063 17.5097 5.49733C16.3538 5.36321 15.4507 4.53081 15.2716 3.38101C15.1958 2.89775 15.1989 2.39811 15.2132 1.90768C15.2275 1.42237 15.5593 1.12545 15.9913 1.14388C16.4019 1.16128 16.6773 1.45718 16.707 1.92201C16.7143 2.0424 16.7128 2.16279 16.7113 2.28318C16.7107 2.33275 16.7101 2.38232 16.7101 2.43189C16.7101 3.73322 17.0213 4.03833 18.3452 4.03833H21.4096C21.4403 4.03833 21.4711 4.03805 21.5018 4.03778C21.5734 4.03713 21.6448 4.03649 21.7157 4.03935C22.198 4.06086 22.5246 4.3588 22.5266 4.77653C22.5287 5.19427 22.2133 5.5045 21.7219 5.5219C21.3377 5.53462 20.9534 5.53174 20.5518 5.52873C20.3711 5.52738 20.187 5.526 19.9977 5.526C20.038 5.72888 20.0759 5.92704 20.1132 6.12147L20.1132 6.12165C20.2169 6.66306 20.315 7.17551 20.4431 7.6802C20.4738 7.80102 20.7287 7.93924 20.8833 7.94333C21.9631 7.97105 23.0438 7.97379 24.1246 7.97653H24.1247L24.3563 7.97712C27.8302 7.98736 31.3032 7.99555 34.7771 8.00272C34.8681 8.00272 34.9596 7.99397 35.0445 7.98585C35.0829 7.98219 35.1199 7.97865 35.1549 7.9761C35.1708 7.76905 35.1805 7.56397 35.19 7.36104L35.19 7.36083C35.2105 6.9246 35.2305 6.49834 35.3116 6.084C35.7436 3.86837 37.7197 2.17388 39.9763 2.03156C41.7291 1.92099 43.4963 3.3503 43.8823 5.21475C44.169 6.59798 43.8874 7.86347 42.9311 8.91805C42.2011 9.7228 41.2438 10.0392 40.1626 9.94191C39.6036 9.89174 39.279 9.5641 39.3046 9.12282C39.3312 8.67027 39.6732 8.41738 40.2476 8.42557C41.4168 8.44093 42.1192 7.89214 42.3834 6.73006C42.624 5.67139 42.3045 4.77756 41.5049 4.06495C40.7227 3.36668 39.835 3.39739 38.9248 3.77827C37.1791 4.50828 36.3477 6.1567 36.7521 8.0621C37.0921 9.66355 37.4309 11.2653 37.7697 12.8671L37.7781 12.9067C38.009 13.9983 38.24 15.0899 38.4712 16.1813C38.4921 16.2788 38.5132 16.3762 38.5332 16.4689L38.5341 16.4729C38.558 16.5832 38.5804 16.6866 38.5992 16.7752C38.8931 16.6988 39.1843 16.6156 39.4744 16.5328C40.1019 16.3536 40.7245 16.1758 41.3595 16.0707C46.0836 15.2926 50.8128 18.657 51.6555 23.3596C51.7083 23.653 51.7541 23.9478 51.7998 24.2424L51.7999 24.243C51.8215 24.3821 51.843 24.5211 51.8653 24.6599V25.6807C51.8557 25.7234 51.8443 25.7661 51.833 25.8087L51.833 25.8088C51.8096 25.8968 51.7863 25.9849 51.7773 26.0739C51.3729 29.856 48.7497 32.9665 45.0741 33.9606C44.5635 34.0989 44.0358 34.1729 43.5078 34.2469C43.2618 34.2814 43.0158 34.3159 42.7714 34.3569H42.5666C42.4528 34.3443 42.3386 34.3332 42.2244 34.3221L42.2242 34.3221C41.9678 34.2973 41.7114 34.2724 41.4578 34.2299C37.7207 33.6064 35.0996 31.5474 33.9355 27.9465C32.7714 24.3476 33.6283 21.0969 36.3846 18.4891C37.1299 17.7837 37.3245 17.2113 37.045 16.2909C36.8559 15.6689 36.7285 15.0283 36.6011 14.3877L36.6011 14.3876L36.601 14.3869C36.5449 14.105 36.4889 13.8231 36.4276 13.5428L36.3707 13.5153C36.3425 13.5015 36.314 13.4877 36.2853 13.4742C36.2539 13.5179 36.2242 13.5631 36.1944 13.6083L36.1944 13.6083C36.1308 13.7049 36.0672 13.8015 35.9883 13.8838L35.5096 14.3819L35.5094 14.3822C34.4193 15.5167 33.3292 16.6512 32.2236 17.7693C31.94 18.056 31.8161 18.3386 31.8182 18.7481C31.8331 21.6206 31.8301 24.493 31.8272 27.3654L31.8263 28.1871C31.8253 29.5888 31.0472 30.3689 29.6486 30.372C27.5374 30.3761 25.4262 30.3741 23.316 30.372C21.771 30.372 21.0226 29.6297 21.0215 28.1001V25.8814H20.4103H19.4049C19.3946 25.9127 19.3853 25.9387 19.3772 25.9615L19.3772 25.9615C19.3628 26.002 19.352 26.0322 19.3455 26.0636C19.3279 26.145 19.3137 26.2278 19.2996 26.3103L19.2995 26.3105L19.2902 26.3646C18.6267 30.2563 16.408 32.8037 12.6341 33.9566C12.1191 34.1138 11.5769 34.1828 11.0349 34.2517L11.0348 34.2518L11.0346 34.2518C10.7825 34.2839 10.5305 34.3159 10.2813 34.3569H10.1789L10.1748 34.3579ZM37.6746 19.3706C37.6464 19.378 37.623 19.3824 37.6038 19.3861C37.5722 19.3921 37.5514 19.396 37.5374 19.4075L37.4852 19.4526C37.3864 19.5377 37.2874 19.6229 37.1996 19.7177C34.9655 22.1269 34.3665 24.8933 35.5184 27.967C36.5883 30.8205 39.3824 32.7361 42.412 32.8139C47.2273 32.9378 50.906 28.7861 50.2405 23.979C49.5443 18.9437 43.8792 15.9448 39.3323 18.1973C39.0405 18.3417 38.934 18.4922 39.0098 18.8208C39.1828 19.5725 39.3418 20.3278 39.5009 21.083L39.5013 21.0846C39.5661 21.3926 39.631 21.7005 39.6968 22.0081C39.8524 22.7371 40.2015 23.3831 40.8373 23.7538C41.3483 24.0507 41.9534 24.2104 42.5359 24.3517C43.0386 24.4725 43.3407 24.7357 43.2987 25.1933C43.2608 25.6111 42.9219 25.8793 42.4335 25.8732C42.3322 25.8722 42.2298 25.8588 42.1295 25.8435C40.1247 25.5353 38.7026 24.191 38.2797 22.2067L38.2759 22.1887L38.2754 22.1863C38.0751 21.2491 37.8749 20.3119 37.6746 19.3717V19.3706ZM13.404 18.1963C10.8761 16.9021 7.12367 17.2318 4.63671 19.8263C2.23064 22.3357 1.82007 26.1609 3.64459 29.1557C5.44556 32.1116 9.09665 33.4948 12.4273 32.4842C15.3913 31.5843 17.8906 28.5301 17.7923 25.8824H15.504C15.0129 25.8824 14.5217 25.8829 14.0306 25.8834H14.0305H14.0297C12.8017 25.8846 11.5735 25.8859 10.3458 25.8793C9.56148 25.8752 9.24408 25.3264 9.6137 24.6456C9.68005 24.5233 9.75165 24.404 9.82329 24.2845C9.85666 24.2289 9.89004 24.1732 9.9229 24.1173L11.6856 21.1182L13.403 18.1963H13.404ZM32.5767 14.9531L32.5768 14.953L32.5768 14.953C33.3167 14.262 34.0635 13.5644 34.8631 12.9326C35.9034 12.1115 36.1491 11.1961 35.6955 9.98798C35.5634 9.6368 35.4692 9.47503 35.0577 9.47503C30.2732 9.48117 25.4887 9.46991 20.7031 9.44636C20.3571 9.44431 20.1973 9.57639 20.0345 9.85488C19.1159 11.4327 18.1873 13.0052 17.2589 14.5773C16.9602 15.0833 16.6614 15.5892 16.363 16.0953C16.0712 16.5898 15.7794 17.0854 15.4692 17.6137C17.7616 19.2949 19.0435 21.5484 19.3578 24.3538H21.0164V23.7814L21.0162 21.5361C21.016 20.0392 21.0157 18.5423 21.0164 17.0455C21.0164 15.5598 21.7526 14.8216 23.2454 14.8196C23.9488 14.8182 24.6523 14.8201 25.3558 14.8221H25.3559C26.7128 14.8258 28.0698 14.8296 29.4264 14.8093C30.4513 14.794 31.2704 15.0643 31.6124 15.8445L31.6134 15.8434C31.9357 15.5518 32.2555 15.2531 32.5767 14.9531ZM22.5266 22.5763C22.5266 23.1996 22.5264 23.8227 22.5262 24.4458C22.5257 25.6918 22.5253 26.9377 22.5266 28.184C22.5266 28.784 22.6055 28.8628 23.2065 28.8639C25.3494 28.8669 27.4934 28.8669 29.6363 28.8639C30.2332 28.8639 30.3121 28.783 30.3121 28.1799C30.3141 24.4582 30.3141 20.7375 30.3121 17.0158C30.3121 16.3943 30.224 16.3052 29.6056 16.3052C27.479 16.3032 25.3525 16.3032 23.2269 16.3052C22.6106 16.3052 22.5266 16.3933 22.5256 17.0209C22.5242 18.2557 22.5247 19.4904 22.5251 20.7252C22.5254 21.3426 22.5256 21.96 22.5256 22.5774L22.5266 22.5763ZM17.8486 24.3548C17.5537 22.0736 16.5217 20.2942 14.7013 18.9119C13.6211 20.7457 12.5747 22.5221 11.4956 24.3548H17.8486ZM26.4172 12.4199C26.5795 12.4199 26.7417 12.4192 26.904 12.4184C27.269 12.4166 27.6341 12.4149 27.9991 12.422C28.5264 12.4322 28.8581 12.721 28.8684 13.1551C28.8786 13.5912 28.5499 13.9158 28.0319 13.923C26.9599 13.9383 25.8879 13.9373 24.8159 13.923C24.2938 13.9158 23.9671 13.5984 23.9723 13.1612C23.9774 12.724 24.3071 12.4312 24.8344 12.421C25.198 12.4132 25.5617 12.4152 25.9253 12.4171C26.0889 12.418 26.2526 12.4189 26.4162 12.4189L26.4172 12.4199ZM25.9932 23.0872C26.1092 23.1485 26.2276 23.211 26.349 23.276V23.277C26.2499 23.4865 26.1513 23.693 26.0534 23.8978C25.8327 24.3598 25.6162 24.8129 25.4091 25.2705C25.1972 25.7374 25.3415 26.1643 25.747 26.3455C26.135 26.5196 26.5292 26.366 26.7483 25.9135C27.163 25.0585 27.5643 24.1985 27.9544 23.3323C28.1715 22.8511 28.0568 22.5245 27.6012 22.2593C27.3647 22.1213 27.1221 21.9926 26.8701 21.8591C26.7502 21.7955 26.6281 21.7308 26.5036 21.6634C26.5957 21.4912 26.687 21.3216 26.7775 21.1538C26.9989 20.7429 27.2148 20.3421 27.422 19.9372C27.6626 19.4662 27.5459 19.0434 27.1466 18.8447C26.7647 18.6553 26.3797 18.7935 26.1299 19.243C25.7091 19.9986 25.2995 20.7604 24.9002 21.5283C24.6361 22.0361 24.7518 22.4026 25.2443 22.6822C25.4874 22.82 25.7345 22.9505 25.9932 23.0872Z" fill="black"/>
<path d="M9.17762 34.1875L9.13427 34.4609L9.17762 34.1875ZM10.1748 34.3579L10.1216 34.6295L10.1822 34.6414L10.242 34.6264L10.1748 34.3579ZM7.04176 33.7231L6.95212 33.985L6.95214 33.985L7.04176 33.7231ZM1.01941 24.5381L1.29529 24.5605L1.29529 24.5605L1.01941 24.5381ZM8.77516 16.0769L8.81648 16.3506L8.81653 16.3506L8.77516 16.0769ZM13.8689 16.725L13.7599 16.9794L13.7602 16.9795L13.8689 16.725ZM14.0647 16.7991L13.9718 17.0599L13.9772 17.0617L14.0647 16.7991ZM14.0648 16.7991L13.9772 17.0619L13.9887 17.0652L14.0648 16.7991ZM14.0648 16.7991L14.1577 16.5383L14.1494 16.5354L14.1408 16.5329L14.0648 16.7991ZM14.1801 16.8407L14.0843 17.1004L14.2936 17.1776L14.4135 16.9895L14.1801 16.8407ZM14.2806 16.6858L14.0552 16.5248L14.0491 16.5341L14.2806 16.6858ZM14.2807 16.6858L14.5061 16.8468L14.5122 16.8375L14.2807 16.6858ZM14.4555 16.4096L14.6939 16.5503L14.6941 16.55L14.4555 16.4096ZM15.2126 15.1239L14.9741 14.9834L14.9741 14.9834L15.2126 15.1239ZM15.214 15.1215L15.4525 15.262L15.4525 15.2619L15.214 15.1215ZM18.8121 8.97436L18.5725 8.83568L18.5724 8.83585L18.8121 8.97436ZM18.9493 8.12865L18.6759 8.17197L18.6759 8.17214L18.9493 8.12865ZM18.5897 6.28385L18.8605 6.22614L18.8593 6.22115L18.5897 6.28385ZM18.5897 6.28372L18.3193 6.34305L18.3201 6.34642L18.5897 6.28372ZM18.5896 6.28339L18.3189 6.34108L18.3192 6.34271L18.5896 6.28339ZM18.4373 5.55979L18.7085 5.50416L18.6661 5.29754L18.4556 5.2836L18.4373 5.55979ZM18.1217 5.5419L18.1074 5.81832L18.1217 5.5419ZM17.5097 5.49733L17.5416 5.22239L17.5416 5.22239L17.5097 5.49733ZM15.2716 3.38101L15.545 3.33839L15.545 3.33814L15.2716 3.38101ZM15.2132 1.90768L14.9365 1.89951L14.9365 1.89959L15.2132 1.90768ZM15.9913 1.14388L15.9795 1.42042L15.9796 1.42042L15.9913 1.14388ZM16.707 1.92201L16.9833 1.90537L16.9832 1.90437L16.707 1.92201ZM16.7113 2.28318L16.4345 2.27977V2.27978L16.7113 2.28318ZM21.5018 4.03778L21.4993 3.761H21.4993L21.5018 4.03778ZM21.7157 4.03935L21.7281 3.76284L21.7269 3.76279L21.7157 4.03935ZM22.5266 4.77653L22.2498 4.77789V4.77789L22.5266 4.77653ZM21.7219 5.5219L21.731 5.79854L21.7317 5.79852L21.7219 5.5219ZM20.5518 5.52873L20.5497 5.80551L20.5518 5.52873ZM19.9977 5.526V5.24921H19.6605L19.7262 5.57994L19.9977 5.526ZM20.1132 6.12147L19.8413 6.17353L19.8414 6.17407L20.1132 6.12147ZM20.1132 6.12165L20.3851 6.06959L20.385 6.06906L20.1132 6.12165ZM20.4431 7.6802L20.1748 7.74827L20.1748 7.7484L20.4431 7.6802ZM20.8833 7.94333L20.876 8.22003L20.8762 8.22003L20.8833 7.94333ZM24.1246 7.97653L24.1239 8.25332H24.1246V7.97653ZM24.1247 7.97653L24.1254 7.69974H24.1247V7.97653ZM24.3563 7.97712L24.3571 7.70033H24.357L24.3563 7.97712ZM34.7771 8.00272L34.7765 8.27951H34.7771V8.00272ZM35.0445 7.98585L35.0182 7.71032L35.0181 7.71032L35.0445 7.98585ZM35.1549 7.9761L35.175 8.25216L35.4126 8.23488L35.4309 7.99733L35.1549 7.9761ZM35.19 7.36104L34.9136 7.3462L34.9135 7.34806L35.19 7.36104ZM35.19 7.36083L35.4664 7.37567L35.4665 7.37381L35.19 7.36083ZM35.3116 6.084L35.5832 6.13714L35.5832 6.13698L35.3116 6.084ZM39.9763 2.03156L39.9937 2.30781L39.9937 2.30781L39.9763 2.03156ZM43.8823 5.21475L43.6113 5.27086L43.6113 5.27092L43.8823 5.21475ZM42.9311 8.91805L43.1361 9.10402L43.1362 9.10398L42.9311 8.91805ZM40.1626 9.94191L40.1874 9.66623L40.1874 9.66623L40.1626 9.94191ZM39.3046 9.12282L39.0283 9.10657L39.0283 9.10679L39.3046 9.12282ZM40.2476 8.42557L40.2437 8.70233L40.244 8.70234L40.2476 8.42557ZM42.3834 6.73006L42.6533 6.79141L42.6533 6.7914L42.3834 6.73006ZM41.5049 4.06495L41.3206 4.27144L41.3208 4.27159L41.5049 4.06495ZM38.9248 3.77827L39.0316 4.03363L39.0316 4.03361L38.9248 3.77827ZM36.7521 8.0621L36.4814 8.11957V8.11957L36.7521 8.0621ZM37.7697 12.8671L37.4989 12.9244L37.4989 12.9244L37.7697 12.8671ZM37.7781 12.9067L38.0489 12.8494L38.0489 12.8494L37.7781 12.9067ZM38.4712 16.1813L38.2004 16.2387L38.2006 16.2393L38.4712 16.1813ZM38.5332 16.4689L38.8038 16.4107L38.8038 16.4104L38.5332 16.4689ZM38.5341 16.4729L38.2635 16.5311L38.2636 16.5314L38.5341 16.4729ZM38.5992 16.7752L38.3284 16.8327L38.3886 17.1159L38.6688 17.043L38.5992 16.7752ZM39.4744 16.5328L39.3984 16.2666V16.2666L39.4744 16.5328ZM41.3595 16.0707L41.3145 15.7976L41.3144 15.7977L41.3595 16.0707ZM51.6555 23.3596L51.383 23.4084L51.383 23.4087L51.6555 23.3596ZM51.7998 24.2424L52.0734 24.2007L52.0733 24.2L51.7998 24.2424ZM51.7999 24.243L51.5262 24.2847L51.5264 24.2855L51.7999 24.243ZM51.8653 24.6599H52.1421V24.6378L52.1386 24.616L51.8653 24.6599ZM51.8653 25.6807L52.1353 25.7419L52.1421 25.7117V25.6807H51.8653ZM51.833 25.8087L51.5655 25.7377L51.5645 25.7416L51.833 25.8087ZM51.833 25.8088L52.1006 25.8798L52.1015 25.8759L51.833 25.8088ZM51.7773 26.0739L52.0525 26.1033L52.0527 26.1016L51.7773 26.0739ZM45.0741 33.9606L45.0018 33.6935L45.0017 33.6935L45.0741 33.9606ZM43.5078 34.2469L43.5462 34.521H43.5462L43.5078 34.2469ZM42.7714 34.3569V34.6337H42.7945L42.8172 34.6299L42.7714 34.3569ZM42.5666 34.3569L42.5362 34.632L42.5514 34.6337H42.5666V34.3569ZM42.2244 34.3221L42.2511 34.0466L42.2456 34.0462L42.2244 34.3221ZM42.2242 34.3221L42.1975 34.5977L42.203 34.5981L42.2242 34.3221ZM41.4578 34.2299L41.5036 33.9569L41.5034 33.9569L41.4578 34.2299ZM33.9355 27.9465L34.1989 27.8613L34.1989 27.8613L33.9355 27.9465ZM36.3846 18.4891L36.5748 18.6902L36.5748 18.6901L36.3846 18.4891ZM37.045 16.2909L37.3098 16.2104L37.3098 16.2104L37.045 16.2909ZM36.6011 14.3877L36.3273 14.4298L36.3297 14.4416L36.6011 14.3877ZM36.6011 14.3876L36.8749 14.3455L36.8727 14.334L36.6011 14.3876ZM36.601 14.3869L36.8726 14.3334L36.8725 14.333L36.601 14.3869ZM36.4276 13.5428L36.698 13.4837L36.6692 13.3523L36.5482 13.2937L36.4276 13.5428ZM36.3707 13.5153L36.2495 13.7642L36.2501 13.7644L36.3707 13.5153ZM36.2853 13.4742L36.4026 13.2235L36.1942 13.126L36.0603 13.313L36.2853 13.4742ZM36.1944 13.6083L36.4247 13.7618L36.4256 13.7605L36.1944 13.6083ZM36.1944 13.6083L35.9641 13.4548L35.9633 13.4561L36.1944 13.6083ZM35.9883 13.8838L36.1879 14.0756L36.1883 14.0752L35.9883 13.8838ZM35.5096 14.3819L35.708 14.575L35.7092 14.5737L35.5096 14.3819ZM35.5094 14.3822L35.311 14.1891L35.3098 14.1904L35.5094 14.3822ZM32.2236 17.7693L32.4204 17.964L32.4204 17.9639L32.2236 17.7693ZM31.8182 18.7481L31.5414 18.7495V18.7496L31.8182 18.7481ZM31.8272 27.3654L31.5504 27.3651V27.3651L31.8272 27.3654ZM31.8263 28.1871L31.5496 28.1868V28.1869L31.8263 28.1871ZM29.6486 30.372L29.6491 30.6488L29.6492 30.6488L29.6486 30.372ZM23.316 30.372L23.3163 30.0952H23.316V30.372ZM21.0215 28.1001H20.7448V28.1003L21.0215 28.1001ZM21.0215 25.8814H21.2983V25.6046H21.0215V25.8814ZM19.4049 25.8814V25.6046H19.2046L19.142 25.7948L19.4049 25.8814ZM19.3772 25.9615L19.6364 26.0587L19.638 26.0543L19.3772 25.9615ZM19.3772 25.9615L19.118 25.8643L19.1164 25.8688L19.3772 25.9615ZM19.3455 26.0636L19.616 26.1222L19.6165 26.1201L19.3455 26.0636ZM19.2996 26.3103L19.0267 26.2635L19.0265 26.2648L19.2996 26.3103ZM19.2995 26.3105L19.5723 26.3574L19.5725 26.356L19.2995 26.3105ZM19.2902 26.3646L19.0174 26.3177L19.0173 26.3181L19.2902 26.3646ZM12.6341 33.9566L12.7149 34.2213L12.715 34.2213L12.6341 33.9566ZM11.0349 34.2517L11 33.9772L10.9984 33.9774L11.0349 34.2517ZM11.0348 34.2518L11.0703 34.5263L11.0714 34.5261L11.0348 34.2518ZM11.0346 34.2518L11.0695 34.5264L11.07 34.5263L11.0346 34.2518ZM10.2813 34.3569V34.6337H10.3038L10.3261 34.63L10.2813 34.3569ZM10.1789 34.3569V34.0801H10.1447L10.1116 34.0884L10.1789 34.3569ZM37.6038 19.3861L37.6555 19.658H37.6555L37.6038 19.3861ZM37.6746 19.3706H37.9514V19.0126L37.6049 19.1028L37.6746 19.3706ZM37.5374 19.4075L37.3621 19.1932L37.3566 19.198L37.5374 19.4075ZM37.4852 19.4526L37.6658 19.6624L37.666 19.6621L37.4852 19.4526ZM37.1996 19.7177L37.4025 19.9059L37.4026 19.9059L37.1996 19.7177ZM35.5184 27.967L35.2592 28.0641L35.2592 28.0641L35.5184 27.967ZM42.412 32.8139L42.4192 32.5372H42.4192L42.412 32.8139ZM50.2405 23.979L49.9663 24.0169L49.9663 24.017L50.2405 23.979ZM39.3323 18.1973L39.455 18.4454L39.4551 18.4453L39.3323 18.1973ZM39.0098 18.8208L39.2795 18.7587L39.2795 18.7586L39.0098 18.8208ZM39.5009 21.083L39.2301 21.14L39.2302 21.1407L39.5009 21.083ZM39.5013 21.0846L39.7721 21.0276L39.772 21.027L39.5013 21.0846ZM39.6968 22.0081L39.9675 21.9503L39.9674 21.9502L39.6968 22.0081ZM40.8373 23.7538L40.6979 23.9929L40.6983 23.9931L40.8373 23.7538ZM42.5359 24.3517L42.4707 24.6207L42.4713 24.6208L42.5359 24.3517ZM43.2987 25.1933L43.0231 25.168L43.023 25.1683L43.2987 25.1933ZM42.4335 25.8732L42.437 25.5964L42.4363 25.5964L42.4335 25.8732ZM42.1295 25.8435L42.0874 26.1171L42.0876 26.1171L42.1295 25.8435ZM38.2797 22.2067L38.5504 22.149L38.5504 22.1489L38.2797 22.2067ZM38.2759 22.1887L38.5466 22.1309L38.5465 22.1305L38.2759 22.1887ZM38.2754 22.1863L38.0047 22.2442L38.0048 22.2446L38.2754 22.1863ZM37.6746 19.3717H37.3979V19.4008L37.4039 19.4293L37.6746 19.3717ZM4.63671 19.8263L4.83651 20.0178L4.83653 20.0178L4.63671 19.8263ZM13.404 18.1963V18.4731L13.5302 17.9499L13.404 18.1963ZM3.64459 29.1557L3.40821 29.2997L3.40822 29.2997L3.64459 29.1557ZM12.4273 32.4842L12.5076 32.7491L12.5077 32.7491L12.4273 32.4842ZM17.7923 25.8824L18.0689 25.8721L18.059 25.6056H17.7923V25.8824ZM14.0306 25.8834V26.1602H14.0308L14.0306 25.8834ZM14.0297 25.8834V25.6066H14.0294L14.0297 25.8834ZM10.3458 25.8793L10.3472 25.6025H10.3472L10.3458 25.8793ZM9.6137 24.6456L9.37044 24.5135V24.5135L9.6137 24.6456ZM9.82329 24.2845L10.0607 24.4269V24.4269L9.82329 24.2845ZM9.9229 24.1173L9.68428 23.977L9.68422 23.9771L9.9229 24.1173ZM11.6856 21.1182L11.447 20.978L11.6856 21.1182ZM13.403 18.1963V17.9195H13.2446L13.1644 18.056L13.403 18.1963ZM32.5768 14.953L32.3897 14.749L32.3857 14.7528L32.5768 14.953ZM32.5767 14.9531L32.7656 15.1554L32.7678 15.1534L32.5767 14.9531ZM32.5768 14.953L32.7639 15.157L32.7658 15.1553L32.5768 14.953ZM34.8631 12.9326L34.6916 12.7153L34.6915 12.7154L34.8631 12.9326ZM35.6955 9.98798L35.9547 9.8907L35.9546 9.89055L35.6955 9.98798ZM35.0577 9.47503V9.19824L35.0573 9.19824L35.0577 9.47503ZM20.7031 9.44636L20.7015 9.72315L20.7018 9.72315L20.7031 9.44636ZM20.0345 9.85488L19.7956 9.71519L19.7953 9.71561L20.0345 9.85488ZM17.2589 14.5773L17.0206 14.4366L17.2589 14.5773ZM16.363 16.0953L16.6014 16.236L16.6014 16.2359L16.363 16.0953ZM15.4692 17.6137L15.2305 17.4735L15.1039 17.6891L15.3055 17.8369L15.4692 17.6137ZM19.3578 24.3538L19.0827 24.3846L19.1103 24.6306H19.3578V24.3538ZM21.0164 24.3538V24.6306H21.2932V24.3538H21.0164ZM21.0164 23.7814H21.2932V23.7814L21.0164 23.7814ZM21.0162 21.5361L21.293 21.5361V21.5361L21.0162 21.5361ZM21.0164 17.0455L21.2932 17.0456V17.0455H21.0164ZM23.2454 14.8196L23.2458 15.0964H23.2459L23.2454 14.8196ZM25.3558 14.8221L25.3551 15.0989H25.3558V14.8221ZM25.3559 14.8221L25.3567 14.5453H25.3559V14.8221ZM29.4264 14.8093L29.4305 15.0861H29.4306L29.4264 14.8093ZM31.6124 15.8445L31.3589 15.9556L31.5215 16.3265L31.808 16.0403L31.6124 15.8445ZM31.6134 15.8434L31.4275 15.6379L31.4178 15.6476L31.6134 15.8434ZM22.5262 24.4458L22.803 24.4459L22.5262 24.4458ZM22.5266 22.5763H22.8034V21.909L22.3311 22.3804L22.5266 22.5763ZM22.5266 28.184H22.8034V28.1837L22.5266 28.184ZM23.2065 28.8639L23.206 29.1407H23.2061L23.2065 28.8639ZM29.6363 28.8639V28.5871H29.6359L29.6363 28.8639ZM30.3121 28.1799L30.0353 28.1798V28.1799H30.3121ZM30.3121 17.0158H30.0353V17.0159L30.3121 17.0158ZM29.6056 16.3052L29.6053 16.582H29.6056V16.3052ZM23.2269 16.3052V16.582H23.2272L23.2269 16.3052ZM22.5256 17.0209L22.2488 17.0204V17.0206L22.5256 17.0209ZM22.5251 20.7252L22.8019 20.7251V20.7251L22.5251 20.7252ZM22.5256 22.5774H22.2488V23.2447L22.7211 22.7733L22.5256 22.5774ZM14.7013 18.9119L14.8686 18.6915L14.6207 18.5033L14.4628 18.7715L14.7013 18.9119ZM17.8486 24.3548V24.6316H18.1635L18.1231 24.3193L17.8486 24.3548ZM11.4956 24.3548L11.257 24.2143L11.0114 24.6316H11.4956V24.3548ZM26.904 12.4184L26.9053 12.6952H26.9053L26.904 12.4184ZM26.4172 12.4199L26.2215 12.6157L26.3026 12.6967H26.4172V12.4199ZM27.9991 12.422L27.9937 12.6987L27.9991 12.422ZM28.8684 13.1551L29.1451 13.1486L29.1451 13.1485L28.8684 13.1551ZM28.0319 13.923L28.028 13.6462L28.0279 13.6462L28.0319 13.923ZM24.8159 13.923L24.8121 14.1997L24.8122 14.1997L24.8159 13.923ZM24.8344 12.421L24.8397 12.6977L24.8403 12.6977L24.8344 12.421ZM25.9253 12.4171L25.9268 12.1404L25.9253 12.4171ZM26.4162 12.4189L26.6119 12.2232L26.5309 12.1421H26.4162V12.4189ZM26.349 23.276H26.6258V23.1102L26.4796 23.032L26.349 23.276ZM25.9932 23.0872L25.8639 23.3319L25.8639 23.3319L25.9932 23.0872ZM26.349 23.277L26.5992 23.3954L26.6258 23.3392V23.277H26.349ZM26.0534 23.8978L25.8037 23.7785V23.7785L26.0534 23.8978ZM25.4091 25.2705L25.6611 25.3849L25.6613 25.3846L25.4091 25.2705ZM25.747 26.3455L25.8603 26.093L25.8599 26.0928L25.747 26.3455ZM26.7483 25.9135L26.4993 25.7927L26.4992 25.7928L26.7483 25.9135ZM27.9544 23.3323L27.7021 23.2185L27.702 23.2186L27.9544 23.3323ZM27.6012 22.2593L27.4617 22.4984L27.462 22.4985L27.6012 22.2593ZM26.8701 21.8591L26.7405 22.1036L26.8701 21.8591ZM26.5036 21.6634L26.2595 21.5329L26.1297 21.7758L26.3719 21.9068L26.5036 21.6634ZM26.7775 21.1538L27.0211 21.2851L26.7775 21.1538ZM27.422 19.9372L27.6684 20.0633L27.6685 20.0631L27.422 19.9372ZM27.1466 18.8447L27.2699 18.5969L27.2696 18.5968L27.1466 18.8447ZM26.1299 19.243L26.3717 19.3777L26.3718 19.3775L26.1299 19.243ZM24.9002 21.5283L25.1458 21.656L25.1458 21.656L24.9002 21.5283ZM25.2443 22.6822L25.1076 22.9229L25.1078 22.9229L25.2443 22.6822ZM9.13427 34.4609C9.46887 34.514 9.79766 34.5661 10.1216 34.6295L10.2279 34.0863C9.89256 34.0206 9.5539 33.967 9.22098 33.9142L9.13427 34.4609ZM6.95214 33.985C7.6631 34.2283 8.41293 34.3465 9.13427 34.4609L9.22098 33.9142C8.49106 33.7984 7.78934 33.6864 7.13138 33.4612L6.95214 33.985ZM0.743538 24.5156C0.419116 28.4974 3.03161 32.6429 6.95212 33.985L7.1314 33.4612C3.45487 32.2027 0.991062 28.2945 1.29529 24.5605L0.743538 24.5156ZM8.73383 15.8032C4.5317 16.4377 1.11433 19.9534 0.743534 24.5156L1.29529 24.5605C1.6453 20.254 4.86868 16.9467 8.81648 16.3506L8.73383 15.8032ZM13.9778 16.4705C12.294 15.7498 10.5454 15.5294 8.73379 15.8032L8.81653 16.3506C10.527 16.092 12.1715 16.2995 13.7599 16.9794L13.9778 16.4705ZM14.1576 16.5383C14.0837 16.512 14.0292 16.4925 13.9776 16.4704L13.7602 16.9795C13.8303 17.0095 13.9013 17.0347 13.9719 17.0598L14.1576 16.5383ZM14.1523 16.5365L14.1523 16.5365L13.9772 17.0617L13.9773 17.0617L14.1523 16.5365ZM14.1408 16.5329L14.1408 16.5329L13.9887 17.0652L13.9888 17.0652L14.1408 16.5329ZM14.2759 16.581C14.2329 16.5651 14.1933 16.551 14.1577 16.5383L13.9719 17.0598C14.0079 17.0726 14.0446 17.0857 14.0843 17.1004L14.2759 16.581ZM14.0491 16.5341C14.0163 16.5842 13.9818 16.6369 13.9467 16.6919L14.4135 16.9895C14.4464 16.9378 14.4791 16.8879 14.5122 16.8375L14.0491 16.5341ZM14.0554 16.5249L14.0554 16.5249L14.5059 16.8467L14.5059 16.8467L14.0554 16.5249ZM14.2171 16.269C14.1664 16.355 14.1111 16.4395 14.0491 16.5341L14.5122 16.8375C14.5729 16.7448 14.6355 16.6494 14.6939 16.5503L14.2171 16.269ZM14.9741 14.9834C14.7217 15.412 14.4693 15.8406 14.217 16.2692L14.6941 16.55C14.9463 16.1214 15.1987 15.6929 15.4511 15.2644L14.9741 14.9834ZM14.9756 14.981L14.9741 14.9834L15.4511 15.2644L15.4525 15.262L14.9756 14.981ZM18.5724 8.83585C17.3849 10.8903 16.1806 12.935 14.9755 14.981L15.4525 15.2619C16.6574 13.2163 17.8629 11.1696 19.0517 9.11288L18.5724 8.83585ZM18.6759 8.17214C18.7109 8.39225 18.6699 8.6674 18.5725 8.83568L19.0516 9.11304C19.2245 8.81444 19.2736 8.40565 19.2226 8.08516L18.6759 8.17214ZM18.319 6.34154C18.4514 6.96263 18.5797 7.56527 18.6759 8.17197L19.2226 8.08533C19.1238 7.46175 18.9923 6.84478 18.8604 6.22615L18.319 6.34154ZM18.3201 6.34642L18.3201 6.34654L18.8593 6.22115L18.8593 6.22103L18.3201 6.34642ZM18.3192 6.34271L18.3193 6.34304L18.86 6.22441L18.86 6.22407L18.3192 6.34271ZM18.1662 5.61542C18.2163 5.85991 18.2679 6.10184 18.3189 6.34108L18.8603 6.22569C18.8093 5.98612 18.7581 5.74624 18.7085 5.50416L18.1662 5.61542ZM18.1074 5.81832C18.211 5.82368 18.314 5.82901 18.419 5.83597L18.4556 5.2836C18.346 5.27634 18.239 5.27081 18.136 5.26548L18.1074 5.81832ZM17.4778 5.77228C17.6888 5.79677 17.8999 5.80759 18.1074 5.81832L18.136 5.26548C17.9254 5.25459 17.7321 5.24449 17.5416 5.22239L17.4778 5.77228ZM14.9981 3.42363C15.1972 4.70185 16.2039 5.62446 17.4778 5.77228L17.5416 5.22239C16.5037 5.10195 15.7042 4.35977 15.545 3.33839L14.9981 3.42363ZM14.9365 1.89959C14.9221 2.39159 14.9181 2.91335 14.9981 3.42388L15.545 3.33814C15.4735 2.88215 15.4756 2.40462 15.4899 1.91576L14.9365 1.89959ZM16.0031 0.867339C15.719 0.855221 15.4526 0.947358 15.2544 1.13677C15.0562 1.32616 14.9455 1.59416 14.9365 1.89951L15.4899 1.91585C15.4952 1.73589 15.5575 1.61277 15.6368 1.53698C15.7161 1.46121 15.8315 1.4141 15.9795 1.42042L16.0031 0.867339ZM16.9832 1.90437C16.9652 1.62197 16.8706 1.36735 16.6954 1.17745C16.518 0.985182 16.2755 0.878886 16.003 0.867335L15.9796 1.42042C16.1177 1.42627 16.2182 1.47663 16.2886 1.55287C16.3611 1.63148 16.4191 1.75722 16.4308 1.93966L16.9832 1.90437ZM16.9881 2.28658C16.9895 2.16786 16.9912 2.03744 16.9833 1.90537L16.4307 1.93866C16.4373 2.04736 16.436 2.15772 16.4345 2.27977L16.9881 2.28658ZM16.9869 2.43189C16.9869 2.38431 16.9874 2.33644 16.9881 2.28658L16.4345 2.27978C16.4339 2.32906 16.4333 2.38034 16.4333 2.43189H16.9869ZM18.3452 3.76154C17.6772 3.76154 17.3794 3.67718 17.2251 3.52563C17.0726 3.37584 16.9869 3.0874 16.9869 2.43189H16.4333C16.4333 3.07771 16.5032 3.59249 16.8372 3.92059C17.1695 4.24693 17.6893 4.31512 18.3452 4.31512V3.76154ZM21.4096 3.76154H18.3452V4.31512H21.4096V3.76154ZM21.4993 3.761C21.4684 3.76128 21.4389 3.76154 21.4096 3.76154V4.31512C21.4418 4.31512 21.4738 4.31483 21.5043 4.31456L21.4993 3.761ZM21.7269 3.76279C21.648 3.7596 21.5697 3.76036 21.4993 3.761L21.5043 4.31456C21.577 4.3139 21.6416 4.31338 21.7046 4.31592L21.7269 3.76279ZM22.8034 4.77518C22.802 4.48993 22.6878 4.23689 22.4875 4.05464C22.2898 3.8747 22.0225 3.77597 21.7281 3.76284L21.7034 4.31587C21.8912 4.32424 22.0283 4.38523 22.115 4.46407C22.1991 4.5406 22.2492 4.64541 22.2498 4.77789L22.8034 4.77518ZM21.7317 5.79852C22.0334 5.78784 22.3027 5.68594 22.4991 5.50078C22.6973 5.31404 22.8048 5.05757 22.8034 4.77518L22.2498 4.77789C22.2505 4.91324 22.2014 5.02074 22.1195 5.09791C22.0359 5.17665 21.9018 5.23857 21.7121 5.24529L21.7317 5.79852ZM20.5497 5.80551C20.9504 5.80851 21.3402 5.81147 21.731 5.79854L21.7127 5.24527C21.3351 5.25776 20.9565 5.25496 20.5538 5.25195L20.5497 5.80551ZM19.9977 5.80279C20.1858 5.80279 20.3689 5.80416 20.5497 5.80551L20.5538 5.25195C20.3734 5.2506 20.1882 5.24921 19.9977 5.24921V5.80279ZM20.385 6.06942C20.3478 5.87512 20.3097 5.67603 20.2692 5.47206L19.7262 5.57994C19.7663 5.78173 19.8041 5.97897 19.8413 6.17353L20.385 6.06942ZM20.385 6.06906L20.3849 6.06888L19.8414 6.17407L19.8415 6.17425L20.385 6.06906ZM20.7114 7.61213C20.5857 7.11676 20.489 6.61247 20.3851 6.06959L19.8414 6.17371C19.9447 6.71365 20.0444 7.23426 20.1748 7.74827L20.7114 7.61213ZM20.8907 7.66664C20.8907 7.66664 20.8895 7.66661 20.8868 7.66628C20.8842 7.66596 20.8806 7.66541 20.8761 7.66449C20.8668 7.66262 20.8551 7.65956 20.8414 7.65498C20.8135 7.64566 20.7831 7.63199 20.7551 7.61583C20.7264 7.59923 20.7069 7.58388 20.6968 7.57399C20.6826 7.56014 20.7011 7.57175 20.7113 7.612L20.1748 7.7484C20.2004 7.84906 20.2622 7.92326 20.3094 7.96943C20.3606 8.01957 20.4202 8.06167 20.4784 8.09525C20.588 8.15855 20.7362 8.21632 20.876 8.22003L20.8907 7.66664ZM24.1253 7.69974C23.044 7.697 21.9665 7.69425 20.8904 7.66663L20.8762 8.22003C21.9598 8.24784 23.0437 8.25058 24.1239 8.25332L24.1253 7.69974ZM24.1247 7.69974H24.1246V8.25332H24.1247V7.69974ZM24.357 7.70033L24.1254 7.69974L24.1239 8.25331L24.3556 8.25391L24.357 7.70033ZM34.7777 7.72593C31.3038 7.71876 27.8309 7.71057 24.3571 7.70033L24.3554 8.25391C27.8295 8.26415 31.3025 8.27234 34.7765 8.27951L34.7777 7.72593ZM35.0181 7.71032C34.9312 7.71864 34.8527 7.72593 34.7771 7.72593V8.27951C34.8835 8.27951 34.988 8.26931 35.0708 8.26139L35.0181 7.71032ZM35.1348 7.70004C35.0961 7.70285 35.0558 7.70672 35.0182 7.71032L35.0708 8.26139C35.1099 8.25765 35.1437 8.25444 35.175 8.25216L35.1348 7.70004ZM34.9135 7.34806C34.904 7.55163 34.8945 7.75261 34.8789 7.95486L35.4309 7.99733C35.4472 7.78549 35.457 7.57631 35.4665 7.37403L34.9135 7.34806ZM34.9136 7.34599L34.9136 7.3462L35.4664 7.37588L35.4664 7.37567L34.9136 7.34599ZM35.0399 6.03087C34.9543 6.46852 34.9338 6.91533 34.9135 7.34785L35.4665 7.37381C35.4872 6.93388 35.5067 6.52817 35.5832 6.13714L35.0399 6.03087ZM39.9589 1.75532C37.58 1.90535 35.4967 3.68851 35.0399 6.03102L35.5832 6.13698C35.9906 4.04823 37.8594 2.44241 39.9937 2.30781L39.9589 1.75532ZM44.1533 5.15863C43.7425 3.17422 41.864 1.63514 39.9589 1.75532L39.9937 2.30781C41.5942 2.20684 43.2501 3.52637 43.6113 5.27086L44.1533 5.15863ZM43.1362 9.10398C44.1581 7.97701 44.456 6.61892 44.1533 5.15857L43.6113 5.27092C43.882 6.57704 43.6167 7.74993 42.7261 8.73212L43.1362 9.10398ZM40.1378 10.2176C41.2941 10.3216 42.3406 9.98103 43.1361 9.10402L42.7261 8.73208C42.0617 9.46458 41.1935 9.75674 40.1874 9.66623L40.1378 10.2176ZM39.0283 9.10679C39.011 9.40443 39.1138 9.6761 39.3217 9.87774C39.5256 10.0754 39.8116 10.1883 40.1379 10.2176L40.1874 9.66623C39.9547 9.64534 39.7989 9.56932 39.7071 9.48032C39.6194 9.39529 39.5726 9.28249 39.581 9.13885L39.0283 9.10679ZM40.2515 8.14881C39.9271 8.14418 39.6314 8.21231 39.4061 8.37886C39.1724 8.55166 39.0459 8.80757 39.0283 9.10657L39.5809 9.13907C39.59 8.98552 39.6477 8.88871 39.7353 8.82397C39.8313 8.75299 39.9937 8.69877 40.2437 8.70233L40.2515 8.14881ZM42.1135 6.66871C41.9909 7.20784 41.7746 7.57182 41.4832 7.80224C41.192 8.03253 40.7923 8.15591 40.2512 8.14881L40.244 8.70234C40.8722 8.71059 41.4083 8.56726 41.8266 8.23647C42.2447 7.90582 42.5117 7.41436 42.6533 6.79141L42.1135 6.66871ZM41.3208 4.27159C42.05 4.92147 42.3303 5.7145 42.1135 6.66872L42.6533 6.7914C42.9176 5.62827 42.5591 4.63364 41.6891 3.85831L41.3208 4.27159ZM39.0316 4.03361C39.4616 3.85369 39.8662 3.7652 40.2425 3.79297C40.613 3.82032 40.9733 3.96146 41.3206 4.27144L41.6892 3.85846C41.2542 3.47017 40.7796 3.27753 40.2832 3.24089C39.7925 3.20467 39.2982 3.32197 38.8179 3.52293L39.0316 4.03361ZM37.0229 8.00463C36.6447 6.22272 37.4148 4.70975 39.0316 4.03363L38.818 3.52291C36.9434 4.30682 36.0507 6.09067 36.4814 8.11957L37.0229 8.00463ZM38.0405 12.8098C37.7017 11.2081 37.3628 9.60618 37.0229 8.00463L36.4814 8.11957C36.8213 9.72091 37.1601 11.3226 37.4989 12.9244L38.0405 12.8098ZM38.0489 12.8494L38.0405 12.8098L37.4989 12.9244L37.5073 12.964L38.0489 12.8494ZM38.742 16.1239C38.5107 15.0326 38.2798 13.941 38.0489 12.8494L37.5073 12.964C37.7382 14.0556 37.9692 15.1472 38.2004 16.2387L38.742 16.1239ZM38.8038 16.4104C38.7837 16.3176 38.7627 16.2204 38.7418 16.1233L38.2006 16.2393C38.2215 16.3371 38.2427 16.4348 38.2627 16.5275L38.8038 16.4104ZM38.8047 16.4146L38.8038 16.4107L38.2627 16.5272L38.2635 16.5311L38.8047 16.4146ZM38.8699 16.7176C38.851 16.6285 38.8285 16.5245 38.8046 16.4143L38.2636 16.5314C38.2875 16.6419 38.3098 16.7448 38.3284 16.8327L38.8699 16.7176ZM39.3984 16.2666C39.1078 16.3496 38.8198 16.4318 38.5296 16.5073L38.6688 17.043C38.9665 16.9657 39.2608 16.8816 39.5504 16.7989L39.3984 16.2666ZM41.3144 15.7977C40.6611 15.9057 40.0232 16.0882 39.3984 16.2666L39.5504 16.7989C40.1806 16.6189 40.7879 16.4458 41.4047 16.3438L41.3144 15.7977ZM51.9279 23.3108C51.0587 18.46 46.1888 14.9948 41.3145 15.7976L41.4045 16.3438C45.9784 15.5904 50.5669 18.854 51.383 23.4084L51.9279 23.3108ZM52.0733 24.2C52.0277 23.9059 51.9814 23.6078 51.9279 23.3105L51.383 23.4087C51.4352 23.6982 51.4804 23.9897 51.5263 24.2849L52.0733 24.2ZM52.0735 24.2013L52.0734 24.2007L51.5261 24.2841L51.5262 24.2847L52.0735 24.2013ZM52.1386 24.616C52.1164 24.478 52.095 24.3398 52.0734 24.2006L51.5264 24.2855C51.5479 24.4244 51.5696 24.5642 51.5921 24.7038L52.1386 24.616ZM52.1421 25.6807V24.6599H51.5886V25.6807H52.1421ZM52.1005 25.8797C52.1116 25.8379 52.1243 25.7904 52.1353 25.7419L51.5954 25.6195C51.587 25.6565 51.577 25.6942 51.5655 25.7377L52.1005 25.8797ZM52.1015 25.8759L52.1015 25.8758L51.5645 25.7416L51.5645 25.7416L52.1015 25.8759ZM52.0527 26.1016C52.0591 26.0383 52.0761 25.9717 52.1005 25.8798L51.5655 25.7377C51.5431 25.8219 51.5135 25.9314 51.5019 26.0461L52.0527 26.1016ZM45.1464 34.2278C48.9336 33.2035 51.6361 29.9975 52.0525 26.1033L51.5021 26.0444C51.1096 29.7145 48.5659 32.7295 45.0018 33.6935L45.1464 34.2278ZM43.5462 34.521C44.0712 34.4474 44.6163 34.3714 45.1464 34.2278L45.0017 33.6935C44.5107 33.8265 44.0003 33.8984 43.4694 33.9728L43.5462 34.521ZM42.8172 34.6299C43.0573 34.5896 43.2996 34.5556 43.5462 34.521L43.4694 33.9728C43.224 34.0072 42.9743 34.0422 42.7256 34.0839L42.8172 34.6299ZM42.5666 34.6337H42.7714V34.0801H42.5666V34.6337ZM42.1977 34.5976C42.3122 34.6087 42.4245 34.6196 42.5362 34.632L42.5971 34.0818C42.481 34.0689 42.3649 34.0577 42.2511 34.0466L42.1977 34.5976ZM42.203 34.5981L42.2031 34.5981L42.2456 34.0462L42.2455 34.0461L42.203 34.5981ZM41.4121 34.5029C41.6767 34.5473 41.9428 34.5729 42.1975 34.5976L42.2509 34.0466C41.9929 34.0216 41.746 33.9976 41.5036 33.9569L41.4121 34.5029ZM33.6721 28.0316C34.8711 31.7404 37.5833 33.8641 41.4123 34.5029L41.5034 33.9569C37.8581 33.3487 35.3281 31.3544 34.1989 27.8613L33.6721 28.0316ZM36.1943 18.288C33.362 20.9678 32.4746 24.3295 33.6721 28.0317L34.1989 27.8613C33.0682 24.3658 33.8947 21.2259 36.5748 18.6902L36.1943 18.288ZM36.7801 16.3713C36.91 16.799 36.9199 17.1126 36.8346 17.389C36.7479 17.6701 36.5513 17.9502 36.1943 18.2881L36.5748 18.6901C36.9632 18.3225 37.2366 17.9637 37.3636 17.5522C37.492 17.136 37.4595 16.7032 37.3098 16.2104L36.7801 16.3713ZM36.3297 14.4416C36.4566 15.0799 36.5864 15.7341 36.7801 16.3714L37.3098 16.2104C37.1254 15.6037 37.0004 14.9766 36.8726 14.3337L36.3297 14.4416ZM36.3276 14.4297L36.3276 14.4297L36.8747 14.3456L36.8747 14.3455L36.3276 14.4297ZM36.3294 14.4405L36.3296 14.4412L36.8727 14.334L36.8726 14.3334L36.3294 14.4405ZM36.1572 13.602C36.2178 13.8792 36.2734 14.1586 36.3295 14.4409L36.8725 14.333C36.8165 14.0515 36.7599 13.767 36.698 13.4837L36.1572 13.602ZM36.2501 13.7644L36.307 13.792L36.5482 13.2937L36.4913 13.2662L36.2501 13.7644ZM36.1679 13.7249C36.1945 13.7373 36.221 13.7502 36.2495 13.7641L36.4919 13.2665C36.464 13.2528 36.4336 13.2381 36.4026 13.2235L36.1679 13.7249ZM36.4256 13.7605C36.4558 13.7146 36.4826 13.674 36.5103 13.6354L36.0603 13.313C36.0253 13.3619 35.9925 13.4116 35.9633 13.456L36.4256 13.7605ZM36.4247 13.7619L36.4247 13.7618L35.9641 13.4547L35.9641 13.4548L36.4247 13.7619ZM36.1883 14.0752C36.2874 13.9716 36.3644 13.8534 36.4255 13.7606L35.9633 13.4561C35.8971 13.5564 35.8469 13.6313 35.7884 13.6923L36.1883 14.0752ZM35.7092 14.5737L36.1879 14.0756L35.7888 13.692L35.31 14.1901L35.7092 14.5737ZM35.7078 14.5752L35.708 14.575L35.3112 14.1889L35.311 14.1891L35.7078 14.5752ZM32.4204 17.9639C33.5277 16.8442 34.6191 15.7082 35.709 14.5739L35.3098 14.1904C34.2195 15.3252 33.1308 16.4582 32.0268 17.5747L32.4204 17.9639ZM32.0949 18.7467C32.0941 18.5713 32.12 18.4365 32.169 18.3198C32.2182 18.2026 32.2967 18.089 32.4204 17.964L32.0268 17.5747C31.8669 17.7363 31.7417 17.9074 31.6585 18.1055C31.5752 18.3042 31.5402 18.5154 31.5414 18.7495L32.0949 18.7467ZM32.104 27.3657C32.1069 24.4934 32.1099 21.6201 32.0949 18.7467L31.5414 18.7496C31.5563 21.621 31.5534 24.4926 31.5504 27.3651L32.104 27.3657ZM32.1031 28.1874L32.104 27.3657L31.5504 27.3651L31.5496 28.1868L32.1031 28.1874ZM29.6492 30.6488C30.3988 30.6472 31.022 30.4364 31.4576 29.9994C31.8931 29.5626 32.1026 28.9381 32.1031 28.1873L31.5496 28.1869C31.5491 28.8377 31.369 29.3042 31.0655 29.6086C30.7621 29.913 30.297 30.0938 29.648 30.0952L29.6492 30.6488ZM23.3158 30.6488C25.4259 30.6509 27.5375 30.6529 29.6491 30.6488L29.6481 30.0952C27.5373 30.0993 25.4265 30.0973 23.3163 30.0952L23.3158 30.6488ZM20.7448 28.1003C20.7453 28.9062 20.9428 29.5584 21.395 30.0063C21.8467 30.4538 22.5036 30.6488 23.316 30.6488V30.0952C22.5834 30.0952 22.0936 29.9191 21.7846 29.613C21.476 29.3074 21.2988 28.8236 21.2983 28.0999L20.7448 28.1003ZM20.7448 25.8814V28.1001H21.2983V25.8814H20.7448ZM20.4103 26.1582H21.0215V25.6046H20.4103V26.1582ZM19.4049 26.1582H20.4103V25.6046H19.4049V26.1582ZM19.638 26.0543C19.6461 26.0315 19.6563 26.0027 19.6678 25.968L19.142 25.7948C19.1328 25.8227 19.1245 25.8459 19.1164 25.8687L19.638 26.0543ZM19.6363 26.0587L19.6364 26.0587L19.118 25.8643L19.118 25.8644L19.6363 26.0587ZM19.6165 26.1201C19.6184 26.1107 19.622 26.0992 19.6379 26.0543L19.1164 25.8688C19.1036 25.9048 19.0857 25.9537 19.0745 26.0072L19.6165 26.1201ZM19.5724 26.357C19.5867 26.2735 19.5999 26.1967 19.616 26.1222L19.075 26.005C19.0559 26.0933 19.0407 26.1821 19.0267 26.2635L19.5724 26.357ZM19.5725 26.356L19.5726 26.3558L19.0265 26.2648L19.0265 26.265L19.5725 26.356ZM19.563 26.4115L19.5723 26.3574L19.0267 26.2635L19.0174 26.3177L19.563 26.4115ZM12.715 34.2213C14.643 33.6323 16.1883 32.6822 17.3369 31.37C18.4854 30.0578 19.2243 28.3984 19.5631 26.4111L19.0173 26.3181C18.6927 28.2225 17.9905 29.7827 16.9203 31.0053C15.8502 32.2279 14.3992 33.1279 12.5532 33.6918L12.715 34.2213ZM11.0699 34.5263C11.6076 34.4579 12.1736 34.3866 12.7149 34.2213L12.5533 33.6918C12.0646 33.841 11.5462 33.9076 11 33.9772L11.0699 34.5263ZM11.0714 34.5261L11.0715 34.5261L10.9984 33.9774L10.9983 33.9774L11.0714 34.5261ZM11.07 34.5263L11.0703 34.5263L10.9994 33.9772L10.9992 33.9773L11.07 34.5263ZM10.3261 34.63C10.5696 34.59 10.8166 34.5585 11.0695 34.5264L10.9996 33.9772C10.7484 34.0092 10.4914 34.0419 10.2364 34.0838L10.3261 34.63ZM10.1789 34.6337H10.2813V34.0801H10.1789V34.6337ZM10.242 34.6264L10.2461 34.6254L10.1116 34.0884L10.1075 34.0894L10.242 34.6264ZM37.6555 19.658C37.6751 19.6543 37.7063 19.6484 37.7444 19.6385L37.6049 19.1028C37.5864 19.1076 37.571 19.1106 37.5521 19.1142L37.6555 19.658ZM37.7127 19.6217C37.6793 19.649 37.6484 19.6585 37.6414 19.6605C37.6374 19.6617 37.6359 19.6619 37.6392 19.6612C37.6425 19.6605 37.6469 19.6596 37.6555 19.658L37.5521 19.1142C37.5406 19.1164 37.513 19.1213 37.4866 19.129C37.4578 19.1374 37.4096 19.1545 37.3622 19.1933L37.7127 19.6217ZM37.666 19.6621L37.7183 19.617L37.3566 19.198L37.3043 19.2431L37.666 19.6621ZM37.4026 19.9059C37.4781 19.8244 37.565 19.7492 37.6658 19.6624L37.3045 19.2429C37.2079 19.3261 37.0968 19.4214 36.9965 19.5296L37.4026 19.9059ZM35.7776 27.8698C35.2172 26.3746 35.0874 24.9679 35.3603 23.6493C35.6334 22.3301 36.3135 21.0803 37.4025 19.9059L36.9966 19.5295C35.8516 20.7643 35.1152 22.1023 34.8182 23.5371C34.5211 24.9724 34.6677 26.4857 35.2592 28.0641L35.7776 27.8698ZM42.4192 32.5372C39.4981 32.4622 36.8064 30.6138 35.7776 27.8698L35.2592 28.0641C36.3702 31.0272 39.2668 33.01 42.4049 33.0906L42.4192 32.5372ZM49.9663 24.017C50.6087 28.6573 47.0611 32.6567 42.4192 32.5372L42.4049 33.0906C47.3934 33.219 51.2032 28.9148 50.5147 23.9411L49.9663 24.017ZM39.4551 18.4453C43.8325 16.2769 49.2959 19.1685 49.9663 24.0169L50.5147 23.9411C49.7926 18.7188 43.926 15.6127 39.2094 17.9493L39.4551 18.4453ZM39.2795 18.7586C39.2494 18.628 39.2682 18.587 39.2753 18.5741C39.287 18.5529 39.3233 18.5105 39.455 18.4454L39.2095 17.9492C39.0494 18.0284 38.8866 18.1335 38.7911 18.3058C38.6909 18.4864 38.6944 18.685 38.74 18.883L39.2795 18.7586ZM39.7718 21.0259C39.6128 20.2711 39.4532 19.5133 39.2795 18.7587L38.74 18.8829C38.9124 19.6316 39.0709 20.3844 39.2301 21.14L39.7718 21.0259ZM39.772 21.027L39.7716 21.0253L39.2302 21.1407L39.2305 21.1423L39.772 21.027ZM39.9674 21.9502C39.9017 21.6431 39.837 21.3356 39.7721 21.0276L39.2304 21.1417C39.2953 21.4495 39.3602 21.7579 39.4261 22.066L39.9674 21.9502ZM40.9767 23.5147C40.4306 23.1963 40.1131 22.6327 39.9675 21.9503L39.4261 22.0659C39.5917 22.8415 39.9724 23.57 40.698 23.9929L40.9767 23.5147ZM42.6012 24.0827C42.016 23.9408 41.4481 23.7886 40.9764 23.5145L40.6983 23.9931C41.2484 24.3128 41.8907 24.48 42.4707 24.6207L42.6012 24.0827ZM43.5743 25.2186C43.6021 24.9164 43.5143 24.6548 43.3209 24.4541C43.137 24.2633 42.8789 24.1495 42.6006 24.0826L42.4713 24.6208C42.6957 24.6748 42.84 24.7529 42.9223 24.8383C42.995 24.9138 43.0373 25.0126 43.0231 25.168L43.5743 25.2186ZM42.4301 26.1499C42.7248 26.1537 42.9969 26.0746 43.2063 25.9097C43.4187 25.7424 43.5488 25.5002 43.5744 25.2183L43.023 25.1683C43.0107 25.3042 42.9524 25.405 42.8638 25.4747C42.7722 25.5469 42.6307 25.5988 42.437 25.5964L42.4301 26.1499ZM42.0876 26.1171C42.1904 26.1328 42.3088 26.1487 42.4307 26.15L42.4363 25.5964C42.3555 25.5956 42.2692 25.5849 42.1713 25.5699L42.0876 26.1171ZM38.009 22.2644C38.4558 24.361 39.9689 25.7914 42.0874 26.1171L42.1715 25.5699C40.2806 25.2792 38.9494 24.021 38.5504 22.149L38.009 22.2644ZM38.0052 22.2466L38.0091 22.2646L38.5504 22.1489L38.5466 22.1309L38.0052 22.2466ZM38.0048 22.2446L38.0053 22.247L38.5465 22.1305L38.546 22.1281L38.0048 22.2446ZM37.4039 19.4293C37.6042 20.3697 37.8045 21.307 38.0047 22.2442L38.5461 22.1285C38.3458 21.1913 38.1456 20.2542 37.9454 19.314L37.4039 19.4293ZM37.3979 19.3706V19.3717H37.9514V19.3706H37.3979ZM4.83653 20.0178C7.23526 17.5154 10.8541 17.2018 13.2779 18.4426L13.5302 17.9499C10.8981 16.6024 7.01207 16.9482 4.4369 19.6347L4.83653 20.0178ZM3.88097 29.0117C2.12119 26.1231 2.51808 22.4359 4.83651 20.0178L4.43692 19.6347C1.9432 22.2356 1.51895 26.1986 3.40821 29.2997L3.88097 29.0117ZM12.3469 32.2194C9.13605 33.1936 5.61571 31.8588 3.88096 29.0117L3.40822 29.2997C5.27541 32.3643 9.05724 33.796 12.5076 32.7491L12.3469 32.2194ZM17.5157 25.8927C17.5616 27.1295 16.9987 28.4912 16.0436 29.6639C15.0905 30.8341 13.7693 31.7875 12.3469 32.2194L12.5077 32.7491C14.0493 32.281 15.4598 31.2573 16.4728 30.0135C17.4838 28.7722 18.1213 27.283 18.0689 25.8721L17.5157 25.8927ZM15.504 26.1592H17.7923V25.6056H15.504V26.1592ZM14.0308 26.1602C14.5221 26.1597 15.0131 26.1592 15.504 26.1592V25.6056C15.0127 25.6056 14.5214 25.6061 14.0303 25.6066L14.0308 26.1602ZM14.0305 26.1602H14.0306V25.6066H14.0305V26.1602ZM14.0297 26.1602H14.0305V25.6066H14.0297V26.1602ZM10.3443 26.1561C11.573 26.1627 12.8021 26.1614 14.0299 26.1602L14.0294 25.6066C12.8012 25.6079 11.5739 25.6091 10.3472 25.6025L10.3443 26.1561ZM9.37044 24.5135C9.15775 24.9053 9.11115 25.3215 9.3085 25.6567C9.50613 25.9923 9.89353 26.1537 10.3443 26.1561L10.3472 25.6025C10.0137 25.6008 9.85027 25.4857 9.78554 25.3758C9.72052 25.2654 9.70004 25.0667 9.85696 24.7776L9.37044 24.5135ZM9.58592 24.1421C9.51479 24.2607 9.4401 24.3852 9.37044 24.5135L9.85696 24.7776C9.92 24.6615 9.98851 24.5472 10.0607 24.4269L9.58592 24.1421ZM9.68422 23.9771C9.65212 24.0318 9.6194 24.0863 9.58592 24.1422L10.0607 24.4269C10.0939 24.3714 10.128 24.3147 10.1616 24.2574L9.68422 23.9771ZM11.447 20.978L9.68428 23.977L10.1615 24.2575L11.9242 21.2585L11.447 20.978ZM13.1644 18.056L11.447 20.978L11.9242 21.2585L13.6416 18.3365L13.1644 18.056ZM13.404 17.9195H13.403V18.4731H13.404V17.9195ZM32.3857 14.7528L32.3856 14.7529L32.7678 15.1534L32.7679 15.1532L32.3857 14.7528ZM32.3898 14.749L32.3898 14.749L32.7638 15.1571L32.7639 15.157L32.3898 14.749ZM34.6915 12.7154C33.8815 13.3555 33.1264 14.061 32.3879 14.7507L32.7658 15.1553C33.507 14.4629 34.2456 13.7733 35.0347 13.1498L34.6915 12.7154ZM35.4364 10.0853C35.6495 10.6529 35.6873 11.1215 35.5729 11.531C35.4585 11.9405 35.1813 12.3288 34.6916 12.7153L35.0346 13.1499C35.5852 12.7152 35.9509 12.2353 36.1061 11.6799C36.2613 11.1243 36.1951 10.5312 35.9547 9.8907L35.4364 10.0853ZM35.0577 9.75182C35.2291 9.75182 35.2745 9.78549 35.2938 9.80334C35.33 9.83669 35.3675 9.90221 35.4364 10.0854L35.9546 9.89055C35.8914 9.72258 35.8158 9.53162 35.669 9.39628C35.5053 9.24545 35.2978 9.19824 35.0577 9.19824V9.75182ZM20.7018 9.72315C25.4878 9.7467 30.2728 9.75796 35.058 9.75182L35.0573 9.19824C30.2735 9.20438 25.4895 9.19312 20.7045 9.16957L20.7018 9.72315ZM20.2735 9.99457C20.3467 9.86943 20.4009 9.81014 20.4514 9.77721C20.4967 9.74764 20.5652 9.72234 20.7015 9.72315L20.7048 9.16957C20.495 9.16833 20.3106 9.20805 20.1488 9.31363C19.9922 9.41585 19.8852 9.56184 19.7956 9.71519L20.2735 9.99457ZM17.4973 14.7181C18.4256 13.1461 19.3546 11.5728 20.2737 9.99415L19.7953 9.71561C18.8772 11.2925 17.949 12.8643 17.0206 14.4366L17.4973 14.7181ZM16.6014 16.2359C16.8998 15.7299 17.1985 15.2241 17.4973 14.7181L17.0206 14.4366C16.7218 14.9426 16.423 15.4486 16.1246 15.9547L16.6014 16.2359ZM15.7078 17.7538C16.018 17.2257 16.3097 16.7303 16.6014 16.236L16.1246 15.9546C15.8327 16.4493 15.5408 16.945 15.2305 17.4735L15.7078 17.7538ZM19.6328 24.3229C19.31 21.4419 17.9886 19.1181 15.6328 17.3905L15.3055 17.8369C17.5345 19.4716 18.7769 21.6549 19.0827 24.3846L19.6328 24.3229ZM21.0164 24.077H19.3578V24.6306H21.0164V24.077ZM20.7396 23.7814V24.3538H21.2932V23.7814H20.7396ZM20.7394 21.5361L20.7396 23.7815L21.2932 23.7814L21.293 21.5361L20.7394 21.5361ZM20.7396 17.0453C20.739 18.5423 20.7392 20.0393 20.7394 21.5361L21.293 21.5361C21.2928 20.0392 21.2925 18.5424 21.2932 17.0456L20.7396 17.0453ZM23.245 14.5428C22.4568 14.5439 21.8165 14.7395 21.3754 15.1804C20.9342 15.6215 20.7396 16.2606 20.7396 17.0455H21.2932C21.2932 16.3447 21.4667 15.8719 21.7668 15.5719C22.067 15.2719 22.5412 15.0973 23.2458 15.0964L23.245 14.5428ZM25.3566 14.5453C24.6532 14.5433 23.949 14.5414 23.2448 14.5428L23.2459 15.0964C23.9486 15.095 24.6514 15.0969 25.3551 15.0989L25.3566 14.5453ZM25.3559 14.5453H25.3558V15.0989H25.3559V14.5453ZM29.4223 14.5326C28.0686 14.5528 26.714 14.549 25.3567 14.5453L25.3552 15.0989C26.7116 15.1026 28.0711 15.1064 29.4305 15.0861L29.4223 14.5326ZM31.8659 15.7333C31.4541 14.7938 30.4786 14.5168 29.4223 14.5326L29.4306 15.0861C30.424 15.0712 31.0867 15.3347 31.3589 15.9556L31.8659 15.7333ZM31.4178 15.6476L31.4167 15.6487L31.808 16.0403L31.809 16.0392L31.4178 15.6476ZM32.3877 14.7509C32.0663 15.0511 31.7481 15.3483 31.4277 15.6382L31.7991 16.0487C32.1233 15.7554 32.4447 15.4551 32.7656 15.1554L32.3877 14.7509ZM22.803 24.4459C22.8032 23.8228 22.8034 23.1996 22.8034 22.5763H22.2498C22.2498 23.1995 22.2496 23.8226 22.2494 24.4457L22.803 24.4459ZM22.8034 28.1837C22.8021 26.9376 22.8025 25.6919 22.803 24.4459L22.2494 24.4457C22.2489 25.6917 22.2485 26.9378 22.2498 28.1843L22.8034 28.1837ZM23.2069 28.5871C23.0581 28.5868 22.9622 28.5814 22.8968 28.5694C22.8339 28.5578 22.8293 28.5452 22.8369 28.5528C22.8446 28.5605 22.8321 28.556 22.8206 28.4934C22.8087 28.4283 22.8034 28.3326 22.8034 28.184H22.2498C22.2498 28.3355 22.2544 28.4746 22.2761 28.593C22.2982 28.714 22.343 28.8418 22.4454 28.9443C22.5479 29.0467 22.6757 29.0916 22.7966 29.1138C22.9151 29.1356 23.0543 29.1404 23.206 29.1407L23.2069 28.5871ZM29.6359 28.5871C27.4932 28.5902 25.3495 28.5902 23.2069 28.5871L23.2061 29.1407C25.3493 29.1437 27.4935 29.1437 29.6367 29.1407L29.6359 28.5871ZM30.0353 28.1799C30.0353 28.3292 30.03 28.4259 30.018 28.4919C30.0065 28.5557 29.9937 28.561 30.001 28.5536C30.0086 28.5459 30.0045 28.5582 29.9431 28.5697C29.8787 28.5817 29.7839 28.5871 29.6363 28.5871V29.1407C29.7871 29.1407 29.926 29.136 30.0444 29.1139C30.1656 29.0914 30.2931 29.0458 30.3951 28.9424C30.4966 28.8395 30.5409 28.7115 30.5628 28.5905C30.5843 28.4718 30.5889 28.3322 30.5889 28.1799H30.0353ZM30.0353 17.0159C30.0373 20.7375 30.0373 24.4581 30.0353 28.1798L30.5889 28.1801C30.5909 24.4583 30.5909 20.7374 30.5889 17.0156L30.0353 17.0159ZM29.6056 16.582C29.758 16.582 29.8573 16.5879 29.9253 16.6008C29.9904 16.6131 29.9988 16.627 29.9944 16.6225C29.9902 16.6183 30.0042 16.6272 30.0166 16.6935C30.0294 16.7623 30.0353 16.8625 30.0353 17.0158H30.5889C30.5889 16.8583 30.5837 16.7143 30.5607 16.5916C30.5373 16.4664 30.4906 16.3365 30.3871 16.2323C30.2833 16.1279 30.1538 16.0807 30.0285 16.0569C29.906 16.0337 29.7624 16.0284 29.6056 16.0284V16.582ZM23.2272 16.582C25.3526 16.5799 27.4789 16.5799 29.6053 16.582L29.6059 16.0284C27.4791 16.0264 25.3524 16.0264 23.2267 16.0284L23.2272 16.582ZM22.8024 17.0213C22.8026 16.8661 22.8084 16.7643 22.8212 16.6941C22.8337 16.626 22.8479 16.6166 22.8435 16.6211C22.8384 16.6263 22.8455 16.6129 22.9094 16.6006C22.9764 16.5878 23.0748 16.582 23.2269 16.582V16.0284C23.0709 16.0284 22.9276 16.0336 22.8055 16.0569C22.6804 16.0808 22.5508 16.1286 22.4475 16.2342C22.345 16.3392 22.2995 16.4695 22.2767 16.5945C22.2542 16.7173 22.2491 16.8618 22.2488 17.0204L22.8024 17.0213ZM22.8019 20.7251C22.8015 19.4903 22.801 18.2557 22.8024 17.0212L22.2488 17.0206C22.2474 18.2556 22.2479 19.4906 22.2484 20.7253L22.8019 20.7251ZM22.8024 22.5774C22.8024 21.9599 22.8022 21.3425 22.8019 20.7251L22.2484 20.7253C22.2486 21.3427 22.2488 21.96 22.2488 22.5774H22.8024ZM22.3311 22.3804L22.3301 22.3815L22.7211 22.7733L22.7222 22.7722L22.3311 22.3804ZM14.5339 19.1324C16.2952 20.4697 17.2887 22.1825 17.5741 24.3903L18.1231 24.3193C17.8188 21.9648 16.7482 20.1186 14.8686 18.6915L14.5339 19.1324ZM11.7341 24.4952C12.8132 22.6625 13.8596 20.8862 14.9397 19.0524L14.4628 18.7715C13.3826 20.6052 12.3362 22.3816 11.257 24.2143L11.7341 24.4952ZM17.8486 24.078H11.4956V24.6316H17.8486V24.078ZM26.9026 12.1416C26.7403 12.1424 26.5787 12.1431 26.4172 12.1431V12.6967C26.5803 12.6967 26.7432 12.6959 26.9053 12.6952L26.9026 12.1416ZM28.0045 12.1452C27.6355 12.1381 27.2671 12.1399 26.9026 12.1416L26.9053 12.6952C27.2709 12.6934 27.6326 12.6917 27.9937 12.6987L28.0045 12.1452ZM29.1451 13.1485C29.1382 12.8575 29.0208 12.6007 28.807 12.4188C28.5972 12.2403 28.3158 12.1513 28.0045 12.1452L27.9937 12.6987C28.2097 12.7029 28.3578 12.7634 28.4483 12.8404C28.5347 12.9139 28.5883 13.0185 28.5916 13.1616L29.1451 13.1485ZM28.0357 14.1997C28.3516 14.1954 28.6334 14.0933 28.8375 13.9018C29.0435 13.7087 29.1519 13.4414 29.1451 13.1486L28.5916 13.1616C28.595 13.3049 28.5442 13.418 28.4589 13.498C28.3718 13.5796 28.2302 13.6434 28.028 13.6462L28.0357 14.1997ZM24.8122 14.1997C25.8865 14.2141 26.961 14.2151 28.0358 14.1997L28.0279 13.6462C26.9587 13.6615 25.8893 13.6605 24.8196 13.6462L24.8122 14.1997ZM23.6955 13.158C23.6921 13.4499 23.8012 13.7154 24.0087 13.9068C24.2142 14.0963 24.4961 14.1954 24.8121 14.1997L24.8197 13.6462C24.6135 13.6434 24.4711 13.5802 24.384 13.4999C24.299 13.4215 24.2473 13.3097 24.249 13.1645L23.6955 13.158ZM24.829 12.1442C24.5168 12.1503 24.2351 12.2407 24.0262 12.4218C23.8134 12.6063 23.6989 12.8658 23.6955 13.158L24.249 13.1645C24.2507 13.0195 24.3037 12.9139 24.3888 12.8401C24.4778 12.763 24.6246 12.7019 24.8397 12.6977L24.829 12.1442ZM25.9268 12.1404C25.5638 12.1384 25.1964 12.1364 24.8284 12.1442L24.8403 12.6977C25.1996 12.69 25.5595 12.6919 25.9238 12.6939L25.9268 12.1404ZM26.4162 12.1421C26.2535 12.1421 26.0906 12.1412 25.9268 12.1404L25.9238 12.6939C26.0873 12.6948 26.2517 12.6957 26.4162 12.6957V12.1421ZM26.613 12.2242L26.6119 12.2232L26.2205 12.6146L26.2215 12.6157L26.613 12.2242ZM26.4796 23.032C26.3575 22.9666 26.2384 22.9037 26.1225 22.8425L25.8639 23.3319C25.9801 23.3933 26.0978 23.4555 26.2184 23.52L26.4796 23.032ZM26.6258 23.277V23.276H26.0722V23.277H26.6258ZM26.3032 24.0171C26.401 23.8124 26.4999 23.6054 26.5992 23.3954L26.0988 23.1587C26 23.3676 25.9015 23.5736 25.8037 23.7785L26.3032 24.0171ZM25.6613 25.3846C25.867 24.9301 26.0823 24.4796 26.3032 24.0171L25.8037 23.7785C25.5832 24.24 25.3655 24.6957 25.1569 25.1563L25.6613 25.3846ZM25.8599 26.0928C25.7233 26.0318 25.6445 25.9377 25.6101 25.8305C25.5747 25.7203 25.5779 25.5683 25.6611 25.3849L25.1571 25.1561C25.0284 25.4395 24.9978 25.7344 25.083 25.9997C25.1691 26.2681 25.3652 26.4781 25.634 26.5982L25.8599 26.0928ZM26.4992 25.7928C26.4124 25.9721 26.3035 26.0675 26.2039 26.1092C26.1072 26.1498 25.9917 26.1519 25.8603 26.093L25.6337 26.5981C25.8903 26.7132 26.1659 26.7255 26.4181 26.6197C26.6674 26.5151 26.8651 26.3073 26.9974 26.0341L26.4992 25.7928ZM27.702 23.2186C27.313 24.0826 26.9127 24.9402 26.4993 25.7927L26.9974 26.0342C27.4132 25.1768 27.8157 24.3144 28.2068 23.446L27.702 23.2186ZM27.462 22.4985C27.6597 22.6136 27.7388 22.7166 27.7675 22.8025C27.7957 22.8868 27.7949 23.0129 27.7021 23.2185L28.2067 23.4461C28.331 23.1705 28.3814 22.8927 28.2926 22.627C28.2043 22.363 27.9983 22.1702 27.7404 22.0201L27.462 22.4985ZM26.7405 22.1036C26.9933 22.2377 27.2309 22.3637 27.4617 22.4984L27.7407 22.0202C27.4985 21.8789 27.2508 21.7476 26.9998 21.6145L26.7405 22.1036ZM26.3719 21.9068C26.4976 21.9749 26.6207 22.0401 26.7405 22.1036L26.9998 21.6145C26.8797 21.5509 26.7586 21.4867 26.6353 21.42L26.3719 21.9068ZM26.5338 21.0225C26.4434 21.1903 26.3518 21.3602 26.2595 21.5329L26.7477 21.7939C26.8395 21.6221 26.9306 21.453 27.0211 21.2851L26.5338 21.0225ZM27.1756 19.8111C26.97 20.2129 26.7555 20.6111 26.5338 21.0225L27.0211 21.2851C27.2423 20.8746 27.4597 20.4712 27.6684 20.0633L27.1756 19.8111ZM27.0233 19.0925C27.1588 19.1599 27.2294 19.2543 27.2563 19.3582C27.2844 19.4669 27.273 19.6204 27.1755 19.8113L27.6685 20.0631C27.8116 19.783 27.8621 19.4896 27.7922 19.2195C27.7211 18.9446 27.5337 18.7282 27.2699 18.5969L27.0233 19.0925ZM26.3718 19.3775C26.4741 19.1934 26.5885 19.1007 26.6877 19.0628C26.7821 19.0266 26.8932 19.028 27.0236 19.0927L27.2696 18.5968C27.0181 18.472 26.7458 18.4478 26.4898 18.5458C26.2385 18.6419 26.0355 18.8431 25.888 19.1085L26.3718 19.3775ZM25.1458 21.656C25.5439 20.8903 25.9522 20.1309 26.3717 19.3777L25.8881 19.1083C25.4659 19.8663 25.0551 20.6304 24.6547 21.4006L25.1458 21.656ZM25.3809 22.4414C25.1679 22.3205 25.0825 22.2067 25.0535 22.1107C25.0247 22.0156 25.0322 21.8745 25.1458 21.656L24.6547 21.4005C24.5042 21.6899 24.4374 21.986 24.5236 22.2709C24.6095 22.555 24.8282 22.7643 25.1076 22.9229L25.3809 22.4414ZM26.1225 22.8425C25.8631 22.7054 25.6197 22.5768 25.3808 22.4414L25.1078 22.9229C25.3551 23.0632 25.6059 23.1956 25.8639 23.3319L26.1225 22.8425Z" fill="black"/>
</svg>
