<svg width="16" height="16" viewBox="0 0 16 16" fill="none" xmlns="http://www.w3.org/2000/svg">
<path fill-rule="evenodd" clip-rule="evenodd" d="M8 1.11628C4.19823 1.11628 1.11628 4.19823 1.11628 8C1.11628 11.8018 4.19823 14.8837 8 14.8837C11.8018 14.8837 14.8837 11.8018 14.8837 8C14.8837 4.19823 11.8018 1.11628 8 1.11628ZM0 8C0 3.58172 3.58172 0 8 0C12.4183 0 16 3.58172 16 8C16 12.4183 12.4183 16 8 16C3.58172 16 0 12.4183 0 8Z" fill="white"/>
<path fill-rule="evenodd" clip-rule="evenodd" d="M4.46512 1.30233C4.46512 0.994074 4.715 0.744186 5.02326 0.744186H5.76744C5.9469 0.744186 6.11542 0.830479 6.22031 0.976092C6.32521 1.12171 6.35369 1.30887 6.29685 1.4791C4.884 5.71041 4.884 10.2896 6.29685 14.5209C6.35369 14.6911 6.32521 14.8783 6.22031 15.0239C6.11542 15.1695 5.9469 15.2558 5.76744 15.2558H5.02326C4.715 15.2558 4.46512 15.0059 4.46512 14.6977C4.46512 14.3948 4.70634 14.1483 5.00713 14.1398C3.82553 10.1329 3.82553 5.86708 5.00713 1.86024C4.70634 1.8517 4.46512 1.60518 4.46512 1.30233Z" fill="white"/>
<path fill-rule="evenodd" clip-rule="evenodd" d="M10.0558 0.772919C10.3482 0.675291 10.6643 0.833171 10.762 1.12555C12.2514 5.58634 12.2514 10.4137 10.762 14.8744C10.6643 15.1668 10.3482 15.3247 10.0558 15.2271C9.7634 15.1295 9.60552 14.8133 9.70315 14.5209C11.116 10.2896 11.116 5.71041 9.70315 1.4791C9.60552 1.18671 9.7634 0.870547 10.0558 0.772919Z" fill="white"/>
<path fill-rule="evenodd" clip-rule="evenodd" d="M0.976092 9.77969C1.12171 9.67479 1.30887 9.64631 1.4791 9.70315C5.71041 11.116 10.2896 11.116 14.5209 9.70315C14.6911 9.64631 14.8783 9.67479 15.0239 9.77969C15.1695 9.88458 15.2558 10.0531 15.2558 10.2326V10.9767C15.2558 11.285 15.0059 11.5349 14.6977 11.5349C14.3948 11.5349 14.1483 11.2937 14.1398 10.9929C10.1329 12.1745 5.86708 12.1745 1.86024 10.9929C1.8517 11.2937 1.60518 11.5349 1.30233 11.5349C0.994074 11.5349 0.744186 11.285 0.744186 10.9767V10.2326C0.744186 10.0531 0.830479 9.88458 0.976092 9.77969Z" fill="white"/>
<path fill-rule="evenodd" clip-rule="evenodd" d="M14.5209 6.29685C10.2896 4.884 5.71041 4.884 1.4791 6.29685C1.18671 6.39448 0.870547 6.2366 0.772919 5.94421C0.675291 5.65183 0.833171 5.33566 1.12555 5.23803C5.58634 3.74856 10.4137 3.74856 14.8744 5.23803C15.1668 5.33566 15.3247 5.65183 15.2271 5.94421C15.1295 6.2366 14.8133 6.39448 14.5209 6.29685Z" fill="white"/>
</svg>
