<svg width="46" height="39" viewBox="0 0 46 39" fill="none" xmlns="http://www.w3.org/2000/svg">
<path d="M45.2135 17.9747C45.0013 18.7742 44.8639 19.6027 44.5611 20.366C43.9729 21.8478 42.9957 23.0302 41.5553 23.783C39.3515 24.9346 36.8573 24.1114 35.7629 21.8742C34.3005 18.8834 35.5745 14.5375 38.42 12.8066C41.0869 11.1848 44.076 12.3998 44.952 15.4664C45.0559 15.8291 45.1263 16.2015 45.2126 16.5696V17.9756L45.2135 17.9747ZM37.7852 19.0383L37.6734 19.0797C37.8627 19.6846 37.986 20.3202 38.2572 20.8855C38.5961 21.5916 39.3137 21.8355 40.0453 21.5599C40.379 21.434 40.7118 21.2394 40.9724 20.9982C42.0994 19.9522 42.5898 18.6263 42.5563 17.1049C42.5493 16.7879 42.4832 16.4639 42.3926 16.1584C41.9339 14.615 40.6114 14.2496 39.4211 15.3378C38.3355 16.3301 37.8293 17.5847 37.7852 19.0383Z" fill="black"/>
<path d="M31.6465 38.8938C29.7263 38.5936 27.7884 38.3761 25.8902 37.9711C23.5764 37.4781 21.3146 37.6004 19.0131 38.0292C17.1484 38.3761 15.2563 38.6041 13.366 38.7767C12.181 38.885 10.9959 38.6913 9.92175 38.1032C8.31672 37.2245 7.67224 35.7691 7.61325 34.0338C7.52168 31.3432 8.2454 28.826 9.42518 26.4339C10.59 24.0708 12.1545 21.9982 14.1672 20.2919C16.8886 17.9852 19.9755 16.6531 23.6222 16.9199C25.9624 17.0907 28.064 17.9412 29.9534 19.2856C33.4849 21.7975 35.8392 25.1819 37.1378 29.297C37.6775 31.0077 37.9857 32.7677 37.7585 34.5717C37.4618 36.9225 35.8946 38.4324 33.5025 38.7001C32.8923 38.7688 32.2769 38.7846 31.6641 38.8242L31.6465 38.8938ZM22.5965 34.8411L22.6124 34.9292C22.8756 34.9442 23.1415 34.9371 23.4012 34.9776C25.251 35.2629 27.0982 35.5587 28.9471 35.8484C30.3364 36.0658 31.7258 36.2815 33.138 36.0896C34.5546 35.8977 35.1674 35.2127 35.1903 33.7793C35.1956 33.458 35.1797 33.1349 35.1542 32.8144C35.0556 31.5518 34.7633 30.3298 34.3037 29.1535C32.9795 25.7638 30.9193 22.95 27.7788 21.0209C24.1267 18.7785 20.1885 19.1166 16.8015 21.5686C14.2429 23.4201 12.453 25.8818 11.2644 28.7855C10.5882 30.4372 10.1824 32.1549 10.2422 33.9545C10.2854 35.2514 10.8533 35.8827 12.1281 36.0764C12.4882 36.131 12.8624 36.1865 13.2207 36.1495C14.5722 36.0121 15.9237 35.8625 17.2681 35.6705C19.0475 35.417 20.8198 35.1185 22.5956 34.8403L22.5965 34.8411Z" fill="black"/>
<path d="M10.0459 8.24661C10.0899 6.05609 10.5962 4.02052 11.9626 2.257C13.4382 0.353501 15.6736 -0.348207 17.7215 0.496131C19.2165 1.11244 20.2387 2.2526 20.8858 3.69476C22.4037 7.07915 22.3227 10.4283 20.4078 13.6419C19.5423 15.0938 18.2709 16.0957 16.533 16.3079C14.6242 16.5403 13.1486 15.6995 11.9908 14.2609C10.5821 12.5106 10.089 10.4459 10.0459 8.24749V8.24661ZM19.2694 8.22284C19.228 6.87049 18.977 5.54895 18.2436 4.35332C17.8853 3.76871 17.4433 3.26863 16.8173 2.96752C15.8779 2.51673 14.8601 2.85394 14.0536 3.8638C12.3095 6.04552 12.2373 10.2153 13.9189 12.4489C14.5344 13.266 15.2757 13.9034 16.4018 13.6622C17.2452 13.4817 17.7849 12.8724 18.2208 12.1769C18.9735 10.9777 19.2341 9.63946 19.2702 8.22196L19.2694 8.22284Z" fill="black"/>
<path d="M35.3794 8.33762C35.3362 10.4586 34.8449 12.5267 33.4274 14.27C32.1138 15.8847 30.4392 16.722 28.3236 16.2008C26.6754 15.7949 25.5088 14.69 24.7622 13.2205C22.9907 9.73399 23.0092 6.22809 25.0272 2.84986C26.0582 1.1242 27.6078 0.0377436 29.7296 0.160124C31.5909 0.266657 32.8965 1.34079 33.8782 2.84017C34.9524 4.48043 35.3538 6.31878 35.3794 8.3385V8.33762ZM32.7372 8.20467C32.6923 6.6507 32.37 5.13723 31.3584 3.85091C30.434 2.67553 29.1969 2.42549 28.188 3.23461C27.7979 3.54804 27.4502 3.95128 27.186 4.3783C26.222 5.93843 26.0151 7.66497 26.2492 9.44697C26.4016 10.603 26.774 11.6991 27.5224 12.6218C28.1325 13.3746 28.8756 13.9064 29.9127 13.6546C30.7298 13.4556 31.2607 12.8622 31.6886 12.1781C32.4387 10.9772 32.7055 9.64243 32.7372 8.20467Z" fill="black"/>
<path d="M10.2911 19.2942C10.2426 20.6739 9.86053 21.9276 8.92022 22.9603C7.49567 24.5258 5.26289 24.7529 3.41045 23.5168C1.57914 22.2939 0.648521 20.5101 0.307792 18.3803C0.104411 17.1072 0.225911 15.8693 0.760336 14.6895C1.93396 12.1002 4.7989 11.2963 7.14966 12.9084C9.02235 14.1921 9.93977 16.0436 10.2241 18.2474C10.269 18.5934 10.2699 18.9456 10.2911 19.2951V19.2942ZM7.73867 19.0864L7.63302 19.0556C7.63919 17.6487 7.04401 16.2796 6.01742 15.3454C4.82619 14.2608 3.48617 14.6103 3.03715 16.1449C2.63479 17.5192 2.92445 18.8064 3.63672 20.0135C3.99858 20.6272 4.46961 21.1466 5.12202 21.4662C5.98749 21.8897 6.82302 21.6503 7.2289 20.783C7.4763 20.2539 7.57403 19.6543 7.73867 19.0855V19.0864Z" fill="black"/>
</svg>
