<svg width="30" height="30" viewBox="0 0 30 30" fill="none" xmlns="http://www.w3.org/2000/svg">
<path d="M15 28.4375C7.5875 28.4375 1.5625 22.4125 1.5625 15C1.5625 7.5875 7.5875 1.5625 15 1.5625C22.4125 1.5625 28.4375 7.5875 28.4375 15C28.4375 22.4125 22.4125 28.4375 15 28.4375ZM15 3.4375C8.625 3.4375 3.4375 8.625 3.4375 15C3.4375 21.375 8.625 26.5625 15 26.5625C21.375 26.5625 26.5625 21.375 26.5625 15C26.5625 8.625 21.375 3.4375 15 3.4375Z" fill="#292D32"/>
<path d="M15 17.1875C14.4875 17.1875 14.0625 16.7625 14.0625 16.25V10C14.0625 9.4875 14.4875 9.0625 15 9.0625C15.5125 9.0625 15.9375 9.4875 15.9375 10V16.25C15.9375 16.7625 15.5125 17.1875 15 17.1875Z" fill="#292D32"/>
<path d="M15 21.2501C14.8375 21.2501 14.675 21.2126 14.525 21.1501C14.375 21.0876 14.2375 21.0001 14.1125 20.8876C14 20.7626 13.9125 20.6376 13.85 20.4751C13.7875 20.3251 13.75 20.1626 13.75 20.0001C13.75 19.8376 13.7875 19.6751 13.85 19.5251C13.9125 19.3751 14 19.2376 14.1125 19.1126C14.2375 19.0001 14.375 18.9126 14.525 18.8501C14.825 18.7251 15.175 18.7251 15.475 18.8501C15.625 18.9126 15.7625 19.0001 15.8875 19.1126C16 19.2376 16.0875 19.3751 16.15 19.5251C16.2125 19.6751 16.25 19.8376 16.25 20.0001C16.25 20.1626 16.2125 20.3251 16.15 20.4751C16.0875 20.6376 16 20.7626 15.8875 20.8876C15.7625 21.0001 15.625 21.0876 15.475 21.1501C15.325 21.2126 15.1625 21.2501 15 21.2501Z" fill="#292D32"/>
</svg>
