<svg width="21" height="22" viewBox="0 0 21 22" fill="none" xmlns="http://www.w3.org/2000/svg">
<path d="M6.5671 21.5C4.98313 21.499 3.45298 20.9251 2.259 19.8843C1.06501 18.8434 0.287781 17.4059 0.0707171 15.8368C-0.146347 14.2678 0.211407 12.6732 1.07796 11.3473C1.94452 10.0214 3.2614 9.05365 4.7856 8.62264C5.89346 8.30539 7.06611 8.29089 8.18147 8.58064L15.101 1.66289C15.4683 1.29301 15.9054 0.999759 16.387 0.800138C16.8685 0.600517 17.3849 0.498504 17.9062 0.500017C18.7266 0.500712 19.5132 0.826909 20.0932 1.407C20.6733 1.98708 20.9995 2.77365 21.0002 3.59402C21.0016 4.11533 20.8996 4.63175 20.7001 5.1134C20.5007 5.59506 20.2077 6.0324 19.8382 6.40014L19.2502 6.98814C18.9212 7.3149 18.4767 7.49882 18.013 7.50002H16.6252V8.37502C16.6252 8.83915 16.4408 9.28426 16.1127 9.61245C15.7845 9.94064 15.3394 10.125 14.8752 10.125H14.0002V11.5128C14.0008 11.7427 13.9558 11.9704 13.8678 12.1828C13.7798 12.3952 13.6505 12.588 13.4875 12.75L12.9187 13.3188C13.2101 14.4336 13.1959 15.6063 12.8776 16.7138C12.5195 17.9755 11.7929 19.1017 10.7908 19.948C9.78882 20.7942 8.55699 21.3222 7.2531 21.4641C7.0252 21.4878 6.79623 21.4998 6.5671 21.5ZM6.5671 10.125C5.67123 10.1241 4.7929 10.3734 4.03099 10.8446C3.26907 11.3158 2.65382 11.9904 2.25449 12.7924C1.85516 13.5943 1.6876 14.4918 1.77068 15.3838C1.85375 16.2758 2.18417 17.1269 2.72473 17.8413C3.26529 18.5557 3.99453 19.1051 4.83036 19.4275C5.66619 19.7499 6.57544 19.8327 7.45574 19.6664C8.33604 19.5001 9.15245 19.0914 9.81306 18.4863C10.4737 17.8811 10.9523 17.1036 11.195 16.2413C11.468 15.2932 11.4374 14.2835 11.1075 13.3538C11.0536 13.1985 11.0446 13.0312 11.0814 12.871C11.1183 12.7109 11.1995 12.5643 11.3157 12.4481L12.2502 11.5128V10.125C12.2502 9.66089 12.4346 9.21577 12.7628 8.88758C13.091 8.55939 13.5361 8.37502 14.0002 8.37502H14.8752V7.50002C14.8752 7.03589 15.0596 6.59077 15.3878 6.26258C15.716 5.93439 16.1611 5.75002 16.6252 5.75002H18.013L18.601 5.16202C18.8074 4.95653 18.9711 4.71215 19.0826 4.44301C19.194 4.17387 19.251 3.88531 19.2502 3.59402C19.25 3.23779 19.1084 2.8962 18.8566 2.64423C18.6048 2.39226 18.2633 2.25048 17.9071 2.25002C17.6156 2.2493 17.3269 2.30639 17.0576 2.41798C16.7883 2.52957 16.5438 2.69345 16.3382 2.90014L9.0486 10.1889C8.93226 10.3052 8.78551 10.3863 8.62518 10.423C8.46484 10.4596 8.29742 10.4504 8.1421 10.3963C7.63466 10.2176 7.1007 10.1259 6.56272 10.125H6.5671ZM4.37522 16.25C4.37522 16.4231 4.42654 16.5922 4.52269 16.7361C4.61883 16.88 4.75549 16.9922 4.91538 17.0584C5.07526 17.1246 5.25119 17.142 5.42093 17.1082C5.59066 17.0744 5.74657 16.9911 5.86894 16.8687C5.99131 16.7464 6.07465 16.5905 6.10841 16.4207C6.14217 16.251 6.12485 16.0751 6.05862 15.9152C5.99239 15.7553 5.88024 15.6186 5.73635 15.5225C5.59245 15.4263 5.42328 15.375 5.25022 15.375C5.01816 15.375 4.7956 15.4672 4.63151 15.6313C4.46741 15.7954 4.37522 16.018 4.37522 16.25Z" fill="black"/>
</svg>
