<svg width="21" height="21" viewBox="0 0 21 21" fill="none" xmlns="http://www.w3.org/2000/svg">
<path d="M10.5 0C8.4233 0 6.39323 0.615814 4.66652 1.76957C2.9398 2.92332 1.59399 4.5632 0.79927 6.48182C0.0045495 8.40045 -0.203386 10.5116 0.201759 12.5484C0.606904 14.5853 1.60693 16.4562 3.07538 17.9246C4.54383 19.3931 6.41476 20.3931 8.45156 20.7982C10.4884 21.2034 12.5996 20.9955 14.5182 20.2007C16.4368 19.406 18.0767 18.0602 19.2304 16.3335C20.3842 14.6068 21 12.5767 21 10.5C20.997 7.71615 19.8898 5.04718 17.9213 3.0787C15.9528 1.11022 13.2839 0.00301095 10.5 0V0ZM10.5 19.25C8.76942 19.25 7.0777 18.7368 5.63877 17.7754C4.19983 16.8139 3.07833 15.4473 2.41606 13.8485C1.75379 12.2496 1.58051 10.4903 1.91813 8.79296C2.25575 7.09563 3.08911 5.53653 4.31282 4.31282C5.53653 3.08911 7.09563 2.25575 8.79296 1.91813C10.4903 1.58051 12.2496 1.75379 13.8485 2.41605C15.4473 3.07832 16.8139 4.19983 17.7754 5.63876C18.7368 7.07769 19.25 8.76941 19.25 10.5C19.2475 12.8199 18.3248 15.044 16.6844 16.6844C15.044 18.3248 12.8199 19.2475 10.5 19.25ZM10.5 6.125C9.88153 6.12383 9.2826 6.34158 8.80929 6.73969C8.33598 7.13779 8.01884 7.69057 7.91404 8.3001C7.80924 8.90963 7.92354 9.53658 8.2367 10.0699C8.54985 10.6032 9.04166 11.0085 9.625 11.214V14C9.625 14.2321 9.71719 14.4546 9.88129 14.6187C10.0454 14.7828 10.2679 14.875 10.5 14.875C10.7321 14.875 10.9546 14.7828 11.1187 14.6187C11.2828 14.4546 11.375 14.2321 11.375 14V11.214C11.9584 11.0085 12.4502 10.6032 12.7633 10.0699C13.0765 9.53658 13.1908 8.90963 13.086 8.3001C12.9812 7.69057 12.664 7.13779 12.1907 6.73969C11.7174 6.34158 11.1185 6.12383 10.5 6.125ZM10.5 9.625C10.3269 9.625 10.1578 9.57368 10.0139 9.47754C9.86999 9.38139 9.75784 9.24473 9.69161 9.08485C9.62538 8.92496 9.60806 8.74903 9.64182 8.5793C9.67558 8.40956 9.75892 8.25365 9.88129 8.13128C10.0037 8.00891 10.1596 7.92558 10.3293 7.89181C10.499 7.85805 10.675 7.87538 10.8349 7.94161C10.9947 8.00783 11.1314 8.11998 11.2275 8.26388C11.3237 8.40777 11.375 8.57694 11.375 8.75C11.375 8.98207 11.2828 9.20463 11.1187 9.36872C10.9546 9.53281 10.7321 9.625 10.5 9.625Z" fill="black"/>
</svg>
