<svg width="30" height="30" viewBox="0 0 30 30" fill="none" xmlns="http://www.w3.org/2000/svg">
<path d="M18.75 16.1875H10C9.4875 16.1875 9.0625 15.7625 9.0625 15.25C9.0625 14.7375 9.4875 14.3125 10 14.3125H18.75C19.2625 14.3125 19.6875 14.7375 19.6875 15.25C19.6875 15.7625 19.2625 16.1875 18.75 16.1875Z" fill="#292D32"/>
<path d="M15.475 21.1875H10C9.4875 21.1875 9.0625 20.7625 9.0625 20.25C9.0625 19.7375 9.4875 19.3125 10 19.3125H15.475C15.9875 19.3125 16.4125 19.7375 16.4125 20.25C16.4125 20.7625 15.9875 21.1875 15.475 21.1875Z" fill="#292D32"/>
<path d="M17.5 8.4375H12.5C11.3 8.4375 9.0625 8.4375 9.0625 5C9.0625 1.5625 11.3 1.5625 12.5 1.5625H17.5C18.7 1.5625 20.9375 1.5625 20.9375 5C20.9375 6.2 20.9375 8.4375 17.5 8.4375ZM12.5 3.4375C11.2625 3.4375 10.9375 3.4375 10.9375 5C10.9375 6.5625 11.2625 6.5625 12.5 6.5625H17.5C19.0625 6.5625 19.0625 6.2375 19.0625 5C19.0625 3.4375 18.7375 3.4375 17.5 3.4375H12.5Z" fill="#292D32"/>
<path d="M18.75 28.4375H11.25C4.225 28.4375 2.8125 25.2125 2.8125 20V12.5C2.8125 6.80004 4.875 4.36254 9.95 4.10004C10.45 4.07504 10.9125 4.46254 10.9375 4.98754C10.9625 5.51254 10.5625 5.93754 10.05 5.96254C6.5 6.16254 4.6875 7.22504 4.6875 12.5V20C4.6875 24.625 5.6 26.5625 11.25 26.5625H18.75C24.4 26.5625 25.3125 24.625 25.3125 20V12.5C25.3125 7.22504 23.5 6.16254 19.95 5.96254C19.4375 5.93754 19.0375 5.48754 19.0625 4.97504C19.0875 4.46254 19.5375 4.06254 20.05 4.08754C25.125 4.36254 27.1875 6.80004 27.1875 12.4875V19.9875C27.1875 25.2125 25.775 28.4375 18.75 28.4375Z" fill="#292D32"/>
</svg>
