<svg width="151" height="24" viewBox="0 0 151 24" fill="none" xmlns="http://www.w3.org/2000/svg">
<path fill-rule="evenodd" clip-rule="evenodd" d="M85.9459 3.38732L91.7426 8.29234C92.1082 8.6004 92.4984 8.90273 92.8922 9.20787C93.6981 9.83229 94.5193 10.4685 95.1759 11.1899C95.3544 11.4075 95.4859 11.6595 95.562 11.93C95.6382 12.2005 95.6574 12.4838 95.6184 12.762V21.8658C95.6122 22.2179 95.4688 22.5539 95.2184 22.803C94.968 23.052 94.6303 23.1947 94.2762 23.2009H80.3485C79.9941 23.1959 79.6556 23.0536 79.405 22.8043C79.1544 22.555 79.0114 22.2183 79.0063 21.8658V13.2167L67.7144 3.17448L55.6103 13.0619V20.5259H66.6251V13.4344C66.6251 12.3944 66.6397 11.722 67.5004 11.0157L70.5884 8.47616C71.9161 7.3926 73.8224 9.27431 72.4899 10.3675L69.3095 12.9748V21.8658C69.3032 22.2179 69.1598 22.5539 68.9094 22.803C68.6591 23.052 68.3213 23.1947 67.9673 23.2009H54.3022C53.9478 23.1959 53.6093 23.0536 53.3587 22.8043C53.108 22.555 52.965 22.2183 52.96 21.8658V14.8904C52.96 14.6517 52.9488 14.4055 52.9374 14.1572C52.8887 13.0874 52.8381 11.9773 53.6748 11.2431C54.6381 10.3911 55.6515 9.5822 56.6636 8.77446C57.1282 8.40365 57.5925 8.03307 58.0516 7.65866L66.805 0.484947C67.0633 0.245917 67.403 0.113038 67.7557 0.113038C68.1085 0.113038 68.4482 0.245917 68.7065 0.484947L72.1981 3.605L77.6933 8.49067C78.9156 9.47146 80.0874 10.5128 81.2044 11.6107C81.9179 12.3698 81.8112 14.1621 81.7321 15.4902C81.7104 15.8548 81.6907 16.1844 81.6907 16.448V20.5114H92.9389V12.7717L81.4184 3.06323L78.1359 5.81565C76.8228 6.91371 74.9117 5.03201 76.2344 3.92426L80.4701 0.373688C80.7278 0.133594 81.0677 0 81.4208 0C81.7739 0 82.1138 0.133594 82.3716 0.373688L85.9459 3.38732ZM128.522 10.2417V2.45854L128.512 1.23471H131.235V23.2202H128.507V21.5368C127.154 22.6205 125.469 23.2127 123.732 23.2154C121.948 23.2313 120.22 22.6021 118.869 21.4449C118.103 20.8134 117.476 20.0318 117.027 19.1487C116.578 18.2657 116.316 17.3001 116.259 16.3121C116.201 15.3242 116.349 14.3351 116.692 13.4064C117.036 12.4777 117.568 11.6293 118.256 10.9141C118.949 10.1551 119.798 9.5526 120.745 9.1471C121.692 8.74159 122.715 8.54249 123.746 8.5632C125.486 8.55203 127.175 9.14574 128.522 10.2417ZM124.939 20.6129C125.546 20.4548 126.114 20.1768 126.61 19.7954C127.218 19.343 127.708 18.7526 128.04 18.0736C128.371 17.3945 128.535 16.6464 128.517 15.8917C128.526 14.8258 128.184 13.7861 127.544 12.9313C127.124 12.3221 126.559 11.8262 125.898 11.4885C125.238 11.1507 124.503 10.9816 123.761 10.9964C122.723 10.9827 121.711 11.3242 120.896 11.9638C120.288 12.4157 119.798 13.006 119.466 13.6851C119.135 14.3643 118.971 15.1127 118.99 15.8675C118.981 16.9335 119.322 17.9733 119.963 18.8279C120.328 19.3347 120.793 19.7631 121.328 20.0874C121.864 20.4117 122.46 20.6254 123.08 20.7157C123.701 20.806 124.333 20.7711 124.939 20.6129ZM147.376 10.3337C146.024 9.17646 144.296 8.54725 142.513 8.56322C141.482 8.54251 140.458 8.7416 139.511 9.14711C138.564 9.55262 137.716 10.1551 137.022 10.9141C136.375 11.5709 135.865 12.3481 135.52 13.2015C135.175 14.0548 135.003 14.9673 135.014 15.8869C134.991 16.9521 135.216 18.0081 135.671 18.9724C136.127 19.9367 136.801 20.7829 137.64 21.4449C138.991 22.6033 140.719 23.2327 142.503 23.2154C143.534 23.2361 144.557 23.037 145.504 22.6315C146.451 22.226 147.3 21.6235 147.993 20.8645C148.642 20.2079 149.154 19.4301 149.5 18.5758C149.845 17.7215 150.018 16.8076 150.006 15.8869C150.029 14.822 149.803 13.7664 149.347 12.8029C148.89 11.8394 148.216 10.9942 147.376 10.3337ZM145.362 19.7954C144.866 20.1768 144.298 20.4548 143.691 20.613C143.085 20.7711 142.452 20.806 141.832 20.7157C141.211 20.6255 140.616 20.4118 140.08 20.0874C139.544 19.7631 139.08 19.3347 138.715 18.828C138.074 17.9733 137.732 16.9335 137.742 15.8675C137.723 15.1127 137.886 14.3643 138.218 13.6852C138.55 13.006 139.04 12.4157 139.648 11.9638C140.463 11.3242 141.475 10.9827 142.513 10.9964C143.255 10.9816 143.99 11.1507 144.65 11.4885C145.31 11.8263 145.876 12.3221 146.296 12.9313C146.936 13.7861 147.278 14.8258 147.269 15.8917C147.287 16.6464 147.123 17.3945 146.791 18.0736C146.46 18.7526 145.97 19.343 145.362 19.7954ZM23.3199 11.9832C24.0948 11.3428 25.0747 10.9996 26.0821 11.0157C27.8328 11.0351 29.1052 11.5639 29.8995 12.6024L32.1511 11.1947C30.7733 9.45972 28.7502 8.58256 26.0821 8.56321C25.0667 8.5457 24.0595 8.74672 23.1295 9.15249C22.1995 9.55826 21.3686 10.1592 20.6938 10.9141C19.4215 12.258 18.724 14.0411 18.7486 15.8869C18.7201 16.9527 18.9382 18.0107 19.3859 18.9794C19.8336 19.9481 20.4991 20.8016 21.3309 21.474C22.6444 22.6079 24.3283 23.227 26.0675 23.2154C28.6352 23.1896 30.6468 22.2528 32.1025 20.4049L29.919 19.0021C29.4473 19.5606 28.8576 20.0088 28.1919 20.3148C27.5261 20.6208 26.8008 20.7771 26.0675 20.7725C25.3287 20.7892 24.5983 20.6152 23.9472 20.2677C23.2961 19.9201 22.7466 19.4108 22.3521 18.7893C21.7665 17.9342 21.4577 16.9215 21.4671 15.8869C21.4392 15.1362 21.5929 14.3898 21.9153 13.7105C22.2378 13.0312 22.7194 12.4388 23.3199 11.9832ZM12.2759 10.266V9.78223V8.56323H15.0089V23.2202H12.2662V21.561C10.9131 22.6454 9.22829 23.2376 7.49068 23.2396C5.70725 23.2569 3.97852 22.6275 2.62766 21.4691C1.78841 20.8071 1.11461 19.9609 0.659029 18.9966C0.203443 18.0323 -0.0215645 16.9763 0.00162706 15.9111C-0.00890971 14.9915 0.163072 14.079 0.507716 13.2257C0.852359 12.3723 1.36289 11.5951 2.01005 10.9383C2.70345 10.1793 3.55221 9.57682 4.49923 9.17131C5.44625 8.76581 6.46958 8.56671 7.50041 8.58742C9.24025 8.57625 10.9294 9.16996 12.2759 10.266ZM8.69369 20.613C9.30025 20.4549 9.86856 20.1768 10.3647 19.7954C10.9723 19.343 11.4623 18.7526 11.7939 18.0736C12.1255 17.3945 12.2891 16.6465 12.271 15.8917C12.2802 14.8258 11.9386 13.7862 11.2984 12.9313C10.8785 12.3221 10.3128 11.8263 9.65241 11.4885C8.99197 11.1507 8.25747 10.9816 7.515 10.9964C6.47695 10.9827 5.46571 11.3243 4.65068 11.9639C4.04253 12.4157 3.55209 13.006 3.22042 13.6852C2.88875 14.3644 2.72551 15.1127 2.74437 15.8676C2.73486 16.9335 3.07646 17.9733 3.71698 18.828C4.08251 19.3348 4.54693 19.7631 5.08252 20.0874C5.61812 20.4118 6.21391 20.6255 6.83434 20.7158C7.45477 20.806 8.08714 20.7711 8.69369 20.613ZM111.234 10.3337C109.882 9.17645 108.154 8.54725 106.371 8.56321C105.34 8.54256 104.318 8.74171 103.372 9.14723C102.425 9.55276 101.578 10.1553 100.885 10.9141C100.236 11.57 99.7245 12.347 99.379 13.2004C99.0335 14.0539 98.8611 14.9669 98.8718 15.8869C98.8486 16.9521 99.0736 18.0081 99.5292 18.9724C99.9848 19.9367 100.659 20.7829 101.498 21.4449C102.849 22.6025 104.578 23.2318 106.361 23.2154C107.392 23.2361 108.415 23.037 109.362 22.6315C110.309 22.226 111.158 21.6235 111.851 20.8645C112.5 20.2079 113.012 19.43 113.358 18.5758C113.703 17.7215 113.876 16.8076 113.865 15.8869C113.887 14.822 113.661 13.7664 113.205 12.8029C112.748 11.8394 112.074 10.9942 111.234 10.3337ZM109.22 19.7954C108.724 20.1768 108.156 20.4548 107.549 20.613C106.943 20.7711 106.31 20.806 105.69 20.7157C105.069 20.6254 104.474 20.4118 103.938 20.0874C103.403 19.7631 102.938 19.3347 102.573 18.828C101.934 17.9723 101.593 16.9332 101.6 15.8675C101.586 15.1152 101.752 14.3703 102.085 13.6947C102.419 13.0191 102.909 12.4324 103.516 11.9832C104.012 11.6018 104.58 11.3238 105.187 11.1656C105.794 11.0075 106.426 10.9726 107.046 11.0629C107.667 11.1531 108.263 11.3668 108.798 11.6912C109.334 12.0155 109.798 12.4439 110.164 12.9506C110.802 13.8063 111.144 14.8454 111.136 15.9111C111.15 16.6634 110.984 17.4081 110.65 18.0836C110.317 18.7591 109.827 19.3459 109.22 19.7954ZM47.1535 10.3337C45.802 9.17645 44.0737 8.54725 42.2905 8.56321C41.2604 8.54256 40.2378 8.74171 39.2916 9.14723C38.3454 9.55276 37.4975 10.1553 36.805 10.9141C36.1563 11.57 35.6445 12.347 35.2989 13.2004C34.9534 14.0539 34.781 14.9669 34.7917 15.8869C34.7685 16.9521 34.9935 18.0081 35.4491 18.9724C35.9047 19.9367 36.5785 20.7829 37.4178 21.4449C38.7691 22.6025 40.4975 23.2318 42.2808 23.2154C43.3116 23.2361 44.3349 23.037 45.282 22.6315C46.229 22.226 47.0777 21.6235 47.7711 20.8645C48.4202 20.2079 48.9323 19.43 49.2778 18.5758C49.6233 17.7215 49.7955 16.8076 49.7844 15.8869C49.807 14.822 49.5813 13.7664 49.1248 12.8029C48.6683 11.8394 47.9936 10.9942 47.1535 10.3337ZM45.1597 19.7954C44.6635 20.1768 44.0952 20.4548 43.4887 20.613C42.8821 20.7711 42.2497 20.806 41.6293 20.7157C41.0089 20.6254 40.4131 20.4118 39.8775 20.0874C39.3419 19.7631 38.8775 19.3347 38.5119 18.828C37.8733 17.9723 37.532 16.9332 37.5393 15.8675C37.5214 15.1123 37.6856 14.3639 38.0181 13.6847C38.3506 13.0055 38.8418 12.4155 39.4505 11.9638C39.9467 11.5825 40.515 11.3044 41.1215 11.1463C41.7281 10.9882 42.3605 10.9532 42.9809 11.0435C43.6013 11.1338 44.1971 11.3475 44.7327 11.6718C45.2683 11.9962 45.7327 12.4245 46.0983 12.9313C46.7369 13.787 47.0782 14.8261 47.0709 15.8917C47.0884 16.6468 46.924 17.3952 46.5916 18.0743C46.2591 18.7534 45.7681 19.3435 45.1597 19.7954Z" fill="#3CC1DD"/>
<path d="M91.7424 8.29234L85.9456 3.38732L82.3713 0.373688C82.1136 0.133594 81.7737 0 81.4206 0C81.0675 0 80.7276 0.133594 80.4699 0.373688L76.2342 3.92426C74.9114 5.03201 76.8226 6.91371 78.1356 5.81565L81.4182 3.06323L92.9387 12.7717V20.5114H81.6905V16.448C81.6905 15.2242 82.1136 12.5782 81.2042 11.6107C80.0872 10.5128 78.9153 9.47146 77.6931 8.49067L72.1979 3.605L68.7062 0.484947C68.4479 0.245917 68.1083 0.113038 67.7555 0.113038C67.4027 0.113038 67.063 0.245917 66.8048 0.484947L58.0513 7.65866C56.5924 8.84863 55.08 9.99991 53.6746 11.2431C52.6436 12.1477 52.9597 13.623 52.9597 14.8904V21.8658C52.9648 22.2183 53.1078 22.555 53.3584 22.8043C53.609 23.0536 53.9475 23.1959 54.3019 23.2009H67.967C68.3211 23.1947 68.6588 23.052 68.9092 22.803C69.1596 22.5539 69.303 22.2179 69.3092 21.8658V12.9748L72.4896 10.3675C73.8221 9.27431 71.9158 7.3926 70.5882 8.47616L67.5002 11.0157C66.6394 11.722 66.6248 12.3944 66.6248 13.4344V20.5259H55.6101V13.0619L67.7142 3.17448L79.0061 13.2167V21.8658C79.0111 22.2183 79.1542 22.555 79.4048 22.8043C79.6554 23.0536 79.9939 23.1959 80.3483 23.2009H94.276C94.63 23.1947 94.9678 23.052 95.2182 22.803C95.4685 22.5539 95.612 22.2179 95.6182 21.8658V12.762C95.6572 12.4838 95.638 12.2005 95.5618 11.93C95.4857 11.6595 95.3542 11.4075 95.1757 11.1899C94.1982 10.116 92.856 9.23078 91.7424 8.29234Z" fill="#904727"/>
</svg>
