<svg width="250" height="74" viewBox="0 0 250 74" fill="none" xmlns="http://www.w3.org/2000/svg">
<path d="M41.587 61.0816V54.3963H44.1067C45.5698 54.3963 46.6467 54.6605 47.297 55.1685C47.9472 55.6765 48.2723 56.5299 48.2723 57.7491C48.2723 58.9683 47.9472 59.8217 47.297 60.3297C46.6467 60.8377 45.5698 61.0816 44.1067 61.0816H41.587ZM41.2416 67.0557C41.4651 67.0557 41.587 66.9541 41.587 66.7102V62.6869H44.1067C46.159 62.6869 47.6627 62.3008 48.6178 61.5286C49.5728 60.7565 50.0605 59.4966 50.0605 57.7491C50.0605 56.0016 49.5728 54.7417 48.6178 53.9696C47.6627 53.1974 46.159 52.791 44.1067 52.791H40.1646C39.9411 52.791 39.8395 52.9129 39.8395 53.1365V66.7102C39.8395 66.9541 39.9411 67.0557 40.185 67.0557H41.2416ZM61.0799 60.3297V54.3963H63.7825C65.2049 54.3963 66.2412 54.6401 66.8711 55.1075C67.5011 55.5749 67.8262 56.3267 67.8262 57.3833C67.8262 58.4197 67.5011 59.1715 66.8915 59.6389C66.2819 60.1062 65.2252 60.3297 63.7419 60.3297H61.0799ZM59.6779 52.791C59.434 52.791 59.3324 52.9129 59.3324 53.1161V66.7102C59.3324 66.9541 59.434 67.0557 59.6779 67.0557H60.7345C60.958 67.0557 61.0799 66.9541 61.0799 66.7102V61.935H63.559L67.6636 66.7915C67.8059 66.9744 67.9684 67.0557 68.1716 67.0557H69.4111C69.5534 67.0557 69.6347 67.015 69.6753 66.9134C69.7159 66.8321 69.6956 66.7305 69.6143 66.6086L65.4691 61.7521C68.2123 61.427 69.594 59.9843 69.594 57.3833C69.594 55.839 69.1267 54.6808 68.1919 53.9289C67.2572 53.1771 65.7942 52.791 63.8231 52.791H59.6779ZM84.093 52.5675C82.1016 52.5675 80.5979 53.2177 79.5413 54.4776C78.4847 55.7577 77.9563 57.5662 77.9563 59.9233C77.9563 62.2805 78.4847 64.1093 79.5413 65.3691C80.5979 66.6289 82.1016 67.2589 84.0727 67.2589C86.064 67.2589 87.588 66.6289 88.6447 65.3691C89.7013 64.1093 90.2296 62.2805 90.2296 59.9233C90.2296 57.5662 89.7013 55.7577 88.6447 54.4776C87.588 53.2177 86.064 52.5675 84.093 52.5675ZM84.093 65.6739C82.6299 65.6739 81.553 65.1862 80.8215 64.2109C80.0899 63.2355 79.7445 61.7928 79.7445 59.9233C79.7445 58.0539 80.0899 56.6315 80.8215 55.6358C81.553 54.6605 82.6299 54.1525 84.093 54.1525C85.5357 54.1525 86.6127 54.6605 87.3442 55.6358C88.0757 56.6315 88.4415 58.0539 88.4415 59.9233C88.4415 61.7928 88.0757 63.2355 87.3442 64.2109C86.6127 65.1862 85.5357 65.6739 84.093 65.6739ZM101.117 61.0816V54.3963H103.637C105.1 54.3963 106.177 54.6605 106.827 55.1685C107.478 55.6765 107.803 56.5299 107.803 57.7491C107.803 58.9683 107.478 59.8217 106.827 60.3297C106.177 60.8377 105.1 61.0816 103.637 61.0816H101.117ZM100.772 67.0557C100.996 67.0557 101.117 66.9541 101.117 66.7102V62.6869H103.637C105.689 62.6869 107.193 62.3008 108.148 61.5286C109.103 60.7565 109.591 59.4966 109.591 57.7491C109.591 56.0016 109.103 54.7417 108.148 53.9696C107.193 53.1974 105.689 52.791 103.637 52.791H99.6951C99.4716 52.791 99.37 52.9129 99.37 53.1365V66.7102C99.37 66.9541 99.4716 67.0557 99.7154 67.0557H100.772ZM126.625 60.5329C126.828 60.5329 126.95 60.4313 126.95 60.1875V59.3341C126.95 59.1105 126.828 58.9886 126.625 58.9886H120.59V54.3963H126.849C127.072 54.3963 127.194 54.2947 127.194 54.0509V53.1161C127.194 52.9129 127.072 52.791 126.849 52.791H119.188C118.964 52.791 118.863 52.9129 118.863 53.1161V66.7102C118.863 66.9541 118.964 67.0557 119.208 67.0557H126.91C127.133 67.0557 127.255 66.9337 127.255 66.6899V65.7755C127.255 65.5723 127.133 65.4504 126.91 65.4504H120.59V60.5329H126.625ZM138.059 60.3297V54.3963H140.762C142.184 54.3963 143.221 54.6401 143.851 55.1075C144.481 55.5749 144.806 56.3267 144.806 57.3833C144.806 58.4197 144.481 59.1715 143.871 59.6389C143.261 60.1062 142.205 60.3297 140.721 60.3297H138.059ZM136.657 52.791C136.413 52.791 136.312 52.9129 136.312 53.1161V66.7102C136.312 66.9541 136.413 67.0557 136.657 67.0557H137.714C137.937 67.0557 138.059 66.9541 138.059 66.7102V61.935H140.538L144.643 66.7915C144.785 66.9744 144.948 67.0557 145.151 67.0557H146.391C146.533 67.0557 146.614 67.015 146.655 66.9134C146.695 66.8321 146.675 66.7305 146.594 66.6086L142.449 61.7521C145.192 61.427 146.573 59.9843 146.573 57.3833C146.573 55.839 146.106 54.6808 145.171 53.9289C144.237 53.1771 142.774 52.791 140.803 52.791H136.657ZM154.388 54.0712C154.388 54.315 154.49 54.4166 154.734 54.4166H158.472V66.7102C158.472 66.9541 158.574 67.0557 158.818 67.0557H159.875C160.098 67.0557 160.22 66.9541 160.22 66.7102V54.4166H163.959C164.182 54.4166 164.304 54.315 164.304 54.0712V53.1161C164.304 52.9129 164.182 52.791 163.959 52.791H154.713C154.49 52.791 154.388 52.9129 154.388 53.1161V54.0712ZM173.079 66.7102C173.079 66.9541 173.18 67.0557 173.404 67.0557H174.481C174.704 67.0557 174.826 66.9541 174.826 66.7102V53.1161C174.826 52.9129 174.704 52.791 174.481 52.791H173.404C173.18 52.791 173.079 52.9129 173.079 53.1161V66.7102ZM192.552 60.5329C192.755 60.5329 192.877 60.4313 192.877 60.1875V59.3341C192.877 59.1105 192.755 58.9886 192.552 58.9886H186.517V54.3963H192.775C192.999 54.3963 193.121 54.2947 193.121 54.0509V53.1161C193.121 52.9129 192.999 52.791 192.775 52.791H185.114C184.891 52.791 184.789 52.9129 184.789 53.1161V66.7102C184.789 66.9541 184.891 67.0557 185.135 67.0557H192.836C193.06 67.0557 193.182 66.9337 193.182 66.6899V65.7755C193.182 65.5723 193.06 65.4504 192.836 65.4504H186.517V60.5329H192.552ZM210.935 63.4184C210.935 62.9917 210.874 62.6056 210.793 62.2601C210.692 61.9147 210.529 61.5896 210.285 61.3051C210.041 61.0206 209.818 60.7768 209.635 60.5939C209.432 60.411 209.127 60.2078 208.68 59.964C208.233 59.7405 207.928 59.5779 207.725 59.4966C207.522 59.4153 207.156 59.2528 206.628 59.0089C206.506 58.9683 206.302 58.8667 206.018 58.7448C205.713 58.6229 205.51 58.5416 205.388 58.5009C205.266 58.4603 205.104 58.379 204.88 58.2571C204.636 58.1352 204.474 58.0336 204.372 57.9523C204.27 57.871 204.148 57.7694 204.006 57.6475C203.844 57.5256 203.742 57.3833 203.681 57.2614C203.62 57.1395 203.559 56.9973 203.519 56.8144C203.458 56.6518 203.437 56.4689 203.437 56.2657C203.437 55.5749 203.681 55.0465 204.209 54.6808C204.738 54.3353 205.571 54.1525 206.709 54.1525C207.847 54.1525 208.802 54.315 209.594 54.6198C209.797 54.7011 209.94 54.6401 210.021 54.4369L210.346 53.5429C210.387 53.3803 210.305 53.2381 210.102 53.1568C209.168 52.7707 207.989 52.5675 206.587 52.5675C204.921 52.5675 203.701 52.8926 202.889 53.5429C202.076 54.1931 201.69 55.0872 201.69 56.2657C201.69 56.6315 201.73 56.9566 201.812 57.2614C201.893 57.5662 201.974 57.8304 202.096 58.0539C202.218 58.2774 202.381 58.5009 202.624 58.7041C202.848 58.9277 203.051 59.1105 203.234 59.2325C203.397 59.3747 203.661 59.5169 204.006 59.6795C204.331 59.8421 204.616 59.9843 204.819 60.0656C205.022 60.1469 205.327 60.2688 205.733 60.4313C206.201 60.6345 206.506 60.7565 206.648 60.8174C206.77 60.8784 207.034 61.0003 207.4 61.1629C207.765 61.3254 208.03 61.4677 208.172 61.5896C208.294 61.7115 208.477 61.8537 208.68 62.0569C208.883 62.2601 209.005 62.4633 209.086 62.6665C209.147 62.8901 209.188 63.1339 209.188 63.3777C209.188 64.1093 208.863 64.6782 208.212 65.0643C207.562 65.4707 206.688 65.6536 205.571 65.6536C204.23 65.6536 203.072 65.4707 202.096 65.0643C201.873 64.983 201.73 65.044 201.69 65.2675L201.365 66.1819C201.324 66.3445 201.405 66.4867 201.629 66.568C202.543 67.015 203.884 67.2182 205.632 67.2182C207.278 67.2182 208.578 66.8931 209.513 66.2429C210.448 65.5926 210.935 64.6579 210.935 63.4184Z" fill="white"/>
<path d="M38.8347 20.0442C40.1237 18.9628 41.7587 18.3811 43.4411 18.4055C46.3533 18.4055 48.4793 19.3245 49.797 21.063L53.5508 18.7044C51.2329 15.8107 47.863 14.3343 43.4411 14.2752C41.7485 14.2458 40.0696 14.5829 38.5196 15.2633C36.9695 15.9438 35.5849 16.9514 34.4609 18.2172C32.3373 20.4695 31.1737 23.4599 31.2165 26.5552C31.1721 28.3413 31.5384 30.1138 32.2871 31.736C33.0358 33.3582 34.147 34.7869 35.535 35.9119C37.7309 37.8078 40.5401 38.8426 43.4411 38.8241C45.37 38.8924 47.2875 38.5013 49.0356 37.6831C50.7837 36.8649 52.3123 35.643 53.4954 34.1181L49.8524 31.7706C49.0667 32.705 48.085 33.4552 46.9771 33.968C45.8691 34.4809 44.662 34.7438 43.4411 34.7382C42.2086 34.7678 40.9894 34.4773 39.9025 33.8951C38.8157 33.3128 37.8985 32.4588 37.2402 31.4163C36.2665 29.9875 35.7526 28.2953 35.7675 26.5663C35.7163 25.3094 35.9682 24.0587 36.502 22.9197C37.0359 21.7807 37.836 20.7868 38.8347 20.0221" fill="white"/>
<path d="M245.558 17.2766C243.302 15.3349 240.417 14.2801 237.441 14.3091C235.724 14.2746 234.018 14.6087 232.441 15.2887C230.863 15.9686 229.449 16.9788 228.295 18.2511C227.219 19.3532 226.371 20.6573 225.801 22.0883C225.231 23.5193 224.95 25.0489 224.973 26.589C224.938 28.377 225.319 30.1486 226.088 31.7632C226.857 33.3778 227.992 34.7909 229.402 35.8904C231.657 37.841 234.549 38.8968 237.53 38.858C239.246 38.8923 240.951 38.5594 242.528 37.8814C244.105 37.2035 245.52 36.1962 246.676 34.927C247.751 33.8238 248.597 32.5195 249.167 31.0888C249.737 29.6581 250.02 28.129 249.998 26.589C250.031 24.7999 249.648 23.0276 248.879 21.4116C248.111 19.7956 246.977 18.3801 245.569 17.2766H245.558ZM242.247 33.1332C240.888 34.205 239.205 34.7829 237.474 34.772C236.238 34.7981 235.015 34.5174 233.913 33.9551C232.812 33.3928 231.867 32.5664 231.163 31.5498C230.089 30.1192 229.51 28.3779 229.513 26.589C229.482 25.3227 229.756 24.0674 230.311 22.9287C230.866 21.79 231.686 20.801 232.702 20.0449C233.525 19.401 234.469 18.9301 235.479 18.6605C236.488 18.3909 237.542 18.3282 238.576 18.4761C239.61 18.624 240.604 18.9795 241.497 19.5212C242.391 20.0629 243.166 20.7796 243.775 21.6283C244.855 23.0559 245.435 24.7992 245.425 26.589C245.454 27.854 245.181 29.1077 244.628 30.2459C244.076 31.3841 243.259 32.374 242.247 33.1332" fill="white"/>
<path d="M20.4206 16.3576V17.1216C18.1795 15.2858 15.3672 14.2909 12.4702 14.3091C10.7525 14.2746 9.04746 14.6087 7.46975 15.2887C5.89205 15.9686 4.47833 16.9788 3.32385 18.2511C2.24778 19.3532 1.4003 20.6573 0.830192 22.0883C0.260083 23.5193 -0.0214019 25.0489 0.00194515 26.589C-0.0308801 28.3766 0.352147 30.1473 1.12081 31.7615C1.88946 33.3757 3.02272 34.7892 4.43116 35.8904C6.68588 37.841 9.57768 38.8968 12.5588 38.858C15.4527 38.8578 18.259 37.865 20.5092 36.0454V38.858H25.0602V14.3091H20.5092L20.4206 16.3576ZM17.2427 33.1332C15.8846 34.2065 14.2011 34.7847 12.4702 34.772C11.2338 34.7981 10.0103 34.5174 8.9089 33.9551C7.8075 33.3928 6.86256 32.5664 6.15855 31.5498C5.08782 30.1182 4.51256 28.3767 4.51976 26.589C4.48683 25.3235 4.75828 24.0685 5.31131 22.9297C5.86433 21.7909 6.68275 20.8016 7.69772 20.0449C8.52055 19.401 9.46508 18.9301 10.4745 18.6605C11.484 18.3909 12.5375 18.3282 13.5718 18.4761C14.6061 18.624 15.5998 18.9795 16.4933 19.5212C17.3867 20.0629 18.1614 20.7796 18.7707 21.6283C19.8429 23.0592 20.4184 24.8011 20.4096 26.589C20.4407 27.8543 20.1684 29.1086 19.6155 30.2472C19.0626 31.3857 18.2452 32.3753 17.2316 33.1332" fill="white"/>
<path d="M185.342 17.2763C183.082 15.3347 180.194 14.2802 177.215 14.3088C175.497 14.2765 173.793 14.6115 172.215 15.2914C170.638 15.9712 169.224 16.9802 168.068 18.2508C166.992 19.3529 166.145 20.657 165.575 22.088C165.004 23.519 164.723 25.0486 164.746 26.5888C164.712 28.3766 165.094 30.1479 165.863 31.7623C166.632 33.3768 167.766 34.7901 169.176 35.8901C171.427 37.8381 174.315 38.8938 177.292 38.8577C179.01 38.8929 180.716 38.5604 182.296 37.8824C183.875 37.2045 185.291 36.1967 186.449 34.9267C188.617 32.6966 189.811 29.6982 189.771 26.5888C189.805 24.7995 189.422 23.0269 188.654 21.4108C187.885 19.7947 186.751 18.3793 185.342 17.2763V17.2763ZM182.02 33.1329C180.663 34.2078 178.979 34.7861 177.248 34.7717C176.013 34.7969 174.791 34.5158 173.692 33.9535C172.592 33.3912 171.649 32.5653 170.947 31.5495C169.869 30.1212 169.289 28.3784 169.297 26.5888C169.267 25.3236 169.54 24.0696 170.093 22.9313C170.645 21.7929 171.462 20.8032 172.475 20.0446C173.298 19.4007 174.243 18.9298 175.252 18.6602C176.261 18.3906 177.315 18.3279 178.349 18.4758C179.384 18.6237 180.377 18.9792 181.271 19.5209C182.164 20.0626 182.939 20.7794 183.548 21.6281C184.624 23.0579 185.203 24.7997 185.198 26.5888C185.227 27.8548 184.953 29.1095 184.398 30.2479C183.843 31.3863 183.024 32.3755 182.009 33.1329" fill="white"/>
<path d="M214.155 4.08856V17.1215C211.91 15.2849 209.094 14.2901 206.193 14.3089C204.476 14.2767 202.771 14.6117 201.194 15.2916C199.617 15.9714 198.203 16.9804 197.047 18.2509C195.97 19.3527 195.122 20.6568 194.552 22.0878C193.982 23.5189 193.701 25.0487 193.725 26.5889C193.69 28.3769 194.071 30.1485 194.84 31.7631C195.609 33.3777 196.744 34.7908 198.154 35.8903C200.406 37.8383 203.293 38.894 206.271 38.8579C209.168 38.8584 211.978 37.8657 214.232 36.0453V38.8579H218.772V2.04004H214.232L214.155 4.08856ZM210.966 33.1331C209.608 34.208 207.924 34.7863 206.193 34.7719C204.958 34.7971 203.737 34.516 202.637 33.9537C201.538 33.3914 200.595 32.5655 199.893 31.5497C198.819 30.1191 198.24 28.3778 198.243 26.5889C198.213 25.3238 198.485 24.0698 199.038 22.9314C199.591 21.7931 200.408 20.8033 201.421 20.0448C202.777 18.9682 204.462 18.3898 206.193 18.406C207.43 18.3789 208.654 18.6591 209.755 19.2215C210.857 19.7839 211.801 20.6109 212.505 21.6282C213.58 23.0581 214.159 24.7998 214.155 26.5889C214.184 27.855 213.909 29.1097 213.354 30.2481C212.8 31.3865 211.981 32.3757 210.966 33.1331" fill="white"/>
<path d="M78.5537 17.2765C76.2938 15.3349 73.4055 14.2803 70.4262 14.309C68.7086 14.2753 67.0037 14.6096 65.4261 15.2896C63.8485 15.9695 62.4347 16.9792 61.2798 18.251C60.2037 19.3531 59.3562 20.6572 58.7861 22.0882C58.216 23.5192 57.9345 25.0488 57.9579 26.5889C57.9185 28.3719 58.293 30.1397 59.0519 31.7536C59.8108 33.3674 60.9335 34.7834 62.3318 35.8903C64.5865 37.8409 67.4783 38.8967 70.4594 38.8579C72.1761 38.893 73.8804 38.5603 75.458 37.8823C77.0355 37.2043 78.4497 36.1966 79.6057 34.9269C80.6803 33.8237 81.5268 32.5194 82.0968 31.0887C82.6668 29.658 82.9491 28.1289 82.9276 26.5889C82.9587 24.8001 82.575 23.0283 81.8065 21.4126C81.038 19.7969 79.9058 18.3812 78.4984 17.2765H78.5537ZM75.1765 33.1331C73.8184 34.2065 72.1349 34.7846 70.404 34.7719C69.1677 34.798 67.9441 34.5173 66.8427 33.955C65.7413 33.3927 64.7964 32.5663 64.0924 31.5497C63.0216 30.1181 62.4464 28.3766 62.4536 26.5889C62.4206 25.3234 62.6921 24.0684 63.2451 22.9296C63.7981 21.7908 64.6166 20.8015 65.6315 20.0448C66.4544 19.4009 67.3989 18.93 68.4083 18.6604C69.4177 18.3908 70.4713 18.3281 71.5056 18.476C72.5399 18.6239 73.5336 18.9794 74.427 19.5211C75.3205 20.0628 76.0952 20.7795 76.7046 21.6282C77.7767 23.0591 78.3522 24.801 78.3433 26.5889C78.3744 27.8542 78.1022 29.1085 77.5493 30.2471C76.9964 31.3856 76.179 32.3752 75.1654 33.1331" fill="white"/>
<path d="M152.865 13.8658L143.198 5.67175L137.241 0.622453C136.811 0.222399 136.245 0 135.658 0C135.07 0 134.504 0.222399 134.074 0.622453L127.076 6.57975C124.861 8.42895 128.05 11.5847 130.243 9.73554L135.713 5.12915L154.914 21.3954V34.362H136.112V27.4967C136.112 25.4482 136.809 21.0522 135.314 19.4023C133.455 17.5622 131.504 15.8178 129.468 14.1758L120.31 5.99288L114.464 0.777457C114.037 0.375711 113.472 0.152031 112.886 0.152031C112.299 0.152031 111.735 0.375711 111.308 0.777457L96.6694 12.7917C94.2444 14.7848 91.7198 16.7116 89.3612 18.7933C87.6449 20.3103 88.1764 22.7796 88.1764 24.9056V36.5987C88.1764 37.1861 88.4097 37.7494 88.8251 38.1647C89.2404 38.58 89.8036 38.8133 90.391 38.8133H113.157C113.744 38.8133 114.308 38.58 114.723 38.1647C115.138 37.7494 115.372 37.1861 115.372 36.5987V21.7055L120.676 17.3317C122.89 15.5046 119.712 12.3488 117.509 14.1758L112.36 18.4168C110.92 19.6016 110.898 20.7311 110.898 22.4806V34.362H92.6499V21.8605L112.814 5.25097L131.638 22.0598V36.5544C131.638 37.1418 131.871 37.7051 132.287 38.1204C132.702 38.5357 133.265 38.769 133.853 38.769H157.106C157.689 38.755 158.244 38.5172 158.656 38.1048C159.069 37.6925 159.307 37.1373 159.321 36.5544V21.3401C159.386 20.8734 159.354 20.3981 159.227 19.9444C159.099 19.4907 158.878 19.0685 158.579 18.7047C156.776 16.9669 154.864 15.3469 152.854 13.8547" fill="white"/>
</svg>
