<svg width="260" height="76" viewBox="0 0 260 76" fill="none" xmlns="http://www.w3.org/2000/svg">
<path d="M142.129 60.3297V54.3963H144.832C146.254 54.3963 147.291 54.6401 147.92 55.1075C148.55 55.5749 148.875 56.3267 148.875 57.3833C148.875 58.4197 148.55 59.1715 147.941 59.6389C147.331 60.1062 146.275 60.3297 144.791 60.3297H142.129ZM140.727 52.791C140.483 52.791 140.382 52.9129 140.382 53.1161V66.7102C140.382 66.9541 140.483 67.0557 140.727 67.0557H141.784C142.007 67.0557 142.129 66.9541 142.129 66.7102V61.935H144.608L148.713 66.7915C148.855 66.9744 149.018 67.0557 149.221 67.0557H150.46C150.603 67.0557 150.684 67.015 150.725 66.9134C150.765 66.8321 150.745 66.7305 150.664 66.6086L146.518 61.7521C149.262 61.427 150.643 59.9843 150.643 57.3833C150.643 55.839 150.176 54.6808 149.241 53.9289C148.307 53.1771 146.843 52.791 144.872 52.791H140.727ZM167.597 60.5329C167.8 60.5329 167.922 60.4313 167.922 60.1875V59.3341C167.922 59.1105 167.8 58.9886 167.597 58.9886H161.562V54.3963H167.821C168.044 54.3963 168.166 54.2947 168.166 54.0509V53.1161C168.166 52.9129 168.044 52.791 167.821 52.791H160.16C159.937 52.791 159.835 52.9129 159.835 53.1161V66.7102C159.835 66.9541 159.937 67.0557 160.18 67.0557H167.882C168.105 67.0557 168.227 66.9337 168.227 66.6899V65.7755C168.227 65.5723 168.105 65.4504 167.882 65.4504H161.562V60.5329H167.597ZM188.094 53.0958C188.094 52.8926 187.972 52.791 187.749 52.791H186.712C186.489 52.791 186.387 52.9129 186.387 53.1161V64.1499L179.214 53.0349C179.092 52.8723 178.93 52.791 178.727 52.791H177.629C177.386 52.791 177.284 52.9129 177.284 53.1161V66.7102C177.284 66.9541 177.386 67.0557 177.629 67.0557H178.666C178.869 67.0557 178.991 66.9541 178.991 66.7102V55.6968L186.164 66.7915C186.286 66.9744 186.428 67.0557 186.631 67.0557H187.749C187.972 67.0557 188.094 66.9541 188.094 66.7102V53.0958ZM196.729 54.0712C196.729 54.315 196.831 54.4166 197.075 54.4166H200.814V66.7102C200.814 66.9541 200.915 67.0557 201.159 67.0557H202.216C202.439 67.0557 202.561 66.9541 202.561 66.7102V54.4166H206.3C206.524 54.4166 206.646 54.315 206.646 54.0712V53.1161C206.646 52.9129 206.524 52.791 206.3 52.791H197.055C196.831 52.791 196.729 52.9129 196.729 53.1161V54.0712ZM215.949 61.7725L218.51 54.5385H218.55L221.09 61.7725H215.949ZM217.839 52.791C217.616 52.791 217.473 52.9129 217.392 53.1365L212.292 66.7102C212.251 66.8118 212.272 66.8931 212.312 66.9541C212.353 67.0353 212.434 67.0557 212.556 67.0557H213.755C213.917 67.0557 214.039 66.9541 214.121 66.7509L215.401 63.3574H221.639L222.919 66.7509C223 66.9541 223.122 67.0557 223.305 67.0557H224.484C224.585 67.0557 224.667 67.0353 224.707 66.9541C224.748 66.8931 224.768 66.8118 224.748 66.7102L219.648 53.1365C219.566 52.9129 219.404 52.791 219.201 52.791H217.839ZM235.069 53.1161C235.069 52.9129 234.948 52.791 234.724 52.791H233.667C233.424 52.791 233.322 52.9129 233.322 53.1161V66.7102C233.322 66.9541 233.424 67.0557 233.667 67.0557H241.226C241.45 67.0557 241.572 66.9541 241.572 66.7102V65.7349C241.572 65.5317 241.45 65.4301 241.226 65.4301H235.069V53.1161ZM259.15 63.4184C259.15 62.9917 259.089 62.6056 259.008 62.2601C258.907 61.9147 258.744 61.5896 258.5 61.3051C258.256 61.0206 258.033 60.7768 257.85 60.5939C257.647 60.411 257.342 60.2078 256.895 59.964C256.448 59.7405 256.143 59.5779 255.94 59.4966C255.737 59.4153 255.371 59.2528 254.843 59.0089C254.721 58.9683 254.517 58.8667 254.233 58.7448C253.928 58.6229 253.725 58.5416 253.603 58.5009C253.481 58.4603 253.319 58.379 253.095 58.2571C252.851 58.1352 252.689 58.0336 252.587 57.9523C252.485 57.871 252.364 57.7694 252.221 57.6475C252.059 57.5256 251.957 57.3833 251.896 57.2614C251.835 57.1395 251.774 56.9973 251.734 56.8144C251.673 56.6518 251.652 56.4689 251.652 56.2657C251.652 55.5749 251.896 55.0465 252.424 54.6808C252.953 54.3353 253.786 54.1525 254.924 54.1525C256.062 54.1525 257.017 54.315 257.809 54.6198C258.012 54.7011 258.155 54.6401 258.236 54.4369L258.561 53.5429C258.602 53.3803 258.52 53.2381 258.317 53.1568C257.383 52.7707 256.204 52.5675 254.802 52.5675C253.136 52.5675 251.916 52.8926 251.104 53.5429C250.291 54.1931 249.905 55.0872 249.905 56.2657C249.905 56.6315 249.945 56.9566 250.027 57.2614C250.108 57.5662 250.189 57.8304 250.311 58.0539C250.433 58.2774 250.596 58.5009 250.84 58.7041C251.063 58.9277 251.266 59.1105 251.449 59.2325C251.612 59.3747 251.876 59.5169 252.221 59.6795C252.546 59.8421 252.831 59.9843 253.034 60.0656C253.237 60.1469 253.542 60.2688 253.948 60.4313C254.416 60.6345 254.721 60.7565 254.863 60.8174C254.985 60.8784 255.249 61.0003 255.615 61.1629C255.98 61.3254 256.245 61.4677 256.387 61.5896C256.509 61.7115 256.692 61.8537 256.895 62.0569C257.098 62.2601 257.22 62.4633 257.301 62.6665C257.362 62.8901 257.403 63.1339 257.403 63.3777C257.403 64.1093 257.078 64.6782 256.428 65.0643C255.777 65.4707 254.904 65.6536 253.786 65.6536C252.445 65.6536 251.287 65.4707 250.311 65.0643C250.088 64.983 249.945 65.044 249.905 65.2675L249.58 66.1819C249.539 66.3445 249.62 66.4867 249.844 66.568C250.758 67.015 252.099 67.2182 253.847 67.2182C255.493 67.2182 256.793 66.8931 257.728 66.2429C258.663 65.5926 259.15 64.6579 259.15 63.4184Z" fill="#606060"/>
<path d="M38.8347 20.0442C40.1237 18.9628 41.7587 18.3811 43.4411 18.4055C46.3533 18.4055 48.4793 19.3245 49.797 21.063L53.5508 18.7044C51.2329 15.8107 47.863 14.3343 43.4411 14.2752C41.7485 14.2458 40.0696 14.5829 38.5196 15.2633C36.9695 15.9438 35.5849 16.9514 34.4609 18.2172C32.3373 20.4695 31.1737 23.4599 31.2165 26.5552C31.1721 28.3413 31.5384 30.1138 32.2871 31.736C33.0358 33.3582 34.147 34.7869 35.535 35.9119C37.7309 37.8078 40.5401 38.8426 43.4411 38.8241C45.37 38.8924 47.2875 38.5013 49.0356 37.6831C50.7837 36.8649 52.3123 35.643 53.4954 34.1181L49.8524 31.7706C49.0667 32.705 48.085 33.4552 46.9771 33.968C45.8691 34.4809 44.662 34.7438 43.4411 34.7382C42.2086 34.7678 40.9894 34.4773 39.9025 33.8951C38.8157 33.3128 37.8985 32.4588 37.2402 31.4163C36.2665 29.9875 35.7526 28.2953 35.7675 26.5663C35.7163 25.3094 35.9682 24.0587 36.502 22.9197C37.0359 21.7807 37.836 20.7868 38.8347 20.0221" fill="#FF974F"/>
<path d="M245.558 17.2766C243.302 15.3349 240.417 14.2801 237.441 14.3091C235.724 14.2746 234.018 14.6087 232.441 15.2887C230.863 15.9686 229.449 16.9788 228.295 18.2511C227.219 19.3532 226.371 20.6573 225.801 22.0883C225.231 23.5193 224.95 25.0489 224.973 26.589C224.938 28.377 225.319 30.1486 226.088 31.7632C226.857 33.3778 227.992 34.7909 229.402 35.8904C231.657 37.841 234.549 38.8968 237.53 38.858C239.246 38.8923 240.951 38.5594 242.528 37.8814C244.105 37.2035 245.52 36.1962 246.676 34.927C247.751 33.8238 248.597 32.5195 249.167 31.0888C249.737 29.6581 250.02 28.129 249.998 26.589C250.031 24.7999 249.648 23.0276 248.879 21.4116C248.111 19.7956 246.977 18.3801 245.569 17.2766H245.558ZM242.247 33.1332C240.888 34.205 239.205 34.7829 237.474 34.772C236.238 34.7981 235.015 34.5174 233.913 33.9551C232.812 33.3928 231.867 32.5664 231.163 31.5498C230.089 30.1192 229.51 28.3779 229.513 26.589C229.482 25.3227 229.756 24.0674 230.311 22.9287C230.866 21.79 231.686 20.801 232.702 20.0449C233.525 19.401 234.469 18.9301 235.479 18.6605C236.488 18.3909 237.542 18.3282 238.576 18.4761C239.61 18.624 240.604 18.9795 241.497 19.5212C242.391 20.0629 243.166 20.7796 243.775 21.6283C244.855 23.0559 245.435 24.7992 245.425 26.589C245.454 27.854 245.181 29.1077 244.628 30.2459C244.076 31.3841 243.259 32.374 242.247 33.1332" fill="#FF974F"/>
<path d="M20.4206 16.3576V17.1216C18.1795 15.2858 15.3672 14.2909 12.4702 14.3091C10.7525 14.2746 9.04746 14.6087 7.46975 15.2887C5.89205 15.9686 4.47833 16.9788 3.32385 18.2511C2.24778 19.3532 1.4003 20.6573 0.830192 22.0883C0.260083 23.5193 -0.0214019 25.0489 0.00194515 26.589C-0.0308801 28.3766 0.352147 30.1473 1.12081 31.7615C1.88946 33.3757 3.02272 34.7892 4.43116 35.8904C6.68588 37.841 9.57768 38.8968 12.5588 38.858C15.4527 38.8578 18.259 37.865 20.5092 36.0454V38.858H25.0602V14.3091H20.5092L20.4206 16.3576ZM17.2427 33.1332C15.8846 34.2065 14.2011 34.7847 12.4702 34.772C11.2338 34.7981 10.0103 34.5174 8.9089 33.9551C7.8075 33.3928 6.86256 32.5664 6.15855 31.5498C5.08782 30.1182 4.51256 28.3767 4.51976 26.589C4.48683 25.3235 4.75828 24.0685 5.31131 22.9297C5.86433 21.7909 6.68275 20.8016 7.69772 20.0449C8.52055 19.401 9.46508 18.9301 10.4745 18.6605C11.484 18.3909 12.5375 18.3282 13.5718 18.4761C14.6061 18.624 15.5998 18.9795 16.4933 19.5212C17.3867 20.0629 18.1614 20.7796 18.7707 21.6283C19.8429 23.0592 20.4184 24.8011 20.4096 26.589C20.4407 27.8543 20.1684 29.1086 19.6155 30.2472C19.0626 31.3857 18.2452 32.3753 17.2316 33.1332" fill="#FF974F"/>
<path d="M185.342 17.2763C183.082 15.3347 180.194 14.2802 177.215 14.3088C175.497 14.2765 173.793 14.6115 172.215 15.2914C170.638 15.9712 169.224 16.9802 168.068 18.2508C166.992 19.3529 166.145 20.657 165.575 22.088C165.004 23.519 164.723 25.0486 164.746 26.5888C164.712 28.3766 165.094 30.1479 165.863 31.7623C166.632 33.3768 167.766 34.7901 169.176 35.8901C171.427 37.8381 174.315 38.8938 177.292 38.8577C179.01 38.8929 180.716 38.5604 182.296 37.8824C183.875 37.2045 185.291 36.1967 186.449 34.9267C188.617 32.6966 189.811 29.6982 189.771 26.5888C189.805 24.7995 189.422 23.0269 188.654 21.4108C187.885 19.7947 186.751 18.3793 185.342 17.2763V17.2763ZM182.02 33.1329C180.663 34.2078 178.979 34.7861 177.248 34.7717C176.013 34.7969 174.791 34.5158 173.692 33.9535C172.592 33.3912 171.649 32.5653 170.947 31.5495C169.869 30.1212 169.289 28.3784 169.297 26.5888C169.267 25.3236 169.54 24.0696 170.093 22.9313C170.645 21.7929 171.462 20.8032 172.475 20.0446C173.298 19.4007 174.243 18.9298 175.252 18.6602C176.261 18.3906 177.315 18.3279 178.349 18.4758C179.384 18.6237 180.377 18.9792 181.271 19.5209C182.164 20.0626 182.939 20.7794 183.548 21.6281C184.624 23.0579 185.203 24.7997 185.198 26.5888C185.227 27.8548 184.953 29.1095 184.398 30.2479C183.843 31.3863 183.024 32.3755 182.009 33.1329" fill="#FF974F"/>
<path d="M214.155 4.08856V17.1215C211.91 15.2849 209.094 14.2901 206.193 14.3089C204.476 14.2767 202.771 14.6117 201.194 15.2916C199.617 15.9714 198.203 16.9804 197.047 18.2509C195.97 19.3527 195.122 20.6568 194.552 22.0878C193.982 23.5189 193.701 25.0487 193.725 26.5889C193.69 28.3769 194.071 30.1485 194.84 31.7631C195.609 33.3777 196.744 34.7908 198.154 35.8903C200.406 37.8383 203.293 38.894 206.271 38.8579C209.168 38.8584 211.978 37.8657 214.232 36.0453V38.8579H218.772V2.04004H214.232L214.155 4.08856ZM210.966 33.1331C209.608 34.208 207.924 34.7863 206.193 34.7719C204.958 34.7971 203.737 34.516 202.637 33.9537C201.538 33.3914 200.595 32.5655 199.893 31.5497C198.819 30.1191 198.24 28.3778 198.243 26.5889C198.213 25.3238 198.485 24.0698 199.038 22.9314C199.591 21.7931 200.408 20.8033 201.421 20.0448C202.777 18.9682 204.462 18.3898 206.193 18.406C207.43 18.3789 208.654 18.6591 209.755 19.2215C210.857 19.7839 211.801 20.6109 212.505 21.6282C213.58 23.0581 214.159 24.7998 214.155 26.5889C214.184 27.855 213.909 29.1097 213.354 30.2481C212.8 31.3865 211.981 32.3757 210.966 33.1331" fill="#FF974F"/>
<path d="M78.5537 17.2765C76.2938 15.3349 73.4055 14.2803 70.4262 14.309C68.7086 14.2753 67.0037 14.6096 65.4261 15.2896C63.8485 15.9695 62.4347 16.9792 61.2798 18.251C60.2037 19.3531 59.3562 20.6572 58.7861 22.0882C58.216 23.5192 57.9345 25.0488 57.9579 26.5889C57.9185 28.3719 58.293 30.1397 59.0519 31.7536C59.8108 33.3674 60.9335 34.7834 62.3318 35.8903C64.5865 37.8409 67.4783 38.8967 70.4594 38.8579C72.1761 38.893 73.8804 38.5603 75.458 37.8823C77.0355 37.2043 78.4497 36.1966 79.6057 34.9269C80.6803 33.8237 81.5268 32.5194 82.0968 31.0887C82.6668 29.658 82.9491 28.1289 82.9276 26.5889C82.9587 24.8001 82.575 23.0283 81.8065 21.4126C81.038 19.7969 79.9058 18.3812 78.4984 17.2765H78.5537ZM75.1765 33.1331C73.8184 34.2065 72.1349 34.7846 70.404 34.7719C69.1677 34.798 67.9441 34.5173 66.8427 33.955C65.7413 33.3927 64.7964 32.5663 64.0924 31.5497C63.0216 30.1181 62.4464 28.3766 62.4536 26.5889C62.4206 25.3234 62.6921 24.0684 63.2451 22.9296C63.7981 21.7908 64.6166 20.8015 65.6315 20.0448C66.4544 19.4009 67.3989 18.93 68.4083 18.6604C69.4177 18.3908 70.4713 18.3281 71.5056 18.476C72.5399 18.6239 73.5336 18.9794 74.427 19.5211C75.3205 20.0628 76.0952 20.7795 76.7046 21.6282C77.7767 23.0591 78.3522 24.801 78.3433 26.5889C78.3744 27.8542 78.1022 29.1085 77.5493 30.2471C76.9964 31.3856 76.179 32.3752 75.1654 33.1331" fill="#FF974F"/>
<path d="M152.865 13.8658L143.198 5.67175L137.241 0.622453C136.811 0.222399 136.245 0 135.658 0C135.07 0 134.504 0.222399 134.074 0.622453L127.076 6.57975C124.861 8.42895 128.05 11.5847 130.243 9.73554L135.713 5.12915L154.914 21.3954V34.362H136.112V27.4967C136.112 25.4482 136.809 21.0522 135.314 19.4023C133.455 17.5622 131.504 15.8178 129.468 14.1758L120.31 5.99288L114.464 0.777457C114.037 0.375711 113.472 0.152031 112.886 0.152031C112.299 0.152031 111.735 0.375711 111.308 0.777457L96.6694 12.7917C94.2444 14.7848 91.7198 16.7116 89.3612 18.7933C87.6449 20.3103 88.1764 22.7796 88.1764 24.9056V36.5987C88.1764 37.1861 88.4097 37.7494 88.8251 38.1647C89.2404 38.58 89.8036 38.8133 90.391 38.8133H113.157C113.744 38.8133 114.308 38.58 114.723 38.1647C115.138 37.7494 115.372 37.1861 115.372 36.5987V21.7055L120.676 17.3317C122.89 15.5046 119.712 12.3488 117.509 14.1758L112.36 18.4168C110.92 19.6016 110.898 20.7311 110.898 22.4806V34.362H92.6499V21.8605L112.814 5.25097L131.638 22.0598V36.5544C131.638 37.1418 131.871 37.7051 132.287 38.1204C132.702 38.5357 133.265 38.769 133.853 38.769H157.106C157.689 38.755 158.244 38.5172 158.656 38.1048C159.069 37.6925 159.307 37.1373 159.321 36.5544V21.3401C159.386 20.8734 159.354 20.3981 159.227 19.9444C159.099 19.4907 158.878 19.0685 158.579 18.7047C156.776 16.9669 154.864 15.3469 152.854 13.8547" fill="#904727"/>
</svg>
