<svg width="152" height="25" viewBox="0 0 152 25" fill="none" xmlns="http://www.w3.org/2000/svg">
<path fill-rule="evenodd" clip-rule="evenodd" d="M129.52 2.54533V10.6031C128.173 9.46845 126.484 8.85379 124.744 8.86536C123.713 8.84392 122.69 9.05004 121.743 9.46985C120.796 9.88967 119.947 10.5134 119.254 11.2992C118.566 12.0396 118.034 12.9179 117.69 13.8794C117.347 14.8409 117.199 15.8649 117.257 16.8877C117.314 17.9105 117.576 18.9101 118.025 19.8243C118.474 20.7386 119.101 21.5478 119.867 22.2015C121.218 23.3996 122.946 24.051 124.73 24.0344C126.467 24.0316 128.152 23.4186 129.505 22.2967V24.0395H132.233V1.27832H129.51L129.52 2.54533ZM127.609 20.4938C127.112 20.8887 126.544 21.1765 125.938 21.3402C125.331 21.5039 124.699 21.5401 124.078 21.4466C123.458 21.3531 122.862 21.1319 122.326 20.7961C121.791 20.4603 121.326 20.0169 120.961 19.4922C120.32 18.6074 119.979 17.531 119.988 16.4274C119.969 15.6459 120.133 14.8712 120.464 14.168C120.796 13.4649 121.286 12.8538 121.894 12.386C122.71 11.7238 123.721 11.3702 124.759 11.3844C125.501 11.3691 126.236 11.5442 126.896 11.8938C127.557 12.2435 128.122 12.7568 128.542 13.3875C129.182 14.2725 129.524 15.3489 129.515 16.4524C129.533 17.2338 129.369 18.0082 129.038 18.7112C128.706 19.4142 128.216 20.0254 127.609 20.4938ZM143.511 8.86538C145.294 8.84885 147.022 9.50025 148.374 10.6983C149.214 11.3821 149.888 12.2571 150.345 13.2546C150.801 14.2521 151.027 15.345 151.005 16.4474C151.016 17.4007 150.843 18.3468 150.498 19.2312C150.152 20.1156 149.64 20.9209 148.991 21.6006C148.298 22.3864 147.449 23.0102 146.502 23.43C145.555 23.8498 144.532 24.0559 143.501 24.0345C141.717 24.0524 139.989 23.4008 138.638 22.2016C137.799 21.5162 137.125 20.6401 136.669 19.6418C136.214 18.6435 135.989 17.5502 136.012 16.4474C136.001 15.4954 136.173 14.5507 136.518 13.6672C136.863 12.7838 137.373 11.9791 138.02 11.2992C138.714 10.5135 139.562 9.88968 140.509 9.46987C141.456 9.05006 142.48 8.84394 143.511 8.86538ZM144.689 21.3402C145.296 21.1765 145.864 20.8887 146.36 20.4938C146.968 20.0254 147.458 19.4143 147.79 18.7112C148.121 18.0082 148.285 17.2338 148.267 16.4524C148.276 15.3489 147.934 14.2726 147.294 13.3876C146.874 12.7568 146.308 12.2435 145.648 11.8939C144.988 11.5442 144.253 11.3691 143.511 11.3844C142.473 11.3702 141.461 11.7238 140.646 12.386C140.038 12.8538 139.548 13.4649 139.216 14.168C138.884 14.8712 138.721 15.6459 138.74 16.4274C138.73 17.531 139.072 18.6074 139.713 19.4923C140.078 20.0169 140.543 20.4604 141.078 20.7961C141.614 21.1319 142.21 21.3532 142.83 21.4466C143.45 21.5401 144.083 21.5039 144.689 21.3402ZM27.0801 11.4044C26.0727 11.3877 25.0929 11.743 24.3179 12.406C23.7175 12.8777 23.2358 13.491 22.9134 14.1942C22.591 14.8975 22.4372 15.6702 22.4651 16.4474C22.4558 17.5185 22.7646 18.5669 23.3502 19.4522C23.7446 20.0956 24.2942 20.6229 24.9452 20.9827C25.5963 21.3426 26.3268 21.5226 27.0655 21.5054C27.7989 21.5102 28.5242 21.3484 29.1899 21.0316C29.8556 20.7148 30.4453 20.2508 30.917 19.6725L33.1005 21.1248C31.6449 23.0379 29.6332 24.0077 27.0655 24.0345C25.3263 24.0464 23.6425 23.4055 22.3289 22.2316C21.4971 21.5355 20.8317 20.6519 20.3839 19.6491C19.9362 18.6462 19.7182 17.5508 19.7467 16.4474C19.7221 14.5365 20.4196 12.6905 21.6919 11.2992C22.3667 10.5177 23.1975 9.89552 24.1275 9.47544C25.0575 9.05535 26.0647 8.84724 27.0801 8.86537C29.7483 8.8854 31.7713 9.79351 33.1492 11.5897L30.8976 13.047C30.1033 11.972 28.8308 11.4244 27.0801 11.4044ZM13.2739 10.1274V10.6282C11.9274 9.49352 10.2383 8.87886 8.49846 8.89043C7.46763 8.86899 6.4443 9.07511 5.49727 9.49492C4.55025 9.91474 3.7015 10.5385 3.0081 11.3243C2.36094 12.0042 1.85041 12.8089 1.50576 13.6923C1.16112 14.5757 0.989137 15.5205 0.999674 16.4725C0.976482 17.5752 1.20149 18.6686 1.65708 19.6668C2.11266 20.6651 2.78646 21.5412 3.62571 22.2266C4.97656 23.4259 6.70529 24.0774 8.48873 24.0595C10.2263 24.0575 11.9112 23.4444 13.2642 22.3218V24.0395H16.007V8.86539H13.2739V10.1274ZM11.3628 20.4939C10.8666 20.8887 10.2983 21.1765 9.69174 21.3402C9.08518 21.5039 8.45282 21.5401 7.83239 21.4466C7.21195 21.3532 6.61617 21.1319 6.08057 20.7962C5.54498 20.4604 5.08056 20.0169 4.71502 19.4923C4.07451 18.6074 3.73291 17.531 3.74242 16.4274C3.72356 15.6459 3.8868 14.8712 4.21847 14.168C4.55014 13.4649 5.04058 12.8538 5.64872 12.386C6.46375 11.7238 7.475 11.3702 8.51304 11.3844C9.25551 11.3691 9.99002 11.5442 10.6505 11.8939C11.3109 12.2435 11.8765 12.7568 12.2965 13.3876C12.9367 14.2726 13.2782 15.3489 13.2691 16.4524C13.2871 17.2338 13.1235 18.0082 12.7919 18.7113C12.4603 19.4143 11.9703 20.0255 11.3628 20.4939ZM107.369 8.86537C109.152 8.84884 110.88 9.50024 112.232 10.6983C113.072 11.3821 113.746 12.2571 114.203 13.2546C114.659 14.2521 114.885 15.3449 114.863 16.4474C114.874 17.4007 114.701 18.3467 114.356 19.2312C114.01 20.1156 113.498 20.9209 112.849 21.6006C112.156 22.3864 111.307 23.0102 110.36 23.43C109.413 23.8498 108.39 24.0559 107.359 24.0345C105.576 24.0514 103.847 23.4 102.496 22.2015C101.657 21.5162 100.983 20.6401 100.527 19.6418C100.072 18.6435 99.8467 17.5502 99.8699 16.4474C99.8592 15.495 100.032 14.5497 100.377 13.6662C100.723 12.7826 101.234 11.9782 101.883 11.2992C102.576 10.5136 103.423 9.88983 104.37 9.47C105.316 9.05017 106.339 8.844 107.369 8.86537ZM108.547 21.3402C109.154 21.1765 109.722 20.8887 110.218 20.4938C110.825 20.0285 111.315 19.421 111.648 18.7217C111.982 18.0223 112.148 17.2513 112.134 16.4724C112.142 15.3692 111.8 14.2934 111.162 13.4076C110.796 12.8829 110.332 12.4395 109.796 12.1037C109.261 11.7679 108.665 11.5467 108.044 11.4532C107.424 11.3597 106.792 11.3959 106.185 11.5596C105.579 11.7233 105.01 12.0112 104.514 12.406C103.907 12.8711 103.417 13.4785 103.083 14.1779C102.75 14.8773 102.584 15.6485 102.598 16.4274C102.591 17.5306 102.932 18.6064 103.571 19.4922C103.936 20.0169 104.401 20.4604 104.936 20.7961C105.472 21.1319 106.068 21.3531 106.688 21.4466C107.308 21.5401 107.941 21.5039 108.547 21.3402ZM43.2886 8.86537C45.0718 8.84884 46.8 9.50024 48.1516 10.6983C48.9916 11.3821 49.6664 12.2571 50.1228 13.2546C50.5793 14.2521 50.8051 15.3449 50.7825 16.4474C50.7936 17.4007 50.6214 18.3467 50.2758 19.2312C49.9303 20.1156 49.4183 20.9209 48.7692 21.6006C48.0758 22.3864 47.227 23.0102 46.28 23.43C45.333 23.8498 44.3097 24.0559 43.2788 24.0345C41.4956 24.0514 39.7671 23.4 38.4158 22.2015C37.5766 21.5162 36.9028 20.6401 36.4472 19.6418C35.9916 18.6435 35.7666 17.5502 35.7898 16.4474C35.7791 15.495 35.9515 14.5497 36.297 13.6662C36.6425 12.7826 37.1544 11.9782 37.8031 11.2992C38.4955 10.5136 39.3434 9.88983 40.2896 9.47C41.2359 9.05017 42.2585 8.844 43.2886 8.86537ZM44.4867 21.3402C45.0933 21.1765 45.6616 20.8887 46.1577 20.4938C46.7662 20.026 47.2571 19.415 47.5896 18.712C47.9221 18.0089 48.0864 17.2342 48.0689 16.4524C48.0763 15.3492 47.7349 14.2734 47.0963 13.3876C46.7308 12.8629 46.2664 12.4194 45.7308 12.0837C45.1952 11.7479 44.5994 11.5266 43.979 11.4332C43.3585 11.3397 42.7262 11.3759 42.1196 11.5396C41.513 11.7033 40.9447 11.9911 40.4486 12.386C39.8398 12.8535 39.3486 13.4644 39.0162 14.1675C38.6837 14.8707 38.5195 15.6455 38.5374 16.4274C38.53 17.5306 38.8714 18.6064 39.51 19.4922C39.8755 20.0169 40.3399 20.4604 40.8755 20.7961C41.4111 21.1319 42.0069 21.3531 42.6274 21.4466C43.2478 21.5401 43.8801 21.5039 44.4867 21.3402Z" fill="#FF974F"/>
<path d="M92.7404 8.58489L86.9437 3.50683L83.3694 0.386872C83.1116 0.138307 82.7717 0 82.4186 0C82.0655 0 81.7256 0.138307 81.4679 0.386872L77.2322 4.06271C75.9095 5.20953 77.8206 7.15762 79.1337 6.02082L82.4162 3.1713L93.9367 13.2223V21.235H82.6885V17.0283C82.6885 15.7613 83.1116 13.0219 82.2022 12.0203C81.0852 10.8837 79.9134 9.80561 78.6911 8.79022L73.1959 3.73218L69.7043 0.502056C69.446 0.254593 69.1063 0.117026 68.7535 0.117026C68.4008 0.117026 68.0611 0.254593 67.8028 0.502056L59.0494 7.92885C57.5905 9.16081 56.0781 10.3527 54.6726 11.6397C53.6417 12.5762 53.9578 14.1037 53.9578 15.4157V22.6372C53.9628 23.0022 54.1058 23.3507 54.3565 23.6088C54.6071 23.8669 54.9456 24.0142 55.3 24.0194H68.9651C69.3191 24.013 69.6569 23.8653 69.9072 23.6074C70.1576 23.3496 70.301 23.0018 70.3073 22.6372V13.4326L73.4877 10.7333C74.8202 9.60151 72.9139 7.65341 71.5862 8.77519L68.4982 11.4044C67.6375 12.1355 67.6229 12.8316 67.6229 13.9083V21.25H56.6081V13.5227L68.7122 3.28648L80.0042 13.683V22.6372C80.0092 23.0022 80.1522 23.3507 80.4028 23.6088C80.6535 23.8669 80.9919 24.0142 81.3463 24.0194H95.274C95.6281 24.013 95.9658 23.8653 96.2162 23.6074C96.4666 23.3496 96.61 23.0018 96.6162 22.6372V13.2122C96.6552 12.9242 96.636 12.631 96.5598 12.3509C96.4837 12.0708 96.3522 11.81 96.1737 11.5847C95.1962 10.4729 93.854 9.55643 92.7404 8.58489Z" fill="#904727"/>
</svg>
