<svg width="250" height="74" viewBox="0 0 250 74" fill="none" xmlns="http://www.w3.org/2000/svg">
<path d="M68.8727 63.4184C68.8727 62.9917 68.8118 62.6056 68.7305 62.2601C68.6289 61.9147 68.4663 61.5896 68.2225 61.3051C67.9787 61.0206 67.7551 60.7768 67.5723 60.5939C67.3691 60.411 67.0643 60.2078 66.6172 59.964C66.1702 59.7405 65.8654 59.5779 65.6622 59.4966C65.459 59.4153 65.0932 59.2528 64.5649 59.0089C64.443 58.9683 64.2398 58.8667 63.9553 58.7448C63.6505 58.6229 63.4473 58.5416 63.3254 58.5009C63.2035 58.4603 63.0409 58.379 62.8174 58.2571C62.5735 58.1352 62.411 58.0336 62.3094 57.9523C62.2078 57.871 62.0859 57.7694 61.9436 57.6475C61.7811 57.5256 61.6795 57.3833 61.6185 57.2614C61.5575 57.1395 61.4966 56.9973 61.4559 56.8144C61.395 56.6518 61.3747 56.4689 61.3747 56.2657C61.3747 55.5749 61.6185 55.0465 62.1468 54.6808C62.6751 54.3353 63.5083 54.1525 64.6462 54.1525C65.7841 54.1525 66.7392 54.315 67.5316 54.6198C67.7348 54.7011 67.8771 54.6401 67.9584 54.4369L68.2835 53.5429C68.3241 53.3803 68.2428 53.2381 68.0396 53.1568C67.1049 52.7707 65.9263 52.5675 64.5243 52.5675C62.858 52.5675 61.6388 52.8926 60.826 53.5429C60.0132 54.1931 59.6271 55.0872 59.6271 56.2657C59.6271 56.6315 59.6678 56.9566 59.7491 57.2614C59.8303 57.5662 59.9116 57.8304 60.0335 58.0539C60.1555 58.2774 60.318 58.5009 60.5619 58.7041C60.7854 58.9277 60.9886 59.1105 61.1715 59.2325C61.334 59.3747 61.5982 59.5169 61.9436 59.6795C62.2687 59.8421 62.5532 59.9843 62.7564 60.0656C62.9596 60.1469 63.2644 60.2688 63.6708 60.4313C64.1382 60.6345 64.443 60.7565 64.5852 60.8174C64.7071 60.8784 64.9713 61.0003 65.3371 61.1629C65.7028 61.3254 65.967 61.4677 66.1092 61.5896C66.2311 61.7115 66.414 61.8537 66.6172 62.0569C66.8204 62.2601 66.9423 62.4633 67.0236 62.6665C67.0846 62.8901 67.1252 63.1339 67.1252 63.3777C67.1252 64.1093 66.8001 64.6782 66.1499 65.0643C65.4996 65.4707 64.6259 65.6536 63.5083 65.6536C62.1671 65.6536 61.0089 65.4707 60.0335 65.0643C59.81 64.983 59.6678 65.044 59.6271 65.2675L59.302 66.1819C59.2614 66.3445 59.3427 66.4867 59.5662 66.568C60.4806 67.015 61.8217 67.2182 63.5692 67.2182C65.2151 67.2182 66.5156 66.8931 67.4503 66.2429C68.3851 65.5926 68.8727 64.6579 68.8727 63.4184ZM85.5458 60.5329C85.749 60.5329 85.8709 60.4313 85.8709 60.1875V59.3341C85.8709 59.1105 85.749 58.9886 85.5458 58.9886H79.5107V54.3963H85.7693C85.9928 54.3963 86.1147 54.2947 86.1147 54.0509V53.1161C86.1147 52.9129 85.9928 52.791 85.7693 52.791H78.1087C77.8851 52.791 77.7835 52.9129 77.7835 53.1161V66.7102C77.7835 66.9541 77.8851 67.0557 78.129 67.0557H85.8303C86.0538 67.0557 86.1757 66.9337 86.1757 66.6899V65.7755C86.1757 65.5723 86.0538 65.4504 85.8303 65.4504H79.5107V60.5329H85.5458ZM96.9801 60.3297V54.3963H99.6826C101.105 54.3963 102.141 54.6401 102.771 55.1075C103.401 55.5749 103.726 56.3267 103.726 57.3833C103.726 58.4197 103.401 59.1715 102.792 59.6389C102.182 60.1062 101.125 60.3297 99.642 60.3297H96.9801ZM95.578 52.791C95.3342 52.791 95.2326 52.9129 95.2326 53.1161V66.7102C95.2326 66.9541 95.3342 67.0557 95.578 67.0557H96.6346C96.8582 67.0557 96.9801 66.9541 96.9801 66.7102V61.935H99.4591L103.564 66.7915C103.706 66.9744 103.869 67.0557 104.072 67.0557H105.311C105.454 67.0557 105.535 67.015 105.575 66.9134C105.616 66.8321 105.596 66.7305 105.514 66.6086L101.369 61.7521C104.112 61.427 105.494 59.9843 105.494 57.3833C105.494 55.839 105.027 54.6808 104.092 53.9289C103.157 53.1771 101.694 52.791 99.7233 52.791H95.578ZM120.056 67.0557C120.259 67.0557 120.422 66.9337 120.523 66.6899L125.319 53.1568C125.38 52.9129 125.299 52.791 125.055 52.791H123.876C123.673 52.791 123.551 52.9129 123.49 53.1161L120.401 61.8334L119.365 65.2675H119.345L118.308 61.8537L115.22 53.1161C115.139 52.9129 115.017 52.791 114.834 52.791H113.655C113.411 52.791 113.31 52.9129 113.391 53.1568L118.187 66.6899C118.268 66.9337 118.43 67.0557 118.654 67.0557H120.056ZM134.222 66.7102C134.222 66.9541 134.323 67.0557 134.547 67.0557H135.624C135.847 67.0557 135.969 66.9541 135.969 66.7102V53.1161C135.969 52.9129 135.847 52.791 135.624 52.791H134.547C134.323 52.791 134.222 52.9129 134.222 53.1161V66.7102ZM151.968 65.6536C148.716 65.6536 147.091 63.7435 147.091 59.9233C147.091 58.0539 147.477 56.6112 148.29 55.6358C149.102 54.6605 150.281 54.1728 151.866 54.1728C152.902 54.1728 153.837 54.3963 154.65 54.8027C154.853 54.9246 155.016 54.8637 155.097 54.6198L155.442 53.7664C155.483 53.6241 155.402 53.5022 155.198 53.3803C154.264 52.852 153.085 52.5675 151.622 52.5675C149.61 52.5675 148.046 53.2177 146.949 54.4776C145.851 55.7577 145.303 57.5662 145.303 59.9233C145.303 62.2805 145.851 64.1093 146.969 65.3691C148.086 66.6289 149.671 67.2589 151.724 67.2589C153.207 67.2589 154.406 66.9744 155.341 66.4054C155.524 66.3241 155.605 66.2022 155.605 66.0397L155.219 65.1659C155.117 64.9627 154.975 64.8814 154.792 64.9424C153.918 65.4301 152.984 65.6536 151.968 65.6536ZM172.215 60.5329C172.419 60.5329 172.54 60.4313 172.54 60.1875V59.3341C172.54 59.1105 172.419 58.9886 172.215 58.9886H166.18V54.3963H172.439C172.662 54.3963 172.784 54.2947 172.784 54.0509V53.1161C172.784 52.9129 172.662 52.791 172.439 52.791H164.778C164.555 52.791 164.453 52.9129 164.453 53.1161V66.7102C164.453 66.9541 164.555 67.0557 164.799 67.0557H172.5C172.723 67.0557 172.845 66.9337 172.845 66.6899V65.7755C172.845 65.5723 172.723 65.4504 172.5 65.4504H166.18V60.5329H172.215ZM190.599 63.4184C190.599 62.9917 190.538 62.6056 190.457 62.2601C190.355 61.9147 190.193 61.5896 189.949 61.3051C189.705 61.0206 189.481 60.7768 189.299 60.5939C189.095 60.411 188.791 60.2078 188.344 59.964C187.897 59.7405 187.592 59.5779 187.389 59.4966C187.185 59.4153 186.82 59.2528 186.291 59.0089C186.169 58.9683 185.966 58.8667 185.682 58.7448C185.377 58.6229 185.174 58.5416 185.052 58.5009C184.93 58.4603 184.767 58.379 184.544 58.2571C184.3 58.1352 184.137 58.0336 184.036 57.9523C183.934 57.871 183.812 57.7694 183.67 57.6475C183.507 57.5256 183.406 57.3833 183.345 57.2614C183.284 57.1395 183.223 56.9973 183.182 56.8144C183.121 56.6518 183.101 56.4689 183.101 56.2657C183.101 55.5749 183.345 55.0465 183.873 54.6808C184.401 54.3353 185.235 54.1525 186.373 54.1525C187.51 54.1525 188.465 54.315 189.258 54.6198C189.461 54.7011 189.603 54.6401 189.685 54.4369L190.01 53.5429C190.05 53.3803 189.969 53.2381 189.766 53.1568C188.831 52.7707 187.653 52.5675 186.251 52.5675C184.584 52.5675 183.365 52.8926 182.552 53.5429C181.74 54.1931 181.353 55.0872 181.353 56.2657C181.353 56.6315 181.394 56.9566 181.475 57.2614C181.557 57.5662 181.638 57.8304 181.76 58.0539C181.882 58.2774 182.044 58.5009 182.288 58.7041C182.512 58.9277 182.715 59.1105 182.898 59.2325C183.06 59.3747 183.325 59.5169 183.67 59.6795C183.995 59.8421 184.28 59.9843 184.483 60.0656C184.686 60.1469 184.991 60.2688 185.397 60.4313C185.865 60.6345 186.169 60.7565 186.312 60.8174C186.433 60.8784 186.698 61.0003 187.063 61.1629C187.429 61.3254 187.693 61.4677 187.836 61.5896C187.957 61.7115 188.14 61.8537 188.344 62.0569C188.547 62.2601 188.669 62.4633 188.75 62.6665C188.811 62.8901 188.852 63.1339 188.852 63.3777C188.852 64.1093 188.526 64.6782 187.876 65.0643C187.226 65.4707 186.352 65.6536 185.235 65.6536C183.893 65.6536 182.735 65.4707 181.76 65.0643C181.536 64.983 181.394 65.044 181.353 65.2675L181.028 66.1819C180.988 66.3445 181.069 66.4867 181.293 66.568C182.207 67.015 183.548 67.2182 185.296 67.2182C186.941 67.2182 188.242 66.8931 189.177 66.2429C190.111 65.5926 190.599 64.6579 190.599 63.4184Z" fill="white"/>
<path d="M38.8347 20.0442C40.1237 18.9628 41.7587 18.3811 43.4411 18.4055C46.3533 18.4055 48.4793 19.3245 49.797 21.063L53.5508 18.7044C51.2329 15.8107 47.863 14.3343 43.4411 14.2752C41.7485 14.2458 40.0696 14.5829 38.5196 15.2633C36.9695 15.9438 35.5849 16.9514 34.4609 18.2172C32.3373 20.4695 31.1737 23.4599 31.2165 26.5552C31.1721 28.3413 31.5384 30.1138 32.2871 31.736C33.0358 33.3582 34.147 34.7869 35.535 35.9119C37.7309 37.8078 40.5401 38.8426 43.4411 38.8241C45.37 38.8924 47.2875 38.5013 49.0356 37.6831C50.7837 36.8649 52.3123 35.643 53.4954 34.1181L49.8524 31.7706C49.0667 32.705 48.085 33.4552 46.9771 33.968C45.8691 34.4809 44.662 34.7438 43.4411 34.7382C42.2086 34.7678 40.9894 34.4773 39.9025 33.8951C38.8157 33.3128 37.8985 32.4588 37.2402 31.4163C36.2665 29.9875 35.7526 28.2953 35.7675 26.5663C35.7163 25.3094 35.9682 24.0587 36.502 22.9197C37.0359 21.7807 37.836 20.7868 38.8347 20.0221" fill="white"/>
<path d="M245.558 17.2766C243.302 15.3349 240.417 14.2801 237.441 14.3091C235.724 14.2746 234.018 14.6087 232.441 15.2887C230.863 15.9686 229.449 16.9788 228.295 18.2511C227.219 19.3532 226.371 20.6573 225.801 22.0883C225.231 23.5193 224.95 25.0489 224.973 26.589C224.938 28.377 225.319 30.1486 226.088 31.7632C226.857 33.3778 227.992 34.7909 229.402 35.8904C231.657 37.841 234.549 38.8968 237.53 38.858C239.246 38.8923 240.951 38.5594 242.528 37.8814C244.105 37.2035 245.52 36.1962 246.676 34.927C247.751 33.8238 248.597 32.5195 249.167 31.0888C249.737 29.6581 250.02 28.129 249.998 26.589C250.031 24.7999 249.648 23.0276 248.879 21.4116C248.111 19.7956 246.977 18.3801 245.569 17.2766H245.558ZM242.247 33.1332C240.888 34.205 239.205 34.7829 237.474 34.772C236.238 34.7981 235.015 34.5174 233.913 33.9551C232.812 33.3928 231.867 32.5664 231.163 31.5498C230.089 30.1192 229.51 28.3779 229.513 26.589C229.482 25.3227 229.756 24.0674 230.311 22.9287C230.866 21.79 231.686 20.801 232.702 20.0449C233.525 19.401 234.469 18.9301 235.479 18.6605C236.488 18.3909 237.542 18.3282 238.576 18.4761C239.61 18.624 240.604 18.9795 241.497 19.5212C242.391 20.0629 243.166 20.7796 243.775 21.6283C244.855 23.0559 245.435 24.7992 245.425 26.589C245.454 27.854 245.181 29.1077 244.628 30.2459C244.076 31.3841 243.259 32.374 242.247 33.1332Z" fill="white"/>
<path d="M20.4206 16.3576V17.1216C18.1795 15.2858 15.3672 14.2909 12.4702 14.3091C10.7525 14.2746 9.04746 14.6087 7.46975 15.2887C5.89205 15.9686 4.47833 16.9788 3.32385 18.2511C2.24778 19.3532 1.4003 20.6573 0.830192 22.0883C0.260083 23.5193 -0.0214019 25.0489 0.00194515 26.589C-0.0308801 28.3766 0.352147 30.1473 1.12081 31.7615C1.88946 33.3757 3.02272 34.7892 4.43116 35.8904C6.68588 37.841 9.57768 38.8968 12.5588 38.858C15.4527 38.8578 18.259 37.865 20.5092 36.0454V38.858H25.0602V14.3091H20.5092L20.4206 16.3576ZM17.2427 33.1332C15.8846 34.2066 14.2011 34.7847 12.4702 34.772C11.2338 34.7981 10.0103 34.5174 8.9089 33.9551C7.8075 33.3928 6.86256 32.5664 6.15855 31.5498C5.08782 30.1182 4.51256 28.3767 4.51976 26.589C4.48683 25.3235 4.75829 24.0685 5.31131 22.9297C5.86433 21.7909 6.68275 20.8016 7.69772 20.0449C8.52055 19.401 9.46508 18.9301 10.4745 18.6605C11.484 18.3909 12.5375 18.3282 13.5718 18.4761C14.6061 18.624 15.5998 18.9795 16.4933 19.5212C17.3867 20.0629 18.1614 20.7796 18.7707 21.6283C19.8429 23.0592 20.4184 24.8011 20.4096 26.589C20.4407 27.8543 20.1684 29.1086 19.6155 30.2472C19.0626 31.3857 18.2452 32.3753 17.2316 33.1332" fill="white"/>
<path d="M185.342 17.2763C183.082 15.3347 180.194 14.2802 177.215 14.3088C175.497 14.2765 173.793 14.6115 172.215 15.2914C170.638 15.9712 169.224 16.9802 168.068 18.2508C166.992 19.3529 166.145 20.657 165.575 22.088C165.004 23.519 164.723 25.0486 164.746 26.5888C164.712 28.3766 165.094 30.1479 165.863 31.7623C166.632 33.3768 167.766 34.7901 169.176 35.8901C171.427 37.8381 174.315 38.8938 177.292 38.8577C179.01 38.8929 180.716 38.5604 182.296 37.8825C183.875 37.2045 185.291 36.1967 186.449 34.9267C188.617 32.6966 189.811 29.6982 189.771 26.5888C189.805 24.7995 189.422 23.0269 188.654 21.4108C187.885 19.7947 186.751 18.3793 185.342 17.2763ZM182.02 33.1329C180.663 34.2078 178.979 34.7861 177.248 34.7717C176.013 34.7969 174.791 34.5158 173.692 33.9535C172.592 33.3912 171.649 32.5653 170.947 31.5495C169.869 30.1212 169.289 28.3784 169.297 26.5888C169.267 25.3236 169.54 24.0696 170.093 22.9313C170.645 21.7929 171.462 20.8032 172.475 20.0446C173.298 19.4007 174.243 18.9298 175.252 18.6602C176.261 18.3906 177.315 18.3279 178.349 18.4758C179.384 18.6237 180.377 18.9792 181.271 19.5209C182.164 20.0626 182.939 20.7794 183.548 21.6281C184.624 23.0579 185.203 24.7997 185.198 26.5888C185.227 27.8548 184.953 29.1095 184.398 30.2479C183.843 31.3863 183.024 32.3755 182.009 33.1329" fill="white"/>
<path d="M214.155 4.08856V17.1215C211.91 15.2849 209.094 14.2901 206.193 14.3089C204.476 14.2767 202.771 14.6117 201.194 15.2916C199.617 15.9714 198.203 16.9804 197.047 18.2509C195.97 19.3527 195.122 20.6568 194.552 22.0878C193.982 23.5189 193.701 25.0487 193.725 26.5889C193.69 28.3769 194.071 30.1485 194.84 31.7631C195.609 33.3777 196.744 34.7908 198.154 35.8903C200.406 37.8383 203.293 38.894 206.271 38.8579C209.168 38.8584 211.978 37.8657 214.232 36.0453V38.8579H218.772V2.04004H214.232L214.155 4.08856ZM210.966 33.1331C209.608 34.208 207.924 34.7863 206.193 34.7719C204.958 34.7971 203.737 34.516 202.637 33.9537C201.538 33.3914 200.595 32.5655 199.893 31.5497C198.819 30.1191 198.24 28.3778 198.243 26.5889C198.213 25.3238 198.485 24.0698 199.038 22.9314C199.591 21.7931 200.408 20.8033 201.421 20.0448C202.777 18.9682 204.462 18.3898 206.193 18.406C207.43 18.3789 208.654 18.6591 209.755 19.2215C210.857 19.7839 211.801 20.6109 212.505 21.6282C213.58 23.0581 214.159 24.7998 214.155 26.5889C214.184 27.855 213.909 29.1097 213.354 30.2481C212.8 31.3865 211.981 32.3757 210.966 33.1331Z" fill="white"/>
<path d="M78.5537 17.2765C76.2938 15.3349 73.4055 14.2803 70.4262 14.309C68.7086 14.2753 67.0037 14.6096 65.4261 15.2896C63.8485 15.9695 62.4347 16.9792 61.2798 18.251C60.2037 19.3531 59.3562 20.6572 58.7861 22.0882C58.216 23.5192 57.9345 25.0488 57.9579 26.5889C57.9185 28.3719 58.293 30.1397 59.0519 31.7536C59.8108 33.3674 60.9335 34.7834 62.3318 35.8903C64.5865 37.8409 67.4783 38.8967 70.4594 38.8579C72.1761 38.893 73.8804 38.5603 75.458 37.8823C77.0355 37.2043 78.4497 36.1966 79.6057 34.9269C80.6803 33.8237 81.5268 32.5194 82.0968 31.0887C82.6668 29.658 82.9491 28.1289 82.9276 26.5889C82.9587 24.8001 82.575 23.0283 81.8065 21.4126C81.038 19.7969 79.9058 18.3812 78.4984 17.2765H78.5537ZM75.1765 33.1331C73.8184 34.2064 72.1349 34.7846 70.404 34.7719C69.1677 34.798 67.9441 34.5173 66.8427 33.955C65.7413 33.3927 64.7964 32.5663 64.0924 31.5497C63.0216 30.1181 62.4464 28.3766 62.4536 26.5889C62.4206 25.3234 62.6921 24.0684 63.2451 22.9296C63.7981 21.7908 64.6166 20.8015 65.6315 20.0448C66.4544 19.4009 67.3989 18.93 68.4083 18.6604C69.4177 18.3908 70.4713 18.3281 71.5056 18.476C72.5399 18.6239 73.5336 18.9794 74.427 19.5211C75.3205 20.0628 76.0952 20.7795 76.7046 21.6282C77.7767 23.0591 78.3522 24.801 78.3433 26.5889C78.3744 27.8542 78.1022 29.1085 77.5493 30.2471C76.9964 31.3856 76.179 32.3752 75.1654 33.1331" fill="white"/>
<path d="M152.865 13.8658L143.198 5.67175L137.241 0.622452C136.811 0.222399 136.245 0 135.658 0C135.07 0 134.504 0.222399 134.074 0.622452L127.076 6.57975C124.861 8.42894 128.05 11.5847 130.243 9.73554L135.713 5.12915L154.914 21.3954V34.362H136.112V27.4967C136.112 25.4482 136.809 21.0522 135.314 19.4023C133.455 17.5622 131.504 15.8178 129.468 14.1758L120.31 5.99288L114.464 0.777457C114.037 0.375711 113.472 0.152031 112.886 0.152031C112.299 0.152031 111.735 0.375711 111.308 0.777457L96.6694 12.7917C94.2444 14.7848 91.7198 16.7116 89.3612 18.7933C87.6449 20.3103 88.1764 22.7796 88.1764 24.9056V36.5987C88.1764 37.1861 88.4097 37.7494 88.8251 38.1647C89.2404 38.58 89.8036 38.8133 90.391 38.8133H113.157C113.744 38.8133 114.308 38.58 114.723 38.1647C115.138 37.7494 115.372 37.1861 115.372 36.5987V21.7055L120.676 17.3317C122.89 15.5046 119.712 12.3488 117.509 14.1758L112.36 18.4168C110.92 19.6016 110.898 20.7311 110.898 22.4806V34.362H92.6499V21.8605L112.814 5.25097L131.638 22.0598V36.5544C131.638 37.1418 131.871 37.7051 132.287 38.1204C132.702 38.5357 133.265 38.769 133.853 38.769H157.106C157.689 38.755 158.244 38.5172 158.656 38.1048C159.069 37.6925 159.307 37.1373 159.321 36.5544V21.3401C159.386 20.8734 159.354 20.3981 159.227 19.9444C159.099 19.4907 158.878 19.0685 158.579 18.7047C156.776 16.9669 154.864 15.3469 152.854 13.8547" fill="white"/>
</svg>
