<svg width="152" height="25" viewBox="0 0 152 25" fill="none" xmlns="http://www.w3.org/2000/svg">
<path fill-rule="evenodd" clip-rule="evenodd" d="M86.9439 3.50683L92.7407 8.58489C93.1062 8.90382 93.4964 9.21681 93.8903 9.53272C94.6962 10.1792 95.5174 10.8378 96.174 11.5847C96.3525 11.81 96.4839 12.0708 96.5601 12.3509C96.6362 12.631 96.6554 12.9242 96.6165 13.2122V22.6372C96.6102 23.0018 96.4668 23.3496 96.2165 23.6074C95.9661 23.8653 95.6283 24.013 95.2743 24.0194H81.3466C80.9922 24.0142 80.6537 23.8669 80.4031 23.6088C80.1524 23.3507 80.0094 23.0022 80.0044 22.6372V13.683L68.7124 3.28648L56.6084 13.5227V21.25H67.6231V13.9083C67.6231 12.8316 67.6377 12.1355 68.4985 11.4044L71.5865 8.77519C72.9141 7.65341 74.8204 9.60151 73.4879 10.7333L70.3075 13.4326V22.6372C70.3013 23.0018 70.1579 23.3496 69.9075 23.6074C69.6571 23.8653 69.3193 24.013 68.9653 24.0194H55.3002C54.9458 24.0142 54.6073 23.8669 54.3567 23.6088C54.1061 23.3507 53.9631 23.0022 53.958 22.6372V15.4157C53.958 15.1686 53.9468 14.9138 53.9355 14.6567C53.8867 13.5492 53.8361 12.3998 54.6729 11.6397C55.6361 10.7576 56.6496 9.92025 57.6616 9.08402C58.1263 8.70012 58.5906 8.31647 59.0496 7.92885L67.8031 0.502056C68.0613 0.254593 68.401 0.117026 68.7538 0.117026C69.1066 0.117026 69.4462 0.254593 69.7045 0.502056L73.1962 3.73218L78.6914 8.79022C79.9136 9.80561 81.0855 10.8837 82.2025 12.0203C82.916 12.8062 82.8092 14.6618 82.7301 16.0367C82.7084 16.4141 82.6888 16.7554 82.6888 17.0283V21.235H93.937V13.2223L82.4165 3.1713L79.1339 6.02082C77.8209 7.15762 75.9097 5.20953 77.2325 4.06271L81.4682 0.386872C81.7259 0.138307 82.0658 0 82.4189 0C82.772 0 83.1119 0.138307 83.3696 0.386872L86.9439 3.50683ZM129.52 10.6031V2.54528L129.51 1.27827H132.233V24.0394H129.505V22.2966C128.152 23.4186 126.467 24.0316 124.73 24.0344C122.946 24.0509 121.218 23.3995 119.867 22.2015C119.101 21.5477 118.474 20.7385 118.025 19.8243C117.576 18.9101 117.314 17.9104 117.257 16.8876C117.199 15.8648 117.347 14.8408 117.69 13.8793C118.034 12.9179 118.566 12.0396 119.254 11.2992C119.947 10.5134 120.796 9.88961 121.743 9.4698C122.69 9.04999 123.713 8.84387 124.744 8.86531C126.484 8.85374 128.173 9.4684 129.52 10.6031ZM125.938 21.3402C126.544 21.1765 127.112 20.8886 127.609 20.4938C128.216 20.0254 128.706 19.4142 129.038 18.7112C129.369 18.0082 129.533 17.2337 129.515 16.4524C129.524 15.3488 129.182 14.2725 128.542 13.3875C128.122 12.7568 127.557 12.2435 126.896 11.8938C126.236 11.5441 125.501 11.369 124.759 11.3843C123.721 11.3701 122.71 11.7237 121.894 12.3859C121.286 12.8537 120.796 13.4648 120.464 14.1679C120.133 14.8711 119.969 15.6458 119.988 16.4273C119.979 17.5309 120.32 18.6074 120.961 19.4922C121.326 20.0168 121.791 20.4603 122.326 20.7961C122.862 21.1319 123.458 21.3531 124.078 21.4466C124.699 21.54 125.331 21.5039 125.938 21.3402ZM148.374 10.6982C147.022 9.5002 145.294 8.84879 143.511 8.86532C142.48 8.84388 141.456 9.05 140.509 9.46981C139.562 9.88963 138.714 10.5134 138.02 11.2992C137.373 11.9791 136.863 12.7838 136.518 13.6672C136.173 14.5506 136.001 15.4954 136.012 16.4474C135.989 17.5501 136.214 18.6435 136.669 19.6417C137.125 20.64 137.799 21.5161 138.638 22.2015C139.989 23.4007 141.717 24.0523 143.501 24.0344C144.532 24.0559 145.555 23.8497 146.502 23.4299C147.449 23.0101 148.298 22.3863 148.991 21.6005C149.64 20.9208 150.152 20.1155 150.498 19.2311C150.843 18.3467 151.016 17.4006 151.005 16.4474C151.027 15.3449 150.801 14.252 150.345 13.2545C149.888 12.257 149.214 11.3821 148.374 10.6982ZM146.36 20.4938C145.864 20.8886 145.296 21.1765 144.689 21.3402C144.083 21.5039 143.45 21.5401 142.83 21.4466C142.21 21.3531 141.614 21.1319 141.078 20.7961C140.543 20.4603 140.078 20.0169 139.713 19.4922C139.072 18.6074 138.73 17.5309 138.74 16.4273C138.721 15.6459 138.884 14.8711 139.216 14.168C139.548 13.4648 140.038 12.8537 140.646 12.3859C141.461 11.7238 142.473 11.3701 143.511 11.3843C144.253 11.369 144.988 11.5441 145.648 11.8938C146.308 12.2435 146.874 12.7568 147.294 13.3875C147.934 14.2725 148.276 15.3488 148.267 16.4524C148.285 17.2337 148.121 18.0082 147.79 18.7112C147.458 19.4142 146.968 20.0254 146.36 20.4938ZM24.3179 12.4059C25.0929 11.7429 26.0727 11.3876 27.0801 11.4043C28.8308 11.4244 30.1033 11.9719 30.8976 13.047L33.1492 11.5896C31.7713 9.79345 29.7483 8.88534 27.0801 8.86531C26.0647 8.84719 25.0575 9.0553 24.1275 9.47538C23.1975 9.89547 22.3667 10.5176 21.6919 11.2992C20.4196 12.6904 19.7221 14.5364 19.7467 16.4473C19.7182 17.5507 19.9362 18.6461 20.3839 19.649C20.8317 20.6519 21.4971 21.5354 22.3289 22.2315C23.6425 23.4055 25.3263 24.0464 27.0655 24.0344C29.6332 24.0077 31.6449 23.0378 33.1005 21.1248L30.917 19.6725C30.4453 20.2507 29.8556 20.7147 29.1899 21.0315C28.5242 21.3483 27.7989 21.5101 27.0655 21.5054C26.3268 21.5226 25.5963 21.3425 24.9452 20.9827C24.2942 20.6229 23.7446 20.0956 23.3502 19.4521C22.7646 18.5669 22.4558 17.5184 22.4651 16.4473C22.4372 15.6702 22.591 14.8975 22.9134 14.1942C23.2358 13.4909 23.7175 12.8776 24.3179 12.4059ZM13.2739 10.6281V10.1273V8.86534H16.007V24.0394H13.2642V22.3217C11.9112 23.4444 10.2263 24.0575 8.48873 24.0595C6.70529 24.0774 4.97656 23.4258 3.62571 22.2266C2.78646 21.5412 2.11266 20.6651 1.65708 19.6668C1.20149 18.6685 0.976482 17.5752 0.999674 16.4724C0.989137 15.5204 1.16112 14.5757 1.50576 13.6922C1.85041 12.8088 2.36094 12.0041 3.0081 11.3242C3.7015 10.5385 4.55025 9.91468 5.49727 9.49487C6.4443 9.07506 7.46763 8.86894 8.49846 8.89038C10.2383 8.87881 11.9274 9.49347 13.2739 10.6281ZM9.69174 21.3402C10.2983 21.1765 10.8666 20.8886 11.3628 20.4938C11.9703 20.0254 12.4603 19.4142 12.7919 18.7112C13.1235 18.0082 13.2871 17.2337 13.2691 16.4524C13.2782 15.3489 12.9367 14.2725 12.2965 13.3875C11.8765 12.7568 11.3109 12.2435 10.6505 11.8938C9.99002 11.5441 9.25551 11.3691 8.51304 11.3843C7.475 11.3702 6.46375 11.7238 5.64872 12.3859C5.04058 12.8538 4.55014 13.4648 4.21847 14.168C3.8868 14.8711 3.72356 15.6459 3.74242 16.4273C3.73291 17.5309 4.07451 18.6074 4.71502 19.4922C5.08056 20.0169 5.54498 20.4603 6.08057 20.7961C6.61617 21.1319 7.21195 21.3531 7.83239 21.4466C8.45282 21.5401 9.08518 21.5039 9.69174 21.3402ZM112.232 10.6982C110.88 9.50019 109.152 8.84879 107.369 8.86531C106.339 8.84394 105.316 9.05011 104.37 9.46994C103.423 9.88977 102.576 10.5135 101.883 11.2992C101.234 11.9782 100.723 12.7826 100.377 13.6661C100.032 14.5497 99.8592 15.4949 99.8699 16.4474C99.8467 17.5501 100.072 18.6435 100.527 19.6417C100.983 20.64 101.657 21.5161 102.496 22.2015C103.847 23.3999 105.576 24.0514 107.359 24.0344C108.39 24.0558 109.413 23.8497 110.36 23.4299C111.307 23.0101 112.156 22.3863 112.849 21.6005C113.498 20.9208 114.01 20.1155 114.356 19.2311C114.701 18.3467 114.874 17.4006 114.863 16.4474C114.885 15.3449 114.659 14.252 114.203 13.2545C113.746 12.257 113.072 11.382 112.232 10.6982ZM110.218 20.4938C109.722 20.8886 109.154 21.1765 108.547 21.3402C107.941 21.5039 107.308 21.54 106.688 21.4466C106.068 21.3531 105.472 21.1319 104.936 20.7961C104.401 20.4603 103.936 20.0168 103.571 19.4922C102.932 18.6063 102.591 17.5306 102.598 16.4273C102.584 15.6484 102.75 14.8772 103.083 14.1778C103.417 13.4784 103.907 12.871 104.514 12.4059C105.01 12.0111 105.579 11.7233 106.185 11.5596C106.792 11.3959 107.424 11.3597 108.044 11.4531C108.665 11.5466 109.261 11.7679 109.796 12.1036C110.332 12.4394 110.796 12.8829 111.162 13.4075C111.8 14.2934 112.142 15.3691 112.134 16.4724C112.148 17.2512 111.982 18.0223 111.648 18.7216C111.315 19.4209 110.825 20.0284 110.218 20.4938ZM48.1516 10.6982C46.8 9.50019 45.0718 8.84879 43.2886 8.86531C42.2585 8.84394 41.2359 9.05011 40.2896 9.46994C39.3434 9.88977 38.4955 10.5135 37.8031 11.2992C37.1544 11.9782 36.6425 12.7826 36.297 13.6661C35.9515 14.5497 35.7791 15.4949 35.7898 16.4474C35.7666 17.5501 35.9916 18.6435 36.4472 19.6417C36.9028 20.64 37.5766 21.5161 38.4158 22.2015C39.7671 23.3999 41.4956 24.0514 43.2788 24.0344C44.3097 24.0558 45.333 23.8497 46.28 23.4299C47.227 23.0101 48.0758 22.3863 48.7692 21.6005C49.4183 20.9208 49.9303 20.1155 50.2758 19.2311C50.6214 18.3467 50.7936 17.4006 50.7825 16.4474C50.8051 15.3449 50.5793 14.252 50.1228 13.2545C49.6664 12.257 48.9916 11.382 48.1516 10.6982ZM46.1577 20.4938C45.6616 20.8886 45.0933 21.1765 44.4867 21.3402C43.8801 21.5039 43.2478 21.54 42.6274 21.4466C42.0069 21.3531 41.4111 21.1319 40.8755 20.7961C40.3399 20.4603 39.8755 20.0168 39.51 19.4922C38.8714 18.6063 38.53 17.5306 38.5374 16.4273C38.5195 15.6455 38.6837 14.8706 39.0162 14.1675C39.3486 13.4644 39.8398 12.8535 40.4486 12.3859C40.9447 11.9911 41.513 11.7032 42.1196 11.5395C42.7262 11.3758 43.3585 11.3396 43.979 11.4331C44.5994 11.5266 45.1952 11.7478 45.7308 12.0836C46.2664 12.4194 46.7308 12.8628 47.0963 13.3875C47.7349 14.2734 48.0763 15.3491 48.0689 16.4524C48.0864 17.2341 47.9221 18.0089 47.5896 18.7119C47.2571 19.415 46.7662 20.0259 46.1577 20.4938Z" fill="#FF974F"/>
</svg>
