<?xml version="1.0" encoding="UTF-8"?>
<svg id="Layer_1" data-name="Layer 1" xmlns="http://www.w3.org/2000/svg" viewBox="0 0 1920 1077">
  <defs>
    <style>
      .cls-1 {
        fill: #fff;
      }
    </style>
  </defs>
  <path class="cls-1" d="M0,0V1077H1920V0H0ZM1891.96,122.04V1019.5c0,46-42.73,42.73-42.73,42.73h-192.16c-32.57,0-7.03-39.8-39.8-39.8h-250.77c-29,0-14.56,41.49-41.28,41.28-26.72-.21-1182.68,.21-1245.7,0-63.02-.21-52.02-47.82-52.02-47.82V124.5s0-39,44-39H824.48c47.02,0,23.2,80,71.11,80s154.46,.44,195.19-.28,26.93-78.41,78.32-78.06,652.55,0,687.97,0,34.88,34.88,34.88,34.88Z"/>
</svg>