<?xml version="1.0" encoding="UTF-8"?>
<svg id="Layer_1" data-name="Layer 1" xmlns="http://www.w3.org/2000/svg" viewBox="0 0 1920 1077">
  <defs>
    <style>
      .cls-1 {
        fill: #fff;
      }

      .cls-2 {
        fill: #b1d78f;
      }
    </style>
  </defs>
  <path class="cls-1" d="M0,0V1077H1920V0H0ZM1891.96,122.04V1019.5c0,46-42.73,42.73-42.73,42.73h-192.16c-32.57,0-7.03-39.8-39.8-39.8h-250.77c-29,0-14.56,41.49-41.28,41.28-26.72-.21-1182.68,.21-1245.7,0-63.02-.21-52.02-47.82-52.02-47.82V124.5s0-39,44-39H824.48c47.02,0,23.2,80,71.11,80s154.46,.44,195.19-.28,26.93-78.41,78.32-78.06,652.55,0,687.97,0,34.88,34.88,34.88,34.88Z"/>
  <polygon class="cls-2" points="1395 1060 1430 1060 1454 1031 1419 1030 1395 1060"/>
  <polygon class="cls-2" points="1438 1060 1473 1060 1497 1031 1462 1030 1438 1060"/>
  <polygon class="cls-2" points="1481 1060 1516 1060 1540 1031 1505 1030 1481 1060"/>
  <polygon class="cls-2" points="1524 1060 1559 1060 1583 1031 1548 1030 1524 1060"/>
  <polygon class="cls-2" points="1567 1060 1602 1060 1626 1031 1591 1030 1567 1060"/>
  <polygon class="cls-2" points="1351 1060 1386 1060 1410 1031 1375 1030 1351 1060"/>
</svg>