<svg width="21" height="21" viewBox="0 0 21 21" fill="none" xmlns="http://www.w3.org/2000/svg">
<path d="M16.625 0.875H4.375C3.2151 0.876389 2.10311 1.33777 1.28294 2.15794C0.462772 2.97811 0.00138938 4.0901 0 5.25L0 12.25C0.00138938 13.4099 0.462772 14.5219 1.28294 15.3421C2.10311 16.1622 3.2151 16.6236 4.375 16.625H9.625V18.375H6.125C5.89294 18.375 5.67038 18.4672 5.50628 18.6313C5.34219 18.7954 5.25 19.0179 5.25 19.25C5.25 19.4821 5.34219 19.7046 5.50628 19.8687C5.67038 20.0328 5.89294 20.125 6.125 20.125H14.875C15.1071 20.125 15.3296 20.0328 15.4937 19.8687C15.6578 19.7046 15.75 19.4821 15.75 19.25C15.75 19.0179 15.6578 18.7954 15.4937 18.6313C15.3296 18.4672 15.1071 18.375 14.875 18.375H11.375V16.625H16.625C17.7849 16.6236 18.8969 16.1622 19.7171 15.3421C20.5372 14.5219 20.9986 13.4099 21 12.25V5.25C20.9986 4.0901 20.5372 2.97811 19.7171 2.15794C18.8969 1.33777 17.7849 0.876389 16.625 0.875ZM4.375 2.625H16.625C17.3212 2.625 17.9889 2.90156 18.4812 3.39384C18.9734 3.88613 19.25 4.55381 19.25 5.25V11.375H1.75V5.25C1.75 4.55381 2.02656 3.88613 2.51884 3.39384C3.01113 2.90156 3.67881 2.625 4.375 2.625ZM16.625 14.875H4.375C3.83402 14.8728 3.30695 14.7034 2.86589 14.3902C2.42483 14.0769 2.09132 13.635 1.911 13.125H19.089C18.9087 13.635 18.5752 14.0769 18.1341 14.3902C17.6931 14.7034 17.166 14.8728 16.625 14.875Z" fill="black"/>
</svg>
