<svg width="34" height="34" viewBox="0 0 34 34" fill="none" xmlns="http://www.w3.org/2000/svg">
<path d="M32.2912 10.0088C31.9047 9.52079 31.4127 9.12671 30.8521 8.8561C30.2915 8.5855 29.6768 8.44542 29.0543 8.44637H4.14442C-5.06394 9.88561 3.26428 21.996 8.06497 24.141L5.60165 31.5351C5.54423 31.7077 5.52137 31.89 5.53438 32.0715C5.54739 32.253 5.59602 32.4301 5.6775 32.5928C5.75897 32.7555 5.87169 32.9005 6.00921 33.0197C6.14674 33.1388 6.30639 33.2297 6.47904 33.2871C6.65168 33.3445 6.83395 33.3674 7.01543 33.3544C7.19692 33.3413 7.37406 33.2927 7.53675 33.2112C7.69943 33.1298 7.84448 33.0171 7.96361 32.8795C8.08273 32.742 8.1736 32.5823 8.23103 32.4097L10.585 25.3298C12.0721 25.893 13.6307 26.2456 15.2155 26.3774V31.9724C15.2155 32.3394 15.3613 32.6914 15.6208 32.951C15.8804 33.2105 16.2323 33.3563 16.5994 33.3563C16.9664 33.3563 17.3184 33.2105 17.5779 32.951C17.8375 32.6914 17.9833 32.3394 17.9833 31.9724V26.3774C19.5676 26.2452 21.1258 25.8921 22.6123 25.3284L24.9733 32.4097C25.0307 32.5823 25.1216 32.742 25.2407 32.8795C25.3598 33.0171 25.5049 33.1298 25.6675 33.2112C25.8302 33.2927 26.0074 33.3413 26.1889 33.3544C26.3703 33.3674 26.5526 33.3445 26.7253 33.2871C26.8979 33.2297 27.0575 33.1388 27.1951 33.0197C27.3326 32.9005 27.4453 32.7555 27.5268 32.5928C27.6083 32.4301 27.6569 32.253 27.6699 32.0715C27.6829 31.89 27.6601 31.7077 27.6026 31.5351L25.1379 24.1382C29.0668 22.0776 35.4506 14.5355 32.2912 10.0088ZM30.3995 12.9357C26.9619 27.1288 6.22855 27.1288 2.79652 12.9357C2.74301 12.7309 2.73751 12.5166 2.78045 12.3094C2.82339 12.1022 2.9136 11.9077 3.04406 11.741C3.17452 11.5744 3.3417 11.4402 3.53256 11.3488C3.72343 11.2574 3.93282 11.2113 4.14442 11.2141H29.0543C29.2656 11.212 29.4745 11.2586 29.6649 11.3503C29.8553 11.4419 30.022 11.5762 30.1521 11.7427C30.2821 11.9092 30.3721 12.1034 30.415 12.3103C30.4579 12.5172 30.4526 12.7312 30.3995 12.9357ZM15.2155 4.29472V1.52695C15.2155 1.15992 15.3613 0.807925 15.6208 0.548397C15.8804 0.288868 16.2323 0.143066 16.5994 0.143066C16.9664 0.143066 17.3184 0.288868 17.5779 0.548397C17.8375 0.807925 17.9833 1.15992 17.9833 1.52695V4.29472C17.9833 4.66175 17.8375 5.01374 17.5779 5.27327C17.3184 5.5328 16.9664 5.6786 16.5994 5.6786C16.2323 5.6786 15.8804 5.5328 15.6208 5.27327C15.3613 5.01374 15.2155 4.66175 15.2155 4.29472ZM20.751 4.29472V1.52695C20.751 1.15992 20.8968 0.807925 21.1564 0.548397C21.4159 0.288868 21.7679 0.143066 22.1349 0.143066C22.5019 0.143066 22.8539 0.288868 23.1135 0.548397C23.373 0.807925 23.5188 1.15992 23.5188 1.52695V4.29472C23.5188 4.66175 23.373 5.01374 23.1135 5.27327C22.8539 5.5328 22.5019 5.6786 22.1349 5.6786C21.7679 5.6786 21.4159 5.5328 21.1564 5.27327C20.8968 5.01374 20.751 4.66175 20.751 4.29472ZM9.67996 4.29472V1.52695C9.67996 1.15992 9.82576 0.807925 10.0853 0.548397C10.3448 0.288868 10.6968 0.143066 11.0638 0.143066C11.4309 0.143066 11.7829 0.288868 12.0424 0.548397C12.3019 0.807925 12.4477 1.15992 12.4477 1.52695V4.29472C12.4477 4.66175 12.3019 5.01374 12.0424 5.27327C11.7829 5.5328 11.4309 5.6786 11.0638 5.6786C10.6968 5.6786 10.3448 5.5328 10.0853 5.27327C9.82576 5.01374 9.67996 4.66175 9.67996 4.29472Z" fill="black"/>
</svg>
