<svg width="24" height="25" viewBox="0 0 24 25" fill="none" xmlns="http://www.w3.org/2000/svg">
<path d="M9.15957 11.37C9.05957 11.36 8.93957 11.36 8.82957 11.37C6.44957 11.29 4.55957 9.34 4.55957 6.94C4.55957 4.49 6.53957 2.5 8.99957 2.5C11.4496 2.5 13.4396 4.49 13.4396 6.94C13.4296 9.34 11.5396 11.29 9.15957 11.37Z" stroke="#292D32" stroke-width="1.8" stroke-linecap="round" stroke-linejoin="round"/>
<path d="M16.4103 4.5C18.3503 4.5 19.9103 6.07 19.9103 8C19.9103 9.89 18.4103 11.43 16.5403 11.5C16.4603 11.49 16.3703 11.49 16.2803 11.5" stroke="#292D32" stroke-width="1.8" stroke-linecap="round" stroke-linejoin="round"/>
<path d="M4.15973 15.06C1.73973 16.68 1.73973 19.32 4.15973 20.93C6.90973 22.77 11.4197 22.77 14.1697 20.93C16.5897 19.31 16.5897 16.67 14.1697 15.06C11.4297 13.23 6.91973 13.23 4.15973 15.06Z" stroke="#292D32" stroke-width="1.8" stroke-linecap="round" stroke-linejoin="round"/>
<path d="M18.3398 20.5C19.0598 20.35 19.7398 20.06 20.2998 19.63C21.8598 18.46 21.8598 16.53 20.2998 15.36C19.7498 14.94 19.0798 14.66 18.3698 14.5" stroke="#292D32" stroke-width="1.8" stroke-linecap="round" stroke-linejoin="round"/>
</svg>
