<svg width="30" height="30" viewBox="0 0 30 30" fill="none" xmlns="http://www.w3.org/2000/svg">
<path d="M15 28.45C13.6375 28.45 12.2875 28.05 11.225 27.2625L5.85 23.25C4.425 22.1875 3.3125 19.9625 3.3125 18.2001V8.90005C3.3125 6.97505 4.725 4.92505 6.5375 4.25005L12.775 1.91255C14.0125 1.45005 15.9625 1.45005 17.2 1.91255L23.4375 4.25005C25.25 4.92505 26.6625 6.97505 26.6625 8.90005V18.1875C26.6625 19.9625 25.55 22.175 24.125 23.2375L18.75 27.25C17.7125 28.05 16.3625 28.45 15 28.45ZM13.4375 3.67505L7.2 6.01255C6.1375 6.41255 5.2 7.76255 5.2 8.91255V18.2001C5.2 19.3876 6.0375 21.05 6.975 21.75L12.35 25.7625C13.7875 26.8375 16.2125 26.8375 17.6625 25.7625L23.0375 21.75C23.9875 21.0375 24.8125 19.3876 24.8125 18.2001V8.90005C24.8125 7.76255 23.875 6.41255 22.8125 6.00005L16.575 3.66255C15.725 3.36255 14.275 3.36255 13.4375 3.67505Z" fill="#292D32"/>
<path d="M13.3248 17.7874C13.0873 17.7874 12.8498 17.6999 12.6623 17.5124L10.6498 15.4999C10.2873 15.1374 10.2873 14.5374 10.6498 14.1749C11.0123 13.8124 11.6123 13.8124 11.9748 14.1749L13.3248 15.5249L18.0373 10.8124C18.3998 10.4499 18.9998 10.4499 19.3623 10.8124C19.7248 11.1749 19.7248 11.7749 19.3623 12.1374L13.9873 17.5124C13.7998 17.6999 13.5623 17.7874 13.3248 17.7874Z" fill="#292D32"/>
</svg>
