<svg width="156" height="23" viewBox="0 0 156 23" fill="none" xmlns="http://www.w3.org/2000/svg">
<path d="M23.4734 11.5C23.4734 5.14872 18.2187 0 11.7367 0C5.25468 0 0 5.14872 0 11.5C0 17.2399 4.29191 21.9976 9.90282 22.8603V14.8242H6.92281V11.5H9.90282V8.96641C9.90282 6.08422 11.6551 4.49219 14.3359 4.49219C15.6196 4.49219 16.9632 4.7168 16.9632 4.7168V7.54688H15.4832C14.0253 7.54688 13.5705 8.43341 13.5705 9.34375V11.5H16.8256L16.3053 14.8242H13.5705V22.8603C19.1814 21.9976 23.4734 17.2399 23.4734 11.5Z" fill="#2F2F2F"/>
<path d="M52.8641 20.8438C61.7198 20.8438 66.5648 13.6531 66.5648 7.41933C66.5648 7.21718 66.5603 7.01054 66.5511 6.80839C67.4936 6.14053 68.307 5.31329 68.953 4.36554C68.0752 4.7482 67.1432 4.99812 66.1889 5.10675C67.1937 4.51658 67.9461 3.58945 68.3065 2.49724C67.3612 3.04616 66.3275 3.43338 65.2495 3.64229C64.5232 2.88612 63.5629 2.38544 62.5171 2.21767C61.4712 2.0499 60.3981 2.22438 59.4636 2.71413C58.5291 3.20389 57.7853 3.98163 57.3472 4.92713C56.9091 5.87263 56.801 6.93321 57.0398 7.94491C55.1257 7.8508 53.2532 7.36359 51.5436 6.51489C49.834 5.66618 48.3255 4.47492 47.1159 3.01833C46.5011 4.0569 46.313 5.28587 46.5897 6.45546C46.8665 7.62506 47.5874 8.64751 48.6059 9.31503C47.8413 9.29124 47.0934 9.08953 46.4241 8.72655V8.78495C46.4234 9.87485 46.8079 10.9314 47.5123 11.7749C48.2167 12.6184 49.1975 13.1968 50.288 13.4119C49.5797 13.6018 48.8363 13.6295 48.1153 13.4928C48.423 14.4301 49.0217 15.2499 49.8278 15.8378C50.6339 16.4257 51.6073 16.7523 52.6119 16.7721C50.9063 18.0849 48.7993 18.7969 46.6304 18.7935C46.2457 18.793 45.8615 18.7699 45.4796 18.7244C47.683 20.1095 50.2462 20.8451 52.8641 20.8438Z" fill="#2F2F2F"/>
<path d="M102.696 2.0709C105.832 2.0709 106.203 2.08437 107.436 2.13828C108.583 2.1877 109.202 2.37637 109.614 2.53359C110.16 2.74023 110.554 2.9918 110.962 3.3916C111.375 3.7959 111.627 4.17773 111.838 4.7123C111.998 5.1166 112.191 5.72754 112.241 6.84609C112.296 8.05898 112.31 8.42285 112.31 11.491C112.31 14.5637 112.296 14.9275 112.241 16.1359C112.191 17.259 111.998 17.8654 111.838 18.2697C111.627 18.8043 111.37 19.1906 110.962 19.5904C110.549 19.9947 110.16 20.2418 109.614 20.4484C109.202 20.6057 108.578 20.7943 107.436 20.8438C106.199 20.8977 105.827 20.9111 102.696 20.9111C99.56 20.9111 99.1887 20.8977 97.9554 20.8438C96.8092 20.7943 96.1903 20.6057 95.7777 20.4484C95.2321 20.2418 94.8379 19.9902 94.4298 19.5904C94.0172 19.1861 93.765 18.8043 93.5542 18.2697C93.3937 17.8654 93.2011 17.2545 93.1507 16.1359C93.0957 14.923 93.0819 14.5592 93.0819 11.491C93.0819 8.41836 93.0957 8.05449 93.1507 6.84609C93.2011 5.72305 93.3937 5.1166 93.5542 4.7123C93.765 4.17773 94.0218 3.79141 94.4298 3.3916C94.8424 2.9873 95.2321 2.74023 95.7777 2.53359C96.1903 2.37637 96.8138 2.1877 97.9554 2.13828C99.1887 2.08437 99.56 2.0709 102.696 2.0709ZM102.696 0C99.5096 0 99.1107 0.0134766 97.8591 0.0673828C96.6121 0.121289 95.7548 0.318945 95.0121 0.601953C94.2373 0.898437 93.5817 1.28926 92.9306 1.93164C92.275 2.56953 91.8762 3.21191 91.5736 3.9666C91.2848 4.69883 91.083 5.53437 91.028 6.75625C90.973 7.98711 90.9593 8.37793 90.9593 11.5C90.9593 14.6221 90.973 15.0129 91.028 16.2393C91.083 17.4611 91.2848 18.3012 91.5736 19.0289C91.8762 19.7881 92.275 20.4305 92.9306 21.0684C93.5817 21.7062 94.2373 22.1016 95.0075 22.3936C95.7548 22.6766 96.6075 22.8742 97.8545 22.9281C99.1062 22.982 99.505 22.9955 102.691 22.9955C105.878 22.9955 106.277 22.982 107.528 22.9281C108.775 22.8742 109.632 22.6766 110.375 22.3936C111.145 22.1016 111.801 21.7062 112.452 21.0684C113.103 20.4305 113.507 19.7881 113.805 19.0334C114.093 18.3012 114.295 17.4656 114.35 16.2437C114.405 15.0174 114.419 14.6266 114.419 11.5045C114.419 8.38242 114.405 7.9916 114.35 6.76523C114.295 5.54336 114.093 4.70332 113.805 3.97559C113.516 3.21191 113.117 2.56953 112.461 1.93164C111.81 1.29375 111.155 0.898438 110.384 0.606445C109.637 0.323437 108.784 0.125781 107.537 0.071875C106.281 0.0134766 105.882 0 102.696 0Z" fill="#2F2F2F"/>
<path d="M102.696 5.59277C99.3675 5.59277 96.6671 8.23867 96.6671 11.5C96.6671 14.7613 99.3675 17.4072 102.696 17.4072C106.024 17.4072 108.725 14.7613 108.725 11.5C108.725 8.23867 106.024 5.59277 102.696 5.59277ZM102.696 15.3318C100.537 15.3318 98.7852 13.6158 98.7852 11.5C98.7852 9.38418 100.537 7.66816 102.696 7.66816C104.855 7.66816 106.607 9.38418 106.607 11.5C106.607 13.6158 104.855 15.3318 102.696 15.3318Z" fill="#2F2F2F"/>
<path d="M110.371 5.35914C110.371 6.12281 109.738 6.73824 108.963 6.73824C108.184 6.73824 107.556 6.11832 107.556 5.35914C107.556 4.59547 108.188 3.98003 108.963 3.98003C109.738 3.98003 110.371 4.59996 110.371 5.35914Z" fill="#2F2F2F"/>
<path d="M150.692 0H146.736V15.6666C146.736 17.5333 145.214 19.0667 143.321 19.0667C141.427 19.0667 139.906 17.5333 139.906 15.6666C139.906 13.8334 141.393 12.3333 143.219 12.2667V8.33335C139.196 8.39998 135.95 11.6333 135.95 15.6666C135.95 19.7334 139.263 23 143.355 23C147.446 23 150.759 19.7 150.759 15.6666V7.63332C152.247 8.70001 154.073 9.33334 156 9.36669V5.43333C153.025 5.33334 150.692 2.93333 150.692 0Z" fill="#2F2F2F"/>
</svg>
