<svg width="52" height="39" viewBox="0 0 52 39" fill="none" xmlns="http://www.w3.org/2000/svg">
<path fill-rule="evenodd" clip-rule="evenodd" d="M1.45067 10.4945C1.28043 10.6949 1.11017 10.8954 0.93457 11.0898H0.935886V11.8768C1.71886 13.3164 2.72422 13.4625 3.91513 12.34C11.1908 5.48667 19.8154 2.49032 29.7637 3.48647C36.7012 4.17996 42.7374 6.98418 47.9063 11.6544C48.0578 11.7916 48.2051 11.9337 48.3523 12.0756L48.3524 12.0757C48.5989 12.3134 48.8451 12.5508 49.1104 12.765C49.638 13.1914 50.2447 13.2177 50.8303 12.9006C51.4251 12.5782 51.7567 12.0255 51.5935 11.3741C51.4803 10.9214 51.1961 10.449 50.8566 10.1226C44.4954 4.00231 36.9039 0.617768 28.0767 0.190095C18.3587 -0.28232 9.85913 2.80877 2.59526 9.2673C2.17913 9.63679 1.81496 10.0656 1.45067 10.4945ZM25.4385 38.8162L25.4395 38.8165C25.5399 38.8421 25.6404 38.8677 25.7409 38.8938H25.7422H26.7923C26.8444 38.8793 26.8961 38.8633 26.9478 38.8475L26.9478 38.8474L26.9479 38.8474L26.948 38.8474C27.0593 38.8131 27.1703 38.779 27.2845 38.7583C30.0558 38.2477 31.9547 35.7567 31.777 32.8604C31.6099 30.1311 29.2952 27.9388 26.4278 27.7954C23.7183 27.6598 21.2694 29.6916 20.793 32.4708C20.3312 35.158 22.0721 37.8766 24.7395 38.632C24.9718 38.6972 25.2048 38.7566 25.438 38.8161L25.4385 38.8162ZM26.3067 30.9404C27.6187 30.9681 28.6504 32.0419 28.6372 33.3644V33.3657C28.6241 34.6684 27.5161 35.7449 26.2265 35.708C24.9066 35.6698 23.8789 34.6013 23.896 33.2828C23.9118 31.9774 25.0079 30.9128 26.3067 30.9404ZM45.0562 17.7286L45.0561 17.7299C45.0164 17.671 44.9714 17.5928 44.92 17.5034C44.7809 17.2618 44.5948 16.9382 44.3364 16.6904C36.4869 9.1528 25.2463 7.25261 15.2967 11.7873C12.5885 13.0216 10.1856 14.7178 8.06043 16.8036C7.56432 17.2904 7.36957 17.8576 7.62486 18.53C7.8683 19.1683 8.36572 19.592 9.0171 19.517C9.5132 19.4591 10.0672 19.1919 10.433 18.8459C18.4509 11.2504 30.4482 10.3503 39.4806 16.7246C40.1903 17.2258 40.8463 17.8032 41.5023 18.3806L41.5023 18.3806L41.5025 18.3807C41.7989 18.6416 42.0953 18.9025 42.3967 19.1564C42.9283 19.6051 43.5178 19.7499 44.1587 19.438C44.7374 19.1565 45.0414 18.6765 45.0561 17.7299L45.0562 17.73V17.7286ZM37.8052 23.1804C34.5746 20.1393 30.7203 18.6431 25.7356 18.5431H25.7343C25.5582 18.567 25.342 18.5909 25.0971 18.618C24.4231 18.6927 23.5315 18.7914 22.659 18.9787C19.5311 19.6498 16.8255 21.1355 14.5358 23.3752C14.0279 23.8726 13.8831 24.4608 14.1161 25.1109C14.3345 25.7188 14.8148 26.0544 15.4557 26.1149C16.0768 26.1741 16.5216 25.8307 16.9492 25.4293C21.8339 20.8565 29.2544 20.4867 34.5615 24.5529C34.8237 24.7538 35.0714 24.9735 35.3193 25.1932C35.5454 25.3937 35.7717 25.5942 36.009 25.7807C36.5893 26.236 37.3236 26.2333 37.8934 25.8149C38.4382 25.4148 38.7014 24.7003 38.4461 24.0687C38.3132 23.7384 38.0684 23.4278 37.8052 23.1804Z" fill="black"/>
</svg>
